<svg xmlns="http://www.w3.org/2000/svg" xmlns:xlink="http://www.w3.org/1999/xlink" width="500" zoomAndPan="magnify" viewBox="0 0 375 374.999991" height="500" preserveAspectRatio="xMidYMid meet" version="1.0"><path fill="#eaefd3" d="M 117.71875 76.710938 C 71.976562 108.800781 58.308594 89.457031 35.34375 113.117188 C 0.00390625 149.523438 2.921875 238.269531 30.453125 291.925781 C 64.175781 357.640625 156.050781 381.707031 237.453125 363.753906 C 324.144531 344.632812 366.625 279.832031 371.046875 194.28125 C 375 117.886719 333.941406 33.210938 269.523438 12.453125 C 262.539062 10.203125 215.480469 0.0507812 177.214844 17.753906 C 145.582031 32.386719 153.976562 51.265625 117.71875 76.710938 " fill-opacity="1" fill-rule="nonzero"/><path fill="#7daa7b" d="M 310.289062 56.25 L 108.207031 56.25 C 101.832031 56.25 96.414062 61.34375 96.105469 67.625 L 82.917969 337.144531 C 82.609375 343.425781 87.527344 348.515625 93.902344 348.515625 L 295.988281 348.515625 C 302.367188 348.515625 307.78125 343.425781 308.089844 337.144531 L 321.277344 67.625 C 321.589844 61.34375 316.667969 56.25 310.289062 56.25 " fill-opacity="1" fill-rule="nonzero"/><path fill="#7daa7b" d="M 302.648438 56.25 L 100.558594 56.25 C 94.183594 56.25 88.769531 61.34375 88.460938 67.625 L 75.269531 337.144531 C 74.964844 343.425781 79.882812 348.515625 86.257812 348.515625 L 288.34375 348.515625 C 294.71875 348.515625 300.136719 343.425781 300.441406 337.144531 L 313.632812 67.625 C 313.941406 61.34375 309.023438 56.25 302.648438 56.25 " fill-opacity="1" fill-rule="nonzero"/><path fill="#7daa7b" d="M 100.5625 56.90625 C 94.539062 56.90625 89.40625 61.726562 89.117188 67.65625 L 75.925781 337.175781 C 75.789062 340.003906 76.765625 342.664062 78.675781 344.675781 C 80.632812 346.730469 83.324219 347.859375 86.257812 347.859375 L 288.34375 347.859375 C 294.363281 347.859375 299.5 343.039062 299.789062 337.113281 L 312.980469 67.589844 C 313.121094 64.765625 312.140625 62.101562 310.230469 60.09375 C 308.277344 58.035156 305.582031 56.90625 302.648438 56.90625 Z M 288.34375 349.175781 L 86.257812 349.175781 C 82.960938 349.175781 79.933594 347.898438 77.726562 345.578125 C 75.566406 343.308594 74.460938 340.300781 74.617188 337.113281 L 87.804688 67.589844 C 88.128906 60.976562 93.851562 55.59375 100.5625 55.59375 L 302.648438 55.59375 C 305.945312 55.59375 308.972656 56.871094 311.179688 59.1875 C 313.339844 61.460938 314.445312 64.46875 314.289062 67.65625 L 301.097656 337.175781 C 300.773438 343.792969 295.054688 349.175781 288.34375 349.175781 " fill-opacity="1" fill-rule="nonzero"/><path fill="#eaefd3" d="M 106.082031 319.347656 L 282.546875 319.347656 L 294.40625 74.296875 L 117.9375 74.296875 L 106.082031 319.347656 " fill-opacity="1" fill-rule="nonzero"/><path fill="#ffffff" d="M 140.054688 116.480469 L 268.203125 116.480469 L 268.742188 105.382812 L 140.59375 105.382812 L 140.054688 116.480469 " fill-opacity="1" fill-rule="nonzero"/><path fill="#ffffff" d="M 129.265625 186.476562 L 191.417969 186.476562 L 194.378906 125.246094 L 132.230469 125.246094 L 129.265625 186.476562 " fill-opacity="1" fill-rule="nonzero"/><path fill="#ffffff" d="M 204.792969 133.285156 L 278.429688 133.285156 L 278.816406 125.25 L 205.183594 125.25 L 204.792969 133.285156 " fill-opacity="1" fill-rule="nonzero"/><path fill="#ffffff" d="M 204.171875 146.152344 L 277.808594 146.152344 L 278.195312 138.121094 L 204.5625 138.121094 L 204.171875 146.152344 " fill-opacity="1" fill-rule="nonzero"/><path fill="#ffffff" d="M 203.546875 159.027344 L 277.183594 159.027344 L 277.574219 150.992188 L 203.9375 150.992188 L 203.546875 159.027344 " fill-opacity="1" fill-rule="nonzero"/><path fill="#ffffff" d="M 202.558594 172.585938 L 276.191406 172.585938 L 276.578125 164.550781 L 202.941406 164.550781 L 202.558594 172.585938 " fill-opacity="1" fill-rule="nonzero"/><path fill="#ffffff" d="M 201.164062 186.722656 L 274.800781 186.722656 L 275.1875 178.6875 L 201.554688 178.6875 L 201.164062 186.722656 " fill-opacity="1" fill-rule="nonzero"/><path fill="#7daa7b" d="M 165.460938 164.386719 L 165.433594 165.023438 L 165.386719 166.148438 L 166.414062 166.144531 L 177.851562 166.117188 L 179.8125 166.113281 L 179.894531 166.109375 C 181.109375 166.097656 182.300781 165.832031 183.429688 165.339844 C 183.453125 165.328125 183.480469 165.316406 183.503906 165.304688 L 177.476562 176.742188 C 176.402344 178.773438 174.429688 180.050781 172.328125 180.078125 L 166.050781 180.089844 L 165.070312 180.09375 L 164.984375 181.167969 L 164.855469 182.6875 L 160.429688 173.476562 L 165.460938 164.386719 " fill-opacity="1" fill-rule="nonzero"/><path fill="#7daa7b" d="M 183.050781 145.746094 L 187.132812 154.878906 C 187.691406 156.125 187.621094 157.609375 186.949219 158.851562 L 183.429688 165.339844 C 182.300781 165.832031 181.109375 166.097656 179.894531 166.109375 L 179.8125 166.113281 L 177.851562 166.117188 L 172.078125 153.707031 C 171.996094 153.535156 172.054688 153.382812 172.097656 153.308594 C 172.140625 153.234375 172.242188 153.109375 172.425781 153.105469 L 178.84375 153.09375 L 179.484375 153.089844 L 179.792969 152.457031 L 183.050781 145.746094 " fill-opacity="1" fill-rule="nonzero"/><path fill="#7daa7b" d="M 144.523438 166.261719 L 157.480469 166.476562 C 157.664062 166.480469 157.753906 166.605469 157.789062 166.683594 C 157.824219 166.757812 157.871094 166.90625 157.769531 167.085938 L 154.308594 173.179688 L 153.964844 173.785156 L 154.296875 174.367188 L 157.855469 180.539062 L 148.410156 180.21875 C 147.117188 180.175781 145.976562 179.425781 145.359375 178.21875 L 142.121094 171.90625 C 142.34375 170.582031 142.792969 169.300781 143.464844 168.121094 L 144.523438 166.261719 " fill-opacity="1" fill-rule="nonzero"/><path fill="#7daa7b" d="M 171.074219 129.671875 C 173.132812 129.648438 175.003906 130.847656 175.953125 132.800781 L 178.824219 138.699219 L 179.277344 139.628906 L 180.167969 139.128906 L 181.425781 138.425781 L 176.160156 147.609375 L 166.648438 147.757812 L 167.164062 147.4375 L 168.074219 146.875 L 167.601562 145.902344 L 162.332031 135.070312 L 161.429688 133.210938 C 160.855469 132.035156 160.09375 130.367188 159.167969 129.550781 C 159.148438 129.53125 170.925781 129.675781 170.925781 129.675781 C 170.972656 129.675781 171.023438 129.671875 171.074219 129.671875 " fill-opacity="1" fill-rule="nonzero"/><path fill="#7daa7b" d="M 159.234375 129.546875 C 160.164062 130.382812 160.707031 131.515625 161.28125 132.710938 L 162.210938 134.855469 L 155.148438 147.253906 C 155.046875 147.429688 154.902344 147.453125 154.824219 147.457031 C 154.742188 147.457031 154.597656 147.433594 154.507812 147.25 L 151.554688 141.050781 L 151.261719 140.433594 L 150.617188 140.484375 L 143.804688 141.042969 L 149.171875 132.050781 C 149.90625 130.824219 151.714844 129.671875 153.007812 129.636719 L 159.234375 129.546875 " fill-opacity="1" fill-rule="nonzero"/><path fill="#7daa7b" d="M 138.421875 146.335938 L 148.117188 146.359375 L 152.601562 155.300781 L 152.105469 154.984375 L 151.242188 154.425781 L 150.691406 155.398438 L 144.523438 166.261719 L 143.464844 168.121094 C 142.792969 169.300781 142.34375 170.582031 142.121094 171.90625 C 142.117188 171.933594 142.109375 171.964844 142.105469 171.992188 L 136.304688 161.027344 C 135.265625 159.058594 135.328125 156.585938 136.472656 154.570312 L 139.832031 148.652344 L 140.359375 147.722656 L 139.558594 147.148438 L 138.421875 146.335938 " fill-opacity="1" fill-rule="nonzero"/><path fill="#ffffff" d="M 277.945312 211.90625 L 143.832031 211.90625 L 144.207031 204.332031 L 278.320312 204.332031 L 277.945312 211.90625 " fill-opacity="1" fill-rule="nonzero"/><path fill="#ffffff" d="M 242.171875 226.816406 L 143.085938 226.816406 L 143.464844 219.242188 L 242.550781 219.242188 L 242.171875 226.816406 " fill-opacity="1" fill-rule="nonzero"/><path fill="#ffffff" d="M 275.933594 252.25 L 141.820312 252.25 L 142.199219 244.675781 L 276.3125 244.675781 L 275.933594 252.25 " fill-opacity="1" fill-rule="nonzero"/><path fill="#ffffff" d="M 240.164062 267.15625 L 141.082031 267.15625 L 141.457031 259.585938 L 240.542969 259.585938 L 240.164062 267.15625 " fill-opacity="1" fill-rule="nonzero"/><path fill="#7daa7b" d="M 132.824219 216.226562 L 121.53125 216.226562 C 120.320312 216.226562 119.390625 215.265625 119.449219 214.078125 L 119.933594 204.351562 C 119.992188 203.164062 121.019531 202.203125 122.230469 202.203125 L 133.519531 202.203125 C 134.730469 202.203125 135.664062 203.164062 135.605469 204.351562 L 135.121094 214.078125 C 135.0625 215.265625 134.03125 216.226562 132.824219 216.226562 " fill-opacity="1" fill-rule="nonzero"/><path fill="#7daa7b" d="M 130.824219 256.414062 L 119.53125 256.414062 C 118.320312 256.414062 117.386719 255.453125 117.449219 254.265625 L 117.933594 244.539062 C 117.992188 243.351562 119.019531 242.390625 120.230469 242.390625 L 131.519531 242.390625 C 132.730469 242.390625 133.664062 243.351562 133.605469 244.539062 L 133.121094 254.265625 C 133.0625 255.453125 132.03125 256.414062 130.824219 256.414062 " fill-opacity="1" fill-rule="nonzero"/><path fill="#7daa7b" d="M 126.679688 214.828125 C 126.671875 214.828125 126.664062 214.828125 126.65625 214.828125 C 126.277344 214.816406 125.933594 214.617188 125.742188 214.289062 L 120.402344 205.25 C 120.09375 204.726562 120.265625 204.058594 120.785156 203.75 C 121.304688 203.441406 121.976562 203.613281 122.28125 204.132812 L 126.730469 211.664062 L 134.15625 200.324219 C 134.484375 199.816406 135.164062 199.675781 135.667969 200.007812 C 136.171875 200.339844 136.3125 201.015625 135.980469 201.523438 L 127.59375 214.332031 C 127.394531 214.640625 127.050781 214.828125 126.679688 214.828125 " fill-opacity="1" fill-rule="nonzero"/><path fill="#ffffff" d="M 274.449219 294.949219 L 140.335938 294.949219 L 140.714844 287.375 L 274.828125 287.375 L 274.449219 294.949219 " fill-opacity="1" fill-rule="nonzero"/><path fill="#ffffff" d="M 238.683594 309.859375 L 139.597656 309.859375 L 139.972656 302.28125 L 239.058594 302.28125 L 238.683594 309.859375 " fill-opacity="1" fill-rule="nonzero"/><path fill="#ffffff" d="M 129.339844 299.113281 L 118.046875 299.113281 C 116.835938 299.113281 115.90625 298.152344 115.964844 296.96875 L 116.449219 287.238281 C 116.507812 286.050781 117.535156 285.089844 118.746094 285.089844 L 130.035156 285.089844 C 131.246094 285.089844 132.179688 286.050781 132.121094 287.238281 L 131.636719 296.96875 C 131.578125 298.152344 130.546875 299.113281 129.339844 299.113281 " fill-opacity="1" fill-rule="nonzero"/><path fill="#7daa7b" d="M 143.136719 88.546875 L 259.179688 88.546875 C 263.476562 88.546875 267.125 85.113281 267.328125 80.882812 L 268.019531 66.578125 C 268.484375 56.941406 260.933594 49.128906 251.152344 49.128906 L 154.976562 49.128906 C 145.195312 49.128906 136.890625 56.941406 136.421875 66.578125 L 135.730469 80.882812 C 135.527344 85.113281 138.839844 88.546875 143.136719 88.546875 " fill-opacity="1" fill-rule="nonzero"/><path fill="#7daa7b" d="M 197.539062 23.957031 C 197.714844 20.285156 200.878906 17.308594 204.605469 17.308594 C 208.332031 17.308594 211.210938 20.285156 211.03125 23.957031 C 210.855469 27.628906 207.691406 30.601562 203.964844 30.601562 C 200.234375 30.601562 197.359375 27.628906 197.539062 23.957031 Z M 182.363281 28.703125 L 180.75 62.03125 C 180.566406 65.789062 183.511719 68.832031 187.328125 68.832031 L 216.898438 68.832031 C 220.714844 68.832031 223.953125 65.789062 224.136719 62.03125 L 225.746094 28.703125 C 226.316406 16.902344 217.070312 7.332031 205.089844 7.332031 C 193.109375 7.332031 182.933594 16.902344 182.363281 28.703125 " fill-opacity="1" fill-rule="nonzero"/><path fill="#7daa7b" d="M 140.097656 88.546875 L 256.140625 88.546875 C 260.433594 88.546875 264.082031 85.113281 264.289062 80.882812 L 264.980469 66.578125 C 265.445312 56.941406 257.894531 49.128906 248.113281 49.128906 L 151.9375 49.128906 C 142.15625 49.128906 133.851562 56.941406 133.382812 66.578125 L 132.691406 80.882812 C 132.488281 85.113281 135.800781 88.546875 140.097656 88.546875 " fill-opacity="1" fill-rule="nonzero"/><path fill="#7daa7b" d="M 151.9375 49.785156 C 142.519531 49.785156 134.488281 57.328125 134.039062 66.605469 L 133.347656 80.914062 C 133.257812 82.757812 133.894531 84.496094 135.144531 85.808594 C 136.421875 87.148438 138.179688 87.886719 140.097656 87.886719 L 256.144531 87.886719 C 260.085938 87.886719 263.449219 84.730469 263.636719 80.851562 L 264.328125 66.542969 C 264.542969 62.109375 263.007812 57.933594 260.003906 54.78125 C 256.9375 51.558594 252.714844 49.785156 248.113281 49.785156 Z M 256.144531 89.199219 L 140.097656 89.199219 C 137.816406 89.199219 135.722656 88.316406 134.195312 86.710938 C 132.695312 85.140625 131.929688 83.058594 132.039062 80.851562 L 132.730469 66.542969 C 133.210938 56.578125 141.828125 48.46875 151.9375 48.46875 L 248.113281 48.46875 C 253.078125 48.46875 257.636719 50.390625 260.953125 53.875 C 264.203125 57.292969 265.867188 61.8125 265.636719 66.605469 L 264.941406 80.914062 C 264.726562 85.484375 260.773438 89.199219 256.144531 89.199219 " fill-opacity="1" fill-rule="nonzero"/><path fill="#7daa7b" d="M 194.496094 23.957031 C 194.675781 20.285156 197.839844 17.308594 201.566406 17.308594 C 205.292969 17.308594 208.171875 20.285156 207.996094 23.957031 C 207.816406 27.628906 204.652344 30.601562 200.921875 30.601562 C 197.195312 30.601562 194.320312 27.628906 194.496094 23.957031 Z M 179.324219 28.703125 L 177.710938 62.03125 C 177.53125 65.789062 180.476562 68.832031 184.289062 68.832031 L 213.859375 68.832031 C 217.671875 68.832031 220.914062 65.789062 221.09375 62.03125 L 222.707031 28.703125 C 223.277344 16.902344 214.03125 7.332031 202.050781 7.332031 C 190.070312 7.332031 179.894531 16.902344 179.324219 28.703125 " fill-opacity="1" fill-rule="nonzero"/><path fill="#7daa7b" d="M 201.566406 17.964844 C 198.191406 17.964844 195.3125 20.667969 195.148438 23.988281 C 195.074219 25.566406 195.621094 27.050781 196.6875 28.171875 C 197.777344 29.320312 199.28125 29.949219 200.925781 29.949219 C 204.300781 29.949219 207.175781 27.246094 207.339844 23.925781 C 207.414062 22.351562 206.867188 20.863281 205.804688 19.742188 C 204.710938 18.597656 203.207031 17.964844 201.566406 17.964844 Z M 200.925781 31.261719 C 198.921875 31.261719 197.078125 30.484375 195.738281 29.074219 C 194.421875 27.695312 193.75 25.863281 193.839844 23.925781 C 194.035156 19.914062 197.5 16.652344 201.566406 16.652344 C 203.570312 16.652344 205.410156 17.429688 206.753906 18.835938 C 208.066406 20.222656 208.742188 22.050781 208.648438 23.988281 C 208.453125 28 204.988281 31.261719 200.925781 31.261719 Z M 179.324219 28.703125 L 179.976562 28.738281 L 178.363281 62.0625 C 178.289062 63.679688 178.847656 65.203125 179.941406 66.355469 C 181.0625 67.53125 182.605469 68.179688 184.289062 68.179688 L 213.859375 68.179688 C 217.324219 68.179688 220.277344 65.40625 220.4375 62 L 222.054688 28.671875 C 222.316406 23.207031 220.421875 18.050781 216.71875 14.15625 C 212.929688 10.183594 207.722656 7.992188 202.050781 7.992188 C 190.433594 7.992188 180.53125 17.296875 179.976562 28.738281 Z M 213.859375 69.492188 L 184.289062 69.492188 C 182.242188 69.492188 180.363281 68.699219 178.992188 67.261719 C 177.648438 65.847656 176.960938 63.976562 177.054688 62 L 178.667969 28.671875 C 179.253906 16.546875 189.742188 6.679688 202.050781 6.679688 C 208.082031 6.679688 213.632812 9.011719 217.664062 13.253906 C 221.621094 17.40625 223.644531 22.90625 223.359375 28.738281 L 221.75 62.0625 C 221.550781 66.160156 218.011719 69.492188 213.859375 69.492188 " fill-opacity="1" fill-rule="nonzero"/><path fill="#7daa7b" d="M 257.75 17.929688 C 260.058594 17.011719 262.671875 18.148438 263.585938 20.464844 C 264.5 22.78125 263.363281 25.398438 261.058594 26.3125 C 258.75 27.230469 256.132812 26.09375 255.21875 23.777344 C 254.308594 21.460938 255.4375 18.84375 257.75 17.929688 " fill-opacity="1" fill-rule="nonzero"/><path fill="#545454" d="M 282.429688 29.945312 C 282.429688 29.945312 282.429688 29.945312 282.425781 29.945312 C 282.0625 29.941406 281.773438 29.644531 281.777344 29.28125 L 281.8125 25.882812 C 281.816406 25.523438 282.109375 25.230469 282.46875 25.230469 C 282.472656 25.230469 282.472656 25.230469 282.472656 25.230469 C 282.839844 25.238281 283.128906 25.535156 283.125 25.894531 L 283.085938 29.296875 C 283.082031 29.65625 282.789062 29.945312 282.429688 29.945312 " fill-opacity="1" fill-rule="nonzero"/><path fill="#545454" d="M 282.34375 37.863281 C 282.34375 37.863281 282.339844 37.863281 282.335938 37.863281 C 281.976562 37.859375 281.683594 37.5625 281.6875 37.203125 L 281.726562 33.800781 C 281.730469 33.441406 282.023438 33.152344 282.382812 33.152344 C 282.382812 33.152344 282.386719 33.152344 282.390625 33.152344 C 282.75 33.15625 283.039062 33.453125 283.035156 33.816406 L 283 37.214844 C 282.996094 37.574219 282.707031 37.863281 282.34375 37.863281 " fill-opacity="1" fill-rule="nonzero"/><path fill="#545454" d="M 280.15625 32.179688 C 280.152344 32.179688 280.148438 32.179688 280.144531 32.179688 L 276.753906 32.140625 C 276.394531 32.136719 276.101562 31.839844 276.109375 31.480469 C 276.109375 31.117188 276.402344 30.832031 276.761719 30.832031 C 276.765625 30.832031 276.769531 30.832031 276.769531 30.832031 L 280.160156 30.867188 C 280.523438 30.871094 280.8125 31.167969 280.808594 31.53125 C 280.804688 31.890625 280.511719 32.179688 280.15625 32.179688 " fill-opacity="1" fill-rule="nonzero"/><path fill="#545454" d="M 288.050781 32.265625 C 288.046875 32.265625 288.046875 32.265625 288.042969 32.265625 L 284.652344 32.230469 C 284.289062 32.226562 284 31.925781 284.003906 31.566406 C 284.007812 31.207031 284.300781 30.917969 284.660156 30.917969 C 284.660156 30.917969 284.664062 30.917969 284.667969 30.917969 L 288.058594 30.953125 C 288.421875 30.957031 288.710938 31.253906 288.707031 31.617188 C 288.703125 31.976562 288.410156 32.265625 288.050781 32.265625 " fill-opacity="1" fill-rule="nonzero"/><path fill="#545454" d="M 332.808594 363.332031 L 221.253906 363.246094 C 216.445312 363.246094 213.027344 359.4375 213.636719 354.632812 L 241.109375 137.046875 C 241.714844 132.242188 246.101562 128.347656 250.910156 128.347656 L 356.878906 127.105469 C 369.039062 127.105469 370.691406 132.242188 370.085938 137.046875 L 342.613281 354.632812 C 342.007812 359.4375 337.617188 363.332031 332.808594 363.332031 " fill-opacity="1" fill-rule="nonzero"/><path fill="#ffffff" d="M 326.09375 363.332031 L 214.527344 363.332031 C 209.722656 363.332031 206.3125 359.425781 206.921875 354.605469 L 234.394531 136.328125 C 235 131.507812 239.390625 127.601562 244.195312 127.601562 L 355.761719 127.601562 C 360.570312 127.601562 363.976562 131.507812 363.371094 136.328125 L 335.898438 354.605469 C 335.289062 359.425781 330.902344 363.332031 326.09375 363.332031 " fill-opacity="1" fill-rule="nonzero"/><path fill="#eaefd3" d="M 298.585938 138.699219 C 296.78125 138.699219 295.507812 137.234375 295.734375 135.429688 C 295.960938 133.625 297.605469 132.160156 299.40625 132.160156 C 301.207031 132.160156 302.484375 133.625 302.257812 135.429688 C 302.03125 137.234375 300.382812 138.699219 298.585938 138.699219 " fill-opacity="1" fill-rule="nonzero"/><path fill="#7daa7b" d="M 213.277344 354.90625 L 239.507812 146.488281 C 239.652344 145.375 240.664062 144.472656 241.773438 144.472656 L 353.9375 144.472656 C 355.050781 144.472656 355.835938 145.375 355.699219 146.488281 L 329.464844 354.90625 C 329.324219 356.019531 328.3125 356.917969 327.203125 356.917969 L 215.035156 356.917969 C 213.925781 356.917969 213.140625 356.019531 213.277344 354.90625 " fill-opacity="1" fill-rule="nonzero"/><path fill="#545454" d="M 326.097656 363.988281 L 233.863281 363.988281 C 233.5 363.988281 233.207031 363.695312 233.207031 363.332031 C 233.207031 362.96875 233.5 362.675781 233.863281 362.675781 L 326.097656 362.675781 C 330.578125 362.675781 334.683594 359.019531 335.25 354.523438 L 362.722656 136.246094 C 362.992188 134.085938 362.40625 132.066406 361.082031 130.558594 C 359.769531 129.074219 357.882812 128.253906 355.765625 128.253906 L 244.195312 128.253906 C 239.714844 128.253906 235.613281 131.910156 235.046875 136.410156 L 221.308594 245.546875 C 221.261719 245.90625 220.9375 246.164062 220.578125 246.117188 C 220.21875 246.070312 219.960938 245.742188 220.007812 245.382812 L 233.742188 136.246094 C 234.390625 131.117188 239.082031 126.941406 244.195312 126.941406 L 355.765625 126.941406 C 358.265625 126.941406 360.503906 127.917969 362.0625 129.691406 C 363.644531 131.484375 364.339844 133.871094 364.023438 136.410156 L 336.550781 354.6875 C 335.90625 359.8125 331.214844 363.988281 326.097656 363.988281 " fill-opacity="1" fill-rule="nonzero"/><path fill="#545454" d="M 275.652344 221.390625 L 265.550781 164.265625 L 280.097656 216.527344 L 286.964844 205.996094 L 284.136719 216.933594 L 325.351562 204.78125 L 286.964844 221.796875 L 329.390625 227.0625 L 286.558594 227.871094 L 310.207031 312.355469 L 279.304688 238.761719 L 256.035156 266.1875 L 277.269531 229.898438 L 240.902344 223.011719 L 275.652344 221.390625 " fill-opacity="1" fill-rule="nonzero"/><path fill="#545454" d="M 254.15625 357.632812 C 253.792969 357.632812 253.5 357.339844 253.5 356.980469 C 253.5 356.617188 253.792969 356.324219 254.15625 356.324219 L 327.199219 356.261719 C 327.976562 356.261719 328.71875 355.605469 328.8125 354.824219 L 355.046875 146.40625 C 355.089844 146.050781 354.996094 145.726562 354.789062 145.488281 C 354.585938 145.257812 354.28125 145.125 353.9375 145.125 L 241.773438 145.125 C 240.996094 145.125 240.257812 145.789062 240.160156 146.570312 L 227.207031 249.484375 C 227.164062 249.84375 226.835938 250.101562 226.476562 250.054688 C 226.117188 250.007812 225.859375 249.679688 225.90625 249.320312 L 238.859375 146.40625 C 239.042969 144.953125 240.320312 143.816406 241.773438 143.816406 L 353.9375 143.816406 C 354.664062 143.816406 355.3125 144.101562 355.769531 144.621094 C 356.234375 145.144531 356.4375 145.835938 356.347656 146.570312 L 330.117188 354.988281 C 329.933594 356.4375 328.652344 357.578125 327.203125 357.578125 L 254.15625 357.632812 " fill-opacity="1" fill-rule="nonzero"/><path fill="#7daa7b" d="M 240.089844 315.253906 C 240.089844 349.679688 221.035156 361.757812 206.910156 365.980469 L 183.382812 365.980469 L 183.382812 360.519531 C 183.609375 360.671875 183.839844 360.816406 184.082031 360.960938 C 198.824219 354.839844 209.675781 338.953125 209.675781 312.261719 C 209.675781 281.917969 200.730469 258.683594 183.382812 252.839844 L 183.382812 247.65625 L 209.648438 247.65625 C 244.207031 256.757812 240.089844 315.253906 240.089844 315.253906 " fill-opacity="1" fill-rule="nonzero"/><path fill="#eaefd3" d="M 209.648438 247.710938 C 206.734375 246.941406 203.542969 246.578125 200.050781 246.578125 L 174.398438 246.578125 C 171.511719 246.578125 164.101562 247.457031 155.6875 249.199219 C 148.347656 250.71875 140.996094 253.035156 134.152344 256.03125 L 131.292969 257.277344 C 129.097656 258.238281 127.660156 260.367188 127.660156 262.722656 L 178.734375 260.816406 L 178.734375 255.359375 C 178.734375 255.359375 178.570312 253.960938 183.324219 252.824219 C 183.335938 252.824219 183.359375 252.820312 183.371094 252.816406 C 185.261719 252.367188 187.929688 251.964844 191.683594 251.703125 C 194.363281 251.519531 197.597656 251.40625 201.5 251.40625 C 224.75 251.40625 236.800781 277.046875 236.800781 312.261719 C 236.800781 347.476562 217.910156 363.878906 196.117188 363.878906 C 192.953125 363.878906 190.277344 363.453125 188.007812 362.726562 C 186.53125 362.253906 185.230469 361.652344 184.078125 360.960938 C 183.839844 360.816406 183.609375 360.59375 183.382812 360.441406 C 174.835938 354.699219 175.457031 343.539062 175.457031 343.539062 L 127.804688 343.539062 C 127.804688 343.539062 127.484375 363.21875 173.507812 367.386719 C 178.980469 367.878906 185.113281 368.195312 191.980469 368.195312 C 191.980469 368.195312 198.589844 368.453125 206.910156 365.964844 C 221.035156 361.738281 240.089844 349.695312 240.089844 315.273438 C 240.089844 315.273438 244.207031 256.8125 209.648438 247.710938 " fill-opacity="1" fill-rule="nonzero"/><path fill="#545454" d="M 183.132812 252.207031 C 183.128906 252.207031 183.128906 252.207031 183.128906 252.207031 C 183.128906 252.207031 183.128906 252.207031 183.132812 252.207031 Z M 183.128906 252.207031 C 183.128906 252.207031 183.128906 252.207031 183.125 252.207031 C 183.128906 252.207031 183.128906 252.207031 183.128906 252.207031 Z M 179.386719 255.285156 C 179.386719 255.285156 179.386719 255.285156 179.386719 255.289062 C 179.386719 255.285156 179.386719 255.285156 179.386719 255.285156 Z M 179.386719 255.289062 Z M 128.519531 344.195312 C 128.726562 345.667969 129.667969 349.464844 133.960938 353.53125 C 139.078125 358.378906 150.105469 364.605469 173.566406 366.730469 C 179.496094 367.269531 185.691406 367.539062 191.980469 367.539062 C 192.070312 367.542969 198.613281 367.761719 206.71875 365.335938 C 221.644531 360.871094 239.433594 348.566406 239.433594 315.273438 C 239.433594 315.257812 239.433594 315.242188 239.4375 315.226562 C 239.445312 315.082031 240.421875 300.5 237.183594 285.011719 C 234.214844 270.832031 227.003906 252.957031 209.480469 248.34375 C 206.652344 247.597656 203.566406 247.234375 200.050781 247.234375 L 174.398438 247.234375 C 171.496094 247.234375 164 248.148438 155.820312 249.84375 C 148.5 251.359375 141.101562 253.707031 134.414062 256.632812 L 131.554688 257.878906 C 129.804688 258.644531 128.605469 260.234375 128.363281 262.039062 L 178.082031 260.183594 L 178.082031 255.386719 C 178.046875 254.863281 178.402344 253.328125 183.171875 252.1875 C 183.183594 252.183594 183.203125 252.179688 183.21875 252.175781 C 185.367188 251.667969 188.203125 251.289062 191.640625 251.050781 C 194.5 250.851562 197.820312 250.75 201.5 250.75 C 212.835938 250.75 222.152344 256.824219 228.441406 268.316406 C 234.339844 279.085938 237.457031 294.28125 237.457031 312.261719 C 237.457031 328.855469 233.191406 342.496094 225.125 351.707031 C 217.878906 359.980469 207.578125 364.535156 196.117188 364.535156 C 193.050781 364.535156 190.253906 364.136719 187.804688 363.351562 C 186.351562 362.886719 184.980469 362.273438 183.738281 361.523438 C 183.566406 361.421875 183.410156 361.292969 183.273438 361.183594 C 183.183594 361.113281 183.097656 361.042969 183.015625 360.984375 C 175.402344 355.871094 174.800781 346.785156 174.789062 344.195312 Z M 192.585938 368.863281 C 192.21875 368.863281 192 368.855469 191.953125 368.851562 C 191.949219 368.851562 191.941406 368.851562 191.9375 368.851562 C 185.636719 368.851562 179.410156 368.578125 173.445312 368.039062 C 154.207031 366.296875 140.582031 361.699219 132.941406 354.371094 C 127.128906 348.800781 127.144531 343.738281 127.148438 343.527344 C 127.15625 343.167969 127.445312 342.882812 127.804688 342.882812 L 175.460938 342.882812 C 175.640625 342.882812 175.8125 342.957031 175.933594 343.085938 C 176.058594 343.21875 176.125 343.394531 176.113281 343.574219 C 176.105469 343.683594 175.621094 354.4375 183.746094 359.898438 C 183.859375 359.976562 183.976562 360.066406 184.09375 360.160156 C 184.210938 360.25 184.320312 360.339844 184.417969 360.398438 C 185.570312 361.09375 186.84375 361.667969 188.207031 362.101562 C 190.527344 362.847656 193.1875 363.222656 196.117188 363.222656 C 214.582031 363.222656 236.144531 349.875 236.144531 312.261719 C 236.144531 294.503906 233.082031 279.523438 227.292969 268.945312 C 221.246094 257.902344 212.328125 252.0625 201.5 252.0625 C 197.851562 252.0625 194.5625 252.164062 191.730469 252.359375 C 188.363281 252.59375 185.601562 252.960938 183.519531 253.457031 C 183.496094 253.460938 183.472656 253.464844 183.453125 253.46875 C 179.917969 254.316406 179.433594 255.265625 179.390625 255.375 L 179.390625 260.816406 C 179.390625 261.167969 179.113281 261.457031 178.757812 261.46875 L 127.683594 263.378906 C 127.511719 263.386719 127.335938 263.316406 127.207031 263.195312 C 127.078125 263.070312 127.003906 262.898438 127.003906 262.722656 C 127.003906 260.121094 128.585938 257.75 131.03125 256.675781 L 133.890625 255.433594 C 140.753906 252.425781 148.042969 250.113281 155.554688 248.558594 C 163.910156 246.828125 171.359375 245.921875 174.398438 245.921875 L 200.050781 245.921875 C 203.679688 245.921875 206.875 246.300781 209.816406 247.074219 C 224.203125 250.867188 234.109375 263.898438 238.472656 284.769531 C 241.679688 300.132812 240.789062 314.609375 240.746094 315.296875 C 240.742188 330.773438 236.890625 343.246094 229.300781 352.363281 C 223.714844 359.066406 216.246094 363.855469 207.097656 366.59375 C 200.148438 368.667969 194.449219 368.863281 192.585938 368.863281 " fill-opacity="1" fill-rule="nonzero"/><path fill="#7daa7b" d="M 236.410156 279.03125 L 229.183594 285.765625 C 228.621094 286.292969 227.867188 286.625 227.089844 286.625 L 209.421875 286.625 C 208.078125 286.625 206.890625 285.71875 206.5 284.457031 L 204.859375 279.113281 L 203.429688 284.484375 C 202.964844 286.234375 202.90625 288.0625 203.261719 289.839844 L 205.804688 302.621094 C 206.496094 306.085938 209.597656 308.578125 213.203125 308.578125 L 222.882812 308.578125 C 226.238281 308.578125 229.1875 306.414062 230.121094 303.257812 L 233.148438 293.039062 C 233.148438 293.039062 233.148438 292.984375 238.460938 288.164062 C 241.015625 279.957031 236.410156 279.03125 236.410156 279.03125 " fill-opacity="1" fill-rule="nonzero"/><path fill="#545454" d="M 204.90625 281.492188 L 204.0625 284.652344 C 203.621094 286.320312 203.566406 288.023438 203.902344 289.710938 L 206.449219 302.492188 C 207.074219 305.636719 209.914062 307.921875 213.203125 307.921875 L 222.882812 307.921875 C 225.929688 307.921875 228.648438 305.925781 229.492188 303.074219 L 232.515625 292.855469 L 232.523438 292.855469 C 232.667969 292.535156 233.46875 291.804688 237.886719 287.800781 C 238.777344 284.851562 238.804688 282.523438 237.957031 281.0625 C 237.511719 280.289062 236.921875 279.933594 236.570312 279.777344 L 229.632812 286.246094 C 228.921875 286.902344 227.996094 287.277344 227.089844 287.277344 L 209.421875 287.277344 C 207.808594 287.277344 206.351562 286.199219 205.875 284.652344 Z M 222.882812 309.230469 L 213.203125 309.230469 C 209.292969 309.230469 205.910156 306.503906 205.164062 302.75 L 202.617188 289.96875 C 202.246094 288.109375 202.308594 286.152344 202.796875 284.316406 L 204.226562 278.945312 C 204.304688 278.660156 204.554688 278.460938 204.847656 278.457031 C 204.851562 278.457031 204.855469 278.457031 204.859375 278.457031 C 205.148438 278.457031 205.402344 278.644531 205.488281 278.917969 L 207.128906 284.265625 C 207.4375 285.265625 208.378906 285.96875 209.421875 285.96875 L 227.089844 285.96875 C 227.671875 285.96875 228.273438 285.71875 228.738281 285.285156 L 235.964844 278.554688 C 236.117188 278.410156 236.332031 278.347656 236.539062 278.390625 C 236.601562 278.402344 238.09375 278.71875 239.066406 280.359375 C 240.160156 282.203125 240.164062 284.894531 239.085938 288.359375 C 239.050781 288.472656 238.984375 288.574219 238.898438 288.652344 C 235.042969 292.148438 234.003906 293.121094 233.726562 293.386719 L 230.75 303.445312 C 229.742188 306.851562 226.507812 309.230469 222.882812 309.230469 " fill-opacity="1" fill-rule="nonzero"/><path fill="#7daa7b" d="M 126.527344 260.054688 L 184.703125 257.277344 C 189.066406 257.070312 192.644531 260.640625 192.644531 265.257812 L 192.644531 346.605469 C 192.644531 351.222656 189.078125 354.710938 184.714844 354.402344 L 126.523438 350.292969 C 122.796875 350.027344 119.78125 346.402344 119.78125 342.191406 L 119.78125 267.996094 C 119.78125 263.785156 122.796875 260.230469 126.527344 260.054688 " fill-opacity="1" fill-rule="nonzero"/><path fill="#545454" d="M 126.527344 260.054688 L 126.53125 260.054688 Z M 185.066406 257.925781 C 184.953125 257.925781 184.84375 257.929688 184.734375 257.933594 L 126.558594 260.707031 C 123.183594 260.867188 120.4375 264.140625 120.4375 267.996094 L 120.4375 342.191406 C 120.4375 346.058594 123.1875 349.398438 126.570312 349.636719 L 184.761719 353.75 C 186.617188 353.878906 188.382812 353.257812 189.730469 352 C 191.1875 350.644531 191.988281 348.730469 191.988281 346.605469 L 191.988281 265.257812 C 191.988281 263.132812 191.183594 261.195312 189.71875 259.800781 C 188.445312 258.582031 186.804688 257.925781 185.066406 257.925781 Z M 185.25 355.078125 C 185.054688 355.078125 184.863281 355.070312 184.667969 355.058594 L 126.476562 350.945312 C 122.425781 350.660156 119.125 346.734375 119.125 342.191406 L 119.125 267.996094 C 119.125 263.449219 122.429688 259.589844 126.496094 259.394531 L 184.671875 256.621094 C 186.890625 256.511719 189.007812 257.308594 190.625 258.851562 C 192.347656 260.496094 193.300781 262.769531 193.300781 265.257812 L 193.300781 346.605469 C 193.300781 349.097656 192.347656 351.355469 190.625 352.960938 C 189.148438 354.339844 187.257812 355.078125 185.25 355.078125 " fill-opacity="1" fill-rule="nonzero"/><path fill="#ffffff" d="M 183.925781 346.195312 C 183.925781 350.761719 180.539062 354.222656 176.265625 353.917969 L 119.453125 349.886719 C 115.792969 349.628906 112.929688 346.039062 112.929688 341.871094 L 112.929688 268.316406 C 112.929688 264.144531 115.832031 260.621094 119.488281 260.449219 L 176.265625 257.738281 C 180.542969 257.535156 183.925781 261.070312 183.925781 265.636719 L 183.925781 346.195312 " fill-opacity="1" fill-rule="nonzero"/><path fill="#545454" d="M 176.613281 258.386719 C 176.507812 258.386719 176.402344 258.386719 176.296875 258.394531 L 119.519531 261.105469 C 116.25 261.257812 113.585938 264.496094 113.585938 268.316406 L 113.585938 341.871094 C 113.585938 345.699219 116.238281 349.003906 119.5 349.234375 L 176.3125 353.261719 C 178.078125 353.390625 179.761719 352.800781 181.042969 351.609375 C 182.457031 350.285156 183.269531 348.3125 183.269531 346.195312 L 183.269531 265.636719 C 183.269531 263.515625 182.453125 261.519531 181.03125 260.160156 C 179.828125 259.007812 178.265625 258.386719 176.613281 258.386719 Z M 176.78125 354.59375 C 176.597656 354.59375 176.40625 354.585938 176.21875 354.574219 L 119.40625 350.542969 C 115.40625 350.261719 112.273438 346.449219 112.273438 341.871094 L 112.273438 268.316406 C 112.273438 263.804688 115.496094 259.980469 119.457031 259.792969 L 176.238281 257.082031 C 178.367188 256.980469 180.390625 257.734375 181.9375 259.210938 C 183.617188 260.816406 184.578125 263.15625 184.578125 265.636719 L 184.578125 346.195312 C 184.578125 348.675781 183.617188 351 181.933594 352.566406 C 180.523438 353.886719 178.707031 354.59375 176.78125 354.59375 " fill-opacity="1" fill-rule="nonzero"/><path fill="#eaefd3" d="M 116.726562 272.28125 C 116.726562 268.582031 119.347656 265.472656 122.605469 265.339844 L 172.976562 263.277344 C 176.714844 263.125 179.769531 266.25 179.769531 270.261719 L 179.769531 341.035156 C 179.769531 345.042969 176.714844 348.101562 172.976562 347.859375 L 122.605469 344.65625 C 119.347656 344.449219 116.726562 341.28125 116.726562 337.582031 L 116.726562 272.28125 " fill-opacity="1" fill-rule="nonzero"/><path fill="#545454" d="M 173.238281 263.925781 C 173.160156 263.925781 173.082031 263.929688 173.003906 263.933594 L 122.632812 265.996094 C 119.738281 266.117188 117.382812 268.933594 117.382812 272.28125 L 117.382812 337.582031 C 117.382812 340.9375 119.746094 343.816406 122.648438 344.003906 L 173.019531 347.207031 C 174.570312 347.304688 176.042969 346.773438 177.175781 345.710938 C 178.425781 344.535156 179.117188 342.871094 179.117188 341.035156 L 179.117188 270.261719 C 179.117188 268.441406 178.40625 266.714844 177.164062 265.527344 C 176.089844 264.492188 174.699219 263.925781 173.238281 263.925781 Z M 173.382812 348.53125 C 173.234375 348.53125 173.085938 348.523438 172.933594 348.515625 L 122.566406 345.3125 C 118.984375 345.085938 116.070312 341.617188 116.070312 337.582031 L 116.070312 272.28125 C 116.070312 268.238281 118.992188 264.832031 122.578125 264.683594 L 172.949219 262.621094 C 174.851562 262.542969 176.679688 263.238281 178.074219 264.578125 C 179.570312 266.015625 180.425781 268.085938 180.425781 270.261719 L 180.425781 341.035156 C 180.425781 343.207031 179.570312 345.261719 178.074219 346.667969 C 176.78125 347.878906 175.132812 348.53125 173.382812 348.53125 " fill-opacity="1" fill-rule="nonzero"/><path fill="#7daa7b" d="M 194.617188 323.222656 C 194.617188 325.011719 193.261719 326.414062 191.550781 326.351562 L 189.839844 326.285156 C 188.144531 326.222656 186.933594 324.738281 186.933594 322.964844 L 186.933594 292.421875 C 186.933594 290.648438 188.160156 289.199219 189.859375 289.183594 L 191.621094 289.167969 C 193.332031 289.152344 194.617188 290.589844 194.617188 292.378906 L 194.617188 323.222656 " fill-opacity="1" fill-rule="nonzero"/><path fill="#545454" d="M 188.492188 323.5625 C 188.128906 323.5625 187.835938 323.269531 187.835938 322.90625 L 187.835938 304.410156 C 187.835938 304.046875 188.128906 303.753906 188.492188 303.753906 C 188.855469 303.753906 189.148438 304.046875 189.148438 304.410156 L 189.148438 322.90625 C 189.148438 323.269531 188.855469 323.5625 188.492188 323.5625 " fill-opacity="1" fill-rule="nonzero"/><path fill="#545454" d="M 188.492188 300.1875 C 188.128906 300.1875 187.835938 299.894531 187.835938 299.53125 L 187.835938 292.820312 C 187.835938 292.460938 188.128906 292.167969 188.492188 292.167969 C 188.855469 292.167969 189.148438 292.460938 189.148438 292.820312 L 189.148438 299.53125 C 189.148438 299.894531 188.855469 300.1875 188.492188 300.1875 " fill-opacity="1" fill-rule="nonzero"/><path fill="#545454" d="M 168.425781 269.066406 L 167.964844 269.691406 L 156.472656 287.175781 L 148.171875 273.378906 L 154.476562 289.128906 L 159.242188 304.417969 L 157.484375 290.074219 L 165.027344 277.21875 L 172.828125 277.21875 L 165.53125 275.667969 L 168.425781 269.066406 " fill-opacity="1" fill-rule="nonzero"/><path fill="#545454" d="M 122.695312 305.976562 C 123.382812 306.199219 133.257812 326.890625 133.257812 326.890625 L 163.804688 338.136719 L 146.351562 333.640625 L 148.875 339.710938 L 144.511719 333.863281 L 132.339844 328.691406 L 126.828125 333.1875 L 130.503906 327.566406 L 122.695312 305.976562 " fill-opacity="1" fill-rule="nonzero"/><path fill="#ffffff" d="M 35.859375 340.199219 L 36.863281 349.796875 L 43.335938 350.554688 L 43.335938 339.179688 L 35.859375 340.199219 " fill-opacity="1" fill-rule="nonzero"/><path fill="#545454" d="M 37.460938 349.207031 L 42.679688 349.820312 L 42.679688 339.929688 L 36.578125 340.765625 Z M 43.335938 351.210938 C 43.308594 351.210938 43.285156 351.210938 43.257812 351.207031 L 36.789062 350.449219 C 36.484375 350.410156 36.246094 350.167969 36.214844 349.863281 L 35.207031 340.269531 C 35.171875 339.917969 35.421875 339.597656 35.773438 339.550781 L 43.246094 338.527344 C 43.4375 338.503906 43.625 338.558594 43.765625 338.683594 C 43.910156 338.808594 43.992188 338.988281 43.992188 339.179688 L 43.992188 350.554688 C 43.992188 350.742188 43.910156 350.921875 43.769531 351.046875 C 43.652344 351.15625 43.496094 351.210938 43.335938 351.210938 " fill-opacity="1" fill-rule="nonzero"/><path fill="#7daa7b" d="M 44.355469 367.257812 C 41.660156 367.640625 37.234375 367.976562 32.042969 367.253906 C 30.34375 367.019531 29.214844 365.363281 29.625 363.691406 C 30.769531 359.03125 32.738281 350.195312 36.117188 346.101562 L 36.957031 348.324219 L 38.117188 346.230469 C 38.277344 345.945312 38.5625 345.75 38.886719 345.710938 L 41.425781 345.386719 C 41.957031 345.320312 42.453125 345.671875 42.5625 346.199219 L 42.964844 348.125 L 43.851562 345.59375 L 46.804688 364.011719 C 47.011719 365.585938 45.921875 367.039062 44.355469 367.257812 " fill-opacity="1" fill-rule="nonzero"/><path fill="#545454" d="M 35.929688 347.457031 C 33.277344 351.433594 31.5625 358.488281 30.507812 362.839844 L 30.261719 363.847656 C 30.109375 364.472656 30.222656 365.109375 30.582031 365.640625 C 30.941406 366.164062 31.503906 366.515625 32.136719 366.605469 C 37.203125 367.308594 41.527344 366.996094 44.265625 366.609375 C 45.46875 366.441406 46.316406 365.3125 46.15625 364.097656 L 43.613281 348.257812 L 43.585938 348.339844 C 43.488281 348.621094 43.21875 348.800781 42.921875 348.78125 C 42.628906 348.761719 42.382812 348.546875 42.324219 348.261719 L 41.917969 346.332031 C 41.878906 346.144531 41.699219 346.015625 41.507812 346.039062 L 38.96875 346.363281 C 38.851562 346.375 38.75 346.449219 38.691406 346.550781 L 37.53125 348.640625 C 37.410156 348.867188 37.160156 348.996094 36.910156 348.976562 C 36.65625 348.960938 36.4375 348.792969 36.347656 348.558594 Z M 44.355469 367.257812 L 44.359375 367.257812 Z M 38.238281 368.335938 C 36.332031 368.335938 34.214844 368.21875 31.953125 367.902344 C 30.957031 367.765625 30.0625 367.210938 29.5 366.375 C 28.9375 365.546875 28.75 364.511719 28.988281 363.535156 L 29.234375 362.53125 C 30.40625 357.703125 32.367188 349.617188 35.613281 345.683594 C 35.761719 345.503906 35.992188 345.417969 36.226562 345.453125 C 36.457031 345.496094 36.648438 345.652344 36.730469 345.871094 L 37.070312 346.769531 L 37.546875 345.914062 C 37.804688 345.445312 38.277344 345.128906 38.804688 345.0625 L 41.34375 344.738281 C 42.09375 344.644531 42.8125 345.070312 43.101562 345.746094 L 43.230469 345.378906 C 43.332031 345.09375 43.617188 344.917969 43.910156 344.941406 C 44.207031 344.96875 44.449219 345.195312 44.5 345.492188 L 47.453125 363.90625 C 47.710938 365.851562 46.359375 367.640625 44.445312 367.910156 C 42.847656 368.136719 40.726562 368.335938 38.238281 368.335938 " fill-opacity="1" fill-rule="nonzero"/><path fill="#545454" d="M 36.855469 365.25 C 35.113281 365.25 33.222656 365.09375 31.34375 364.664062 C 30.988281 364.582031 30.769531 364.230469 30.847656 363.878906 C 30.929688 363.523438 31.28125 363.304688 31.632812 363.382812 C 37.910156 364.816406 44.472656 362.972656 44.535156 362.953125 C 44.882812 362.855469 45.246094 363.058594 45.347656 363.40625 C 45.449219 363.753906 45.246094 364.117188 44.898438 364.21875 C 44.695312 364.273438 41.226562 365.25 36.855469 365.25 " fill-opacity="1" fill-rule="nonzero"/><path fill="#545454" d="M 35.3125 358.117188 C 34.960938 358.117188 34.671875 357.832031 34.660156 357.480469 C 34.648438 357.117188 34.929688 356.8125 35.292969 356.800781 L 41.359375 356.601562 C 41.707031 356.589844 42.023438 356.871094 42.035156 357.234375 C 42.046875 357.597656 41.761719 357.902344 41.402344 357.914062 L 35.335938 358.113281 C 35.328125 358.113281 35.320312 358.117188 35.3125 358.117188 " fill-opacity="1" fill-rule="nonzero"/><path fill="#ffffff" d="M 66.167969 335.09375 L 67.140625 349.09375 L 74.925781 349.09375 L 75.289062 335.09375 L 66.167969 335.09375 " fill-opacity="1" fill-rule="nonzero"/><path fill="#545454" d="M 67.75 348.4375 L 74.285156 348.4375 L 74.613281 335.75 L 66.871094 335.75 Z M 74.925781 349.75 L 67.140625 349.75 C 66.792969 349.75 66.507812 349.484375 66.484375 349.140625 L 65.515625 335.136719 C 65.503906 334.957031 65.566406 334.777344 65.691406 334.644531 C 65.8125 334.511719 65.988281 334.433594 66.167969 334.433594 L 75.289062 334.433594 C 75.464844 334.433594 75.632812 334.507812 75.757812 334.632812 C 75.878906 334.761719 75.949219 334.929688 75.941406 335.109375 L 75.582031 349.109375 C 75.570312 349.46875 75.28125 349.75 74.925781 349.75 " fill-opacity="1" fill-rule="nonzero"/><path fill="#7daa7b" d="M 65.105469 357 C 65.085938 358.324219 65.988281 359.484375 67.273438 359.785156 C 71.75 360.832031 81.835938 363.15625 84.710938 363.585938 C 88.445312 364.144531 93.03125 362.996094 95.003906 360.808594 C 96.976562 358.617188 90.589844 353.390625 87.554688 351.488281 C 83.050781 348.664062 78.722656 343.078125 76.910156 342.828125 C 75.09375 342.574219 71.707031 347.855469 71.707031 347.855469 L 66.167969 345.523438 C 66.167969 345.523438 65.203125 350.28125 65.105469 357 " fill-opacity="1" fill-rule="nonzero"/><path fill="#545454" d="M 65.105469 357 L 65.109375 357 Z M 66.667969 346.445312 C 66.402344 348.0625 65.835938 352 65.761719 357.007812 C 65.746094 358.019531 66.445312 358.917969 67.425781 359.148438 C 71.695312 360.144531 81.9375 362.507812 84.808594 362.9375 C 88.402344 363.476562 92.757812 362.320312 94.519531 360.367188 C 94.625 360.246094 94.765625 360.039062 94.707031 359.628906 C 94.417969 357.570312 90.167969 353.902344 87.207031 352.042969 C 84.90625 350.601562 82.714844 348.519531 80.785156 346.683594 C 79.179688 345.152344 77.519531 343.574219 76.820312 343.480469 C 75.996094 343.363281 73.785156 345.832031 72.257812 348.210938 C 72.085938 348.476562 71.746094 348.585938 71.453125 348.460938 Z M 86.652344 364.378906 C 85.960938 364.382812 85.28125 364.335938 84.613281 364.234375 C 81.695312 363.796875 71.414062 361.425781 67.125 360.425781 C 65.550781 360.058594 64.425781 358.613281 64.449219 356.988281 C 64.546875 350.285156 65.488281 345.589844 65.527344 345.394531 C 65.566406 345.199219 65.6875 345.035156 65.863281 344.941406 C 66.035156 344.851562 66.242188 344.84375 66.425781 344.917969 L 71.457031 347.039062 C 72.5625 345.390625 75.144531 341.917969 77 342.179688 C 78.066406 342.328125 79.40625 343.5625 81.691406 345.730469 C 83.574219 347.527344 85.710938 349.558594 87.902344 350.933594 C 89.871094 352.167969 95.578125 356.375 96.007812 359.449219 C 96.101562 360.144531 95.925781 360.765625 95.492188 361.246094 C 93.773438 363.152344 90.15625 364.378906 86.652344 364.378906 " fill-opacity="1" fill-rule="nonzero"/><path fill="#545454" d="M 86.589844 361.800781 C 78.40625 361.800781 67.507812 357.390625 66.890625 357.136719 C 66.554688 357 66.394531 356.617188 66.53125 356.28125 C 66.667969 355.945312 67.050781 355.785156 67.386719 355.921875 C 67.585938 356 87.136719 363.925781 92.804688 358.792969 C 93.074219 358.546875 93.488281 358.566406 93.730469 358.835938 C 93.972656 359.105469 93.953125 359.523438 93.683594 359.765625 C 92.042969 361.25 89.484375 361.800781 86.589844 361.800781 " fill-opacity="1" fill-rule="nonzero"/><path fill="#545454" d="M 77.957031 353.332031 C 77.777344 353.332031 77.597656 353.257812 77.46875 353.113281 C 77.226562 352.847656 77.246094 352.429688 77.515625 352.1875 L 81.476562 348.605469 C 81.746094 348.367188 82.160156 348.382812 82.402344 348.65625 C 82.644531 348.921875 82.625 349.339844 82.355469 349.582031 L 78.394531 353.164062 C 78.269531 353.277344 78.113281 353.332031 77.957031 353.332031 " fill-opacity="1" fill-rule="nonzero"/><path fill="#545454" d="M 33.652344 243.8125 C 33.652344 243.8125 31.238281 287.582031 29.976562 302.691406 C 28.714844 317.804688 32.929688 342.09375 32.929688 342.09375 L 44.949219 341.460938 C 44.949219 341.460938 45.773438 311.925781 46.664062 303.726562 C 46.664062 303.726562 51.742188 292.609375 53.246094 282.691406 C 54.75 272.777344 59.875 257.117188 59.875 257.117188 C 59.875 257.117188 64.039062 335.289062 64.441406 341.429688 C 64.441406 341.429688 73.863281 341.851562 77.242188 339.71875 C 77.242188 339.71875 83.230469 311.214844 82.371094 295.703125 C 81.511719 280.199219 82.457031 241.667969 82.457031 241.667969 L 33.652344 243.8125 " fill-opacity="1" fill-rule="nonzero"/><path fill="#ffffff" d="M 44.453125 304.378906 L 40.777344 304.378906 C 40.414062 304.378906 40.121094 304.085938 40.121094 303.722656 C 40.121094 303.363281 40.414062 303.066406 40.777344 303.066406 L 44.453125 303.066406 C 44.8125 303.066406 45.109375 303.363281 45.109375 303.722656 C 45.109375 304.085938 44.8125 304.378906 44.453125 304.378906 " fill-opacity="1" fill-rule="nonzero"/><path fill="#ffffff" d="M 70.621094 327.113281 C 70.617188 327.113281 70.613281 327.113281 70.609375 327.113281 C 70.246094 327.109375 69.960938 326.808594 69.964844 326.445312 C 70.101562 319.144531 78.050781 306.125 78.386719 305.574219 C 78.578125 305.265625 78.984375 305.167969 79.289062 305.359375 C 79.597656 305.546875 79.695312 305.953125 79.503906 306.261719 C 79.425781 306.390625 71.40625 319.527344 71.277344 326.472656 C 71.269531 326.828125 70.976562 327.113281 70.621094 327.113281 " fill-opacity="1" fill-rule="nonzero"/><path fill="#ffffff" d="M 86.257812 173.804688 C 87.136719 173.734375 91.429688 182.554688 104.871094 182.183594 C 118.308594 181.8125 129.09375 166.734375 129.09375 166.734375 C 129.09375 166.734375 133.734375 158.890625 137.257812 156.050781 C 140.777344 153.214844 141.332031 152.839844 141.332031 152.839844 C 141.332031 152.839844 142.433594 154.316406 141.332031 156.050781 C 140.226562 157.789062 137.179688 161.035156 137.179688 161.035156 C 137.179688 161.035156 140.539062 162.886719 139.023438 166.734375 C 137.28125 171.164062 132.371094 170.808594 132.371094 170.808594 C 132.371094 170.808594 122.40625 215.042969 81.222656 194.023438 L 86.257812 173.804688 " fill-opacity="1" fill-rule="nonzero"/><path fill="#545454" d="M 81.984375 193.675781 C 93.890625 199.640625 104.257812 200.628906 112.8125 196.613281 C 127.265625 189.824219 131.6875 170.855469 131.730469 170.664062 C 131.800781 170.347656 132.089844 170.132812 132.417969 170.15625 C 132.59375 170.167969 136.871094 170.410156 138.414062 166.496094 C 139.699219 163.21875 136.976562 161.675781 136.863281 161.613281 C 136.683594 161.511719 136.5625 161.339844 136.53125 161.136719 C 136.5 160.9375 136.5625 160.734375 136.699219 160.585938 C 136.730469 160.554688 139.71875 157.363281 140.777344 155.699219 C 141.242188 154.96875 141.210938 154.304688 141.085938 153.847656 C 140.53125 154.277344 139.507812 155.082031 137.667969 156.5625 C 134.277344 159.292969 129.703125 166.992188 129.65625 167.070312 C 129.644531 167.085938 129.636719 167.101562 129.625 167.117188 C 129.175781 167.746094 118.496094 182.464844 104.886719 182.839844 C 93.9375 183.136719 88.933594 177.5625 86.804688 175.179688 C 86.75 175.117188 86.695312 175.058594 86.636719 174.996094 Z M 101.644531 200.347656 C 95.34375 200.347656 88.417969 198.429688 80.925781 194.609375 C 80.652344 194.46875 80.511719 194.160156 80.585938 193.863281 L 85.625 173.644531 C 85.691406 173.371094 85.925781 173.171875 86.207031 173.148438 C 86.707031 173.109375 87.046875 173.484375 87.78125 174.304688 C 89.789062 176.550781 94.5 181.8125 104.851562 181.527344 C 117.585938 181.179688 128.078125 167.015625 128.542969 166.375 C 128.890625 165.789062 133.339844 158.363281 136.84375 155.542969 C 140.347656 152.722656 140.941406 152.3125 140.964844 152.296875 C 141.253906 152.101562 141.644531 152.167969 141.855469 152.449219 C 141.914062 152.523438 143.214844 154.308594 141.886719 156.40625 C 141.027344 157.75 139.101562 159.910156 138.171875 160.925781 C 139.425781 161.957031 140.78125 164.054688 139.632812 166.976562 C 138.101562 170.871094 134.3125 171.40625 132.882812 171.464844 C 132.046875 174.605469 127.03125 191.382812 113.371094 197.800781 C 109.753906 199.5 105.839844 200.347656 101.644531 200.347656 " fill-opacity="1" fill-rule="nonzero"/><path fill="#7daa7b" d="M 19.648438 194.023438 C 19.648438 194.023438 23.679688 167.921875 37.929688 161.5 C 52.179688 155.082031 71.457031 155.972656 76.773438 159.179688 C 82.089844 162.386719 95.945312 176.886719 95.945312 176.886719 L 83.699219 194.023438 C 83.699219 194.023438 86.5 240.15625 84.285156 252.332031 C 84.285156 252.332031 70.667969 253.925781 64.890625 251.644531 C 59.113281 249.363281 40.117188 246.167969 31.039062 250.351562 L 32.6875 191.945312 L 19.648438 194.023438 " fill-opacity="1" fill-rule="nonzero"/><path fill="#545454" d="M 43.375 247.660156 C 52.039062 247.660156 61.382812 249.554688 65.128906 251.035156 C 70.082031 252.992188 81.257812 251.984375 83.722656 251.734375 C 85.746094 239.074219 83.074219 194.515625 83.046875 194.0625 C 83.035156 193.910156 83.082031 193.765625 83.167969 193.640625 L 95.09375 176.949219 C 92.84375 174.617188 81.128906 162.574219 76.433594 159.742188 C 71.476562 156.75 52.375 155.710938 38.199219 162.101562 C 25.902344 167.640625 21.320312 188.628906 20.453125 193.230469 L 32.585938 191.296875 C 32.78125 191.265625 32.976562 191.324219 33.121094 191.453125 C 33.269531 191.582031 33.351562 191.769531 33.34375 191.964844 L 31.722656 249.351562 C 34.921875 248.128906 39.066406 247.660156 43.375 247.660156 Z M 74.691406 253.535156 C 71.035156 253.535156 67.160156 253.246094 64.648438 252.253906 C 58.699219 249.90625 39.933594 246.976562 31.3125 250.945312 C 31.105469 251.042969 30.867188 251.023438 30.675781 250.898438 C 30.488281 250.773438 30.378906 250.558594 30.382812 250.332031 L 32.011719 192.71875 L 19.75 194.671875 C 19.542969 194.703125 19.332031 194.636719 19.183594 194.488281 C 19.035156 194.339844 18.96875 194.128906 19 193.921875 C 19.167969 192.84375 23.253906 167.398438 37.660156 160.902344 C 51.785156 154.539062 71.328125 155.128906 77.109375 158.617188 C 82.441406 161.832031 95.851562 175.839844 96.417969 176.433594 C 96.636719 176.660156 96.660156 177.011719 96.476562 177.269531 L 84.367188 194.214844 C 84.605469 198.160156 87.074219 240.648438 84.929688 252.449219 C 84.878906 252.734375 84.648438 252.949219 84.363281 252.984375 C 84.039062 253.023438 79.5625 253.535156 74.691406 253.535156 " fill-opacity="1" fill-rule="nonzero"/><path fill="#545454" d="M 43.554688 238.96875 C 43.242188 238.96875 42.964844 238.746094 42.910156 238.425781 C 42.847656 238.070312 43.085938 237.730469 43.441406 237.667969 C 64.921875 233.859375 71.199219 218.972656 71.261719 218.824219 C 71.398438 218.488281 71.78125 218.324219 72.117188 218.460938 C 72.449219 218.597656 72.613281 218.980469 72.476562 219.316406 C 72.414062 219.472656 65.898438 235.019531 43.667969 238.957031 C 43.628906 238.96875 43.59375 238.96875 43.554688 238.96875 " fill-opacity="1" fill-rule="nonzero"/><path fill="#545454" d="M 82.667969 212.265625 L 54.941406 212.265625 L 63.625 181.210938 L 91.355469 181.210938 L 82.667969 212.265625 " fill-opacity="1" fill-rule="nonzero"/><path fill="#ffffff" d="M 22.09375 194.125 L 36.125 187.832031 C 36.125 187.832031 34.148438 211.675781 62.542969 200.664062 C 62.542969 200.664062 61.496094 197.601562 61.644531 194.023438 C 61.789062 190.445312 63.925781 193.910156 64.222656 196.816406 C 64.523438 199.722656 71.1875 198.542969 75.195312 197.398438 C 79.199219 196.25 84.457031 197.003906 75.195312 202.125 C 65.929688 207.25 63.902344 204.964844 63.902344 204.964844 C 63.902344 204.964844 52.070312 221.5625 37.351562 218.03125 C 19.246094 213.695312 22.09375 194.125 22.09375 194.125 " fill-opacity="1" fill-rule="nonzero"/><path fill="#545454" d="M 22.699219 194.570312 C 22.578125 195.773438 22.300781 199.890625 23.574219 204.3125 C 25.570312 211.257812 30.257812 215.660156 37.503906 217.394531 C 38.847656 217.71875 40.171875 217.863281 41.464844 217.863281 C 53.730469 217.863281 63.261719 204.726562 63.367188 204.582031 C 63.484375 204.417969 63.667969 204.316406 63.867188 204.304688 C 64.074219 204.300781 64.257812 204.378906 64.390625 204.527344 C 64.398438 204.527344 66.472656 206.199219 74.878906 201.550781 C 79.726562 198.867188 79.699219 197.863281 79.695312 197.851562 C 79.496094 197.558594 77.644531 197.378906 75.375 198.027344 C 73.46875 198.574219 67.050781 200.226562 64.589844 198.5625 C 63.996094 198.15625 63.644531 197.578125 63.574219 196.882812 C 63.421875 195.414062 62.792969 193.96875 62.363281 193.386719 C 62.335938 193.535156 62.308594 193.75 62.296875 194.050781 C 62.15625 197.46875 63.152344 200.421875 63.160156 200.453125 C 63.273438 200.785156 63.105469 201.148438 62.777344 201.277344 C 52.984375 205.074219 45.621094 205.207031 40.894531 201.667969 C 35.957031 197.976562 35.4375 191.445312 35.4375 188.863281 Z M 41.558594 219.1875 C 40.144531 219.1875 38.6875 219.027344 37.199219 218.671875 C 18.726562 214.246094 21.414062 194.230469 21.445312 194.027344 C 21.476562 193.808594 21.621094 193.617188 21.824219 193.523438 L 35.859375 187.234375 C 36.070312 187.140625 36.316406 187.164062 36.503906 187.296875 C 36.695312 187.433594 36.796875 187.65625 36.78125 187.886719 C 36.773438 187.972656 36.148438 196.484375 41.6875 200.621094 C 45.9375 203.800781 52.683594 203.679688 61.738281 200.269531 C 61.433594 199.179688 60.875 196.746094 60.988281 193.996094 C 61.007812 193.472656 61.074219 191.875 62.191406 191.84375 C 62.199219 191.84375 62.210938 191.84375 62.21875 191.84375 C 63.632812 191.84375 64.699219 195.027344 64.875 196.75 C 64.910156 197.058594 65.050781 197.285156 65.328125 197.472656 C 66.808594 198.476562 71.257812 197.839844 75.015625 196.765625 C 76.761719 196.265625 80.246094 195.746094 80.914062 197.363281 C 81.457031 198.6875 79.792969 200.332031 75.511719 202.699219 C 68.378906 206.644531 65.289062 206.375 64.0625 205.84375 C 62.136719 208.367188 53.179688 219.1875 41.558594 219.1875 " fill-opacity="1" fill-rule="nonzero"/><path fill="#545454" d="M 59.550781 149.605469 C 58.335938 150.71875 55.96875 152.078125 54.113281 151.140625 C 52.730469 150.445312 51.960938 148.640625 52.007812 146.570312 C 51.371094 146.621094 50.53125 146.574219 49.933594 146.046875 C 49.011719 145.230469 49.183594 143.726562 49.222656 142.742188 C 49.386719 138.1875 46.75 137.488281 47.394531 134.398438 C 47.902344 131.96875 49.804688 130.523438 50.160156 130.25 C 51.957031 128.886719 53.175781 129.328125 56.195312 128.535156 C 61.277344 127.199219 61.4375 125.003906 64.789062 124.992188 C 64.980469 124.992188 69.539062 125.042969 71.085938 128.199219 C 72.34375 130.765625 70.875 133.886719 69.355469 135.527344 C 67.386719 137.648438 65.976562 136.597656 64 138.378906 C 60.535156 141.503906 63.152344 146.300781 59.550781 149.605469 " fill-opacity="1" fill-rule="nonzero"/><path fill="#ffffff" d="M 69.695312 141.480469 L 69.492188 141.308594 C 68.488281 140.4375 67.441406 139.429688 67.175781 138.125 C 66.039062 132.582031 60.972656 130.570312 60.738281 135.660156 C 60.679688 136.945312 56.003906 136.878906 56.558594 138.226562 C 58.003906 141.742188 58.039062 140.792969 55.992188 142.089844 C 55.761719 142.101562 55.53125 142.152344 55.316406 142.253906 C 54.269531 142.742188 53.898438 144.167969 54.488281 145.4375 C 54.847656 146.207031 55.476562 146.738281 56.152344 146.933594 L 56.152344 152.484375 C 56.152344 154.566406 54.894531 156.441406 52.972656 157.230469 L 51.101562 157.996094 C 51.101562 157.996094 59.824219 163.703125 68.675781 157.4375 L 67.496094 156.90625 C 65.414062 155.96875 64.046875 153.925781 63.976562 151.640625 L 63.96875 150.554688 C 64.5625 150.609375 65.140625 150.566406 65.671875 150.410156 C 68.148438 149.691406 68.96875 146.832031 68.550781 143.273438 L 69.558594 142.730469 C 70.027344 142.476562 70.097656 141.828125 69.695312 141.480469 " fill-opacity="1" fill-rule="nonzero"/><path fill="#545454" d="M 52.621094 158.082031 C 55.070312 159.273438 61.042969 161.371094 67.320312 157.546875 L 67.226562 157.503906 C 64.933594 156.472656 63.402344 154.179688 63.320312 151.664062 L 63.3125 150.558594 C 63.3125 150.375 63.386719 150.199219 63.523438 150.074219 C 63.660156 149.945312 63.84375 149.886719 64.027344 149.902344 C 64.5625 149.949219 65.054688 149.910156 65.488281 149.78125 C 68.253906 148.976562 68.09375 145.015625 67.898438 143.351562 C 67.867188 143.082031 68 142.824219 68.238281 142.695312 L 69.246094 142.152344 C 69.277344 142.136719 69.296875 142.109375 69.300781 142.070312 C 69.304688 142.03125 69.292969 142 69.265625 141.976562 L 69.066406 141.804688 C 68.003906 140.886719 66.84375 139.777344 66.53125 138.257812 C 65.859375 134.980469 63.8125 133.296875 62.671875 133.390625 C 61.609375 133.472656 61.425781 135.027344 61.394531 135.691406 C 61.34375 136.777344 60.019531 137.148438 58.738281 137.511719 C 58.246094 137.648438 57.457031 137.871094 57.199219 138.058594 C 57.390625 138.53125 57.558594 138.914062 57.699219 139.234375 C 58.375 140.800781 58.628906 141.386719 57.199219 142.152344 C 56.972656 142.273438 56.6875 142.425781 56.34375 142.644531 C 56.25 142.707031 56.136719 142.742188 56.023438 142.746094 C 55.867188 142.753906 55.722656 142.785156 55.59375 142.847656 C 54.875 143.183594 54.644531 144.222656 55.082031 145.160156 C 55.34375 145.722656 55.8125 146.152344 56.332031 146.300781 C 56.613281 146.378906 56.804688 146.640625 56.804688 146.933594 L 56.804688 152.484375 C 56.804688 154.84375 55.398438 156.945312 53.222656 157.835938 Z M 59.734375 161.011719 C 54.601562 161.011719 50.800781 158.582031 50.742188 158.546875 C 50.539062 158.414062 50.425781 158.175781 50.449219 157.933594 C 50.472656 157.691406 50.628906 157.480469 50.855469 157.386719 L 52.726562 156.621094 C 54.40625 155.929688 55.496094 154.308594 55.496094 152.484375 L 55.496094 147.378906 C 54.8125 147.050781 54.242188 146.464844 53.894531 145.714844 C 53.152344 144.117188 53.664062 142.300781 55.039062 141.65625 C 55.269531 141.546875 55.519531 141.480469 55.785156 141.449219 C 56.101562 141.253906 56.367188 141.113281 56.582031 140.996094 C 56.703125 140.929688 56.835938 140.863281 56.917969 140.808594 C 56.863281 140.601562 56.683594 140.191406 56.496094 139.757812 C 56.34375 139.410156 56.164062 138.988281 55.953125 138.476562 C 55.816406 138.152344 55.824219 137.824219 55.96875 137.527344 C 56.308594 136.828125 57.269531 136.5625 58.382812 136.25 C 58.917969 136.097656 59.902344 135.820312 60.085938 135.59375 C 60.242188 132.503906 62.023438 132.128906 62.566406 132.082031 C 64.488281 131.9375 67.03125 134.152344 67.816406 137.992188 C 68.042969 139.109375 69.023438 140.035156 69.921875 140.808594 L 70.121094 140.984375 C 70.476562 141.289062 70.65625 141.75 70.605469 142.210938 C 70.554688 142.679688 70.277344 143.085938 69.867188 143.308594 L 69.246094 143.644531 C 69.609375 147.617188 68.386719 150.304688 65.855469 151.042969 C 65.472656 151.152344 65.0625 151.21875 64.628906 151.230469 L 64.632812 151.632812 C 64.695312 153.640625 65.925781 155.480469 67.765625 156.308594 L 68.945312 156.835938 C 69.160156 156.933594 69.308594 157.136719 69.328125 157.375 C 69.351562 157.609375 69.246094 157.835938 69.054688 157.972656 C 65.8125 160.269531 62.570312 161.011719 59.734375 161.011719 " fill-opacity="1" fill-rule="nonzero"/><path fill="#545454" d="M 63.96875 151.210938 C 63.933594 151.210938 63.902344 151.210938 63.867188 151.203125 C 60.160156 150.632812 58.488281 147.785156 58.421875 147.664062 C 58.242188 147.351562 58.347656 146.949219 58.660156 146.769531 C 58.976562 146.589844 59.375 146.695312 59.554688 147.011719 C 59.617188 147.113281 61.003906 149.4375 64.066406 149.90625 C 64.425781 149.960938 64.671875 150.296875 64.617188 150.65625 C 64.566406 150.980469 64.285156 151.210938 63.96875 151.210938 " fill-opacity="1" fill-rule="nonzero"/></svg>