<svg xmlns="http://www.w3.org/2000/svg" xmlns:xlink="http://www.w3.org/1999/xlink" width="500" zoomAndPan="magnify" viewBox="0 0 375 374.999991" height="500" preserveAspectRatio="xMidYMid meet" version="1.0"><path fill="#34abe0" d="M 374.816406 187.683594 C 374.816406 291.132812 290.949219 375 187.5 375 C 84.046875 375 0.183594 291.132812 0.183594 187.683594 C 0.183594 84.226562 84.046875 0.363281 187.5 0.363281 C 290.949219 0.363281 374.816406 84.226562 374.816406 187.683594 Z M 374.816406 187.683594 " fill-opacity="1" fill-rule="nonzero"/><path fill="#72bbe8" d="M 343.570312 156.433594 C 343.570312 242.628906 273.695312 312.503906 187.5 312.503906 C 101.304688 312.503906 31.429688 242.628906 31.429688 156.433594 C 31.429688 70.242188 101.304688 0.363281 187.5 0.363281 C 273.695312 0.363281 343.570312 70.242188 343.570312 156.433594 Z M 343.570312 156.433594 " fill-opacity="1" fill-rule="nonzero"/><path fill="#e8e8e8" d="M 137.382812 59.324219 C 136.28125 59.480469 135.121094 59.214844 134.160156 58.492188 L 84.027344 20.703125 C 82.101562 19.261719 81.722656 16.53125 83.167969 14.613281 C 84.613281 12.699219 87.339844 12.3125 89.257812 13.761719 L 139.398438 51.542969 C 141.316406 52.992188 141.699219 55.722656 140.25 57.636719 C 139.527344 58.597656 138.484375 59.171875 137.382812 59.324219 Z M 137.382812 59.324219 " fill-opacity="1" fill-rule="nonzero"/><path fill="#e8e8e8" d="M 137.382812 59.324219 C 136.28125 59.480469 135.121094 59.214844 134.160156 58.492188 C 132.242188 57.046875 131.859375 54.320312 133.304688 52.40625 L 171.089844 2.265625 C 172.535156 0.347656 175.265625 -0.0351562 177.183594 1.40625 C 179.101562 2.855469 179.484375 5.582031 178.035156 7.5 L 140.25 57.636719 C 139.527344 58.597656 138.484375 59.171875 137.382812 59.324219 Z M 137.382812 59.324219 " fill-opacity="1" fill-rule="nonzero"/><path fill="#494b5b" d="M 160.265625 55.023438 C 160.265625 67.992188 149.75 78.507812 136.777344 78.507812 C 123.808594 78.507812 113.292969 67.992188 113.292969 55.023438 C 113.292969 42.050781 123.808594 31.535156 136.777344 31.535156 C 149.75 31.535156 160.265625 42.050781 160.265625 55.023438 Z M 160.265625 55.023438 " fill-opacity="1" fill-rule="nonzero"/><path fill="#ff525d" d="M 220.339844 34.496094 L 50.792969 58.3125 C 45.007812 59.125 40.976562 64.472656 41.789062 70.253906 L 59.601562 197.058594 C 60.414062 202.839844 65.761719 206.871094 71.546875 206.0625 L 241.097656 182.246094 C 246.878906 181.429688 250.910156 176.082031 250.097656 170.296875 L 232.289062 43.5 C 231.476562 37.714844 226.125 33.683594 220.339844 34.496094 Z M 220.339844 34.496094 " fill-opacity="1" fill-rule="nonzero"/><path fill="#ef4152" d="M 140.398438 181.78125 C 138.503906 182.046875 136.609375 182.296875 134.710938 182.535156 C 120.707031 184.277344 106.410156 185.257812 92.210938 185.425781 C 83.386719 185.519531 75.699219 179.988281 73.082031 171.660156 C 64.847656 145.511719 61.03125 118.359375 61.746094 90.964844 C 61.972656 82.222656 67.832031 74.785156 76.339844 72.460938 C 90.011719 68.714844 104.023438 65.703125 117.988281 63.519531 C 119.878906 63.226562 121.769531 62.945312 123.660156 62.679688 C 139.535156 60.453125 155.757812 59.226562 171.875 59.039062 C 180.695312 58.933594 188.378906 64.46875 191.003906 72.804688 C 199.238281 98.945312 203.050781 126.09375 202.339844 153.5 C 202.113281 162.230469 196.253906 169.667969 187.75 172 C 172.175781 176.261719 156.25 179.554688 140.398438 181.78125 Z M 140.398438 181.78125 " fill-opacity="1" fill-rule="nonzero"/><path fill="#5c5e70" d="M 196.25 153.34375 C 196.09375 159.367188 191.945312 164.535156 186.136719 166.132812 C 168.921875 170.84375 151.523438 174.296875 133.957031 176.492188 C 120.125 178.21875 106.175781 179.164062 92.136719 179.335938 C 86.109375 179.402344 80.695312 175.574219 78.886719 169.828125 C 70.816406 144.210938 67.132812 117.96875 67.832031 91.125 C 67.988281 85.09375 72.136719 79.921875 77.949219 78.332031 C 91.488281 74.621094 105.160156 71.691406 118.933594 69.539062 C 136.425781 66.8125 154.097656 65.335938 171.949219 65.132812 C 177.972656 65.058594 183.386719 68.878906 185.191406 74.636719 C 193.261719 100.25 196.949219 126.492188 196.25 153.34375 Z M 196.25 153.34375 " fill-opacity="1" fill-rule="nonzero"/><path fill="#494b5b" d="M 185.054688 154.917969 C 184.894531 160.941406 180.746094 166.105469 174.933594 167.707031 C 161.394531 171.40625 147.726562 174.339844 133.957031 176.492188 C 120.125 178.21875 106.175781 179.164062 92.136719 179.335938 C 86.109375 179.402344 80.695312 175.578125 78.886719 169.832031 C 70.816406 144.210938 67.132812 117.96875 67.832031 91.125 C 67.988281 85.09375 72.136719 79.921875 77.949219 78.332031 C 91.488281 74.621094 105.160156 71.691406 118.933594 69.539062 C 132.761719 67.816406 146.707031 66.863281 160.75 66.703125 C 166.773438 66.628906 172.1875 70.457031 173.996094 76.207031 C 182.066406 101.824219 185.75 128.0625 185.054688 154.917969 Z M 185.054688 154.917969 " fill-opacity="1" fill-rule="nonzero"/><path fill="#494b5b" d="M 230.550781 102.097656 C 230.550781 109.0625 224.902344 114.714844 217.9375 114.714844 C 210.96875 114.714844 205.320312 109.0625 205.320312 102.097656 C 205.320312 95.128906 210.96875 89.484375 217.9375 89.484375 C 224.902344 89.484375 230.550781 95.128906 230.550781 102.097656 Z M 230.550781 102.097656 " fill-opacity="1" fill-rule="nonzero"/><path fill="#494b5b" d="M 225.824219 68.5 C 225.824219 75.46875 220.175781 81.117188 213.210938 81.117188 C 206.246094 81.117188 200.597656 75.46875 200.597656 68.5 C 200.597656 61.535156 206.246094 55.890625 213.210938 55.890625 C 220.175781 55.890625 225.824219 61.535156 225.824219 68.5 Z M 225.824219 68.5 " fill-opacity="1" fill-rule="nonzero"/><path fill="#494b5b" d="M 267.800781 184.460938 L 218.398438 151.34375 C 212.226562 147.210938 210.582031 138.855469 214.714844 132.6875 L 276.582031 40.402344 C 280.714844 34.226562 289.066406 32.582031 295.238281 36.714844 L 344.640625 69.832031 C 350.808594 73.964844 352.457031 82.320312 348.324219 88.488281 L 286.457031 180.78125 C 282.324219 186.945312 273.96875 188.597656 267.800781 184.460938 Z M 267.800781 184.460938 " fill-opacity="1" fill-rule="nonzero"/><path fill="#5c5e70" d="M 286.578125 165.414062 L 228.878906 126.734375 L 276.445312 55.777344 L 334.140625 94.457031 Z M 286.578125 165.414062 " fill-opacity="1" fill-rule="nonzero"/><path fill="#5c5e70" d="M 259.222656 157.664062 C 259.222656 162.785156 255.078125 166.929688 249.957031 166.929688 C 244.839844 166.929688 240.691406 162.785156 240.691406 157.664062 C 240.691406 152.546875 244.839844 148.402344 249.957031 148.402344 C 255.078125 148.402344 259.222656 152.546875 259.222656 157.664062 Z M 259.222656 157.664062 " fill-opacity="1" fill-rule="nonzero"/><path fill="#5c5e70" d="M 319.035156 73.839844 L 301.253906 61.917969 C 298.976562 60.390625 298.367188 57.304688 299.898438 55.023438 C 301.421875 52.742188 304.507812 52.136719 306.789062 53.664062 L 324.570312 65.582031 C 326.855469 67.113281 327.460938 70.195312 325.933594 72.476562 C 324.402344 74.757812 321.320312 75.363281 319.035156 73.839844 Z M 319.035156 73.839844 " fill-opacity="1" fill-rule="nonzero"/><path fill="#41b787" d="M 346.023438 140.640625 L 345.183594 149.957031 L 343.296875 170.828125 L 330.855469 308.253906 C 296.496094 349.066406 245.027344 375 187.5 375 C 156.605469 375 127.453125 367.523438 101.765625 354.269531 C 79.621094 342.847656 60.046875 327.144531 44.144531 308.253906 L 29.8125 149.96875 L 28.96875 140.640625 Z M 346.023438 140.640625 " fill-opacity="1" fill-rule="nonzero"/><path fill="#4bc999" d="M 343.296875 170.828125 L 330.855469 308.253906 C 296.496094 349.066406 245.027344 375 187.5 375 C 156.605469 375 127.453125 367.523438 101.765625 354.269531 L 88.6875 209.746094 C 86.792969 188.84375 103.253906 170.828125 124.242188 170.828125 Z M 343.296875 170.828125 " fill-opacity="1" fill-rule="nonzero"/><path fill="#4bc999" d="M 359.878906 154.851562 L 15.117188 154.851562 C 11.035156 154.851562 7.726562 151.542969 7.726562 147.460938 L 7.726562 124.644531 C 7.726562 120.5625 11.035156 117.25 15.117188 117.25 L 359.878906 117.25 C 363.960938 117.25 367.273438 120.558594 367.273438 124.644531 L 367.273438 147.460938 C 367.273438 151.542969 363.960938 154.851562 359.878906 154.851562 Z M 359.878906 154.851562 " fill-opacity="1" fill-rule="nonzero"/><path fill="#ffffff" d="M 182.878906 320.511719 L 182.878906 352.785156 C 167.753906 352.785156 157.945312 352.699219 151.621094 350.878906 C 147.976562 349.828125 144.890625 347.390625 142.964844 344.121094 C 142.964844 344.121094 142.964844 344.121094 142.964844 344.117188 C 141.757812 340.78125 139.847656 333.101562 142.769531 327.335938 C 144.703125 323.515625 149.652344 323.40625 151.152344 320.511719 Z M 182.878906 320.511719 " fill-opacity="1" fill-rule="nonzero"/><path fill="#494b5b" d="M 156.335938 281.355469 L 172.433594 313.550781 L 158.730469 306.15625 C 158.730469 306.15625 156.203125 310.726562 151.148438 320.515625 C 149.652344 323.40625 147.9375 326.757812 146.007812 330.574219 C 143.082031 336.34375 141.757812 340.785156 142.960938 344.121094 L 125.976562 315.316406 C 124.289062 312.453125 124.171875 308.933594 125.671875 305.964844 L 132.699219 292.019531 L 120.007812 284.621094 Z M 156.335938 281.355469 " fill-opacity="1" fill-rule="nonzero"/><path fill="#ffffff" d="M 212.625 294.363281 L 240.566406 278.230469 C 248.128906 291.324219 252.960938 299.859375 254.546875 306.25 C 255.460938 309.925781 254.890625 313.820312 253.027344 317.121094 C 253.027344 317.121094 253.027344 317.125 253.023438 317.125 C 250.734375 319.839844 245.039062 325.332031 238.589844 325.6875 C 234.3125 325.921875 231.738281 321.6875 228.488281 321.839844 Z M 212.625 294.363281 " fill-opacity="1" fill-rule="nonzero"/><path fill="#494b5b" d="M 191.984375 336.925781 L 211.816406 306.882812 L 212.265625 322.453125 C 212.265625 322.453125 217.484375 322.355469 228.488281 321.839844 C 231.738281 321.6875 235.496094 321.496094 239.773438 321.261719 C 246.226562 320.90625 250.734375 319.835938 253.023438 317.125 L 236.570312 346.238281 C 234.9375 349.125 231.941406 350.996094 228.628906 351.179688 L 213.035156 352.066406 L 212.972656 366.753906 Z M 191.984375 336.925781 " fill-opacity="1" fill-rule="nonzero"/><path fill="#ffffff" d="M 174.359375 282.28125 L 146.414062 266.148438 C 153.976562 253.054688 158.949219 244.601562 163.6875 240.03125 C 166.417969 237.402344 170.078125 235.945312 173.867188 235.910156 C 173.871094 235.910156 173.871094 235.914062 173.875 235.910156 C 177.367188 236.535156 184.972656 238.722656 188.503906 244.136719 C 190.84375 247.71875 188.46875 252.0625 190.222656 254.804688 Z M 174.359375 282.28125 " fill-opacity="1" fill-rule="nonzero"/><path fill="#494b5b" d="M 221.542969 278.875 L 185.609375 276.71875 L 198.867188 268.546875 C 198.867188 268.546875 196.171875 264.074219 190.222656 254.804688 C 188.464844 252.0625 186.421875 248.90625 184.082031 245.320312 C 180.546875 239.90625 177.367188 236.535156 173.871094 235.910156 L 207.3125 235.605469 C 210.632812 235.570312 213.742188 237.238281 215.5625 240.007812 L 224.128906 253.070312 L 236.878906 245.78125 Z M 221.542969 278.875 " fill-opacity="1" fill-rule="nonzero"/><path fill="#ffffff" d="M 84.445312 190.152344 L 93.007812 190.152344 C 94.71875 190.152344 95.691406 191.808594 95.691406 193.632812 C 95.691406 195.171875 94.890625 197 93.007812 197 L 84.445312 197 L 84.445312 206.699219 L 99.742188 206.699219 C 101.453125 206.699219 102.425781 208.527344 102.425781 210.636719 C 102.425781 212.464844 101.625 214.460938 99.742188 214.460938 L 79.425781 214.460938 C 77.484375 214.460938 75.542969 213.550781 75.542969 211.722656 L 75.542969 175.480469 C 75.542969 173.65625 77.484375 172.746094 79.425781 172.746094 L 99.742188 172.746094 C 101.625 172.746094 102.425781 174.742188 102.425781 176.566406 C 102.425781 178.679688 101.453125 180.503906 99.742188 180.503906 L 84.445312 180.503906 Z M 84.445312 190.152344 " fill-opacity="1" fill-rule="nonzero"/><path fill="#ffffff" d="M 106.761719 197.109375 L 121.601562 197.109375 C 122.96875 197.109375 124.339844 198.710938 124.339844 200.765625 C 124.339844 202.929688 122.972656 204.359375 121.601562 204.359375 L 106.761719 204.359375 C 105.164062 204.359375 104.082031 202.9375 104.082031 200.765625 C 104.082031 198.710938 105.164062 197.109375 106.761719 197.109375 Z M 106.761719 197.109375 " fill-opacity="1" fill-rule="nonzero"/><path fill="#ffffff" d="M 165.148438 211.835938 C 164.464844 213.839844 161.894531 214.804688 159.273438 214.804688 C 156.703125 214.804688 153.964844 213.839844 153.503906 211.835938 L 150.539062 198.3125 L 147.570312 211.835938 C 147.113281 213.839844 144.378906 214.804688 141.808594 214.804688 C 139.183594 214.804688 136.554688 213.839844 135.925781 211.835938 L 124.574219 177.023438 C 124.515625 176.851562 124.457031 176.566406 124.457031 176.28125 C 124.457031 174.339844 127.65625 172.746094 130.222656 172.746094 C 131.589844 172.746094 132.734375 173.203125 133.078125 174.398438 L 141.75 203.675781 L 146.261719 184.382812 C 146.601562 182.84375 148.601562 182.042969 150.539062 182.042969 C 152.480469 182.042969 154.476562 182.84375 154.820312 184.382812 L 159.328125 203.675781 L 168.003906 174.398438 C 168.347656 173.203125 169.488281 172.746094 170.855469 172.746094 C 173.425781 172.746094 176.621094 174.339844 176.621094 176.28125 C 176.621094 176.566406 176.5625 176.851562 176.507812 177.023438 Z M 165.148438 211.835938 " fill-opacity="1" fill-rule="nonzero"/><path fill="#ffffff" d="M 174.742188 210.808594 C 174.742188 210.636719 174.800781 210.414062 174.855469 210.183594 L 185.472656 175.371094 C 186.101562 173.375 188.667969 172.402344 191.292969 172.402344 C 193.917969 172.402344 196.484375 173.375 197.113281 175.371094 L 207.785156 210.183594 C 207.84375 210.414062 207.902344 210.636719 207.902344 210.808594 C 207.902344 212.925781 204.648438 214.460938 202.191406 214.460938 C 200.765625 214.460938 199.625 214.007812 199.285156 212.808594 L 197.34375 205.671875 L 185.300781 205.671875 L 183.359375 212.808594 C 183.015625 214.003906 181.878906 214.460938 180.449219 214.460938 C 177.996094 214.464844 174.742188 212.925781 174.742188 210.808594 Z M 195.460938 198.824219 L 191.292969 183.53125 L 187.125 198.824219 Z M 195.460938 198.824219 " fill-opacity="1" fill-rule="nonzero"/><path fill="#ffffff" d="M 228.335938 203.28125 C 228.335938 196.371094 210.246094 197.566406 210.246094 184.214844 C 210.246094 175.652344 217.71875 172.402344 224.855469 172.402344 C 227.875 172.402344 236.210938 172.972656 236.210938 177.425781 C 236.210938 178.96875 235.183594 182.101562 232.671875 182.101562 C 230.617188 182.101562 229.535156 179.9375 224.855469 179.9375 C 220.800781 179.9375 219.144531 181.589844 219.144531 183.359375 C 219.144531 189.066406 237.238281 187.980469 237.238281 202.367188 C 237.238281 210.582031 231.246094 215.035156 222.96875 215.035156 C 215.492188 215.035156 209.214844 211.378906 209.214844 207.613281 C 209.214844 205.675781 210.925781 202.824219 213.097656 202.824219 C 215.78125 202.824219 217.492188 207.042969 222.796875 207.042969 C 225.425781 207.042969 228.335938 206.015625 228.335938 203.28125 Z M 228.335938 203.28125 " fill-opacity="1" fill-rule="nonzero"/><path fill="#ffffff" d="M 266.34375 172.746094 C 268.230469 172.746094 269.027344 174.796875 269.027344 176.679688 C 269.027344 178.855469 268.054688 180.734375 266.34375 180.734375 L 258.46875 180.734375 L 258.46875 211.722656 C 258.46875 213.550781 256.246094 214.464844 254.019531 214.464844 C 251.792969 214.464844 249.566406 213.550781 249.566406 211.722656 L 249.566406 180.734375 L 241.691406 180.734375 C 239.980469 180.734375 239.007812 178.855469 239.007812 176.679688 C 239.007812 174.796875 239.808594 172.746094 241.691406 172.746094 Z M 266.34375 172.746094 " fill-opacity="1" fill-rule="nonzero"/><path fill="#ffffff" d="M 281.472656 190.152344 L 290.03125 190.152344 C 291.742188 190.152344 292.714844 191.808594 292.714844 193.632812 C 292.714844 195.171875 291.914062 197 290.03125 197 L 281.472656 197 L 281.472656 206.699219 L 296.765625 206.699219 C 298.480469 206.699219 299.449219 208.527344 299.449219 210.636719 C 299.449219 212.464844 298.648438 214.460938 296.765625 214.460938 L 276.449219 214.460938 C 274.507812 214.460938 272.570312 213.550781 272.570312 211.722656 L 272.570312 175.480469 C 272.570312 173.65625 274.507812 172.746094 276.449219 172.746094 L 296.765625 172.746094 C 298.648438 172.746094 299.449219 174.742188 299.449219 176.566406 C 299.449219 178.679688 298.480469 180.503906 296.765625 180.503906 L 281.472656 180.503906 Z M 281.472656 190.152344 " fill-opacity="1" fill-rule="nonzero"/></svg>