<svg xmlns="http://www.w3.org/2000/svg" xmlns:xlink="http://www.w3.org/1999/xlink" width="500" zoomAndPan="magnify" viewBox="0 0 375 225" height="300" preserveAspectRatio="xMidYMid meet" version="1.0"><defs><clipPath id="a46c82c497"><path d="M 0 1 L 374 1 L 374 220.5 L 0 220.5 Z M 0 1 " clip-rule="nonzero"/></clipPath></defs><g clip-path="url(#a46c82c497)"><path fill="#7daa7b" d="M 129.515625 220.339844 C 125.914062 220.339844 122.332031 220.007812 118.8125 219.335938 C 107.871094 217.246094 97.59375 211.910156 89.097656 203.90625 C 81.296875 196.554688 75.65625 187.582031 72.675781 177.816406 C 56.265625 182.71875 37.777344 179.746094 23.792969 169.820312 C 9.0625 159.363281 -0.0117188 141.652344 0.117188 123.601562 C 0.210938 110.691406 4.996094 98.640625 13.25 90.527344 C 21.71875 82.199219 33.664062 78.453125 44.46875 80.519531 C 45.414062 71.273438 48.855469 62.273438 54.511719 54.304688 C 60.796875 45.453125 69.203125 38.757812 78.824219 34.9375 C 88.441406 31.121094 99.15625 30.226562 109.8125 32.351562 C 119.066406 34.199219 127.484375 38.164062 134.390625 43.90625 C 137.917969 33.9375 144.078125 24.875 152.382812 17.503906 C 161.742188 9.179688 172.933594 3.8125 184.726562 1.972656 C 196.527344 0.128906 208.816406 1.835938 220.277344 6.910156 C 230.996094 11.65625 240.023438 18.917969 246.511719 27.988281 C 259.460938 21.792969 276.035156 22.238281 289.421875 29.292969 C 302.671875 36.277344 312.277344 49.429688 315.03125 64.097656 C 325.285156 61.507812 336.796875 62.796875 347.09375 67.765625 C 358.367188 73.203125 367.097656 82.53125 371.039062 93.355469 C 374.984375 104.183594 374.296875 116.933594 369.160156 128.335938 C 364.292969 139.148438 355.851562 147.769531 345.84375 152.246094 C 345.757812 171.796875 332.867188 190.867188 314.628906 198.0625 C 296.898438 205.054688 275.1875 200.410156 261.644531 187.09375 C 252.777344 200.402344 237.882812 209.789062 222.011719 211.878906 C 219.699219 212.183594 217.359375 212.335938 215.015625 212.335938 C 201.167969 212.335938 187.238281 207.097656 176.933594 197.878906 C 170.570312 205.792969 162.050781 212.007812 152.144531 215.941406 C 144.765625 218.859375 137.097656 220.339844 129.515625 220.339844 Z M 74.417969 171.996094 C 74.835938 171.996094 75.25 172.097656 75.628906 172.296875 C 76.265625 172.632812 76.726562 173.226562 76.90625 173.929688 C 81.941406 193.847656 99.566406 210.453125 119.773438 214.308594 C 139.980469 218.164062 162.496094 209.214844 174.535156 192.554688 C 174.976562 191.945312 175.660156 191.5625 176.40625 191.5 C 177.148438 191.4375 177.894531 191.707031 178.425781 192.238281 C 189.441406 203.25 205.878906 208.828125 221.335938 206.792969 C 236.785156 204.757812 251.214844 195.113281 258.992188 181.628906 C 259.40625 180.910156 260.140625 180.4375 260.96875 180.359375 C 261.792969 180.277344 262.601562 180.601562 263.152344 181.222656 C 275.042969 194.859375 295.898438 199.933594 312.738281 193.296875 C 329.582031 186.652344 341.335938 168.714844 340.691406 150.640625 C 340.652344 149.554688 341.300781 148.566406 342.308594 148.164062 C 362.097656 140.363281 373.496094 115.070312 366.21875 95.101562 C 358.945312 75.136719 333.941406 63.074219 313.757812 69.792969 C 313.027344 70.035156 312.230469 69.9375 311.578125 69.527344 C 310.929688 69.113281 310.5 68.4375 310.402344 67.671875 C 308.660156 53.46875 299.699219 40.492188 287.027344 33.808594 C 274.402344 27.152344 258.660156 27.039062 246.921875 33.527344 C 245.75 34.175781 244.273438 33.808594 243.539062 32.691406 C 231.332031 14.148438 207.480469 3.589844 185.519531 7.019531 C 163.566406 10.441406 144.070312 27.761719 138.109375 49.140625 C 137.867188 50.011719 137.179688 50.691406 136.304688 50.925781 C 135.433594 51.164062 134.496094 50.921875 133.847656 50.289062 C 120.234375 37.035156 98.386719 32.671875 80.71875 39.683594 C 63.050781 46.695312 50.160156 64.847656 49.367188 83.820312 C 49.335938 84.613281 48.9375 85.347656 48.289062 85.804688 C 47.644531 86.261719 46.816406 86.398438 46.058594 86.164062 C 36.425781 83.238281 24.6875 86.449219 16.839844 94.160156 C 9.554688 101.324219 5.324219 112.0625 5.242188 123.621094 C 5.125 140.03125 13.371094 156.132812 26.761719 165.632812 C 40.152344 175.144531 58.085938 177.628906 73.5625 172.125 C 73.835938 172.042969 74.125 171.996094 74.417969 171.996094 Z M 74.417969 171.996094 " fill-opacity="1" fill-rule="nonzero"/></g></svg>