<svg xmlns="http://www.w3.org/2000/svg" xmlns:xlink="http://www.w3.org/1999/xlink" width="400" zoomAndPan="magnify" viewBox="0 0 300 149.999998" height="200" preserveAspectRatio="xMidYMid meet" version="1.0"><defs><clipPath id="3e4e7f7f18"><path d="M 105 30 L 118 30 L 118 69 L 105 69 Z M 105 30 " clip-rule="nonzero"/></clipPath><clipPath id="36b97b64b6"><path d="M 131.816406 -55.207031 L 300.164062 44.679688 L 195.304688 221.410156 L 26.957031 121.527344 Z M 131.816406 -55.207031 " clip-rule="nonzero"/></clipPath><clipPath id="f4e0576af9"><path d="M 131.816406 -55.207031 L 300.164062 44.679688 L 195.304688 221.410156 L 26.957031 121.527344 Z M 131.816406 -55.207031 " clip-rule="nonzero"/></clipPath><clipPath id="ca03bdd717"><path d="M 131.816406 -55.207031 L 300.164062 44.679688 L 195.304688 221.410156 L 26.957031 121.527344 Z M 131.816406 -55.207031 " clip-rule="nonzero"/></clipPath><clipPath id="d39da49ceb"><path d="M 84 49 L 93 49 L 93 101 L 84 101 Z M 84 49 " clip-rule="nonzero"/></clipPath><clipPath id="14df435d40"><path d="M 131.816406 -55.207031 L 300.164062 44.679688 L 195.304688 221.410156 L 26.957031 121.527344 Z M 131.816406 -55.207031 " clip-rule="nonzero"/></clipPath><clipPath id="311be43c67"><path d="M 131.816406 -55.207031 L 300.164062 44.679688 L 195.304688 221.410156 L 26.957031 121.527344 Z M 131.816406 -55.207031 " clip-rule="nonzero"/></clipPath><clipPath id="6ac38ab171"><path d="M 131.816406 -55.207031 L 300.164062 44.679688 L 195.304688 221.410156 L 26.957031 121.527344 Z M 131.816406 -55.207031 " clip-rule="nonzero"/></clipPath><clipPath id="0ff185d4bd"><path d="M 89 68 L 105 68 L 105 74 L 89 74 Z M 89 68 " clip-rule="nonzero"/></clipPath><clipPath id="28d2d4b48d"><path d="M 131.816406 -55.207031 L 300.164062 44.679688 L 195.304688 221.410156 L 26.957031 121.527344 Z M 131.816406 -55.207031 " clip-rule="nonzero"/></clipPath><clipPath id="da6cd821b8"><path d="M 131.816406 -55.207031 L 300.164062 44.679688 L 195.304688 221.410156 L 26.957031 121.527344 Z M 131.816406 -55.207031 " clip-rule="nonzero"/></clipPath><clipPath id="cc00f8c423"><path d="M 131.816406 -55.207031 L 300.164062 44.679688 L 195.304688 221.410156 L 26.957031 121.527344 Z M 131.816406 -55.207031 " clip-rule="nonzero"/></clipPath><clipPath id="e6eb8b9913"><path d="M 70 48 L 79 48 L 79 62 L 70 62 Z M 70 48 " clip-rule="nonzero"/></clipPath><clipPath id="62258a4d44"><path d="M 131.816406 -55.207031 L 300.164062 44.679688 L 195.304688 221.410156 L 26.957031 121.527344 Z M 131.816406 -55.207031 " clip-rule="nonzero"/></clipPath><clipPath id="6019c642ed"><path d="M 131.816406 -55.207031 L 300.164062 44.679688 L 195.304688 221.410156 L 26.957031 121.527344 Z M 131.816406 -55.207031 " clip-rule="nonzero"/></clipPath><clipPath id="eaa2750630"><path d="M 131.816406 -55.207031 L 300.164062 44.679688 L 195.304688 221.410156 L 26.957031 121.527344 Z M 131.816406 -55.207031 " clip-rule="nonzero"/></clipPath><clipPath id="bbb9a6c8c3"><path d="M 114 123 L 160 123 L 160 144 L 114 144 Z M 114 123 " clip-rule="nonzero"/></clipPath><clipPath id="3bfd324935"><path d="M 131.816406 -55.207031 L 300.164062 44.679688 L 195.304688 221.410156 L 26.957031 121.527344 Z M 131.816406 -55.207031 " clip-rule="nonzero"/></clipPath><clipPath id="51b12e0ff3"><path d="M 131.816406 -55.207031 L 300.164062 44.679688 L 195.304688 221.410156 L 26.957031 121.527344 Z M 131.816406 -55.207031 " clip-rule="nonzero"/></clipPath><clipPath id="c395045b3c"><path d="M 131.816406 -55.207031 L 300.164062 44.679688 L 195.304688 221.410156 L 26.957031 121.527344 Z M 131.816406 -55.207031 " clip-rule="nonzero"/></clipPath><clipPath id="f465a225f2"><path d="M 134 70 L 169 70 L 169 85 L 134 85 Z M 134 70 " clip-rule="nonzero"/></clipPath><clipPath id="3f704a4135"><path d="M 131.816406 -55.207031 L 300.164062 44.679688 L 195.304688 221.410156 L 26.957031 121.527344 Z M 131.816406 -55.207031 " clip-rule="nonzero"/></clipPath><clipPath id="3dbb2f9268"><path d="M 131.816406 -55.207031 L 300.164062 44.679688 L 195.304688 221.410156 L 26.957031 121.527344 Z M 131.816406 -55.207031 " clip-rule="nonzero"/></clipPath><clipPath id="2f3c0a1f90"><path d="M 131.816406 -55.207031 L 300.164062 44.679688 L 195.304688 221.410156 L 26.957031 121.527344 Z M 131.816406 -55.207031 " clip-rule="nonzero"/></clipPath><clipPath id="0931bbea45"><path d="M 112 91 L 139 91 L 139 106 L 112 106 Z M 112 91 " clip-rule="nonzero"/></clipPath><clipPath id="86cb992e94"><path d="M 131.816406 -55.207031 L 300.164062 44.679688 L 195.304688 221.410156 L 26.957031 121.527344 Z M 131.816406 -55.207031 " clip-rule="nonzero"/></clipPath><clipPath id="248f128678"><path d="M 131.816406 -55.207031 L 300.164062 44.679688 L 195.304688 221.410156 L 26.957031 121.527344 Z M 131.816406 -55.207031 " clip-rule="nonzero"/></clipPath><clipPath id="b9a571bfe7"><path d="M 131.816406 -55.207031 L 300.164062 44.679688 L 195.304688 221.410156 L 26.957031 121.527344 Z M 131.816406 -55.207031 " clip-rule="nonzero"/></clipPath><clipPath id="b3ab9e5b8c"><path d="M 123 102 L 157 102 L 157 122 L 123 122 Z M 123 102 " clip-rule="nonzero"/></clipPath><clipPath id="5b726e8932"><path d="M 131.816406 -55.207031 L 300.164062 44.679688 L 195.304688 221.410156 L 26.957031 121.527344 Z M 131.816406 -55.207031 " clip-rule="nonzero"/></clipPath><clipPath id="0203d670a0"><path d="M 131.816406 -55.207031 L 300.164062 44.679688 L 195.304688 221.410156 L 26.957031 121.527344 Z M 131.816406 -55.207031 " clip-rule="nonzero"/></clipPath><clipPath id="4fc58ee761"><path d="M 131.816406 -55.207031 L 300.164062 44.679688 L 195.304688 221.410156 L 26.957031 121.527344 Z M 131.816406 -55.207031 " clip-rule="nonzero"/></clipPath><clipPath id="18714f358c"><path d="M 134 47 L 136 47 L 136 49 L 134 49 Z M 134 47 " clip-rule="nonzero"/></clipPath><clipPath id="583eddd671"><path d="M 131.816406 -55.207031 L 300.164062 44.679688 L 195.304688 221.410156 L 26.957031 121.527344 Z M 131.816406 -55.207031 " clip-rule="nonzero"/></clipPath><clipPath id="62b6da8095"><path d="M 131.816406 -55.207031 L 300.164062 44.679688 L 195.304688 221.410156 L 26.957031 121.527344 Z M 131.816406 -55.207031 " clip-rule="nonzero"/></clipPath><clipPath id="5474111daf"><path d="M 131.816406 -55.207031 L 300.164062 44.679688 L 195.304688 221.410156 L 26.957031 121.527344 Z M 131.816406 -55.207031 " clip-rule="nonzero"/></clipPath><clipPath id="21baea5dd5"><path d="M 125 4 L 151 4 L 151 42 L 125 42 Z M 125 4 " clip-rule="nonzero"/></clipPath><clipPath id="bc89965df5"><path d="M 131.816406 -55.207031 L 300.164062 44.679688 L 195.304688 221.410156 L 26.957031 121.527344 Z M 131.816406 -55.207031 " clip-rule="nonzero"/></clipPath><clipPath id="4a130b8d46"><path d="M 131.816406 -55.207031 L 300.164062 44.679688 L 195.304688 221.410156 L 26.957031 121.527344 Z M 131.816406 -55.207031 " clip-rule="nonzero"/></clipPath><clipPath id="c77ebe9b3f"><path d="M 131.816406 -55.207031 L 300.164062 44.679688 L 195.304688 221.410156 L 26.957031 121.527344 Z M 131.816406 -55.207031 " clip-rule="nonzero"/></clipPath><clipPath id="85faa0bd23"><path d="M 129 23 L 181 23 L 181 53 L 129 53 Z M 129 23 " clip-rule="nonzero"/></clipPath><clipPath id="91f2dbe65e"><path d="M 131.816406 -55.207031 L 300.164062 44.679688 L 195.304688 221.410156 L 26.957031 121.527344 Z M 131.816406 -55.207031 " clip-rule="nonzero"/></clipPath><clipPath id="5aaa2071fe"><path d="M 131.816406 -55.207031 L 300.164062 44.679688 L 195.304688 221.410156 L 26.957031 121.527344 Z M 131.816406 -55.207031 " clip-rule="nonzero"/></clipPath><clipPath id="061c2fdf1e"><path d="M 131.816406 -55.207031 L 300.164062 44.679688 L 195.304688 221.410156 L 26.957031 121.527344 Z M 131.816406 -55.207031 " clip-rule="nonzero"/></clipPath><clipPath id="d74193098f"><path d="M 138 22 L 181 22 L 181 46 L 138 46 Z M 138 22 " clip-rule="nonzero"/></clipPath><clipPath id="bc2ab7896b"><path d="M 131.816406 -55.207031 L 300.164062 44.679688 L 195.304688 221.410156 L 26.957031 121.527344 Z M 131.816406 -55.207031 " clip-rule="nonzero"/></clipPath><clipPath id="84e8e016dd"><path d="M 131.816406 -55.207031 L 300.164062 44.679688 L 195.304688 221.410156 L 26.957031 121.527344 Z M 131.816406 -55.207031 " clip-rule="nonzero"/></clipPath><clipPath id="90ff81a1ce"><path d="M 131.816406 -55.207031 L 300.164062 44.679688 L 195.304688 221.410156 L 26.957031 121.527344 Z M 131.816406 -55.207031 " clip-rule="nonzero"/></clipPath><clipPath id="5dada3a3b9"><path d="M 223 52 L 252 52 L 252 79 L 223 79 Z M 223 52 " clip-rule="nonzero"/></clipPath><clipPath id="2b7ccd13e4"><path d="M 131.816406 -55.207031 L 300.164062 44.679688 L 195.304688 221.410156 L 26.957031 121.527344 Z M 131.816406 -55.207031 " clip-rule="nonzero"/></clipPath><clipPath id="4517c813fc"><path d="M 131.816406 -55.207031 L 300.164062 44.679688 L 195.304688 221.410156 L 26.957031 121.527344 Z M 131.816406 -55.207031 " clip-rule="nonzero"/></clipPath><clipPath id="230268061c"><path d="M 131.816406 -55.207031 L 300.164062 44.679688 L 195.304688 221.410156 L 26.957031 121.527344 Z M 131.816406 -55.207031 " clip-rule="nonzero"/></clipPath><clipPath id="e650b24b09"><path d="M 241 41 L 273 41 L 273 49 L 241 49 Z M 241 41 " clip-rule="nonzero"/></clipPath><clipPath id="54592435f7"><path d="M 131.816406 -55.207031 L 300.164062 44.679688 L 195.304688 221.410156 L 26.957031 121.527344 Z M 131.816406 -55.207031 " clip-rule="nonzero"/></clipPath><clipPath id="ab58b0b481"><path d="M 131.816406 -55.207031 L 300.164062 44.679688 L 195.304688 221.410156 L 26.957031 121.527344 Z M 131.816406 -55.207031 " clip-rule="nonzero"/></clipPath><clipPath id="f04dad8bab"><path d="M 131.816406 -55.207031 L 300.164062 44.679688 L 195.304688 221.410156 L 26.957031 121.527344 Z M 131.816406 -55.207031 " clip-rule="nonzero"/></clipPath><clipPath id="b406982376"><path d="M 65 37 L 289 37 L 289 145 L 65 145 Z M 65 37 " clip-rule="nonzero"/></clipPath><clipPath id="61ead2645a"><path d="M 131.816406 -55.207031 L 300.164062 44.679688 L 195.304688 221.410156 L 26.957031 121.527344 Z M 131.816406 -55.207031 " clip-rule="nonzero"/></clipPath><clipPath id="1926520cd7"><path d="M 131.816406 -55.207031 L 300.164062 44.679688 L 195.304688 221.410156 L 26.957031 121.527344 Z M 131.816406 -55.207031 " clip-rule="nonzero"/></clipPath><clipPath id="dd34dd6952"><path d="M 131.816406 -55.207031 L 300.164062 44.679688 L 195.304688 221.410156 L 26.957031 121.527344 Z M 131.816406 -55.207031 " clip-rule="nonzero"/></clipPath><clipPath id="b4865efbad"><path d="M 158.039062 -13.496094 L 288.835938 64.109375 L 195.453125 221.5 L 64.652344 143.894531 Z M 158.039062 -13.496094 " clip-rule="nonzero"/></clipPath><clipPath id="f5bc306d25"><path d="M 158.039062 -13.496094 L 288.585938 63.960938 L 195.207031 221.34375 L 64.65625 143.886719 Z M 158.039062 -13.496094 " clip-rule="nonzero"/></clipPath><clipPath id="2203e3c7ce"><path d="M 247 55 L 289 55 L 289 66 L 247 66 Z M 247 55 " clip-rule="nonzero"/></clipPath><clipPath id="3a68737f93"><path d="M 131.816406 -55.207031 L 300.164062 44.679688 L 195.304688 221.410156 L 26.957031 121.527344 Z M 131.816406 -55.207031 " clip-rule="nonzero"/></clipPath><clipPath id="9b7a5639af"><path d="M 131.816406 -55.207031 L 300.164062 44.679688 L 195.304688 221.410156 L 26.957031 121.527344 Z M 131.816406 -55.207031 " clip-rule="nonzero"/></clipPath><clipPath id="72f23741b6"><path d="M 131.816406 -55.207031 L 300.164062 44.679688 L 195.304688 221.410156 L 26.957031 121.527344 Z M 131.816406 -55.207031 " clip-rule="nonzero"/></clipPath><clipPath id="efeb706dea"><path d="M 254.886719 43.96875 L 288.835938 64.109375 L 281.214844 76.960938 L 247.265625 56.816406 Z M 254.886719 43.96875 " clip-rule="nonzero"/></clipPath><clipPath id="64e5fb1869"><path d="M 254.886719 43.96875 L 288.585938 63.960938 L 280.964844 76.8125 L 247.265625 56.816406 Z M 254.886719 43.96875 " clip-rule="nonzero"/></clipPath><clipPath id="11af4b0ce2"><path d="M 215 40 L 252 40 L 252 79 L 215 79 Z M 215 40 " clip-rule="nonzero"/></clipPath><clipPath id="067db69cd2"><path d="M 131.816406 -55.207031 L 300.164062 44.679688 L 195.304688 221.410156 L 26.957031 121.527344 Z M 131.816406 -55.207031 " clip-rule="nonzero"/></clipPath><clipPath id="fd4577f55f"><path d="M 131.816406 -55.207031 L 300.164062 44.679688 L 195.304688 221.410156 L 26.957031 121.527344 Z M 131.816406 -55.207031 " clip-rule="nonzero"/></clipPath><clipPath id="e8679f1c37"><path d="M 131.816406 -55.207031 L 300.164062 44.679688 L 195.304688 221.410156 L 26.957031 121.527344 Z M 131.816406 -55.207031 " clip-rule="nonzero"/></clipPath><clipPath id="80914d4975"><path d="M 228 39 L 273 39 L 273 48 L 228 48 Z M 228 39 " clip-rule="nonzero"/></clipPath><clipPath id="9e2d72cfd3"><path d="M 131.816406 -55.207031 L 300.164062 44.679688 L 195.304688 221.410156 L 26.957031 121.527344 Z M 131.816406 -55.207031 " clip-rule="nonzero"/></clipPath><clipPath id="bf73106bb6"><path d="M 131.816406 -55.207031 L 300.164062 44.679688 L 195.304688 221.410156 L 26.957031 121.527344 Z M 131.816406 -55.207031 " clip-rule="nonzero"/></clipPath><clipPath id="ce643572ae"><path d="M 131.816406 -55.207031 L 300.164062 44.679688 L 195.304688 221.410156 L 26.957031 121.527344 Z M 131.816406 -55.207031 " clip-rule="nonzero"/></clipPath><clipPath id="2ad462932a"><path d="M 88 123 L 160 123 L 160 142 L 88 142 Z M 88 123 " clip-rule="nonzero"/></clipPath><clipPath id="88383fe418"><path d="M 131.816406 -55.207031 L 300.164062 44.679688 L 195.304688 221.410156 L 26.957031 121.527344 Z M 131.816406 -55.207031 " clip-rule="nonzero"/></clipPath><clipPath id="15aa622ff7"><path d="M 131.816406 -55.207031 L 300.164062 44.679688 L 195.304688 221.410156 L 26.957031 121.527344 Z M 131.816406 -55.207031 " clip-rule="nonzero"/></clipPath><clipPath id="b1dd7cfea9"><path d="M 131.816406 -55.207031 L 300.164062 44.679688 L 195.304688 221.410156 L 26.957031 121.527344 Z M 131.816406 -55.207031 " clip-rule="nonzero"/></clipPath><clipPath id="37c05068aa"><path d="M 74 49 L 95 49 L 95 122 L 74 122 Z M 74 49 " clip-rule="nonzero"/></clipPath><clipPath id="cd49410a62"><path d="M 131.816406 -55.207031 L 300.164062 44.679688 L 195.304688 221.410156 L 26.957031 121.527344 Z M 131.816406 -55.207031 " clip-rule="nonzero"/></clipPath><clipPath id="1e894129db"><path d="M 131.816406 -55.207031 L 300.164062 44.679688 L 195.304688 221.410156 L 26.957031 121.527344 Z M 131.816406 -55.207031 " clip-rule="nonzero"/></clipPath><clipPath id="7f15fb946c"><path d="M 131.816406 -55.207031 L 300.164062 44.679688 L 195.304688 221.410156 L 26.957031 121.527344 Z M 131.816406 -55.207031 " clip-rule="nonzero"/></clipPath><clipPath id="6246d50e88"><path d="M 85 55 L 115 55 L 115 91 L 85 91 Z M 85 55 " clip-rule="nonzero"/></clipPath><clipPath id="bf8b772f96"><path d="M 131.816406 -55.207031 L 300.164062 44.679688 L 195.304688 221.410156 L 26.957031 121.527344 Z M 131.816406 -55.207031 " clip-rule="nonzero"/></clipPath><clipPath id="727f145035"><path d="M 131.816406 -55.207031 L 300.164062 44.679688 L 195.304688 221.410156 L 26.957031 121.527344 Z M 131.816406 -55.207031 " clip-rule="nonzero"/></clipPath><clipPath id="5ec8ceabb6"><path d="M 131.816406 -55.207031 L 300.164062 44.679688 L 195.304688 221.410156 L 26.957031 121.527344 Z M 131.816406 -55.207031 " clip-rule="nonzero"/></clipPath><clipPath id="d91d3d3fe1"><path d="M 70 48 L 83 48 L 83 55 L 70 55 Z M 70 48 " clip-rule="nonzero"/></clipPath><clipPath id="560d261bc4"><path d="M 131.816406 -55.207031 L 300.164062 44.679688 L 195.304688 221.410156 L 26.957031 121.527344 Z M 131.816406 -55.207031 " clip-rule="nonzero"/></clipPath><clipPath id="13f69e3b30"><path d="M 131.816406 -55.207031 L 300.164062 44.679688 L 195.304688 221.410156 L 26.957031 121.527344 Z M 131.816406 -55.207031 " clip-rule="nonzero"/></clipPath><clipPath id="19d357fe61"><path d="M 131.816406 -55.207031 L 300.164062 44.679688 L 195.304688 221.410156 L 26.957031 121.527344 Z M 131.816406 -55.207031 " clip-rule="nonzero"/></clipPath><clipPath id="42908fe94d"><path d="M 104 101 L 157 101 L 157 122 L 104 122 Z M 104 101 " clip-rule="nonzero"/></clipPath><clipPath id="678d2d16f3"><path d="M 131.816406 -55.207031 L 300.164062 44.679688 L 195.304688 221.410156 L 26.957031 121.527344 Z M 131.816406 -55.207031 " clip-rule="nonzero"/></clipPath><clipPath id="ce519460a2"><path d="M 131.816406 -55.207031 L 300.164062 44.679688 L 195.304688 221.410156 L 26.957031 121.527344 Z M 131.816406 -55.207031 " clip-rule="nonzero"/></clipPath><clipPath id="0807cf9746"><path d="M 131.816406 -55.207031 L 300.164062 44.679688 L 195.304688 221.410156 L 26.957031 121.527344 Z M 131.816406 -55.207031 " clip-rule="nonzero"/></clipPath><clipPath id="009f038702"><path d="M 120 91 L 139 91 L 139 105 L 120 105 Z M 120 91 " clip-rule="nonzero"/></clipPath><clipPath id="145d1b74a7"><path d="M 131.816406 -55.207031 L 300.164062 44.679688 L 195.304688 221.410156 L 26.957031 121.527344 Z M 131.816406 -55.207031 " clip-rule="nonzero"/></clipPath><clipPath id="18db02af87"><path d="M 131.816406 -55.207031 L 300.164062 44.679688 L 195.304688 221.410156 L 26.957031 121.527344 Z M 131.816406 -55.207031 " clip-rule="nonzero"/></clipPath><clipPath id="13785bca38"><path d="M 131.816406 -55.207031 L 300.164062 44.679688 L 195.304688 221.410156 L 26.957031 121.527344 Z M 131.816406 -55.207031 " clip-rule="nonzero"/></clipPath><clipPath id="01a8e6ec0d"><path d="M 118 70 L 169 70 L 169 82 L 118 82 Z M 118 70 " clip-rule="nonzero"/></clipPath><clipPath id="0fb3dccd6d"><path d="M 131.816406 -55.207031 L 300.164062 44.679688 L 195.304688 221.410156 L 26.957031 121.527344 Z M 131.816406 -55.207031 " clip-rule="nonzero"/></clipPath><clipPath id="5dd561ab25"><path d="M 131.816406 -55.207031 L 300.164062 44.679688 L 195.304688 221.410156 L 26.957031 121.527344 Z M 131.816406 -55.207031 " clip-rule="nonzero"/></clipPath><clipPath id="531a6fb122"><path d="M 131.816406 -55.207031 L 300.164062 44.679688 L 195.304688 221.410156 L 26.957031 121.527344 Z M 131.816406 -55.207031 " clip-rule="nonzero"/></clipPath><clipPath id="39fa4439f5"><path d="M 102 30 L 121 30 L 121 81 L 102 81 Z M 102 30 " clip-rule="nonzero"/></clipPath><clipPath id="40c245db9d"><path d="M 131.816406 -55.207031 L 300.164062 44.679688 L 195.304688 221.410156 L 26.957031 121.527344 Z M 131.816406 -55.207031 " clip-rule="nonzero"/></clipPath><clipPath id="c183487bd1"><path d="M 131.816406 -55.207031 L 300.164062 44.679688 L 195.304688 221.410156 L 26.957031 121.527344 Z M 131.816406 -55.207031 " clip-rule="nonzero"/></clipPath><clipPath id="8d1b031eab"><path d="M 131.816406 -55.207031 L 300.164062 44.679688 L 195.304688 221.410156 L 26.957031 121.527344 Z M 131.816406 -55.207031 " clip-rule="nonzero"/></clipPath><clipPath id="9af8819dde"><path d="M 125 4 L 151 4 L 151 72 L 125 72 Z M 125 4 " clip-rule="nonzero"/></clipPath><clipPath id="5041e1fda8"><path d="M 131.816406 -55.207031 L 300.164062 44.679688 L 195.304688 221.410156 L 26.957031 121.527344 Z M 131.816406 -55.207031 " clip-rule="nonzero"/></clipPath><clipPath id="0537573f98"><path d="M 131.816406 -55.207031 L 300.164062 44.679688 L 195.304688 221.410156 L 26.957031 121.527344 Z M 131.816406 -55.207031 " clip-rule="nonzero"/></clipPath><clipPath id="aeac080ebf"><path d="M 131.816406 -55.207031 L 300.164062 44.679688 L 195.304688 221.410156 L 26.957031 121.527344 Z M 131.816406 -55.207031 " clip-rule="nonzero"/></clipPath><clipPath id="4077b67a31"><path d="M 138 53 L 170 53 L 170 59 L 138 59 Z M 138 53 " clip-rule="nonzero"/></clipPath><clipPath id="53d69dcf52"><path d="M 131.816406 -55.207031 L 300.164062 44.679688 L 195.304688 221.410156 L 26.957031 121.527344 Z M 131.816406 -55.207031 " clip-rule="nonzero"/></clipPath><clipPath id="1cafb40e93"><path d="M 131.816406 -55.207031 L 300.164062 44.679688 L 195.304688 221.410156 L 26.957031 121.527344 Z M 131.816406 -55.207031 " clip-rule="nonzero"/></clipPath><clipPath id="64c285014a"><path d="M 131.816406 -55.207031 L 300.164062 44.679688 L 195.304688 221.410156 L 26.957031 121.527344 Z M 131.816406 -55.207031 " clip-rule="nonzero"/></clipPath><clipPath id="2594927727"><path d="M 141 56 L 170 56 L 170 64 L 141 64 Z M 141 56 " clip-rule="nonzero"/></clipPath><clipPath id="70b157d817"><path d="M 131.816406 -55.207031 L 300.164062 44.679688 L 195.304688 221.410156 L 26.957031 121.527344 Z M 131.816406 -55.207031 " clip-rule="nonzero"/></clipPath><clipPath id="e583468f97"><path d="M 131.816406 -55.207031 L 300.164062 44.679688 L 195.304688 221.410156 L 26.957031 121.527344 Z M 131.816406 -55.207031 " clip-rule="nonzero"/></clipPath><clipPath id="89c06fcf59"><path d="M 131.816406 -55.207031 L 300.164062 44.679688 L 195.304688 221.410156 L 26.957031 121.527344 Z M 131.816406 -55.207031 " clip-rule="nonzero"/></clipPath><clipPath id="153db5876e"><path d="M 154 46 L 203 46 L 203 60 L 154 60 Z M 154 46 " clip-rule="nonzero"/></clipPath><clipPath id="e787f20a86"><path d="M 131.816406 -55.207031 L 300.164062 44.679688 L 195.304688 221.410156 L 26.957031 121.527344 Z M 131.816406 -55.207031 " clip-rule="nonzero"/></clipPath><clipPath id="4ca2a40dc5"><path d="M 131.816406 -55.207031 L 300.164062 44.679688 L 195.304688 221.410156 L 26.957031 121.527344 Z M 131.816406 -55.207031 " clip-rule="nonzero"/></clipPath><clipPath id="987da22d45"><path d="M 131.816406 -55.207031 L 300.164062 44.679688 L 195.304688 221.410156 L 26.957031 121.527344 Z M 131.816406 -55.207031 " clip-rule="nonzero"/></clipPath><clipPath id="d5a23432df"><path d="M 171 47 L 203 47 L 203 60 L 171 60 Z M 171 47 " clip-rule="nonzero"/></clipPath><clipPath id="c0da02e627"><path d="M 131.816406 -55.207031 L 300.164062 44.679688 L 195.304688 221.410156 L 26.957031 121.527344 Z M 131.816406 -55.207031 " clip-rule="nonzero"/></clipPath><clipPath id="9ca136e31d"><path d="M 131.816406 -55.207031 L 300.164062 44.679688 L 195.304688 221.410156 L 26.957031 121.527344 Z M 131.816406 -55.207031 " clip-rule="nonzero"/></clipPath><clipPath id="a7f841fd6a"><path d="M 131.816406 -55.207031 L 300.164062 44.679688 L 195.304688 221.410156 L 26.957031 121.527344 Z M 131.816406 -55.207031 " clip-rule="nonzero"/></clipPath><clipPath id="92761ee5a0"><path d="M 163 16 L 222 16 L 222 44 L 163 44 Z M 163 16 " clip-rule="nonzero"/></clipPath><clipPath id="6acd2ebeac"><path d="M 131.816406 -55.207031 L 300.164062 44.679688 L 195.304688 221.410156 L 26.957031 121.527344 Z M 131.816406 -55.207031 " clip-rule="nonzero"/></clipPath><clipPath id="22480236f4"><path d="M 131.816406 -55.207031 L 300.164062 44.679688 L 195.304688 221.410156 L 26.957031 121.527344 Z M 131.816406 -55.207031 " clip-rule="nonzero"/></clipPath><clipPath id="80273e3a47"><path d="M 131.816406 -55.207031 L 300.164062 44.679688 L 195.304688 221.410156 L 26.957031 121.527344 Z M 131.816406 -55.207031 " clip-rule="nonzero"/></clipPath><clipPath id="4ae6b3716b"><path d="M 187 16 L 222 16 L 222 32 L 187 32 Z M 187 16 " clip-rule="nonzero"/></clipPath><clipPath id="50c95ca5bb"><path d="M 131.816406 -55.207031 L 300.164062 44.679688 L 195.304688 221.410156 L 26.957031 121.527344 Z M 131.816406 -55.207031 " clip-rule="nonzero"/></clipPath><clipPath id="d259f253cd"><path d="M 131.816406 -55.207031 L 300.164062 44.679688 L 195.304688 221.410156 L 26.957031 121.527344 Z M 131.816406 -55.207031 " clip-rule="nonzero"/></clipPath><clipPath id="8ea6795146"><path d="M 131.816406 -55.207031 L 300.164062 44.679688 L 195.304688 221.410156 L 26.957031 121.527344 Z M 131.816406 -55.207031 " clip-rule="nonzero"/></clipPath><clipPath id="18ae0bf342"><path d="M 188 37 L 221 37 L 221 76 L 188 76 Z M 188 37 " clip-rule="nonzero"/></clipPath><clipPath id="9a59ec94d1"><path d="M 131.816406 -55.207031 L 300.164062 44.679688 L 195.304688 221.410156 L 26.957031 121.527344 Z M 131.816406 -55.207031 " clip-rule="nonzero"/></clipPath><clipPath id="7467953043"><path d="M 131.816406 -55.207031 L 300.164062 44.679688 L 195.304688 221.410156 L 26.957031 121.527344 Z M 131.816406 -55.207031 " clip-rule="nonzero"/></clipPath><clipPath id="7f6a159f81"><path d="M 131.816406 -55.207031 L 300.164062 44.679688 L 195.304688 221.410156 L 26.957031 121.527344 Z M 131.816406 -55.207031 " clip-rule="nonzero"/></clipPath><clipPath id="7db176ed92"><path d="M 196 45 L 221 45 L 221 76 L 196 76 Z M 196 45 " clip-rule="nonzero"/></clipPath><clipPath id="5728ab7d4d"><path d="M 131.816406 -55.207031 L 300.164062 44.679688 L 195.304688 221.410156 L 26.957031 121.527344 Z M 131.816406 -55.207031 " clip-rule="nonzero"/></clipPath><clipPath id="1dd862015b"><path d="M 131.816406 -55.207031 L 300.164062 44.679688 L 195.304688 221.410156 L 26.957031 121.527344 Z M 131.816406 -55.207031 " clip-rule="nonzero"/></clipPath><clipPath id="e69d57505d"><path d="M 131.816406 -55.207031 L 300.164062 44.679688 L 195.304688 221.410156 L 26.957031 121.527344 Z M 131.816406 -55.207031 " clip-rule="nonzero"/></clipPath><clipPath id="48ae983860"><path d="M 204 14 L 249 14 L 249 40 L 204 40 Z M 204 14 " clip-rule="nonzero"/></clipPath><clipPath id="7e06b16f9d"><path d="M 131.816406 -55.207031 L 300.164062 44.679688 L 195.304688 221.410156 L 26.957031 121.527344 Z M 131.816406 -55.207031 " clip-rule="nonzero"/></clipPath><clipPath id="45937fed71"><path d="M 131.816406 -55.207031 L 300.164062 44.679688 L 195.304688 221.410156 L 26.957031 121.527344 Z M 131.816406 -55.207031 " clip-rule="nonzero"/></clipPath><clipPath id="a12faff086"><path d="M 131.816406 -55.207031 L 300.164062 44.679688 L 195.304688 221.410156 L 26.957031 121.527344 Z M 131.816406 -55.207031 " clip-rule="nonzero"/></clipPath><clipPath id="f9e49ac37f"><path d="M 221 14 L 249 14 L 249 35 L 221 35 Z M 221 14 " clip-rule="nonzero"/></clipPath><clipPath id="5e11a2bf66"><path d="M 131.816406 -55.207031 L 300.164062 44.679688 L 195.304688 221.410156 L 26.957031 121.527344 Z M 131.816406 -55.207031 " clip-rule="nonzero"/></clipPath><clipPath id="9fd9369683"><path d="M 131.816406 -55.207031 L 300.164062 44.679688 L 195.304688 221.410156 L 26.957031 121.527344 Z M 131.816406 -55.207031 " clip-rule="nonzero"/></clipPath><clipPath id="2f67736bfa"><path d="M 131.816406 -55.207031 L 300.164062 44.679688 L 195.304688 221.410156 L 26.957031 121.527344 Z M 131.816406 -55.207031 " clip-rule="nonzero"/></clipPath></defs><g clip-path="url(#3e4e7f7f18)"><g clip-path="url(#36b97b64b6)"><g clip-path="url(#f4e0576af9)"><g clip-path="url(#ca03bdd717)"><path fill="#7daa7b" d="M 115.746094 68.691406 C 115.53125 68.5625 115.402344 68.308594 115.449219 68.046875 C 116.195312 63.730469 115.464844 58.539062 114.878906 54.367188 L 114.738281 53.359375 C 114.132812 49.027344 113.5 45.160156 111.84375 41.667969 C 111.054688 40.011719 109.914062 38.570312 108.8125 37.175781 C 107.917969 36.046875 106.992188 34.878906 106.238281 33.585938 C 105.832031 32.890625 105.515625 32.167969 105.257812 31.378906 C 105.152344 31.050781 105.332031 30.699219 105.660156 30.59375 C 105.988281 30.488281 106.339844 30.671875 106.445312 30.996094 C 106.671875 31.699219 106.957031 32.34375 107.316406 32.960938 C 108.023438 34.175781 108.878906 35.257812 109.785156 36.402344 C 110.933594 37.851562 112.121094 39.347656 112.96875 41.132812 C 114.695312 44.78125 115.375 48.917969 115.972656 53.1875 L 116.113281 54.195312 C 116.710938 58.453125 117.457031 63.75 116.679688 68.261719 C 116.621094 68.597656 116.296875 68.824219 115.957031 68.765625 C 115.878906 68.753906 115.808594 68.726562 115.746094 68.691406 " fill-opacity="1" fill-rule="nonzero"/></g></g></g></g><g clip-path="url(#d39da49ceb)"><g clip-path="url(#14df435d40)"><g clip-path="url(#311be43c67)"><g clip-path="url(#6ac38ab171)"><path fill="#7daa7b" d="M 90.84375 100.648438 C 90.609375 100.507812 90.484375 100.226562 90.558594 99.953125 C 91.722656 95.554688 91.414062 90.242188 91.164062 85.976562 C 91.128906 85.371094 91.097656 84.789062 91.066406 84.230469 C 90.773438 78.691406 90.261719 73.863281 89.503906 69.464844 C 89.394531 68.839844 89.28125 68.222656 89.160156 67.601562 C 88.691406 65.179688 87.894531 62.757812 87.125 60.414062 C 86.714844 59.175781 86.296875 57.894531 85.925781 56.621094 C 85.375 54.738281 85.019531 53.164062 84.8125 51.671875 C 84.734375 51.117188 84.683594 50.519531 84.667969 49.890625 C 84.660156 49.546875 84.929688 49.261719 85.273438 49.253906 C 85.621094 49.242188 85.90625 49.515625 85.914062 49.859375 C 85.929688 50.4375 85.972656 50.992188 86.046875 51.503906 C 86.246094 52.933594 86.585938 54.453125 87.121094 56.273438 C 87.488281 57.527344 87.90625 58.800781 88.308594 60.027344 C 89.089844 62.40625 89.898438 64.867188 90.382812 67.363281 C 90.503906 67.996094 90.621094 68.621094 90.730469 69.257812 C 91.5 73.699219 92.015625 78.578125 92.3125 84.167969 C 92.339844 84.726562 92.375 85.304688 92.410156 85.902344 C 92.664062 90.261719 92.976562 95.683594 91.761719 100.273438 C 91.675781 100.605469 91.335938 100.800781 91.003906 100.714844 C 90.945312 100.699219 90.890625 100.675781 90.84375 100.648438 " fill-opacity="1" fill-rule="nonzero"/></g></g></g></g><g clip-path="url(#0ff185d4bd)"><g clip-path="url(#28d2d4b48d)"><g clip-path="url(#da6cd821b8)"><g clip-path="url(#cc00f8c423)"><path fill="#7daa7b" d="M 89.800781 69.894531 C 89.53125 69.738281 89.417969 69.402344 89.546875 69.109375 C 89.683594 68.796875 90.050781 68.652344 90.367188 68.792969 C 95.058594 70.839844 100.015625 71.953125 104.324219 71.921875 C 104.667969 71.921875 104.949219 72.199219 104.953125 72.542969 C 104.953125 72.886719 104.679688 73.167969 104.332031 73.167969 C 99.855469 73.199219 94.71875 72.050781 89.867188 69.933594 C 89.84375 69.921875 89.820312 69.910156 89.800781 69.894531 " fill-opacity="1" fill-rule="nonzero"/></g></g></g></g><g clip-path="url(#e6eb8b9913)"><g clip-path="url(#62258a4d44)"><g clip-path="url(#6019c642ed)"><g clip-path="url(#eaa2750630)"><path fill="#7daa7b" d="M 77.648438 61.421875 C 77.59375 61.394531 77.546875 61.355469 77.503906 61.308594 C 75.113281 58.6875 73.179688 55.867188 71.910156 53.148438 C 71.558594 52.398438 71.265625 51.625 70.980469 50.882812 C 70.769531 50.328125 70.570312 49.804688 70.347656 49.285156 C 70.214844 48.96875 70.359375 48.601562 70.675781 48.46875 C 70.992188 48.332031 71.359375 48.480469 71.496094 48.796875 C 71.726562 49.339844 71.941406 49.898438 72.144531 50.4375 C 72.421875 51.164062 72.707031 51.914062 73.039062 52.621094 C 74.238281 55.191406 76.152344 57.976562 78.425781 60.46875 C 78.65625 60.722656 78.636719 61.117188 78.382812 61.347656 C 78.175781 61.539062 77.875 61.558594 77.648438 61.421875 " fill-opacity="1" fill-rule="nonzero"/></g></g></g></g><g clip-path="url(#bbb9a6c8c3)"><g clip-path="url(#3bfd324935)"><g clip-path="url(#51b12e0ff3)"><g clip-path="url(#c395045b3c)"><path fill="#7daa7b" d="M 126.09375 138.953125 C 125.242188 138.449219 124.460938 137.914062 123.753906 137.355469 C 119.761719 134.183594 116.871094 129.476562 114.339844 124.863281 C 114.171875 124.5625 114.28125 124.183594 114.585938 124.019531 C 114.886719 123.855469 115.265625 123.96875 115.429688 124.265625 C 117.898438 128.765625 120.710938 133.34375 124.527344 136.378906 C 128.453125 139.5 134.3125 141.265625 138.492188 141.878906 C 142.675781 142.492188 147.019531 141.949219 150.761719 141.390625 L 150.808594 141.382812 C 153.367188 141 156.007812 140.601562 158.617188 139.992188 C 158.953125 139.917969 159.289062 140.121094 159.367188 140.457031 C 159.445312 140.792969 159.238281 141.128906 158.902344 141.207031 C 156.246094 141.828125 153.578125 142.226562 150.996094 142.613281 L 150.945312 142.621094 C 147.117188 143.195312 142.664062 143.746094 138.3125 143.109375 C 133.824219 142.453125 129.453125 140.949219 126.09375 138.953125 " fill-opacity="1" fill-rule="nonzero"/></g></g></g></g><g clip-path="url(#f465a225f2)"><g clip-path="url(#3f704a4135)"><g clip-path="url(#3dbb2f9268)"><g clip-path="url(#2f3c0a1f90)"><path fill="#7daa7b" d="M 140.207031 82.257812 C 139.421875 81.792969 138.671875 81.289062 137.929688 80.792969 C 137.402344 80.441406 136.871094 80.085938 136.332031 79.746094 C 135.6875 79.34375 135.085938 79.019531 134.484375 78.761719 C 134.171875 78.628906 134.023438 78.261719 134.160156 77.945312 C 134.292969 77.628906 134.660156 77.480469 134.976562 77.617188 C 135.636719 77.902344 136.296875 78.25 136.996094 78.695312 C 137.546875 79.042969 138.085938 79.402344 138.621094 79.761719 C 140.398438 80.945312 142.074219 82.066406 144.097656 82.679688 C 148.0625 83.878906 152.726562 83.863281 156.578125 82.640625 C 160.90625 81.273438 162.757812 78.582031 165.292969 74.3125 C 165.628906 73.742188 166.007812 73.027344 166.40625 72.269531 C 166.71875 71.675781 167.050781 71.046875 167.40625 70.40625 C 167.574219 70.105469 167.953125 70 168.253906 70.164062 C 168.554688 70.328125 168.664062 70.710938 168.496094 71.011719 C 168.144531 71.644531 167.816406 72.265625 167.507812 72.851562 C 167.101562 73.625 166.714844 74.351562 166.363281 74.945312 C 163.757812 79.339844 161.695312 82.332031 156.957031 83.828125 C 152.8125 85.144531 147.996094 85.160156 143.738281 83.871094 C 142.457031 83.484375 141.300781 82.90625 140.207031 82.257812 " fill-opacity="1" fill-rule="nonzero"/></g></g></g></g><g clip-path="url(#0931bbea45)"><g clip-path="url(#86cb992e94)"><g clip-path="url(#248f128678)"><g clip-path="url(#b9a571bfe7)"><path fill="#7daa7b" d="M 113.292969 105.78125 C 113.070312 105.648438 112.945312 105.386719 113 105.121094 C 113.40625 103.09375 113.894531 101.117188 115.382812 99.226562 C 118.234375 95.609375 124.492188 91.253906 138.105469 91.054688 C 138.449219 91.050781 138.730469 91.328125 138.738281 91.671875 C 138.742188 92.011719 138.46875 92.296875 138.125 92.300781 C 132.195312 92.386719 121.484375 93.503906 116.363281 100 C 115.042969 101.671875 114.597656 103.492188 114.21875 105.367188 C 114.152344 105.703125 113.824219 105.921875 113.488281 105.855469 C 113.417969 105.839844 113.351562 105.8125 113.292969 105.78125 " fill-opacity="1" fill-rule="nonzero"/></g></g></g></g><g clip-path="url(#b3ab9e5b8c)"><g clip-path="url(#5b726e8932)"><g clip-path="url(#0203d670a0)"><g clip-path="url(#4fc58ee761)"><path fill="#7daa7b" d="M 136.351562 116.75 C 134.5 115.652344 132.742188 114.300781 131.078125 112.617188 C 129.808594 111.335938 128.871094 109.816406 127.960938 108.351562 C 126.894531 106.632812 125.890625 105.011719 124.398438 103.726562 C 124.230469 103.582031 124.019531 103.410156 123.777344 103.226562 C 123.503906 103.023438 123.449219 102.628906 123.65625 102.355469 C 123.867188 102.082031 124.257812 102.027344 124.53125 102.238281 C 124.792969 102.433594 125.027344 102.625 125.214844 102.789062 C 126.847656 104.191406 127.953125 105.972656 129.019531 107.695312 C 129.933594 109.167969 130.792969 110.558594 131.964844 111.746094 C 138.542969 118.402344 146.875 119.695312 156.289062 120.597656 C 156.632812 120.632812 156.882812 120.9375 156.851562 121.28125 C 156.816406 121.621094 156.515625 121.871094 156.171875 121.839844 C 148.847656 121.132812 142.15625 120.195312 136.351562 116.75 " fill-opacity="1" fill-rule="nonzero"/></g></g></g></g><g clip-path="url(#18714f358c)"><g clip-path="url(#583eddd671)"><g clip-path="url(#62b6da8095)"><g clip-path="url(#5474111daf)"><path fill="#7daa7b" d="M 134.929688 48.304688 C 134.851562 48.257812 134.777344 48.1875 134.726562 48.105469 L 134.671875 48.027344 C 134.488281 47.738281 134.570312 47.351562 134.863281 47.167969 C 135.152344 46.980469 135.539062 47.066406 135.722656 47.355469 L 135.769531 47.429688 C 135.957031 47.71875 135.875 48.101562 135.585938 48.289062 C 135.378906 48.425781 135.125 48.421875 134.929688 48.304688 " fill-opacity="1" fill-rule="nonzero"/></g></g></g></g><g clip-path="url(#21baea5dd5)"><g clip-path="url(#bc89965df5)"><g clip-path="url(#4a130b8d46)"><g clip-path="url(#c77ebe9b3f)"><path fill="#7daa7b" d="M 130.226562 41.410156 C 130.148438 41.363281 130.078125 41.296875 130.023438 41.214844 C 127.019531 36.574219 124.222656 30.984375 126.226562 24.699219 C 127.476562 20.785156 130.242188 16.449219 133.628906 13.105469 C 136.832031 9.949219 141.558594 7.121094 146.277344 5.539062 C 147.234375 5.214844 148.273438 5.015625 149.28125 4.824219 L 149.71875 4.742188 C 150.054688 4.675781 150.382812 4.894531 150.449219 5.234375 C 150.515625 5.570312 150.292969 5.898438 149.957031 5.964844 L 149.515625 6.046875 C 148.507812 6.242188 147.554688 6.421875 146.675781 6.71875 C 142.128906 8.242188 137.578125 10.960938 134.507812 13.992188 C 131.304688 17.152344 128.589844 21.402344 127.414062 25.078125 C 125.570312 30.851562 128.082031 35.921875 131.070312 40.539062 C 131.257812 40.828125 131.171875 41.214844 130.882812 41.402344 C 130.679688 41.53125 130.425781 41.53125 130.226562 41.410156 " fill-opacity="1" fill-rule="nonzero"/></g></g></g></g><g clip-path="url(#85faa0bd23)"><g clip-path="url(#91f2dbe65e)"><g clip-path="url(#5aaa2071fe)"><g clip-path="url(#061c2fdf1e)"><path fill="#7daa7b" d="M 129.929688 52.023438 C 129.859375 51.984375 129.796875 51.925781 129.746094 51.855469 C 129.542969 51.578125 129.601562 51.1875 129.882812 50.984375 C 130.699219 50.394531 131.453125 49.792969 132.054688 49.3125 C 132.292969 49.125 132.507812 48.957031 132.691406 48.8125 C 132.777344 48.746094 132.875 48.671875 132.972656 48.597656 C 133.59375 48.113281 134.21875 47.640625 134.828125 47.191406 C 136.285156 46.101562 137.507812 45.265625 138.671875 44.5625 C 140.433594 43.5 142.078125 42.710938 143.707031 42.15625 C 146.195312 41.308594 148.796875 40.691406 151.316406 40.089844 C 152.238281 39.867188 153.164062 39.648438 154.085938 39.417969 C 164.207031 36.867188 172.886719 31.601562 179.882812 23.761719 C 180.109375 23.507812 180.503906 23.484375 180.761719 23.714844 C 181.019531 23.941406 181.039062 24.335938 180.8125 24.59375 C 173.648438 32.617188 164.757812 38.011719 154.390625 40.625 C 153.464844 40.859375 152.535156 41.078125 151.605469 41.300781 C 149.117188 41.894531 146.542969 42.507812 144.109375 43.335938 C 142.570312 43.859375 141 44.613281 139.316406 45.628906 C 138.1875 46.3125 137 47.125 135.570312 48.191406 C 134.953125 48.648438 134.339844 49.113281 133.734375 49.582031 C 133.632812 49.660156 133.546875 49.726562 133.460938 49.792969 C 133.273438 49.9375 133.066406 50.101562 132.832031 50.289062 C 132.21875 50.777344 131.453125 51.386719 130.613281 51.992188 C 130.40625 52.144531 130.136719 52.148438 129.929688 52.023438 " fill-opacity="1" fill-rule="nonzero"/></g></g></g></g><g clip-path="url(#d74193098f)"><g clip-path="url(#bc2ab7896b)"><g clip-path="url(#84e8e016dd)"><g clip-path="url(#90ff81a1ce)"><path fill="#7daa7b" d="M 138.675781 45.632812 C 138.664062 45.625 138.648438 45.617188 138.636719 45.605469 C 138.355469 45.40625 138.285156 45.019531 138.484375 44.738281 C 139.523438 43.269531 140.261719 41.546875 140.566406 39.882812 C 141.488281 34.808594 143.347656 31.613281 147.195312 28.476562 C 150.304688 25.941406 154.304688 24.171875 159.082031 23.222656 C 163.289062 22.386719 167.660156 22.777344 171.890625 23.15625 C 174.679688 23.40625 177.5625 23.664062 180.324219 23.554688 C 180.664062 23.542969 180.953125 23.808594 180.96875 24.152344 C 180.984375 24.496094 180.71875 24.785156 180.371094 24.800781 C 177.53125 24.910156 174.609375 24.648438 171.78125 24.398438 C 167.640625 24.027344 163.355469 23.640625 159.328125 24.445312 C 154.753906 25.351562 150.933594 27.035156 147.984375 29.445312 C 144.34375 32.40625 142.667969 35.296875 141.792969 40.109375 C 141.457031 41.945312 140.644531 43.84375 139.503906 45.457031 C 139.3125 45.722656 138.953125 45.796875 138.675781 45.632812 " fill-opacity="1" fill-rule="nonzero"/></g></g></g></g><g clip-path="url(#5dada3a3b9)"><g clip-path="url(#2b7ccd13e4)"><g clip-path="url(#4517c813fc)"><g clip-path="url(#230268061c)"><path fill="#7daa7b" d="M 250.816406 78.878906 C 250.660156 78.789062 250.546875 78.632812 250.515625 78.441406 C 249.734375 73.53125 246.292969 67.730469 243.328125 63.941406 C 241.839844 62.027344 239.753906 60.5625 236.949219 59.457031 C 235.601562 58.925781 234.246094 58.425781 232.933594 57.945312 C 229.652344 56.738281 226.550781 55.597656 223.570312 53.980469 C 223.257812 53.800781 223.15625 53.4375 223.320312 53.132812 C 223.484375 52.832031 223.863281 52.71875 224.167969 52.882812 C 227.066406 54.460938 230.125 55.585938 233.363281 56.777344 C 234.679688 57.261719 236.046875 57.761719 237.40625 58.300781 C 240.421875 59.488281 242.679688 61.082031 244.3125 63.175781 C 247.367188 67.089844 250.929688 73.101562 251.746094 78.246094 C 251.804688 78.585938 251.570312 78.90625 251.230469 78.957031 C 251.082031 78.984375 250.9375 78.953125 250.816406 78.878906 " fill-opacity="1" fill-rule="nonzero"/></g></g></g></g><g clip-path="url(#e650b24b09)"><g clip-path="url(#54592435f7)"><g clip-path="url(#ab58b0b481)"><g clip-path="url(#f04dad8bab)"><path fill="#7daa7b" d="M 241.644531 42.984375 C 241.378906 42.828125 241.265625 42.496094 241.390625 42.207031 C 241.523438 41.886719 241.890625 41.742188 242.207031 41.875 C 243.503906 42.429688 244.824219 43.066406 246.097656 43.683594 C 250.476562 45.800781 255.003906 47.992188 259.648438 47.109375 C 261.582031 46.742188 263.527344 45.972656 265.40625 45.230469 C 266.097656 44.957031 266.808594 44.675781 267.503906 44.421875 L 267.679688 44.359375 C 268.742188 43.96875 270.351562 43.382812 271.996094 43.023438 C 272.332031 42.949219 272.664062 43.160156 272.738281 43.496094 C 272.8125 43.832031 272.601562 44.164062 272.265625 44.238281 C 270.703125 44.582031 269.140625 45.152344 268.105469 45.527344 L 267.933594 45.589844 C 267.253906 45.839844 266.546875 46.121094 265.867188 46.390625 C 263.933594 47.152344 261.933594 47.945312 259.882812 48.335938 C 254.832031 49.292969 250.117188 47.011719 245.558594 44.804688 C 244.296875 44.195312 242.992188 43.5625 241.71875 43.023438 C 241.691406 43.011719 241.667969 43 241.644531 42.984375 " fill-opacity="1" fill-rule="nonzero"/></g></g></g></g><g clip-path="url(#b406982376)"><g clip-path="url(#61ead2645a)"><g clip-path="url(#1926520cd7)"><g clip-path="url(#dd34dd6952)"><g clip-path="url(#b4865efbad)"><g clip-path="url(#f5bc306d25)"><path fill="#7daa7b" d="M 65.347656 144.292969 C 65.257812 144.242188 65.179688 144.164062 65.125 144.066406 C 64.953125 143.765625 65.058594 143.386719 65.355469 143.21875 C 73.691406 138.5 81.410156 132.671875 88.296875 125.894531 C 90.09375 124.128906 91.847656 122.28125 93.511719 120.402344 C 97.449219 115.964844 101.039062 111.199219 104.183594 106.230469 C 104.898438 105.097656 105.605469 103.9375 106.273438 102.777344 C 108.125 99.59375 109.847656 96.257812 111.515625 93.03125 C 112.113281 91.871094 112.714844 90.714844 113.316406 89.558594 C 114.929688 86.472656 116.214844 84.152344 117.488281 82.03125 C 117.730469 81.617188 117.988281 81.207031 118.238281 80.796875 C 118.546875 80.292969 118.882812 79.761719 119.335938 79.070312 C 121.320312 76.011719 123.484375 73.058594 125.765625 70.292969 C 129.6875 65.523438 134.078125 61.132812 138.804688 57.25 C 143.832031 53.117188 149.253906 49.550781 154.933594 46.65625 C 156.832031 45.683594 158.761719 44.78125 160.671875 43.984375 C 161.726562 43.539062 162.832031 43.101562 163.960938 42.679688 C 172.066406 39.675781 180.554688 37.945312 189.1875 37.539062 C 194.667969 37.28125 200.144531 37.574219 205.460938 38.40625 C 209.230469 39 212.945312 39.867188 216.5 40.984375 C 216.992188 41.132812 217.480469 41.296875 217.972656 41.460938 C 221.453125 42.628906 225.03125 44.105469 229.230469 46.105469 C 232.855469 47.835938 236.480469 49.738281 239.980469 51.582031 C 242.746094 53.039062 245.609375 54.542969 248.453125 55.953125 C 251.917969 57.667969 254.832031 58.984375 257.628906 60.097656 C 268.167969 64.300781 278.746094 65.644531 287.421875 63.882812 C 287.757812 63.8125 288.089844 64.03125 288.160156 64.367188 C 288.226562 64.703125 288.007812 65.035156 287.671875 65.101562 C 278.761719 66.914062 267.925781 65.546875 257.167969 61.253906 C 254.339844 60.128906 251.394531 58.796875 247.902344 57.066406 C 245.042969 55.652344 242.175781 54.144531 239.402344 52.683594 C 235.910156 50.847656 232.300781 48.945312 228.695312 47.226562 C 224.539062 45.25 221.007812 43.792969 217.578125 42.640625 C 217.097656 42.480469 216.617188 42.320312 216.132812 42.171875 C 212.632812 41.074219 208.976562 40.21875 205.269531 39.636719 C 200.035156 38.816406 194.644531 38.53125 189.25 38.785156 C 180.742188 39.183594 172.382812 40.886719 164.398438 43.847656 C 163.285156 44.261719 162.195312 44.695312 161.15625 45.128906 C 159.273438 45.917969 157.371094 46.804688 155.5 47.765625 C 149.902344 50.621094 144.550781 54.136719 139.597656 58.210938 C 134.929688 62.042969 130.601562 66.375 126.726562 71.085938 C 124.476562 73.816406 122.339844 76.730469 120.378906 79.75 C 120.015625 80.3125 119.652344 80.878906 119.300781 81.449219 C 119.050781 81.855469 118.800781 82.261719 118.558594 82.667969 C 117.296875 84.769531 116.023438 87.074219 114.421875 90.136719 C 113.820312 91.289062 113.21875 92.445312 112.621094 93.605469 C 110.949219 96.84375 109.21875 100.195312 107.351562 103.40625 C 106.675781 104.578125 105.960938 105.75 105.234375 106.894531 C 102.058594 111.921875 98.429688 116.742188 94.445312 121.230469 C 92.765625 123.128906 90.988281 124.996094 89.171875 126.78125 C 82.207031 133.636719 74.402344 139.53125 65.972656 144.300781 C 65.769531 144.414062 65.53125 144.40625 65.347656 144.292969 " fill-opacity="1" fill-rule="nonzero"/></g></g></g></g></g></g><g clip-path="url(#2203e3c7ce)"><g clip-path="url(#3a68737f93)"><g clip-path="url(#9b7a5639af)"><g clip-path="url(#72f23741b6)"><g clip-path="url(#efeb706dea)"><g clip-path="url(#64e5fb1869)"><path fill="#7daa7b" d="M 247.859375 57.042969 C 247.664062 56.929688 247.539062 56.707031 247.554688 56.464844 C 247.582031 56.121094 247.878906 55.863281 248.222656 55.886719 C 251.433594 56.117188 254.785156 55.820312 258.023438 55.53125 C 260.847656 55.28125 263.769531 55.023438 266.582031 55.113281 C 271.082031 55.257812 275.230469 57.617188 279.238281 59.898438 C 282.003906 61.472656 284.863281 63.097656 287.714844 63.894531 C 288.046875 63.984375 288.238281 64.328125 288.148438 64.660156 C 288.054688 64.992188 287.710938 65.183594 287.378906 65.089844 C 284.378906 64.257812 281.453125 62.589844 278.621094 60.980469 C 274.746094 58.773438 270.734375 56.492188 266.542969 56.359375 C 263.804688 56.269531 260.921875 56.523438 258.136719 56.773438 C 254.847656 57.0625 251.445312 57.363281 248.132812 57.132812 C 248.035156 57.125 247.941406 57.09375 247.859375 57.042969 " fill-opacity="1" fill-rule="nonzero"/></g></g></g></g></g></g><g clip-path="url(#11af4b0ce2)"><g clip-path="url(#067db69cd2)"><g clip-path="url(#fd4577f55f)"><g clip-path="url(#e8679f1c37)"><path fill="#7daa7b" d="M 238.648438 74.738281 C 236.59375 73.519531 234.628906 71.960938 232.851562 69.949219 C 230.605469 67.410156 228.855469 64.285156 227.160156 61.265625 C 226.613281 60.285156 226.09375 59.359375 225.558594 58.449219 C 224.652344 56.917969 223.972656 55.3125 223.292969 53.667969 L 223.074219 53.136719 C 222.289062 51.222656 221.476562 49.242188 220.378906 47.511719 C 218.960938 45.285156 217.535156 43.542969 215.890625 42.035156 C 215.636719 41.804688 215.621094 41.410156 215.851562 41.15625 C 216.085938 40.902344 216.480469 40.890625 216.734375 41.121094 C 218.460938 42.703125 219.953125 44.523438 221.429688 46.84375 C 222.589844 48.667969 223.421875 50.699219 224.226562 52.667969 L 224.445312 53.195312 C 225.105469 54.796875 225.769531 56.355469 226.632812 57.820312 C 227.175781 58.742188 227.71875 59.714844 228.25 60.65625 C 229.910156 63.621094 231.628906 66.6875 233.785156 69.125 C 238.78125 74.777344 245.128906 76.601562 251.246094 77.734375 C 251.585938 77.792969 251.808594 78.117188 251.746094 78.457031 C 251.683594 78.796875 251.359375 79.019531 251.019531 78.957031 C 247.027344 78.21875 242.667969 77.121094 238.648438 74.738281 " fill-opacity="1" fill-rule="nonzero"/></g></g></g></g><g clip-path="url(#80914d4975)"><g clip-path="url(#9e2d72cfd3)"><g clip-path="url(#bf73106bb6)"><g clip-path="url(#ce643572ae)"><path fill="#7daa7b" d="M 228.644531 47.203125 C 228.449219 47.085938 228.324219 46.867188 228.339844 46.625 C 228.363281 46.28125 228.660156 46.023438 229.003906 46.046875 C 230.925781 46.175781 232.691406 45.882812 234.726562 45.089844 C 236.203125 44.519531 237.582031 43.847656 238.917969 43.195312 C 239.824219 42.75 240.765625 42.292969 241.710938 41.878906 C 243.816406 40.957031 245.574219 40.414062 247.421875 40.121094 C 252.765625 39.277344 258.894531 38.46875 263.984375 39.578125 C 266.492188 40.125 269.179688 41.238281 272.4375 43.089844 C 272.441406 43.09375 272.445312 43.09375 272.449219 43.097656 C 272.738281 43.269531 272.839844 43.644531 272.675781 43.9375 C 272.503906 44.238281 272.121094 44.34375 271.824219 44.171875 C 268.675781 42.386719 266.101562 41.3125 263.71875 40.792969 C 258.84375 39.730469 252.851562 40.523438 247.617188 41.351562 C 245.882812 41.628906 244.214844 42.140625 242.210938 43.019531 C 241.289062 43.421875 240.402344 43.855469 239.464844 44.3125 C 238.105469 44.976562 236.703125 45.660156 235.179688 46.25 C 232.992188 47.101562 231.003906 47.429688 228.921875 47.285156 C 228.820312 47.28125 228.726562 47.25 228.644531 47.203125 " fill-opacity="1" fill-rule="nonzero"/></g></g></g></g><g clip-path="url(#2ad462932a)"><g clip-path="url(#88383fe418)"><g clip-path="url(#15aa622ff7)"><g clip-path="url(#b1dd7cfea9)"><path fill="#7daa7b" d="M 88.417969 126.875 C 88.238281 126.769531 88.117188 126.570312 88.113281 126.347656 C 88.105469 126.003906 88.382812 125.722656 88.726562 125.714844 L 89.179688 125.710938 C 94.507812 125.644531 100.019531 125.578125 105.402344 124.957031 C 106.214844 124.863281 107.019531 124.769531 107.820312 124.675781 C 110.121094 124.402344 112.5 124.121094 114.835938 123.945312 C 118.089844 123.699219 120.796875 123.671875 123.351562 123.863281 C 127.742188 124.1875 131.6875 124.644531 135.511719 126.910156 C 135.53125 126.921875 135.554688 126.9375 135.574219 126.949219 C 137.34375 128.007812 138.792969 129.4375 140.195312 130.820312 C 141.078125 131.695312 141.992188 132.59375 142.960938 133.378906 C 148.195312 137.59375 153.226562 139.691406 158.792969 139.980469 C 158.796875 139.980469 158.804688 139.980469 158.808594 139.980469 C 159.070312 139.996094 159.304688 140.179688 159.375 140.449219 C 159.460938 140.78125 159.257812 141.121094 158.925781 141.203125 C 158.859375 141.222656 158.789062 141.226562 158.71875 141.222656 C 152.878906 140.917969 147.625 138.734375 142.179688 134.34375 C 141.160156 133.523438 140.226562 132.601562 139.320312 131.707031 C 137.910156 130.316406 136.574219 129 134.933594 128.015625 C 134.914062 128.003906 134.894531 127.992188 134.875 127.980469 C 131.285156 125.851562 127.488281 125.417969 123.261719 125.105469 C 120.769531 124.917969 118.121094 124.945312 114.933594 125.1875 C 112.621094 125.363281 110.257812 125.644531 107.96875 125.914062 C 107.164062 126.007812 106.355469 126.101562 105.546875 126.195312 C 100.101562 126.820312 94.558594 126.890625 89.199219 126.957031 L 88.742188 126.960938 C 88.625 126.964844 88.511719 126.933594 88.417969 126.875 " fill-opacity="1" fill-rule="nonzero"/></g></g></g></g><g clip-path="url(#37c05068aa)"><g clip-path="url(#cd49410a62)"><g clip-path="url(#1e894129db)"><g clip-path="url(#7f15fb946c)"><path fill="#7daa7b" d="M 93.660156 121.351562 C 93.480469 121.242188 93.359375 121.046875 93.355469 120.824219 C 93.34375 119.972656 93.335938 119.109375 93.332031 118.238281 C 93.292969 112.46875 93.25 106.507812 91.121094 101.449219 C 90.976562 101.109375 90.804688 100.761719 90.613281 100.410156 C 89.339844 98.085938 87.363281 96.355469 85.277344 94.523438 L 84.808594 94.113281 C 81.019531 90.777344 76.179688 85.363281 74.660156 78.503906 C 73.464844 73.128906 74.386719 67.113281 77.398438 60.625 C 77.746094 59.886719 78.117188 59.144531 78.496094 58.425781 C 79.285156 56.933594 80.265625 55.382812 81.503906 53.679688 C 82.433594 52.40625 83.484375 51.074219 84.8125 49.476562 C 85.03125 49.214844 85.425781 49.179688 85.691406 49.398438 C 85.957031 49.617188 85.992188 50.007812 85.769531 50.273438 C 84.460938 51.847656 83.421875 53.164062 82.511719 54.414062 C 81.308594 56.066406 80.359375 57.566406 79.601562 59.003906 C 79.226562 59.710938 78.867188 60.433594 78.527344 61.152344 C 75.632812 67.382812 74.742188 73.132812 75.875 78.238281 C 77.324219 84.765625 81.980469 89.964844 85.628906 93.179688 L 86.097656 93.589844 C 88.175781 95.410156 90.324219 97.292969 91.707031 99.8125 C 91.917969 100.199219 92.109375 100.589844 92.265625 100.96875 C 94.496094 106.25 94.535156 112.339844 94.578125 118.230469 C 94.582031 119.101562 94.589844 119.960938 94.601562 120.804688 C 94.609375 121.148438 94.332031 121.433594 93.988281 121.4375 C 93.871094 121.4375 93.757812 121.40625 93.660156 121.351562 " fill-opacity="1" fill-rule="nonzero"/></g></g></g></g><g clip-path="url(#6246d50e88)"><g clip-path="url(#bf8b772f96)"><g clip-path="url(#727f145035)"><g clip-path="url(#5ec8ceabb6)"><path fill="#7daa7b" d="M 113.550781 90.382812 C 113.460938 90.328125 113.382812 90.25 113.324219 90.148438 C 111.792969 87.382812 110.265625 84.570312 108.789062 81.851562 C 107.644531 79.738281 106.496094 77.625 105.332031 75.507812 C 104.828125 74.589844 104.3125 73.703125 103.796875 72.875 C 101.15625 68.609375 98.273438 65.269531 95.230469 62.941406 C 92.351562 60.742188 89.402344 58.796875 86.214844 56.992188 C 85.929688 56.828125 85.8125 56.441406 85.980469 56.144531 C 86.148438 55.84375 86.53125 55.738281 86.832031 55.90625 C 90.066406 57.742188 93.0625 59.71875 95.988281 61.953125 C 99.152344 64.371094 102.136719 67.824219 104.859375 72.21875 C 105.382812 73.066406 105.910156 73.972656 106.425781 74.910156 C 107.589844 77.027344 108.738281 79.144531 109.886719 81.257812 C 111.359375 83.976562 112.886719 86.789062 114.414062 89.546875 C 114.582031 89.847656 114.472656 90.226562 114.171875 90.390625 C 113.972656 90.503906 113.738281 90.492188 113.550781 90.382812 " fill-opacity="1" fill-rule="nonzero"/></g></g></g></g><g clip-path="url(#d91d3d3fe1)"><g clip-path="url(#560d261bc4)"><g clip-path="url(#13f69e3b30)"><g clip-path="url(#19d357fe61)"><path fill="#7daa7b" d="M 70.605469 49.574219 C 70.328125 49.410156 70.21875 49.054688 70.363281 48.761719 C 70.515625 48.453125 70.890625 48.328125 71.199219 48.484375 C 72.941406 49.347656 74.765625 50.128906 76.53125 50.882812 C 78.160156 51.582031 79.847656 52.304688 81.484375 53.097656 L 82.285156 53.488281 C 82.601562 53.636719 82.71875 54.015625 82.566406 54.320312 C 82.414062 54.628906 82.042969 54.757812 81.734375 54.601562 L 80.9375 54.214844 C 79.332031 53.4375 77.65625 52.722656 76.042969 52.027344 C 74.261719 51.265625 72.417969 50.480469 70.644531 49.597656 C 70.632812 49.589844 70.617188 49.582031 70.605469 49.574219 " fill-opacity="1" fill-rule="nonzero"/></g></g></g></g><g clip-path="url(#42908fe94d)"><g clip-path="url(#678d2d16f3)"><g clip-path="url(#ce519460a2)"><g clip-path="url(#0807cf9746)"><path fill="#7daa7b" d="M 104.390625 107.097656 C 104.210938 106.992188 104.089844 106.796875 104.085938 106.574219 C 104.078125 106.230469 104.351562 105.945312 104.695312 105.941406 C 107.855469 105.878906 111.042969 105.210938 113.464844 104.636719 C 114.757812 104.335938 116.0625 104 117.324219 103.671875 C 118.429688 103.386719 119.574219 103.09375 120.6875 102.828125 C 121.519531 102.628906 122.210938 102.476562 122.863281 102.339844 C 123.265625 102.257812 123.664062 102.179688 124.054688 102.117188 C 128.742188 101.328125 133.164062 101.707031 138.382812 103.34375 C 141.863281 104.4375 144.550781 106.519531 147.460938 108.925781 C 149.410156 110.535156 151.628906 112.46875 153.289062 115.042969 C 153.894531 115.984375 154.425781 116.933594 154.9375 117.851562 C 155.535156 118.914062 156.09375 119.917969 156.742188 120.871094 C 156.9375 121.152344 156.867188 121.542969 156.582031 121.734375 C 156.296875 121.929688 155.910156 121.855469 155.714844 121.570312 C 155.035156 120.574219 154.460938 119.546875 153.851562 118.457031 C 153.347656 117.554688 152.828125 116.625 152.242188 115.714844 C 150.828125 113.527344 149.0625 111.859375 146.667969 109.886719 C 143.761719 107.480469 141.277344 105.558594 138.011719 104.53125 C 132.992188 102.957031 128.75 102.589844 124.257812 103.347656 C 123.878906 103.40625 123.496094 103.484375 123.117188 103.558594 C 122.476562 103.691406 121.796875 103.84375 120.976562 104.039062 C 119.875 104.300781 118.738281 104.59375 117.640625 104.878906 C 116.371094 105.207031 115.054688 105.542969 113.75 105.851562 C 111.269531 106.4375 108 107.121094 104.722656 107.183594 C 104.601562 107.1875 104.488281 107.15625 104.390625 107.097656 " fill-opacity="1" fill-rule="nonzero"/></g></g></g></g><g clip-path="url(#009f038702)"><g clip-path="url(#145d1b74a7)"><g clip-path="url(#18db02af87)"><g clip-path="url(#13785bca38)"><path fill="#7daa7b" d="M 120.515625 103.96875 C 120.414062 103.910156 120.332031 103.824219 120.277344 103.714844 C 120.121094 103.40625 120.242188 103.03125 120.550781 102.875 C 121.273438 102.511719 121.972656 102.121094 122.632812 101.710938 C 122.722656 101.65625 122.8125 101.597656 122.90625 101.539062 C 124.601562 100.4375 126.167969 99.023438 127.675781 97.65625 C 128.535156 96.882812 129.421875 96.078125 130.332031 95.339844 C 132.863281 93.265625 135.570312 92.035156 137.878906 91.101562 C 138.199219 90.972656 138.5625 91.128906 138.691406 91.445312 C 138.820312 91.765625 138.667969 92.128906 138.347656 92.257812 C 136.121094 93.152344 133.523438 94.335938 131.121094 96.300781 C 130.238281 97.023438 129.363281 97.816406 128.515625 98.582031 C 126.964844 99.980469 125.363281 101.425781 123.582031 102.585938 C 123.480469 102.648438 123.382812 102.710938 123.289062 102.769531 C 122.597656 103.195312 121.867188 103.605469 121.113281 103.988281 C 120.917969 104.085938 120.691406 104.074219 120.515625 103.96875 " fill-opacity="1" fill-rule="nonzero"/></g></g></g></g><g clip-path="url(#01a8e6ec0d)"><g clip-path="url(#0fb3dccd6d)"><g clip-path="url(#5dd561ab25)"><g clip-path="url(#531a6fb122)"><path fill="#7daa7b" d="M 118.453125 81.660156 C 118.324219 81.585938 118.222656 81.460938 118.175781 81.308594 C 118.074219 80.980469 118.257812 80.632812 118.585938 80.53125 C 119.011719 80.398438 119.449219 80.269531 119.890625 80.152344 C 123.988281 79.027344 128.3125 78.4375 132.496094 77.867188 C 133.21875 77.769531 133.9375 77.671875 134.644531 77.574219 C 135.382812 77.472656 136.113281 77.367188 136.824219 77.253906 C 138.78125 76.957031 140.773438 76.75 142.703125 76.550781 C 145.371094 76.277344 148.128906 75.992188 150.78125 75.457031 C 152.457031 75.113281 154.152344 74.660156 155.792969 74.222656 C 156.875 73.933594 157.992188 73.632812 159.097656 73.367188 C 161.792969 72.722656 164.441406 71.730469 167.675781 70.148438 C 167.988281 70 168.359375 70.128906 168.511719 70.4375 C 168.664062 70.746094 168.535156 71.117188 168.226562 71.269531 C 164.902344 72.890625 162.179688 73.914062 159.390625 74.578125 C 158.300781 74.839844 157.191406 75.136719 156.117188 75.425781 C 154.460938 75.867188 152.742188 76.328125 151.027344 76.675781 C 148.320312 77.226562 145.53125 77.511719 142.835938 77.789062 C 140.917969 77.988281 138.941406 78.191406 137.019531 78.484375 C 136.300781 78.597656 135.5625 78.703125 134.816406 78.804688 C 134.109375 78.90625 133.390625 79.003906 132.667969 79.105469 C 128.523438 79.667969 124.238281 80.253906 120.21875 81.351562 C 119.789062 81.46875 119.367188 81.59375 118.953125 81.71875 C 118.777344 81.773438 118.597656 81.746094 118.453125 81.660156 " fill-opacity="1" fill-rule="nonzero"/></g></g></g></g><g clip-path="url(#39fa4439f5)"><g clip-path="url(#40c245db9d)"><g clip-path="url(#c183487bd1)"><g clip-path="url(#8d1b031eab)"><path fill="#7daa7b" d="M 119.539062 79.945312 C 119.386719 79.855469 119.277344 79.703125 119.242188 79.515625 C 118.644531 76.078125 117.421875 72.449219 115.5 68.421875 C 114.589844 66.511719 113.527344 64.519531 112.246094 62.335938 C 111.171875 60.503906 109.8125 58.804688 108.5 57.160156 C 107.335938 55.699219 106.128906 54.195312 105.105469 52.578125 C 102.414062 48.335938 101.9375 43.277344 103.609375 36.667969 C 104.148438 34.535156 104.6875 32.675781 105.261719 30.984375 C 105.375 30.660156 105.726562 30.488281 106.050781 30.597656 C 106.378906 30.710938 106.550781 31.0625 106.441406 31.386719 C 105.878906 33.046875 105.347656 34.871094 104.816406 36.972656 C 103.238281 43.230469 103.664062 47.976562 106.15625 51.914062 C 107.144531 53.46875 108.328125 54.949219 109.472656 56.382812 C 110.8125 58.0625 112.199219 59.796875 113.320312 61.707031 C 114.621094 63.921875 115.703125 65.941406 116.625 67.886719 C 118.597656 72.019531 119.855469 75.753906 120.46875 79.304688 C 120.527344 79.644531 120.300781 79.964844 119.964844 80.023438 C 119.8125 80.050781 119.660156 80.019531 119.539062 79.945312 " fill-opacity="1" fill-rule="nonzero"/></g></g></g></g><g clip-path="url(#9af8819dde)"><g clip-path="url(#5041e1fda8)"><g clip-path="url(#0537573f98)"><g clip-path="url(#aeac080ebf)"><path fill="#7daa7b" d="M 125.925781 71.226562 C 125.65625 71.066406 125.546875 70.722656 125.679688 70.433594 C 126.214844 69.253906 126.597656 68.257812 126.878906 67.296875 C 127.316406 65.824219 127.519531 64.355469 127.730469 62.800781 C 127.855469 61.878906 127.988281 60.925781 128.167969 59.984375 C 128.308594 59.28125 128.449219 58.589844 128.59375 57.902344 C 129.046875 55.730469 129.472656 53.679688 129.625 51.476562 C 129.75 49.644531 129.765625 47.839844 129.777344 46.09375 C 129.789062 44.371094 129.804688 42.589844 129.925781 40.832031 C 130.09375 38.335938 130.457031 36.242188 131.058594 34.242188 C 132.855469 28.316406 136.535156 21.03125 140.664062 15.238281 C 142.75 12.304688 145.203125 9.570312 147.570312 6.921875 C 147.992188 6.457031 148.40625 5.992188 148.824219 5.523438 C 148.988281 5.335938 149.179688 5.132812 149.390625 4.914062 C 149.632812 4.671875 150.027344 4.667969 150.273438 4.90625 C 150.519531 5.148438 150.523438 5.539062 150.28125 5.785156 C 150.089844 5.984375 149.910156 6.175781 149.753906 6.351562 C 149.335938 6.820312 148.917969 7.285156 148.5 7.753906 C 146.152344 10.375 143.726562 13.082031 141.679688 15.957031 C 137.625 21.652344 134.011719 28.796875 132.253906 34.605469 C 131.675781 36.511719 131.332031 38.515625 131.167969 40.921875 C 131.050781 42.640625 131.035156 44.402344 131.023438 46.101562 C 131.007812 47.867188 130.996094 49.691406 130.871094 51.535156 C 130.710938 53.851562 130.273438 55.945312 129.8125 58.160156 C 129.671875 58.839844 129.527344 59.523438 129.394531 60.21875 C 129.21875 61.132812 129.089844 62.066406 128.964844 62.96875 C 128.753906 64.503906 128.539062 66.085938 128.078125 67.648438 C 127.777344 68.667969 127.375 69.71875 126.8125 70.949219 C 126.671875 71.261719 126.300781 71.398438 125.988281 71.257812 C 125.964844 71.246094 125.945312 71.234375 125.925781 71.226562 " fill-opacity="1" fill-rule="nonzero"/></g></g></g></g><g clip-path="url(#4077b67a31)"><g clip-path="url(#53d69dcf52)"><g clip-path="url(#1cafb40e93)"><g clip-path="url(#64c285014a)"><path fill="#7daa7b" d="M 138.882812 58.265625 C 138.757812 58.191406 138.660156 58.074219 138.609375 57.929688 C 138.5 57.601562 138.675781 57.25 139 57.140625 C 139.578125 56.949219 140.15625 56.742188 140.730469 56.542969 C 141.058594 56.425781 141.382812 56.3125 141.710938 56.199219 C 143.09375 55.71875 144.585938 55.226562 146.132812 54.886719 C 149.503906 54.144531 153.195312 53.839844 157.105469 53.976562 L 157.394531 53.984375 C 159.683594 54.0625 162.046875 54.140625 164.308594 54.613281 C 165.601562 54.882812 166.800781 55.386719 167.957031 55.871094 C 168.203125 55.972656 168.445312 56.074219 168.6875 56.171875 C 169.007812 56.300781 169.160156 56.664062 169.03125 56.984375 C 168.902344 57.304688 168.539062 57.457031 168.21875 57.324219 C 167.972656 57.226562 167.726562 57.121094 167.480469 57.019531 C 166.324219 56.535156 165.230469 56.078125 164.054688 55.832031 C 161.898438 55.382812 159.589844 55.304688 157.355469 55.230469 L 157.066406 55.21875 C 153.257812 55.085938 149.671875 55.382812 146.402344 56.101562 C 144.917969 56.429688 143.46875 56.90625 142.121094 57.375 C 141.796875 57.488281 141.46875 57.601562 141.144531 57.71875 C 140.5625 57.921875 139.984375 58.125 139.398438 58.320312 C 139.21875 58.382812 139.03125 58.355469 138.882812 58.265625 " fill-opacity="1" fill-rule="nonzero"/></g></g></g></g><g clip-path="url(#2594927727)"><g clip-path="url(#70b157d817)"><g clip-path="url(#e583468f97)"><g clip-path="url(#89c06fcf59)"><path fill="#7daa7b" d="M 149.441406 62.398438 C 148.542969 61.867188 147.8125 61.148438 147.019531 60.367188 C 146.832031 60.183594 146.640625 59.996094 146.441406 59.804688 C 144.941406 58.347656 143.542969 57.804688 141.777344 57.394531 C 141.441406 57.316406 141.230469 56.980469 141.308594 56.648438 C 141.386719 56.3125 141.722656 56.101562 142.054688 56.179688 C 143.976562 56.625 145.605469 57.257812 147.308594 58.90625 C 147.511719 59.101562 147.703125 59.292969 147.894531 59.480469 C 149.25 60.816406 150.230469 61.78125 152.140625 62.011719 C 155.738281 62.449219 158.730469 60.785156 161.890625 59.023438 C 163.917969 57.894531 166.011719 56.730469 168.296875 56.148438 C 168.632812 56.058594 168.972656 56.261719 169.058594 56.59375 C 169.144531 56.929688 168.941406 57.265625 168.609375 57.351562 C 166.480469 57.894531 164.457031 59.023438 162.5 60.113281 C 159.300781 61.894531 155.992188 63.734375 151.992188 63.25 C 150.964844 63.125 150.148438 62.820312 149.441406 62.398438 " fill-opacity="1" fill-rule="nonzero"/></g></g></g></g><g clip-path="url(#153db5876e)"><g clip-path="url(#e787f20a86)"><g clip-path="url(#4ca2a40dc5)"><g clip-path="url(#987da22d45)"><path fill="#7daa7b" d="M 154.898438 47.746094 C 154.734375 47.648438 154.613281 47.472656 154.59375 47.265625 C 154.5625 46.921875 154.816406 46.621094 155.160156 46.589844 C 160.851562 46.082031 167.03125 47.480469 170.917969 48.957031 C 171.535156 49.191406 172.167969 49.449219 172.789062 49.726562 C 175.164062 50.761719 177.34375 51.984375 179.167969 53.042969 C 186.023438 57.023438 193.472656 57.671875 201.359375 58.359375 L 202.332031 58.445312 C 202.675781 58.476562 202.929688 58.777344 202.898438 59.121094 C 202.871094 59.464844 202.566406 59.714844 202.226562 59.683594 L 201.253906 59.601562 C 193.226562 58.902344 185.640625 58.238281 178.542969 54.121094 C 176.75 53.078125 174.609375 51.878906 172.289062 50.863281 C 171.683594 50.59375 171.074219 50.34375 170.480469 50.121094 C 166.722656 48.695312 160.753906 47.34375 155.269531 47.832031 C 155.136719 47.84375 155.007812 47.8125 154.898438 47.746094 " fill-opacity="1" fill-rule="nonzero"/></g></g></g></g><g clip-path="url(#d5a23432df)"><g clip-path="url(#c0da02e627)"><g clip-path="url(#9ca136e31d)"><g clip-path="url(#a7f841fd6a)"><path fill="#7daa7b" d="M 172.222656 50.828125 C 172.046875 50.726562 171.925781 50.539062 171.914062 50.320312 C 171.898438 49.980469 172.164062 49.6875 172.507812 49.671875 C 173.820312 49.613281 175.058594 49.40625 176.183594 49.0625 L 176.226562 49.046875 C 179.148438 48.15625 181.671875 47.382812 184.769531 47.128906 C 188.117188 46.855469 189.929688 47.5625 192.980469 49.363281 C 192.984375 49.363281 192.992188 49.371094 193 49.375 C 195.042969 50.585938 196.714844 52.488281 198.332031 54.328125 C 199.679688 55.863281 201.078125 57.453125 202.636719 58.558594 C 202.917969 58.757812 202.988281 59.144531 202.789062 59.425781 C 202.589844 59.707031 202.195312 59.769531 201.917969 59.574219 C 200.238281 58.382812 198.792969 56.738281 197.394531 55.148438 C 195.84375 53.382812 194.238281 51.554688 192.363281 50.445312 C 192.359375 50.441406 192.355469 50.4375 192.347656 50.433594 C 189.578125 48.800781 188.035156 48.113281 184.871094 48.371094 C 181.90625 48.613281 179.445312 49.367188 176.589844 50.242188 L 176.550781 50.25 C 175.324219 50.628906 173.984375 50.851562 172.566406 50.914062 C 172.441406 50.921875 172.320312 50.890625 172.222656 50.828125 " fill-opacity="1" fill-rule="nonzero"/></g></g></g></g><g clip-path="url(#92761ee5a0)"><g clip-path="url(#6acd2ebeac)"><g clip-path="url(#22480236f4)"><g clip-path="url(#80273e3a47)"><path fill="#7daa7b" d="M 163.863281 43.800781 C 163.839844 43.785156 163.8125 43.769531 163.789062 43.75 C 163.523438 43.535156 163.480469 43.144531 163.691406 42.875 C 167.304688 38.359375 173.722656 35.820312 179.453125 33.800781 C 181.632812 33.03125 183.855469 32.273438 186.007812 31.535156 L 188.238281 30.773438 C 190.074219 30.152344 191.671875 29.597656 193.128906 29.085938 C 196.039062 28.0625 199.042969 27.140625 201.953125 26.246094 C 203.585938 25.746094 205.273438 25.226562 206.925781 24.699219 C 212.136719 23.019531 216.390625 20.082031 220.652344 16.964844 C 220.929688 16.761719 221.320312 16.820312 221.523438 17.097656 C 221.726562 17.375 221.667969 17.765625 221.386719 17.96875 C 217.042969 21.148438 212.695312 24.148438 207.308594 25.882812 C 205.648438 26.414062 203.957031 26.933594 202.316406 27.4375 C 199.425781 28.324219 196.433594 29.242188 193.542969 30.257812 C 192.082031 30.773438 190.480469 31.328125 188.644531 31.953125 L 186.410156 32.714844 C 184.265625 33.449219 182.042969 34.207031 179.867188 34.972656 C 174.300781 36.941406 168.074219 39.394531 164.667969 43.652344 C 164.472656 43.898438 164.128906 43.957031 163.863281 43.800781 " fill-opacity="1" fill-rule="nonzero"/></g></g></g></g><g clip-path="url(#4ae6b3716b)"><g clip-path="url(#50c95ca5bb)"><g clip-path="url(#d259f253cd)"><g clip-path="url(#8ea6795146)"><path fill="#7daa7b" d="M 188.125 31.898438 C 188.109375 31.886719 188.089844 31.875 188.070312 31.859375 C 187.792969 31.65625 187.738281 31.261719 187.945312 30.988281 C 188.992188 29.589844 189.664062 27.402344 190.316406 25.285156 C 190.988281 23.105469 191.617188 21.050781 192.648438 20.015625 C 195.71875 16.9375 200.25 16.660156 204.242188 16.414062 C 204.5625 16.394531 204.878906 16.375 205.1875 16.355469 C 208.621094 16.125 212.089844 16.355469 215.445312 16.578125 C 216.160156 16.625 216.871094 16.671875 217.582031 16.714844 C 218.601562 16.773438 219.695312 16.816406 221.03125 16.84375 C 221.375 16.847656 221.648438 17.132812 221.644531 17.476562 C 221.636719 17.820312 221.351562 18.09375 221.007812 18.085938 C 219.65625 18.0625 218.542969 18.019531 217.507812 17.957031 C 216.792969 17.914062 216.078125 17.867188 215.367188 17.820312 C 212.050781 17.601562 208.621094 17.375 205.273438 17.597656 C 204.960938 17.617188 204.640625 17.636719 204.320312 17.65625 C 200.546875 17.890625 196.269531 18.152344 193.53125 20.898438 C 192.71875 21.710938 192.128906 23.625 191.507812 25.652344 C 190.824219 27.871094 190.117188 30.164062 188.941406 31.734375 C 188.75 31.992188 188.398438 32.058594 188.125 31.898438 " fill-opacity="1" fill-rule="nonzero"/></g></g></g></g><g clip-path="url(#18ae0bf342)"><g clip-path="url(#9a59ec94d1)"><g clip-path="url(#7467953043)"><g clip-path="url(#7f6a159f81)"><path fill="#7daa7b" d="M 214.847656 73.472656 C 210.757812 71.042969 207.027344 66.722656 203.542969 60.398438 C 203.4375 60.210938 203.339844 60.023438 203.242188 59.835938 L 203.046875 59.476562 C 201.464844 56.5 200.117188 53.507812 198.929688 50.867188 L 198.871094 50.742188 C 198.429688 49.757812 197.667969 48.21875 196.546875 46.453125 C 194.914062 43.882812 192.261719 40.453125 188.933594 38.714844 C 188.621094 38.554688 188.507812 38.179688 188.667969 37.875 C 188.824219 37.570312 189.203125 37.449219 189.507812 37.609375 C 193.082031 39.472656 195.882812 43.085938 197.597656 45.789062 C 198.515625 47.230469 199.351562 48.769531 200.007812 50.234375 L 200.066406 50.359375 C 201.246094 52.980469 202.582031 55.953125 204.144531 58.890625 L 204.339844 59.25 C 204.4375 59.433594 204.535156 59.617188 204.632812 59.796875 C 209.347656 68.351562 214.238281 72.9375 220.03125 74.226562 C 220.367188 74.304688 220.578125 74.632812 220.503906 74.96875 C 220.429688 75.304688 220.097656 75.515625 219.761719 75.445312 C 218.066406 75.066406 216.429688 74.410156 214.847656 73.472656 " fill-opacity="1" fill-rule="nonzero"/></g></g></g></g><g clip-path="url(#7db176ed92)"><g clip-path="url(#5728ab7d4d)"><g clip-path="url(#1dd862015b)"><g clip-path="url(#e69d57505d)"><path fill="#7daa7b" d="M 219.578125 75.371094 C 219.476562 75.308594 219.386719 75.214844 219.332031 75.097656 C 218.089844 72.433594 217.1875 69.585938 216.214844 66.128906 C 215.117188 62.222656 213.125 58.601562 210.449219 55.664062 C 208.65625 53.699219 206.335938 52.441406 203.875 51.113281 C 203.0625 50.675781 202.226562 50.222656 201.414062 49.742188 C 199.734375 48.738281 198.171875 47.660156 196.710938 46.628906 C 196.433594 46.429688 196.363281 46.042969 196.5625 45.761719 C 196.761719 45.480469 197.15625 45.417969 197.433594 45.613281 C 198.867188 46.628906 200.417969 47.703125 202.046875 48.671875 C 202.835938 49.136719 203.667969 49.585938 204.46875 50.019531 C 206.910156 51.339844 209.433594 52.703125 211.371094 54.824219 C 214.175781 57.90625 216.265625 61.699219 217.414062 65.796875 C 218.371094 69.191406 219.253906 71.984375 220.460938 74.570312 C 220.605469 74.882812 220.472656 75.253906 220.160156 75.398438 C 219.964844 75.488281 219.75 75.472656 219.578125 75.371094 " fill-opacity="1" fill-rule="nonzero"/></g></g></g></g><g clip-path="url(#48ae983860)"><g clip-path="url(#7e06b16f9d)"><g clip-path="url(#45937fed71)"><g clip-path="url(#a12faff086)"><path fill="#7daa7b" d="M 205.046875 39.558594 C 204.894531 39.46875 204.785156 39.316406 204.75 39.128906 C 204.691406 38.789062 204.917969 38.46875 205.257812 38.410156 C 210.765625 37.4375 216.335938 35.257812 221.53125 33.050781 L 222.453125 32.65625 C 222.914062 32.460938 223.375 32.265625 223.828125 32.066406 C 234.273438 27.574219 241.875 21.929688 247.746094 14.3125 C 247.957031 14.039062 248.347656 13.988281 248.621094 14.199219 C 248.890625 14.410156 248.945312 14.796875 248.734375 15.074219 C 242.726562 22.867188 234.96875 28.628906 224.320312 33.210938 C 223.867188 33.410156 223.410156 33.605469 222.945312 33.804688 L 222.023438 34.195312 C 216.753906 36.433594 211.105469 38.640625 205.476562 39.632812 C 205.320312 39.660156 205.171875 39.632812 205.046875 39.558594 " fill-opacity="1" fill-rule="nonzero"/></g></g></g></g><g clip-path="url(#f9e49ac37f)"><g clip-path="url(#5e11a2bf66)"><g clip-path="url(#9fd9369683)"><g clip-path="url(#2f67736bfa)"><path fill="#7daa7b" d="M 221.460938 34.160156 C 221.304688 34.066406 221.191406 33.910156 221.160156 33.714844 C 220.359375 28.386719 223.832031 23.070312 227.394531 20.386719 C 230.933594 17.726562 235.179688 17.085938 239.238281 16.789062 C 242.980469 16.515625 245.726562 15.6875 247.882812 14.179688 C 248.164062 13.984375 248.550781 14.050781 248.75 14.335938 C 248.949219 14.617188 248.878906 15.003906 248.597656 15.203125 C 246.25 16.839844 243.304688 17.742188 239.328125 18.03125 C 235.460938 18.316406 231.425781 18.914062 228.144531 21.382812 C 223.46875 24.90625 221.886719 30.148438 222.394531 33.53125 C 222.445312 33.875 222.210938 34.191406 221.867188 34.242188 C 221.722656 34.261719 221.578125 34.230469 221.460938 34.160156 " fill-opacity="1" fill-rule="nonzero"/></g></g></g></g></svg>