<svg xmlns="http://www.w3.org/2000/svg" xmlns:xlink="http://www.w3.org/1999/xlink" width="500" zoomAndPan="magnify" viewBox="0 0 375 374.999991" height="500" preserveAspectRatio="xMidYMid meet" version="1.0"><path fill="#3bbec5" d="M 373.929688 311.382812 C 375.054688 315.714844 372.445312 320.140625 368.109375 321.261719 L 136.257812 381.210938 C 131.921875 382.332031 127.496094 379.730469 126.378906 375.394531 L 47.632812 71.117188 C 46.511719 66.78125 49.117188 62.359375 53.457031 61.242188 L 285.304688 1.289062 C 289.644531 0.164062 294.066406 2.773438 295.191406 7.109375 L 373.929688 311.382812 " fill-opacity="1" fill-rule="nonzero"/><path fill="#5bc9cf" d="M 327.21875 198.847656 L 279.53125 14.589844 L 98.109375 61.503906 C 98.085938 61.203125 98.0625 60.90625 98.039062 60.613281 C 97.839844 58.054688 97.699219 55.488281 97.601562 52.929688 L 283.6875 4.8125 C 284.3125 4.648438 284.941406 4.574219 285.550781 4.574219 C 288.855469 4.574219 291.863281 6.789062 292.730469 10.132812 L 338.78125 188.09375 C 335.175781 191.933594 331.3125 195.53125 327.21875 198.847656 " fill-opacity="1" fill-rule="nonzero"/><path fill="#bdbcbd" d="M 134.222656 381.472656 C 134.222656 381.472656 134.21875 381.472656 134.21875 381.472656 C 134.21875 381.472656 134.222656 381.472656 134.222656 381.472656 M 134.222656 381.472656 C 134.882812 381.472656 135.554688 381.390625 136.222656 381.21875 C 135.554688 381.390625 134.882812 381.472656 134.222656 381.472656 M 136.234375 381.214844 C 136.246094 381.214844 136.253906 381.210938 136.257812 381.210938 L 368.109375 321.261719 C 371.769531 320.316406 374.195312 317.019531 374.191406 313.40625 C 374.195312 317.019531 371.769531 320.316406 368.109375 321.261719 L 136.257812 381.210938 C 136.253906 381.210938 136.246094 381.214844 136.234375 381.214844 M 126.417969 375.546875 C 126.417969 375.542969 126.417969 375.542969 126.417969 375.542969 C 126.417969 375.542969 126.417969 375.542969 126.417969 375.546875 M 126.398438 375.480469 C 126.390625 375.460938 126.386719 375.441406 126.382812 375.421875 C 126.386719 375.441406 126.390625 375.460938 126.398438 375.480469 M 373.929688 311.382812 L 345.851562 202.875 L 373.929688 311.382812 M 53.457031 61.242188 L 80.847656 54.15625 L 53.457031 61.242188 " fill-opacity="1" fill-rule="nonzero"/><path fill="#2c8b92" d="M 134.222656 381.472656 C 134.222656 381.472656 134.21875 381.472656 134.21875 381.472656 C 130.660156 381.46875 127.410156 379.113281 126.417969 375.546875 C 126.417969 375.542969 126.417969 375.542969 126.417969 375.542969 C 126.410156 375.519531 126.402344 375.5 126.398438 375.480469 C 126.390625 375.460938 126.386719 375.441406 126.382812 375.421875 C 126.382812 375.414062 126.378906 375.402344 126.378906 375.394531 L 122.195312 359.242188 L 125.292969 358.441406 L 128.257812 369.890625 L 257.351562 336.511719 L 258.445312 345.449219 C 258.445312 345.449219 259.648438 345.949219 261.167969 345.949219 C 261.929688 345.949219 262.769531 345.824219 263.574219 345.449219 L 264.902344 334.5625 L 356.222656 310.949219 L 331.589844 215.746094 C 333.078125 214.601562 334.542969 213.421875 335.980469 212.210938 C 339.464844 209.269531 342.742188 206.144531 345.851562 202.875 L 373.929688 311.382812 C 374.105469 312.058594 374.191406 312.738281 374.191406 313.40625 C 374.195312 317.019531 371.769531 320.316406 368.109375 321.261719 L 136.257812 381.210938 C 136.253906 381.210938 136.246094 381.214844 136.234375 381.214844 C 136.230469 381.21875 136.226562 381.21875 136.222656 381.21875 C 135.554688 381.390625 134.882812 381.472656 134.222656 381.472656 M 137.628906 355.351562 C 137.460938 355.351562 137.296875 355.34375 137.136719 355.316406 C 138.390625 354.71875 139.089844 353.292969 138.726562 351.894531 C 138.378906 350.554688 137.171875 349.664062 135.847656 349.664062 C 135.601562 349.664062 135.347656 349.695312 135.101562 349.757812 L 134.933594 349.800781 C 135.382812 349.234375 136.015625 348.800781 136.773438 348.601562 C 137.0625 348.53125 137.355469 348.492188 137.636719 348.492188 C 139.164062 348.492188 140.550781 349.519531 140.953125 351.0625 C 141.429688 352.898438 140.328125 354.769531 138.492188 355.246094 C 138.203125 355.316406 137.910156 355.351562 137.628906 355.351562 M 120.703125 353.480469 L 118.097656 343.390625 L 121.195312 342.589844 L 123.800781 352.679688 L 120.703125 353.480469 M 133.5625 339.636719 C 133.3125 339.636719 133.070312 339.609375 132.835938 339.558594 C 134.214844 339.019531 135.007812 337.515625 134.625 336.046875 C 134.277344 334.710938 133.070312 333.820312 131.746094 333.820312 C 131.507812 333.820312 131.257812 333.847656 131.007812 333.914062 C 131.445312 333.425781 132.023438 333.058594 132.707031 332.882812 C 132.992188 332.808594 133.28125 332.773438 133.5625 332.773438 C 135.09375 332.773438 136.484375 333.800781 136.886719 335.34375 C 137.359375 337.179688 136.257812 339.050781 134.421875 339.527344 C 134.136719 339.601562 133.84375 339.636719 133.5625 339.636719 M 116.605469 337.640625 L 114.03125 327.695312 L 117.132812 326.894531 L 119.703125 336.839844 L 116.605469 337.640625 M 129.496094 323.917969 C 129.261719 323.917969 129.03125 323.894531 128.800781 323.847656 C 128.828125 323.835938 128.855469 323.828125 128.878906 323.816406 C 128.882812 323.816406 128.886719 323.808594 128.890625 323.808594 C 128.898438 323.804688 128.902344 323.804688 128.90625 323.804688 C 128.90625 323.804688 128.90625 323.800781 128.910156 323.800781 C 128.910156 323.800781 128.914062 323.796875 128.917969 323.796875 C 128.921875 323.796875 128.921875 323.796875 128.921875 323.796875 C 128.925781 323.792969 128.929688 323.792969 128.933594 323.789062 C 128.933594 323.789062 128.941406 323.789062 128.941406 323.789062 C 128.945312 323.789062 128.945312 323.785156 128.949219 323.785156 C 128.949219 323.785156 128.953125 323.78125 128.957031 323.78125 C 128.957031 323.78125 128.960938 323.78125 128.960938 323.78125 C 128.964844 323.777344 128.96875 323.777344 128.972656 323.773438 C 128.972656 323.773438 128.972656 323.773438 128.976562 323.773438 C 129.398438 323.570312 129.753906 323.273438 130.027344 322.917969 C 130.027344 322.917969 130.027344 322.917969 130.03125 322.917969 C 130.03125 322.914062 130.03125 322.914062 130.035156 322.910156 C 130.035156 322.910156 130.039062 322.90625 130.039062 322.902344 C 130.039062 322.902344 130.039062 322.902344 130.046875 322.902344 C 130.582031 322.199219 130.800781 321.265625 130.558594 320.34375 C 130.214844 319.007812 129.007812 318.117188 127.683594 318.117188 C 127.441406 318.117188 127.1875 318.148438 126.9375 318.210938 L 126.921875 318.222656 C 127.359375 317.71875 127.945312 317.34375 128.636719 317.164062 C 128.925781 317.089844 129.214844 317.054688 129.496094 317.054688 C 131.027344 317.054688 132.417969 318.085938 132.816406 319.625 C 133.292969 321.464844 132.191406 323.335938 130.359375 323.808594 C 130.070312 323.882812 129.78125 323.917969 129.496094 323.917969 M 112.542969 321.933594 L 109.914062 311.773438 L 113.011719 310.972656 L 115.640625 321.136719 L 112.542969 321.933594 M 125.425781 308.199219 C 125.0625 308.199219 124.707031 308.144531 124.371094 308.03125 C 124.503906 307.996094 124.636719 307.945312 124.761719 307.890625 C 124.761719 307.890625 124.765625 307.890625 124.765625 307.890625 C 124.769531 307.890625 124.773438 307.886719 124.78125 307.886719 C 124.78125 307.886719 124.785156 307.882812 124.785156 307.882812 C 124.785156 307.882812 124.789062 307.882812 124.789062 307.882812 C 124.792969 307.878906 124.796875 307.878906 124.800781 307.875 C 126.089844 307.289062 126.804688 305.839844 126.441406 304.425781 C 126.09375 303.085938 124.886719 302.199219 123.5625 302.199219 C 123.417969 302.199219 123.269531 302.207031 123.121094 302.230469 C 123.519531 301.867188 124.011719 301.589844 124.570312 301.449219 C 124.859375 301.375 125.148438 301.339844 125.429688 301.339844 C 126.960938 301.339844 128.347656 302.363281 128.75 303.910156 C 129.222656 305.746094 128.121094 307.613281 126.292969 308.089844 C 126 308.164062 125.710938 308.199219 125.425781 308.199219 M 108.421875 306.015625 L 105.789062 295.851562 L 108.886719 295.046875 L 111.519531 305.214844 L 108.421875 306.015625 M 121.359375 292.480469 C 120.871094 292.480469 120.398438 292.378906 119.964844 292.1875 L 120.1875 292.125 C 120.191406 292.125 120.195312 292.125 120.199219 292.121094 C 120.328125 292.09375 120.453125 292.050781 120.570312 292 C 120.570312 292 120.570312 292 120.578125 292 C 120.578125 292 120.578125 292 120.582031 292 C 120.585938 291.992188 120.589844 291.992188 120.59375 291.988281 C 121.933594 291.429688 122.699219 289.957031 122.320312 288.507812 C 121.976562 287.167969 120.769531 286.277344 119.445312 286.277344 C 119.40625 286.277344 119.371094 286.277344 119.339844 286.277344 C 119.675781 286.027344 120.070312 285.839844 120.503906 285.726562 C 120.789062 285.652344 121.078125 285.617188 121.363281 285.617188 C 122.890625 285.617188 124.28125 286.644531 124.683594 288.191406 C 125.15625 290.023438 124.054688 291.894531 122.222656 292.371094 C 121.933594 292.449219 121.644531 292.480469 121.359375 292.480469 M 104.300781 290.097656 L 101.785156 280.371094 L 104.882812 279.570312 L 107.402344 289.292969 L 104.300781 290.097656 M 117.289062 276.765625 C 116.953125 276.765625 116.617188 276.714844 116.300781 276.617188 C 117.820312 276.15625 118.71875 274.578125 118.3125 273.027344 C 117.972656 271.691406 116.761719 270.800781 115.441406 270.800781 C 115.273438 270.800781 115.101562 270.8125 114.933594 270.839844 C 115.339844 270.457031 115.851562 270.160156 116.433594 270.011719 C 116.726562 269.9375 117.011719 269.902344 117.300781 269.902344 C 118.824219 269.902344 120.210938 270.925781 120.613281 272.472656 C 121.089844 274.304688 119.988281 276.179688 118.15625 276.652344 C 117.863281 276.726562 117.578125 276.765625 117.289062 276.765625 M 100.292969 274.613281 L 97.761719 264.820312 L 100.859375 264.019531 L 103.394531 273.8125 L 100.292969 274.613281 M 113.222656 261.046875 C 112.988281 261.046875 112.757812 261.019531 112.535156 260.972656 C 112.734375 260.894531 112.925781 260.789062 113.101562 260.664062 C 113.105469 260.664062 113.105469 260.664062 113.109375 260.660156 C 114.101562 259.972656 114.613281 258.714844 114.292969 257.476562 C 114.230469 257.25 114.148438 257.035156 114.046875 256.835938 L 116.152344 259.40625 C 115.707031 260.140625 114.984375 260.703125 114.089844 260.9375 C 113.796875 261.007812 113.511719 261.046875 113.222656 261.046875 M 96.269531 259.0625 L 93.640625 248.898438 L 96.738281 248.097656 L 99.367188 258.261719 L 96.269531 259.0625 M 113.285156 255.90625 C 112.765625 255.488281 112.105469 255.25 111.410156 255.25 C 111.167969 255.25 110.914062 255.277344 110.667969 255.34375 L 110.648438 255.347656 C 111.019531 254.925781 111.488281 254.59375 112.042969 254.390625 L 113.285156 255.90625 M 92.148438 243.140625 L 89.597656 233.273438 L 92.699219 232.472656 L 95.25 242.339844 L 92.148438 243.140625 M 88.105469 227.511719 L 87.230469 224.136719 L 89.671875 227.109375 L 88.105469 227.511719 M 103.765625 212.523438 L 102.113281 210.515625 C 102.101562 210.394531 102.078125 210.277344 102.046875 210.15625 C 101.785156 209.148438 101.039062 208.398438 100.125 208.085938 L 99.535156 207.367188 C 99.734375 207.273438 99.941406 207.195312 100.164062 207.140625 C 100.453125 207.0625 100.742188 207.027344 101.027344 207.027344 C 102.550781 207.027344 103.945312 208.054688 104.347656 209.597656 C 104.617188 210.652344 104.371094 211.71875 103.765625 212.523438 M 96.953125 198.171875 C 96.695312 198.171875 96.441406 198.144531 96.195312 198.085938 C 96.519531 197.960938 96.816406 197.789062 97.066406 197.570312 C 97.902344 196.851562 98.304688 195.703125 98.011719 194.566406 C 97.667969 193.226562 96.460938 192.339844 95.136719 192.339844 C 94.902344 192.339844 94.664062 192.363281 94.425781 192.425781 C 94.855469 191.949219 95.429688 191.59375 96.09375 191.417969 C 96.386719 191.347656 96.671875 191.3125 96.957031 191.3125 C 98.484375 191.3125 99.878906 192.335938 100.277344 193.882812 C 100.753906 195.714844 99.652344 197.585938 97.816406 198.0625 C 97.527344 198.132812 97.238281 198.171875 96.953125 198.171875 M 92.886719 182.449219 C 92.5 182.449219 92.121094 182.386719 91.765625 182.261719 C 91.769531 182.261719 91.773438 182.261719 91.773438 182.261719 C 91.78125 182.257812 91.785156 182.257812 91.789062 182.257812 C 93.359375 181.835938 94.300781 180.222656 93.894531 178.644531 C 93.546875 177.308594 92.335938 176.410156 91.015625 176.410156 C 90.886719 176.410156 90.757812 176.421875 90.632812 176.4375 C 91.023438 176.097656 91.492188 175.84375 92.03125 175.699219 C 92.320312 175.628906 92.609375 175.589844 92.894531 175.589844 C 94.421875 175.589844 95.808594 176.617188 96.210938 178.164062 C 96.683594 179.996094 95.582031 181.867188 93.75 182.34375 C 93.460938 182.417969 93.167969 182.449219 92.886719 182.449219 M 77.039062 179.929688 L 75.21875 177.710938 L 73.242188 170.066406 L 76.339844 169.265625 L 78.96875 179.429688 L 77.039062 179.929688 M 88.820312 166.734375 C 88.308594 166.734375 87.816406 166.621094 87.371094 166.410156 L 87.632812 166.34375 C 89.226562 165.933594 90.183594 164.3125 89.773438 162.722656 C 89.425781 161.382812 88.214844 160.492188 86.890625 160.492188 C 86.878906 160.492188 86.867188 160.492188 86.855469 160.492188 C 87.179688 160.265625 87.550781 160.089844 87.964844 159.984375 C 88.25 159.90625 88.542969 159.871094 88.824219 159.871094 C 90.351562 159.871094 91.742188 160.894531 92.144531 162.445312 C 92.617188 164.277344 91.515625 166.152344 89.679688 166.625 C 89.394531 166.699219 89.101562 166.734375 88.820312 166.734375 M 71.75 164.308594 L 69.320312 154.921875 L 72.417969 154.121094 L 74.847656 163.507812 L 71.75 164.308594 M 84.75 151.015625 C 84.597656 151.015625 84.441406 151.007812 84.292969 150.984375 C 84.695312 150.789062 85.039062 150.5 85.308594 150.164062 C 85.859375 149.460938 86.09375 148.511719 85.851562 147.578125 C 85.507812 146.242188 84.300781 145.347656 82.976562 145.347656 C 82.726562 145.347656 82.480469 145.378906 82.230469 145.445312 L 82.035156 145.496094 C 82.484375 144.910156 83.121094 144.464844 83.894531 144.265625 C 84.183594 144.1875 84.472656 144.15625 84.757812 144.15625 C 86.285156 144.15625 87.671875 145.179688 88.074219 146.730469 C 88.546875 148.5625 87.445312 150.433594 85.617188 150.910156 C 85.324219 150.980469 85.039062 151.015625 84.75 151.015625 M 67.832031 149.167969 L 65.199219 139.003906 L 68.296875 138.203125 L 70.929688 148.363281 L 67.832031 149.167969 M 80.683594 135.296875 C 80.402344 135.296875 80.128906 135.265625 79.863281 135.199219 C 81.292969 134.6875 82.121094 133.15625 81.734375 131.652344 C 81.386719 130.316406 80.179688 129.425781 78.855469 129.425781 C 78.640625 129.425781 78.421875 129.453125 78.203125 129.5 C 78.628906 129.054688 79.183594 128.714844 79.828125 128.546875 C 80.113281 128.472656 80.40625 128.4375 80.6875 128.4375 C 82.214844 128.4375 83.605469 129.464844 84.007812 131.011719 C 84.480469 132.84375 83.378906 134.714844 81.546875 135.1875 C 81.257812 135.265625 80.96875 135.296875 80.683594 135.296875 M 63.714844 133.246094 L 61.214844 123.597656 L 64.3125 122.792969 L 66.8125 132.445312 L 63.714844 133.246094 M 76.617188 119.582031 C 76.527344 119.582031 76.441406 119.574219 76.351562 119.570312 C 76.824219 119.300781 77.199219 118.90625 77.457031 118.449219 C 77.820312 117.808594 77.945312 117.023438 77.746094 116.253906 C 77.398438 114.914062 76.195312 114.019531 74.871094 114.019531 C 74.621094 114.019531 74.367188 114.050781 74.121094 114.117188 L 73.792969 114.203125 C 74.246094 113.546875 74.925781 113.046875 75.757812 112.828125 C 76.046875 112.753906 76.335938 112.71875 76.621094 112.71875 C 78.148438 112.71875 79.539062 113.742188 79.9375 115.289062 C 80.414062 117.121094 79.3125 118.992188 77.480469 119.46875 C 77.191406 119.546875 76.902344 119.582031 76.617188 119.582031 M 59.726562 117.835938 L 57.09375 107.675781 L 60.191406 106.875 L 62.824219 117.035156 L 59.726562 117.835938 M 72.546875 103.863281 C 72.339844 103.863281 72.128906 103.839844 71.921875 103.804688 C 73.25 103.234375 73.996094 101.769531 73.628906 100.328125 C 73.28125 98.988281 72.074219 98.101562 70.75 98.101562 C 70.5 98.101562 70.25 98.132812 70 98.195312 L 69.933594 98.214844 C 70.375 97.691406 70.980469 97.292969 71.691406 97.109375 C 71.984375 97.035156 72.269531 97.003906 72.550781 97.003906 C 74.078125 97.003906 75.46875 98.027344 75.871094 99.570312 C 76.34375 101.40625 75.242188 103.277344 73.414062 103.75 C 73.121094 103.824219 72.835938 103.863281 72.546875 103.863281 M 55.601562 101.917969 L 52.972656 91.75 L 56.070312 90.949219 L 58.707031 101.117188 L 55.601562 101.917969 M 68.480469 88.144531 C 68.140625 88.144531 67.808594 88.09375 67.492188 87.996094 C 69.007812 87.539062 69.910156 85.960938 69.507812 84.410156 C 69.160156 83.070312 67.957031 82.179688 66.632812 82.179688 C 66.460938 82.179688 66.292969 82.195312 66.121094 82.226562 C 66.527344 81.835938 67.039062 81.542969 67.625 81.390625 C 67.914062 81.320312 68.203125 81.285156 68.488281 81.285156 C 70.011719 81.285156 71.402344 82.308594 71.808594 83.855469 C 72.277344 85.6875 71.175781 87.558594 69.34375 88.035156 C 69.054688 88.105469 68.765625 88.144531 68.480469 88.144531 M 51.484375 86 L 47.632812 71.117188 C 47.457031 70.441406 47.378906 69.757812 47.371094 69.089844 C 47.367188 65.480469 49.796875 62.183594 53.457031 61.242188 L 80.847656 54.15625 C 80.992188 58.035156 81.253906 61.90625 81.609375 65.769531 L 51.566406 73.535156 L 54.582031 85.199219 L 51.484375 86 " fill-opacity="1" fill-rule="nonzero"/><path fill="#ffffff" d="M 69.34375 88.035156 C 67.507812 88.507812 65.636719 87.40625 65.160156 85.570312 C 64.6875 83.738281 65.789062 81.867188 67.625 81.390625 C 69.460938 80.917969 71.328125 82.019531 71.808594 83.855469 C 72.277344 85.6875 71.175781 87.558594 69.34375 88.035156 M 73.414062 103.75 C 71.574219 104.226562 69.703125 103.121094 69.226562 101.289062 C 68.757812 99.457031 69.851562 97.585938 71.691406 97.109375 C 73.523438 96.636719 75.398438 97.738281 75.871094 99.570312 C 76.34375 101.40625 75.242188 103.277344 73.414062 103.75 M 77.480469 119.46875 C 75.644531 119.945312 73.773438 118.84375 73.292969 117.011719 C 72.824219 115.171875 73.921875 113.300781 75.757812 112.828125 C 77.59375 112.355469 79.464844 113.457031 79.9375 115.289062 C 80.414062 117.121094 79.3125 118.992188 77.480469 119.46875 M 81.546875 135.1875 C 79.710938 135.660156 77.839844 134.5625 77.363281 132.726562 C 76.890625 130.894531 77.988281 129.023438 79.828125 128.546875 C 81.660156 128.074219 83.535156 129.171875 84.007812 131.011719 C 84.480469 132.84375 83.378906 134.714844 81.546875 135.1875 M 85.617188 150.910156 C 83.777344 151.378906 81.90625 150.277344 81.429688 148.445312 C 80.957031 146.609375 82.058594 144.742188 83.894531 144.265625 C 85.726562 143.789062 87.597656 144.890625 88.074219 146.730469 C 88.546875 148.5625 87.445312 150.433594 85.617188 150.910156 M 89.679688 166.625 C 87.847656 167.097656 85.976562 165.996094 85.5 164.164062 C 85.023438 162.328125 86.125 160.457031 87.964844 159.984375 C 89.796875 159.507812 91.664062 160.609375 92.144531 162.445312 C 92.617188 164.277344 91.515625 166.152344 89.679688 166.625 M 93.75 182.34375 C 91.914062 182.820312 90.042969 181.714844 89.566406 179.882812 C 89.09375 178.046875 90.191406 176.175781 92.03125 175.699219 C 93.863281 175.226562 95.734375 176.332031 96.210938 178.164062 C 96.683594 179.996094 95.582031 181.867188 93.75 182.34375 M 97.816406 198.0625 C 95.980469 198.535156 94.113281 197.433594 93.632812 195.597656 C 93.160156 193.765625 94.261719 191.894531 96.09375 191.417969 C 97.933594 190.949219 99.800781 192.046875 100.277344 193.882812 C 100.753906 195.714844 99.652344 197.585938 97.816406 198.0625 M 101.882812 213.777344 C 100.050781 214.253906 98.175781 213.152344 97.703125 211.316406 C 97.226562 209.484375 98.328125 207.613281 100.164062 207.140625 C 102 206.664062 103.871094 207.765625 104.347656 209.597656 C 104.820312 211.4375 103.71875 213.308594 101.882812 213.777344 M 105.953125 229.496094 C 104.117188 229.972656 102.242188 228.871094 101.769531 227.039062 C 101.296875 225.199219 102.398438 223.332031 104.230469 222.859375 C 106.066406 222.382812 107.9375 223.484375 108.414062 225.320312 C 108.882812 227.152344 107.78125 229.023438 105.953125 229.496094 M 110.019531 245.21875 C 108.1875 245.695312 106.3125 244.589844 105.839844 242.753906 C 105.363281 240.917969 106.464844 239.050781 108.300781 238.574219 C 110.136719 238.101562 112.003906 239.199219 112.484375 241.039062 C 112.953125 242.871094 111.851562 244.742188 110.019531 245.21875 M 114.089844 260.9375 C 112.25 261.410156 110.378906 260.304688 109.902344 258.472656 C 109.429688 256.636719 110.53125 254.765625 112.367188 254.292969 C 114.203125 253.816406 116.074219 254.917969 116.550781 256.753906 C 117.019531 258.589844 115.917969 260.460938 114.089844 260.9375 M 118.15625 276.652344 C 116.316406 277.128906 114.449219 276.027344 113.96875 274.191406 C 113.5 272.351562 114.601562 270.484375 116.433594 270.011719 C 118.265625 269.539062 120.140625 270.636719 120.613281 272.472656 C 121.089844 274.304688 119.988281 276.179688 118.15625 276.652344 M 122.222656 292.371094 C 120.386719 292.847656 118.515625 291.746094 118.039062 289.910156 C 117.566406 288.074219 118.664062 286.203125 120.503906 285.726562 C 122.335938 285.253906 124.207031 286.359375 124.683594 288.191406 C 125.15625 290.023438 124.054688 291.894531 122.222656 292.371094 M 126.292969 308.089844 C 124.453125 308.5625 122.582031 307.464844 122.105469 305.625 C 121.628906 303.792969 122.734375 301.925781 124.570312 301.449219 C 126.402344 300.976562 128.277344 302.074219 128.75 303.910156 C 129.222656 305.746094 128.121094 307.613281 126.292969 308.089844 M 130.359375 323.808594 C 128.523438 324.28125 126.652344 323.179688 126.171875 321.34375 C 125.699219 319.515625 126.800781 317.640625 128.636719 317.164062 C 130.46875 316.6875 132.339844 317.792969 132.816406 319.625 C 133.292969 321.464844 132.191406 323.335938 130.359375 323.808594 M 134.421875 339.527344 C 132.589844 340 130.71875 338.898438 130.242188 337.0625 C 129.765625 335.230469 130.867188 333.355469 132.707031 332.882812 C 134.539062 332.410156 136.410156 333.515625 136.886719 335.34375 C 137.359375 337.179688 136.257812 339.050781 134.421875 339.527344 M 138.492188 355.246094 C 136.65625 355.722656 134.785156 354.617188 134.308594 352.78125 C 133.832031 350.945312 134.9375 349.078125 136.773438 348.601562 C 138.605469 348.128906 140.476562 349.226562 140.953125 351.0625 C 141.429688 352.898438 140.328125 354.769531 138.492188 355.246094 M 51.566406 73.535156 L 128.257812 369.890625 L 356.222656 310.949219 L 279.53125 14.589844 L 51.566406 73.535156 " fill-opacity="1" fill-rule="nonzero"/><path fill="#e26968" d="M 152.882812 363.527344 L 151.425781 363.90625 L 74.734375 67.546875 L 76.191406 67.167969 L 152.882812 363.527344 " fill-opacity="1" fill-rule="nonzero"/><path fill="#c6c5c5" d="M 271.457031 33.296875 L 85.558594 81.363281 L 85.363281 80.617188 L 271.257812 32.550781 L 271.457031 33.296875 " fill-opacity="1" fill-rule="nonzero"/><path fill="#c6c5c5" d="M 274.210938 43.933594 L 88.308594 92 L 88.117188 91.253906 L 274.015625 43.183594 L 274.210938 43.933594 " fill-opacity="1" fill-rule="nonzero"/><path fill="#c6c5c5" d="M 276.960938 54.570312 L 91.0625 102.636719 L 90.871094 101.894531 L 276.769531 53.824219 L 276.960938 54.570312 " fill-opacity="1" fill-rule="nonzero"/><path fill="#c6c5c5" d="M 279.710938 65.210938 L 93.816406 113.277344 L 93.625 112.53125 L 279.523438 64.460938 L 279.710938 65.210938 " fill-opacity="1" fill-rule="nonzero"/><path fill="#c6c5c5" d="M 282.46875 75.851562 L 96.570312 123.917969 L 96.375 123.167969 L 282.273438 75.101562 L 282.46875 75.851562 " fill-opacity="1" fill-rule="nonzero"/><path fill="#c6c5c5" d="M 285.222656 86.488281 L 99.324219 134.558594 L 99.132812 133.8125 L 285.027344 85.742188 L 285.222656 86.488281 " fill-opacity="1" fill-rule="nonzero"/><path fill="#c6c5c5" d="M 287.972656 97.121094 L 102.070312 145.191406 L 101.882812 144.445312 L 287.78125 96.375 L 287.972656 97.121094 " fill-opacity="1" fill-rule="nonzero"/><path fill="#c6c5c5" d="M 290.722656 107.761719 L 104.828125 155.828125 L 104.632812 155.085938 L 290.535156 107.015625 L 290.722656 107.761719 " fill-opacity="1" fill-rule="nonzero"/><path fill="#c6c5c5" d="M 293.480469 118.402344 L 107.582031 166.46875 L 107.390625 165.722656 L 293.285156 117.65625 L 293.480469 118.402344 " fill-opacity="1" fill-rule="nonzero"/><path fill="#c6c5c5" d="M 296.234375 129.039062 L 110.335938 177.105469 L 110.144531 176.359375 L 296.035156 128.296875 L 296.234375 129.039062 " fill-opacity="1" fill-rule="nonzero"/><path fill="#c6c5c5" d="M 298.988281 139.679688 L 113.085938 187.746094 L 112.894531 187.003906 L 298.796875 138.933594 L 298.988281 139.679688 " fill-opacity="1" fill-rule="nonzero"/><path fill="#c6c5c5" d="M 301.738281 150.3125 L 115.839844 198.382812 L 115.644531 197.636719 L 301.546875 149.574219 L 301.738281 150.3125 " fill-opacity="1" fill-rule="nonzero"/><path fill="#c6c5c5" d="M 304.488281 160.957031 L 118.59375 209.023438 L 118.398438 208.277344 L 304.296875 160.210938 L 304.488281 160.957031 " fill-opacity="1" fill-rule="nonzero"/><path fill="#c6c5c5" d="M 307.246094 171.59375 L 121.347656 219.664062 L 121.15625 218.914062 L 307.050781 170.84375 L 307.246094 171.59375 " fill-opacity="1" fill-rule="nonzero"/><path fill="#c6c5c5" d="M 310 182.230469 L 124.097656 230.300781 L 123.910156 229.550781 L 309.804688 181.484375 L 310 182.230469 " fill-opacity="1" fill-rule="nonzero"/><path fill="#c6c5c5" d="M 312.75 192.871094 L 126.851562 240.941406 L 126.660156 240.195312 L 312.558594 192.125 L 312.75 192.871094 " fill-opacity="1" fill-rule="nonzero"/><path fill="#c6c5c5" d="M 315.5 203.503906 L 129.605469 251.574219 L 129.410156 250.828125 L 315.3125 202.761719 L 315.5 203.503906 " fill-opacity="1" fill-rule="nonzero"/><path fill="#c6c5c5" d="M 318.253906 214.148438 L 132.359375 262.214844 L 132.164062 261.46875 L 318.0625 213.402344 L 318.253906 214.148438 " fill-opacity="1" fill-rule="nonzero"/><path fill="#c6c5c5" d="M 321.011719 224.785156 L 135.113281 272.851562 L 134.921875 272.105469 L 320.816406 224.039062 L 321.011719 224.785156 " fill-opacity="1" fill-rule="nonzero"/><path fill="#c6c5c5" d="M 323.761719 235.421875 L 137.863281 283.488281 L 137.671875 282.746094 L 323.574219 234.679688 L 323.761719 235.421875 " fill-opacity="1" fill-rule="nonzero"/><path fill="#c6c5c5" d="M 326.515625 246.0625 L 140.613281 294.132812 L 140.425781 293.386719 L 326.324219 245.316406 L 326.515625 246.0625 " fill-opacity="1" fill-rule="nonzero"/><path fill="#c6c5c5" d="M 329.265625 256.695312 L 143.371094 304.765625 L 143.175781 304.023438 L 329.074219 255.953125 L 329.265625 256.695312 " fill-opacity="1" fill-rule="nonzero"/><path fill="#c6c5c5" d="M 332.019531 267.339844 L 146.125 315.40625 L 145.933594 314.65625 L 331.828125 266.59375 L 332.019531 267.339844 " fill-opacity="1" fill-rule="nonzero"/><path fill="#c6c5c5" d="M 334.777344 277.976562 L 148.875 326.046875 L 148.6875 325.296875 L 334.582031 277.230469 L 334.777344 277.976562 " fill-opacity="1" fill-rule="nonzero"/><path fill="#c6c5c5" d="M 337.527344 288.613281 L 151.628906 336.683594 L 151.4375 335.9375 L 337.332031 287.871094 L 337.527344 288.613281 " fill-opacity="1" fill-rule="nonzero"/><path fill="#c6c5c5" d="M 340.277344 299.253906 L 154.386719 347.324219 L 154.1875 346.578125 L 340.089844 298.507812 L 340.277344 299.253906 " fill-opacity="1" fill-rule="nonzero"/><path fill="#bdbcbc" d="M 69.507812 84.410156 C 69.917969 86 68.960938 87.617188 67.371094 88.03125 L 47.4375 93.1875 C 45.84375 93.597656 44.222656 92.640625 43.8125 91.054688 C 43.402344 89.464844 44.355469 87.839844 45.949219 87.429688 L 65.882812 82.277344 C 67.476562 81.863281 69.09375 82.816406 69.507812 84.410156 " fill-opacity="1" fill-rule="nonzero"/><path fill="#bdbcbd" d="M 46.6875 93.28125 C 46.6875 93.28125 46.6875 93.28125 46.683594 93.28125 C 46.6875 93.28125 46.6875 93.28125 46.6875 93.28125 M 46.691406 93.28125 C 46.921875 93.28125 47.164062 93.253906 47.402344 93.195312 C 47.164062 93.253906 46.921875 93.28125 46.691406 93.28125 M 47.414062 93.191406 C 47.421875 93.191406 47.429688 93.1875 47.4375 93.1875 L 52.972656 91.75 L 47.4375 93.1875 C 47.429688 93.1875 47.421875 93.191406 47.414062 93.191406 " fill-opacity="1" fill-rule="nonzero"/><path fill="#bdbcbd" d="M 43.828125 91.109375 C 43.824219 91.105469 43.824219 91.101562 43.824219 91.09375 C 43.824219 91.101562 43.824219 91.105469 43.828125 91.109375 M 43.816406 91.074219 C 43.816406 91.066406 43.8125 91.0625 43.8125 91.054688 C 43.75 90.804688 43.71875 90.554688 43.71875 90.3125 C 43.71875 90.554688 43.75 90.804688 43.8125 91.054688 C 43.8125 91.0625 43.816406 91.066406 43.816406 91.074219 M 45.949219 87.429688 L 46.015625 87.414062 L 45.949219 87.429688 " fill-opacity="1" fill-rule="nonzero"/><path fill="#908e8e" d="M 46.6875 93.28125 C 46.6875 93.28125 46.6875 93.28125 46.683594 93.28125 C 45.378906 93.277344 44.195312 92.414062 43.828125 91.109375 C 43.824219 91.105469 43.824219 91.101562 43.824219 91.09375 C 43.820312 91.085938 43.820312 91.078125 43.816406 91.074219 C 43.816406 91.066406 43.8125 91.0625 43.8125 91.054688 C 43.75 90.804688 43.71875 90.554688 43.71875 90.3125 C 43.714844 88.984375 44.605469 87.777344 45.949219 87.429688 L 46.015625 87.414062 C 46.023438 87.617188 46.050781 87.828125 46.105469 88.039062 C 46.453125 89.378906 47.660156 90.265625 48.980469 90.265625 C 49.226562 90.265625 49.476562 90.234375 49.730469 90.171875 L 69.597656 85.035156 C 69.652344 86.402344 68.753906 87.675781 67.371094 88.03125 L 56.070312 90.949219 L 52.972656 91.75 L 47.4375 93.1875 C 47.429688 93.1875 47.421875 93.191406 47.414062 93.191406 C 47.414062 93.191406 47.414062 93.191406 47.410156 93.191406 C 47.40625 93.191406 47.402344 93.195312 47.402344 93.195312 C 47.164062 93.253906 46.921875 93.28125 46.691406 93.28125 C 46.6875 93.28125 46.6875 93.28125 46.6875 93.28125 " fill-opacity="1" fill-rule="nonzero"/><path fill="#ffffff" d="M 47.972656 87.773438 L 66.230469 83.054688 C 66.230469 83.054688 67.742188 83.015625 68.375 84.148438 L 48.75 89.230469 C 48.75 89.230469 47.734375 89.015625 47.972656 87.773438 " fill-opacity="1" fill-rule="nonzero"/><path fill="#bdbcbc" d="M 73.628906 100.328125 C 74.039062 101.917969 73.082031 103.542969 71.488281 103.953125 L 51.558594 109.105469 C 49.964844 109.515625 48.34375 108.5625 47.933594 106.972656 C 47.523438 105.382812 48.476562 103.761719 50.066406 103.347656 L 70 98.195312 C 71.59375 97.785156 73.214844 98.742188 73.628906 100.328125 " fill-opacity="1" fill-rule="nonzero"/><path fill="#bdbcbd" d="M 50.808594 109.203125 C 50.808594 109.203125 50.804688 109.203125 50.804688 109.203125 C 50.804688 109.203125 50.808594 109.203125 50.808594 109.203125 M 50.808594 109.203125 C 51.042969 109.203125 51.285156 109.171875 51.519531 109.113281 C 51.285156 109.171875 51.042969 109.203125 50.808594 109.203125 M 51.542969 109.109375 C 51.546875 109.109375 51.550781 109.109375 51.558594 109.105469 L 57.09375 107.675781 L 51.558594 109.105469 C 51.550781 109.109375 51.546875 109.109375 51.542969 109.109375 " fill-opacity="1" fill-rule="nonzero"/><path fill="#908e8e" d="M 50.808594 109.203125 C 50.808594 109.203125 50.804688 109.203125 50.804688 109.203125 C 49.488281 109.199219 48.289062 108.320312 47.9375 106.992188 C 47.933594 106.984375 47.933594 106.980469 47.933594 106.972656 C 47.871094 106.722656 47.835938 106.476562 47.835938 106.230469 C 47.835938 104.90625 48.722656 103.695312 50.066406 103.347656 L 50.136719 103.332031 C 50.144531 103.542969 50.171875 103.75 50.226562 103.960938 C 50.574219 105.300781 51.777344 106.1875 53.101562 106.1875 C 53.351562 106.1875 53.597656 106.160156 53.847656 106.09375 L 73.71875 100.953125 C 73.773438 102.324219 72.871094 103.59375 71.488281 103.953125 L 60.191406 106.875 L 57.09375 107.675781 L 51.558594 109.105469 C 51.550781 109.109375 51.546875 109.109375 51.542969 109.109375 C 51.53125 109.113281 51.527344 109.113281 51.519531 109.113281 C 51.285156 109.171875 51.042969 109.203125 50.808594 109.203125 " fill-opacity="1" fill-rule="nonzero"/><path fill="#ffffff" d="M 52.09375 103.691406 L 70.351562 98.972656 C 70.351562 98.972656 71.863281 98.933594 72.496094 100.074219 L 52.867188 105.144531 C 52.867188 105.144531 51.855469 104.9375 52.09375 103.691406 " fill-opacity="1" fill-rule="nonzero"/><path fill="#bdbcbc" d="M 77.746094 116.253906 C 78.15625 117.839844 77.199219 119.460938 75.613281 119.871094 L 55.679688 125.027344 C 54.082031 125.4375 52.460938 124.484375 52.050781 122.894531 C 51.640625 121.304688 52.59375 119.683594 54.1875 119.273438 L 74.121094 114.117188 C 75.710938 113.703125 77.332031 114.660156 77.746094 116.253906 " fill-opacity="1" fill-rule="nonzero"/><path fill="#bdbcbd" d="M 54.929688 125.121094 C 54.925781 125.121094 54.925781 125.121094 54.921875 125.121094 C 54.925781 125.121094 54.925781 125.121094 54.929688 125.121094 M 54.929688 125.121094 C 55.171875 125.121094 55.410156 125.09375 55.65625 125.03125 C 55.410156 125.09375 55.171875 125.121094 54.929688 125.121094 " fill-opacity="1" fill-rule="nonzero"/><path fill="#21676e" d="M 76.351562 119.570312 C 76.820312 119.300781 77.199219 118.90625 77.457031 118.449219 C 77.199219 118.90625 76.824219 119.300781 76.351562 119.570312 " fill-opacity="1" fill-rule="nonzero"/><path fill="#bdbcbd" d="M 75.625 119.867188 C 75.886719 119.804688 76.128906 119.699219 76.351562 119.570312 C 76.128906 119.699219 75.886719 119.804688 75.625 119.867188 " fill-opacity="1" fill-rule="nonzero"/><path fill="#908e8e" d="M 54.929688 125.121094 C 54.925781 125.121094 54.925781 125.121094 54.921875 125.121094 C 53.628906 125.121094 52.445312 124.269531 52.074219 122.976562 C 52.074219 122.972656 52.074219 122.972656 52.074219 122.96875 C 52.0625 122.945312 52.058594 122.921875 52.050781 122.894531 C 51.988281 122.648438 51.957031 122.398438 51.957031 122.148438 C 51.953125 120.828125 52.84375 119.617188 54.1875 119.273438 L 54.253906 119.253906 C 54.261719 119.464844 54.292969 119.671875 54.34375 119.878906 C 54.691406 121.222656 55.898438 122.105469 57.222656 122.105469 C 57.46875 122.105469 57.71875 122.078125 57.96875 122.011719 L 77.839844 116.878906 C 77.859375 117.4375 77.722656 117.980469 77.457031 118.449219 C 77.199219 118.90625 76.820312 119.300781 76.351562 119.570312 C 76.128906 119.699219 75.886719 119.804688 75.625 119.867188 C 75.621094 119.871094 75.617188 119.871094 75.613281 119.871094 L 64.3125 122.792969 L 61.214844 123.597656 L 55.679688 125.027344 C 55.671875 125.027344 55.664062 125.03125 55.65625 125.03125 C 55.410156 125.09375 55.171875 125.121094 54.929688 125.121094 " fill-opacity="1" fill-rule="nonzero"/><path fill="#ffffff" d="M 56.214844 119.613281 L 74.46875 114.894531 C 74.46875 114.894531 75.980469 114.859375 76.613281 115.992188 L 56.988281 121.066406 C 56.988281 121.066406 55.972656 120.855469 56.214844 119.613281 " fill-opacity="1" fill-rule="nonzero"/><path fill="#bdbcbc" d="M 81.734375 131.652344 C 82.144531 133.246094 81.183594 134.871094 79.597656 135.28125 L 59.664062 140.433594 C 58.070312 140.84375 56.453125 139.890625 56.039062 138.300781 C 55.628906 136.710938 56.585938 135.089844 58.175781 134.675781 L 78.109375 129.523438 C 79.699219 129.113281 81.324219 130.070312 81.734375 131.652344 " fill-opacity="1" fill-rule="nonzero"/><path fill="#bdbcbd" d="M 58.917969 140.53125 C 59.152344 140.53125 59.390625 140.5 59.628906 140.441406 C 59.390625 140.5 59.152344 140.53125 58.917969 140.53125 M 59.652344 140.4375 C 59.65625 140.4375 59.660156 140.4375 59.664062 140.433594 L 65.199219 139.003906 L 59.664062 140.433594 C 59.660156 140.4375 59.65625 140.4375 59.652344 140.4375 " fill-opacity="1" fill-rule="nonzero"/><path fill="#908e8e" d="M 58.914062 140.53125 C 57.59375 140.527344 56.394531 139.648438 56.042969 138.316406 C 56.039062 138.3125 56.039062 138.304688 56.039062 138.300781 C 55.972656 138.050781 55.941406 137.804688 55.941406 137.558594 C 55.941406 136.230469 56.832031 135.023438 58.175781 134.675781 L 58.238281 134.660156 C 58.246094 134.867188 58.277344 135.074219 58.332031 135.285156 C 58.679688 136.625 59.886719 137.515625 61.207031 137.515625 C 61.457031 137.515625 61.703125 137.480469 61.953125 137.417969 L 81.824219 132.28125 C 81.875 133.644531 80.988281 134.914062 79.613281 135.277344 C 79.609375 135.277344 79.605469 135.28125 79.597656 135.28125 L 68.296875 138.203125 L 65.199219 139.003906 L 59.664062 140.433594 C 59.660156 140.4375 59.65625 140.4375 59.652344 140.4375 C 59.644531 140.441406 59.636719 140.441406 59.628906 140.441406 C 59.390625 140.5 59.152344 140.53125 58.917969 140.53125 C 58.917969 140.53125 58.917969 140.53125 58.914062 140.53125 " fill-opacity="1" fill-rule="nonzero"/><path fill="#ffffff" d="M 60.203125 135.019531 L 78.457031 130.300781 C 78.457031 130.300781 79.96875 130.261719 80.597656 131.394531 L 60.972656 136.472656 C 60.972656 136.472656 59.957031 136.261719 60.203125 135.019531 " fill-opacity="1" fill-rule="nonzero"/><path fill="#bdbcbc" d="M 85.851562 147.578125 C 86.261719 149.164062 85.308594 150.789062 83.71875 151.199219 L 63.78125 156.351562 C 62.191406 156.761719 60.570312 155.808594 60.15625 154.21875 C 59.746094 152.632812 60.703125 151.011719 62.296875 150.601562 L 82.230469 145.445312 C 83.820312 145.03125 85.441406 145.988281 85.851562 147.578125 " fill-opacity="1" fill-rule="nonzero"/><path fill="#bdbcbd" d="M 63.035156 156.449219 C 63.035156 156.449219 63.03125 156.449219 63.03125 156.449219 C 63.03125 156.449219 63.035156 156.449219 63.035156 156.449219 M 63.035156 156.449219 C 63.265625 156.445312 63.496094 156.425781 63.726562 156.367188 C 63.496094 156.425781 63.265625 156.445312 63.035156 156.449219 M 63.726562 156.367188 C 63.742188 156.359375 63.765625 156.355469 63.78125 156.351562 L 69.320312 154.921875 L 63.78125 156.351562 C 63.765625 156.355469 63.742188 156.359375 63.726562 156.367188 " fill-opacity="1" fill-rule="nonzero"/><path fill="#bdbcbd" d="M 83.746094 151.191406 L 83.75 151.191406 L 83.746094 151.191406 M 83.96875 151.121094 C 83.96875 151.121094 83.96875 151.121094 83.96875 151.117188 C 83.96875 151.121094 83.96875 151.121094 83.96875 151.121094 M 83.984375 151.113281 C 83.984375 151.113281 83.988281 151.113281 83.988281 151.113281 C 83.988281 151.113281 83.984375 151.113281 83.984375 151.113281 M 84 151.109375 C 84 151.109375 84.003906 151.109375 84.003906 151.109375 C 84.003906 151.109375 84 151.109375 84 151.109375 M 84.011719 151.105469 C 84.015625 151.105469 84.015625 151.101562 84.023438 151.101562 C 84.023438 151.101562 84.015625 151.105469 84.011719 151.105469 " fill-opacity="1" fill-rule="nonzero"/><path fill="#21676e" d="M 84.292969 150.984375 C 84.695312 150.789062 85.039062 150.5 85.308594 150.164062 C 85.039062 150.5 84.695312 150.789062 84.292969 150.984375 " fill-opacity="1" fill-rule="nonzero"/><path fill="#bdbcbd" d="M 84.027344 151.101562 C 84.117188 151.066406 84.207031 151.027344 84.292969 150.984375 C 84.207031 151.027344 84.117188 151.066406 84.027344 151.101562 " fill-opacity="1" fill-rule="nonzero"/><path fill="#bdbcbd" d="M 62.296875 150.601562 L 62.359375 150.582031 L 62.296875 150.601562 " fill-opacity="1" fill-rule="nonzero"/><path fill="#908e8e" d="M 63.035156 156.449219 C 63.035156 156.449219 63.03125 156.449219 63.03125 156.449219 C 61.730469 156.445312 60.542969 155.585938 60.175781 154.285156 C 60.167969 154.261719 60.160156 154.242188 60.15625 154.21875 C 60.09375 153.96875 60.0625 153.722656 60.0625 153.476562 C 60.058594 152.15625 60.949219 150.945312 62.296875 150.601562 L 62.359375 150.582031 C 62.367188 150.789062 62.398438 150.996094 62.453125 151.203125 C 62.796875 152.546875 64.003906 153.433594 65.328125 153.433594 C 65.574219 153.433594 65.824219 153.40625 66.074219 153.339844 L 85.941406 148.207031 C 85.972656 148.925781 85.738281 149.621094 85.308594 150.164062 C 85.039062 150.5 84.695312 150.789062 84.292969 150.984375 C 84.207031 151.027344 84.117188 151.066406 84.027344 151.101562 C 84.027344 151.101562 84.027344 151.101562 84.023438 151.101562 C 84.015625 151.101562 84.015625 151.105469 84.011719 151.105469 C 84.007812 151.105469 84.007812 151.105469 84.003906 151.109375 C 84.003906 151.109375 84 151.109375 84 151.109375 C 83.996094 151.109375 83.992188 151.113281 83.988281 151.113281 C 83.988281 151.113281 83.984375 151.113281 83.984375 151.113281 C 83.980469 151.117188 83.976562 151.117188 83.96875 151.117188 C 83.96875 151.121094 83.96875 151.121094 83.96875 151.121094 C 83.964844 151.121094 83.960938 151.125 83.957031 151.125 C 83.949219 151.125 83.945312 151.132812 83.941406 151.132812 C 83.9375 151.136719 83.925781 151.136719 83.921875 151.136719 C 83.867188 151.15625 83.808594 151.175781 83.75 151.191406 L 83.746094 151.191406 C 83.742188 151.191406 83.738281 151.191406 83.734375 151.195312 C 83.726562 151.195312 83.722656 151.195312 83.71875 151.199219 L 72.417969 154.121094 L 69.320312 154.921875 L 63.78125 156.351562 C 63.765625 156.355469 63.742188 156.359375 63.726562 156.367188 C 63.496094 156.425781 63.265625 156.445312 63.035156 156.449219 " fill-opacity="1" fill-rule="nonzero"/><path fill="#ffffff" d="M 64.320312 150.9375 L 82.574219 146.21875 C 82.574219 146.21875 84.085938 146.179688 84.71875 147.320312 L 65.09375 152.394531 C 65.09375 152.394531 64.078125 152.183594 64.320312 150.9375 " fill-opacity="1" fill-rule="nonzero"/><path fill="#bdbcbc" d="M 89.773438 162.722656 C 90.183594 164.3125 89.226562 165.933594 87.632812 166.34375 L 67.703125 171.5 C 66.109375 171.910156 64.488281 170.957031 64.078125 169.367188 C 63.667969 167.777344 64.621094 166.15625 66.210938 165.742188 L 86.148438 160.585938 C 87.738281 160.175781 89.359375 161.136719 89.773438 162.722656 " fill-opacity="1" fill-rule="nonzero"/><path fill="#908e8e" d="M 69.703125 170.980469 L 65.597656 165.976562 C 65.792969 165.875 65.996094 165.800781 66.210938 165.742188 L 66.28125 165.726562 C 66.289062 165.9375 66.320312 166.140625 66.375 166.355469 C 66.71875 167.691406 67.925781 168.582031 69.25 168.582031 C 69.492188 168.582031 69.746094 168.554688 69.996094 168.488281 L 89.867188 163.351562 C 89.917969 164.71875 89.015625 165.988281 87.632812 166.34375 L 87.371094 166.410156 L 76.339844 169.265625 L 73.242188 170.066406 L 69.703125 170.980469 " fill-opacity="1" fill-rule="nonzero"/><path fill="#ffffff" d="M 68.242188 166.085938 L 86.492188 161.367188 C 86.492188 161.367188 88.007812 161.332031 88.640625 162.46875 L 69.011719 167.542969 C 69.011719 167.542969 68 167.328125 68.242188 166.085938 " fill-opacity="1" fill-rule="nonzero"/><path fill="#bdbcbc" d="M 93.894531 178.644531 C 94.304688 180.238281 93.34375 181.855469 91.753906 182.265625 L 71.824219 187.417969 C 70.230469 187.828125 68.609375 186.878906 68.199219 185.285156 C 67.789062 183.703125 68.742188 182.074219 70.332031 181.664062 L 90.269531 176.511719 C 91.859375 176.097656 93.480469 177.054688 93.894531 178.644531 " fill-opacity="1" fill-rule="nonzero"/><path fill="#908e8e" d="M 81.195312 185 L 79.558594 183 L 93.984375 179.269531 C 94.039062 180.628906 93.152344 181.890625 91.789062 182.257812 C 91.785156 182.257812 91.78125 182.257812 91.773438 182.261719 C 91.769531 182.261719 91.765625 182.261719 91.753906 182.265625 L 81.195312 185 " fill-opacity="1" fill-rule="nonzero"/><path fill="#ffffff" d="M 72.363281 182.003906 L 90.609375 177.285156 C 90.609375 177.285156 92.128906 177.25 92.757812 178.386719 L 73.136719 183.460938 C 73.136719 183.460938 72.121094 183.25 72.363281 182.003906 " fill-opacity="1" fill-rule="nonzero"/><path fill="#bdbcbc" d="M 98.011719 194.566406 C 98.421875 196.15625 97.464844 197.773438 95.875 198.191406 L 75.941406 203.34375 C 74.351562 203.753906 72.726562 202.796875 72.320312 201.210938 C 71.90625 199.621094 72.863281 198 74.453125 197.589844 L 94.390625 192.433594 C 95.980469 192.023438 97.597656 192.972656 98.011719 194.566406 " fill-opacity="1" fill-rule="nonzero"/><path fill="#21676e" d="M 96.195312 198.085938 C 96.519531 197.960938 96.816406 197.789062 97.066406 197.570312 C 96.816406 197.789062 96.519531 197.960938 96.195312 198.085938 " fill-opacity="1" fill-rule="nonzero"/><path fill="#bdbcbd" d="M 95.886719 198.183594 C 95.992188 198.15625 96.09375 198.125 96.195312 198.085938 C 96.09375 198.125 95.992188 198.15625 95.886719 198.183594 " fill-opacity="1" fill-rule="nonzero"/><path fill="#908e8e" d="M 92.683594 199.011719 L 91.046875 197.015625 L 98.101562 195.191406 C 98.140625 196.109375 97.746094 196.984375 97.066406 197.570312 C 96.816406 197.789062 96.519531 197.960938 96.195312 198.085938 C 96.09375 198.125 95.992188 198.15625 95.886719 198.183594 C 95.886719 198.183594 95.882812 198.183594 95.875 198.191406 L 92.683594 199.011719 " fill-opacity="1" fill-rule="nonzero"/><path fill="#ffffff" d="M 76.480469 197.929688 L 94.734375 193.207031 C 94.734375 193.207031 96.25 193.171875 96.878906 194.304688 L 77.253906 199.378906 C 77.253906 199.378906 76.242188 199.175781 76.480469 197.929688 " fill-opacity="1" fill-rule="nonzero"/><path fill="#bdbcbc" d="M 102.046875 210.15625 C 102.457031 211.746094 101.503906 213.367188 99.914062 213.777344 L 79.976562 218.933594 C 78.386719 219.347656 76.765625 218.386719 76.351562 216.796875 C 75.941406 215.210938 76.898438 213.589844 78.492188 213.179688 L 98.421875 208.023438 C 100.011719 207.613281 101.636719 208.566406 102.046875 210.15625 " fill-opacity="1" fill-rule="nonzero"/><path fill="#bdbcbd" d="M 79.230469 219.03125 C 79.226562 219.03125 79.226562 219.03125 79.226562 219.03125 C 79.226562 219.03125 79.226562 219.03125 79.230469 219.03125 M 79.230469 219.03125 C 79.480469 219.03125 79.730469 219 79.976562 218.933594 L 82.445312 218.296875 L 79.976562 218.933594 C 79.730469 219 79.480469 219.03125 79.230469 219.03125 M 76.382812 216.902344 C 76.378906 216.898438 76.378906 216.890625 76.378906 216.886719 C 76.378906 216.890625 76.378906 216.898438 76.382812 216.902344 M 76.355469 216.820312 C 76.355469 216.8125 76.351562 216.808594 76.351562 216.796875 C 76.289062 216.550781 76.257812 216.300781 76.257812 216.058594 C 76.257812 216.300781 76.289062 216.550781 76.351562 216.796875 C 76.351562 216.808594 76.355469 216.8125 76.355469 216.820312 " fill-opacity="1" fill-rule="nonzero"/><path fill="#908e8e" d="M 79.230469 219.03125 C 79.226562 219.03125 79.226562 219.03125 79.226562 219.03125 C 77.9375 219.023438 76.757812 218.179688 76.382812 216.902344 C 76.378906 216.898438 76.378906 216.890625 76.378906 216.886719 C 76.371094 216.867188 76.367188 216.839844 76.355469 216.820312 C 76.355469 216.8125 76.351562 216.808594 76.351562 216.796875 C 76.289062 216.550781 76.257812 216.300781 76.257812 216.058594 C 76.253906 214.796875 77.058594 213.644531 78.292969 213.234375 L 78.609375 213.621094 C 78.617188 213.675781 78.632812 213.726562 78.644531 213.78125 C 78.890625 214.726562 79.554688 215.445312 80.386719 215.789062 L 82.445312 218.296875 L 79.976562 218.933594 C 79.730469 219 79.480469 219.03125 79.230469 219.03125 " fill-opacity="1" fill-rule="nonzero"/><path fill="#ffffff" d="M 80.515625 213.515625 L 98.769531 208.796875 C 98.769531 208.796875 100.28125 208.757812 100.914062 209.898438 L 81.285156 214.972656 C 81.285156 214.972656 80.273438 214.765625 80.515625 213.515625 " fill-opacity="1" fill-rule="nonzero"/><path fill="#bdbcbc" d="M 106.128906 225.929688 C 106.539062 227.519531 105.585938 229.136719 103.992188 229.550781 L 84.058594 234.703125 C 82.464844 235.117188 80.847656 234.160156 80.4375 232.570312 C 80.023438 230.984375 80.976562 229.359375 82.570312 228.949219 L 102.5 223.792969 C 104.09375 223.378906 105.71875 224.335938 106.128906 225.929688 " fill-opacity="1" fill-rule="nonzero"/><path fill="#bdbcbd" d="M 83.316406 234.796875 C 83.3125 234.796875 83.3125 234.796875 83.304688 234.796875 C 83.3125 234.796875 83.3125 234.796875 83.316406 234.796875 M 83.316406 234.796875 C 83.558594 234.796875 83.8125 234.769531 84.058594 234.703125 L 89.597656 233.273438 L 84.058594 234.703125 C 83.8125 234.769531 83.558594 234.796875 83.316406 234.796875 " fill-opacity="1" fill-rule="nonzero"/><path fill="#908e8e" d="M 83.316406 234.796875 C 83.3125 234.796875 83.3125 234.796875 83.304688 234.796875 C 82.015625 234.796875 80.835938 233.949219 80.457031 232.664062 C 80.457031 232.664062 80.457031 232.664062 80.457031 232.660156 C 80.457031 232.652344 80.453125 232.640625 80.449219 232.628906 C 80.445312 232.609375 80.441406 232.59375 80.4375 232.570312 C 80.367188 232.324219 80.335938 232.074219 80.335938 231.832031 C 80.335938 230.503906 81.226562 229.296875 82.570312 228.949219 L 82.636719 228.929688 C 82.648438 229.140625 82.671875 229.347656 82.726562 229.554688 C 83.074219 230.898438 84.277344 231.789062 85.601562 231.789062 C 85.847656 231.789062 86.101562 231.753906 86.347656 231.6875 L 92.1875 230.179688 L 93.828125 232.179688 L 92.699219 232.472656 L 89.597656 233.273438 L 84.058594 234.703125 C 83.8125 234.769531 83.558594 234.796875 83.316406 234.796875 " fill-opacity="1" fill-rule="nonzero"/><path fill="#ffffff" d="M 84.601562 229.289062 L 102.847656 224.570312 C 102.847656 224.570312 104.363281 224.53125 104.992188 225.667969 L 85.371094 230.742188 C 85.371094 230.742188 84.351562 230.535156 84.601562 229.289062 " fill-opacity="1" fill-rule="nonzero"/><path fill="#bdbcbc" d="M 110.167969 241.550781 C 110.582031 243.144531 109.625 244.765625 108.035156 245.175781 L 88.101562 250.332031 C 86.511719 250.742188 84.886719 249.789062 84.476562 248.195312 C 84.066406 246.609375 85.023438 244.988281 86.613281 244.574219 L 106.550781 239.417969 C 108.140625 239.007812 109.757812 239.964844 110.167969 241.550781 " fill-opacity="1" fill-rule="nonzero"/><path fill="#bdbcbd" d="M 87.355469 250.425781 C 87.355469 250.425781 87.351562 250.425781 87.351562 250.425781 C 87.351562 250.425781 87.355469 250.425781 87.355469 250.425781 M 87.355469 250.425781 C 87.589844 250.425781 87.832031 250.398438 88.066406 250.339844 C 87.832031 250.398438 87.589844 250.425781 87.355469 250.425781 " fill-opacity="1" fill-rule="nonzero"/><path fill="#908e8e" d="M 87.355469 250.425781 C 87.355469 250.425781 87.351562 250.425781 87.351562 250.425781 C 86.035156 250.421875 84.835938 249.542969 84.484375 248.214844 C 84.480469 248.207031 84.480469 248.203125 84.476562 248.195312 C 84.414062 247.945312 84.382812 247.699219 84.382812 247.453125 C 84.382812 246.128906 85.269531 244.921875 86.613281 244.574219 L 86.679688 244.558594 C 86.6875 244.765625 86.714844 244.972656 86.769531 245.183594 C 87.121094 246.523438 88.324219 247.414062 89.652344 247.414062 C 89.894531 247.414062 90.144531 247.386719 90.394531 247.320312 L 103.46875 243.9375 L 105.105469 245.933594 L 96.738281 248.097656 L 93.640625 248.898438 L 88.101562 250.332031 C 88.09375 250.332031 88.078125 250.335938 88.066406 250.339844 C 87.832031 250.398438 87.589844 250.425781 87.355469 250.425781 " fill-opacity="1" fill-rule="nonzero"/><path fill="#ffffff" d="M 88.640625 244.917969 L 106.894531 240.199219 C 106.894531 240.199219 108.410156 240.160156 109.039062 241.296875 L 89.410156 246.371094 C 89.410156 246.371094 88.402344 246.160156 88.640625 244.917969 " fill-opacity="1" fill-rule="nonzero"/><path fill="#bdbcbc" d="M 114.292969 257.476562 C 114.703125 259.0625 113.746094 260.6875 112.15625 261.097656 L 92.226562 266.25 C 90.632812 266.667969 89.007812 265.707031 88.597656 264.117188 C 88.1875 262.527344 89.140625 260.910156 90.734375 260.496094 L 110.667969 255.34375 C 112.261719 254.929688 113.878906 255.886719 114.292969 257.476562 " fill-opacity="1" fill-rule="nonzero"/><path fill="#bdbcbd" d="M 91.476562 266.347656 C 91.472656 266.347656 91.472656 266.347656 91.46875 266.347656 C 91.472656 266.347656 91.472656 266.347656 91.476562 266.347656 M 91.476562 266.347656 C 91.726562 266.347656 91.972656 266.316406 92.226562 266.25 L 97.761719 264.820312 L 92.226562 266.25 C 91.972656 266.316406 91.726562 266.347656 91.476562 266.347656 " fill-opacity="1" fill-rule="nonzero"/><path fill="#21676e" d="M 112.535156 260.972656 C 112.734375 260.894531 112.925781 260.789062 113.101562 260.664062 C 112.925781 260.789062 112.734375 260.894531 112.535156 260.972656 " fill-opacity="1" fill-rule="nonzero"/><path fill="#bdbcbd" d="M 112.171875 261.09375 C 112.292969 261.058594 112.414062 261.019531 112.535156 260.972656 C 112.414062 261.019531 112.292969 261.058594 112.171875 261.09375 " fill-opacity="1" fill-rule="nonzero"/><path fill="#908e8e" d="M 91.476562 266.347656 C 91.472656 266.347656 91.472656 266.347656 91.46875 266.347656 C 90.160156 266.34375 88.964844 265.472656 88.605469 264.15625 C 88.601562 264.144531 88.601562 264.128906 88.597656 264.117188 C 88.535156 263.871094 88.503906 263.621094 88.503906 263.375 C 88.5 262.054688 89.390625 260.839844 90.734375 260.496094 L 90.800781 260.476562 C 90.808594 260.6875 90.835938 260.894531 90.890625 261.105469 C 91.238281 262.441406 92.445312 263.335938 93.769531 263.335938 C 94.011719 263.335938 94.265625 263.304688 94.515625 263.238281 L 114.382812 258.101562 C 114.425781 259.125 113.9375 260.085938 113.109375 260.660156 C 113.105469 260.664062 113.101562 260.664062 113.101562 260.664062 C 112.925781 260.789062 112.734375 260.894531 112.535156 260.972656 C 112.414062 261.019531 112.292969 261.058594 112.171875 261.09375 C 112.167969 261.09375 112.160156 261.097656 112.15625 261.097656 L 100.859375 264.019531 L 97.761719 264.820312 L 92.226562 266.25 C 91.972656 266.316406 91.726562 266.347656 91.476562 266.347656 " fill-opacity="1" fill-rule="nonzero"/><path fill="#ffffff" d="M 92.761719 260.835938 L 111.011719 256.117188 C 111.011719 256.117188 112.53125 256.082031 113.160156 257.21875 L 93.535156 262.292969 C 93.535156 262.292969 92.519531 262.082031 92.761719 260.835938 " fill-opacity="1" fill-rule="nonzero"/><path fill="#bdbcbc" d="M 118.3125 273.027344 C 118.726562 274.617188 117.773438 276.238281 116.183594 276.648438 L 96.25 281.804688 C 94.65625 282.214844 93.03125 281.261719 92.621094 279.667969 C 92.210938 278.082031 93.164062 276.460938 94.757812 276.050781 L 114.691406 270.894531 C 116.285156 270.480469 117.902344 271.4375 118.3125 273.027344 " fill-opacity="1" fill-rule="nonzero"/><path fill="#bdbcbd" d="M 95.5 281.898438 C 95.496094 281.898438 95.496094 281.898438 95.496094 281.898438 C 95.496094 281.898438 95.496094 281.898438 95.5 281.898438 M 95.5 281.898438 C 95.75 281.898438 95.996094 281.871094 96.25 281.804688 L 101.785156 280.371094 L 96.25 281.804688 C 95.996094 281.871094 95.75 281.898438 95.5 281.898438 " fill-opacity="1" fill-rule="nonzero"/><path fill="#908e8e" d="M 95.5 281.898438 C 95.496094 281.898438 95.496094 281.898438 95.496094 281.898438 C 94.183594 281.898438 92.992188 281.027344 92.632812 279.707031 C 92.628906 279.695312 92.625 279.679688 92.621094 279.667969 C 92.5625 279.421875 92.527344 279.171875 92.527344 278.925781 C 92.527344 277.605469 93.417969 276.394531 94.757812 276.050781 L 94.824219 276.03125 C 94.832031 276.238281 94.863281 276.449219 94.914062 276.65625 C 95.261719 278 96.46875 278.882812 97.792969 278.882812 C 98.039062 278.882812 98.289062 278.855469 98.542969 278.789062 L 118.402344 273.652344 C 118.464844 275.023438 117.566406 276.292969 116.183594 276.648438 L 104.882812 279.570312 L 101.785156 280.371094 L 96.25 281.804688 C 95.996094 281.871094 95.75 281.898438 95.5 281.898438 " fill-opacity="1" fill-rule="nonzero"/><path fill="#ffffff" d="M 96.785156 276.390625 L 115.039062 271.671875 C 115.039062 271.671875 116.554688 271.628906 117.1875 272.769531 L 97.554688 277.84375 C 97.554688 277.84375 96.539062 277.632812 96.785156 276.390625 " fill-opacity="1" fill-rule="nonzero"/><path fill="#bdbcbc" d="M 122.320312 288.507812 C 122.730469 290.097656 121.777344 291.714844 120.1875 292.125 L 100.25 297.28125 C 98.660156 297.695312 97.042969 296.738281 96.628906 295.148438 C 96.21875 293.558594 97.171875 291.9375 98.765625 291.527344 L 118.699219 286.371094 C 120.289062 285.960938 121.910156 286.914062 122.320312 288.507812 " fill-opacity="1" fill-rule="nonzero"/><path fill="#bdbcbd" d="M 99.503906 297.378906 C 99.5 297.378906 99.5 297.378906 99.5 297.378906 C 99.5 297.378906 99.5 297.378906 99.503906 297.378906 M 99.503906 297.378906 C 99.746094 297.378906 99.984375 297.347656 100.230469 297.289062 C 99.984375 297.347656 99.746094 297.378906 99.503906 297.378906 M 100.230469 297.289062 C 100.238281 297.289062 100.246094 297.28125 100.25 297.28125 L 105.789062 295.851562 L 100.25 297.28125 C 100.246094 297.28125 100.238281 297.289062 100.230469 297.289062 " fill-opacity="1" fill-rule="nonzero"/><path fill="#21676e" d="M 120.199219 292.121094 C 120.328125 292.09375 120.453125 292.050781 120.570312 292 C 120.453125 292.050781 120.328125 292.09375 120.199219 292.121094 M 120.578125 292 C 120.578125 292 120.578125 292 120.582031 292 C 120.578125 292 120.578125 292 120.578125 292 " fill-opacity="1" fill-rule="nonzero"/><path fill="#bdbcbd" d="M 98.765625 291.527344 L 98.828125 291.511719 L 98.765625 291.527344 " fill-opacity="1" fill-rule="nonzero"/><path fill="#908e8e" d="M 99.503906 297.378906 C 99.5 297.378906 99.5 297.378906 99.5 297.378906 C 98.175781 297.378906 96.972656 296.488281 96.628906 295.148438 C 96.5625 294.898438 96.53125 294.644531 96.53125 294.398438 C 96.535156 293.078125 97.421875 291.875 98.765625 291.527344 L 98.828125 291.511719 C 98.835938 291.71875 98.867188 291.925781 98.917969 292.132812 C 99.269531 293.476562 100.472656 294.363281 101.796875 294.363281 C 102.042969 294.363281 102.292969 294.332031 102.542969 294.269531 L 122.410156 289.132812 C 122.460938 290.359375 121.742188 291.511719 120.59375 291.988281 C 120.589844 291.992188 120.585938 291.992188 120.582031 292 C 120.578125 292 120.578125 292 120.578125 292 C 120.570312 292 120.570312 292 120.570312 292 C 120.453125 292.050781 120.328125 292.09375 120.199219 292.121094 C 120.195312 292.125 120.191406 292.125 120.1875 292.125 L 119.964844 292.1875 L 108.886719 295.046875 L 105.789062 295.851562 L 100.25 297.28125 C 100.246094 297.28125 100.238281 297.289062 100.230469 297.289062 C 99.984375 297.347656 99.746094 297.378906 99.503906 297.378906 " fill-opacity="1" fill-rule="nonzero"/><path fill="#ffffff" d="M 100.792969 291.871094 L 119.042969 287.148438 C 119.042969 287.148438 120.554688 287.109375 121.1875 288.246094 L 101.5625 293.320312 C 101.5625 293.320312 100.546875 293.113281 100.792969 291.871094 " fill-opacity="1" fill-rule="nonzero"/><path fill="#bdbcbc" d="M 126.441406 304.425781 C 126.851562 306.015625 125.898438 307.640625 124.308594 308.050781 L 104.371094 313.207031 C 102.785156 313.617188 101.160156 312.65625 100.75 311.070312 C 100.335938 309.480469 101.292969 307.863281 102.886719 307.445312 L 122.816406 302.292969 C 124.410156 301.882812 126.03125 302.835938 126.441406 304.425781 " fill-opacity="1" fill-rule="nonzero"/><path fill="#bdbcbd" d="M 103.628906 313.300781 C 103.621094 313.300781 103.621094 313.300781 103.617188 313.300781 C 103.621094 313.300781 103.621094 313.300781 103.628906 313.300781 M 103.628906 313.300781 C 103.867188 313.300781 104.117188 313.269531 104.359375 313.207031 C 104.117188 313.269531 103.867188 313.300781 103.628906 313.300781 " fill-opacity="1" fill-rule="nonzero"/><path fill="#bdbcbd" d="M 124.320312 308.046875 C 124.324219 308.046875 124.324219 308.046875 124.324219 308.046875 C 124.324219 308.046875 124.320312 308.046875 124.320312 308.046875 M 124.339844 308.042969 C 124.339844 308.042969 124.34375 308.042969 124.34375 308.042969 C 124.34375 308.042969 124.339844 308.042969 124.339844 308.042969 M 124.347656 308.035156 C 124.355469 308.035156 124.359375 308.035156 124.363281 308.03125 C 124.359375 308.035156 124.355469 308.035156 124.347656 308.035156 " fill-opacity="1" fill-rule="nonzero"/><path fill="#21676e" d="M 124.371094 308.03125 C 124.503906 307.996094 124.636719 307.945312 124.761719 307.890625 C 124.636719 307.945312 124.503906 307.996094 124.371094 308.03125 " fill-opacity="1" fill-rule="nonzero"/><path fill="#21676e" d="M 124.765625 307.890625 C 124.769531 307.890625 124.773438 307.886719 124.78125 307.886719 C 124.773438 307.886719 124.769531 307.890625 124.765625 307.890625 M 124.785156 307.882812 C 124.785156 307.882812 124.789062 307.882812 124.789062 307.882812 C 124.789062 307.882812 124.785156 307.882812 124.785156 307.882812 " fill-opacity="1" fill-rule="nonzero"/><path fill="#908e8e" d="M 103.628906 313.300781 C 103.621094 313.300781 103.621094 313.300781 103.617188 313.300781 C 102.304688 313.296875 101.109375 312.414062 100.753906 311.089844 C 100.753906 311.082031 100.75 311.078125 100.75 311.070312 C 100.683594 310.820312 100.652344 310.574219 100.652344 310.328125 C 100.648438 309.003906 101.539062 307.792969 102.886719 307.445312 L 102.949219 307.429688 C 102.953125 307.640625 102.984375 307.847656 103.039062 308.058594 C 103.386719 309.394531 104.589844 310.285156 105.914062 310.285156 C 106.164062 310.285156 106.417969 310.253906 106.664062 310.191406 L 126.53125 305.050781 C 126.578125 306.25 125.898438 307.375 124.800781 307.875 C 124.796875 307.878906 124.792969 307.878906 124.789062 307.882812 C 124.789062 307.882812 124.785156 307.882812 124.785156 307.882812 C 124.785156 307.882812 124.78125 307.882812 124.78125 307.886719 C 124.773438 307.886719 124.769531 307.890625 124.765625 307.890625 C 124.765625 307.890625 124.761719 307.890625 124.761719 307.890625 C 124.636719 307.945312 124.503906 307.996094 124.371094 308.03125 C 124.367188 308.03125 124.367188 308.03125 124.363281 308.03125 C 124.359375 308.035156 124.355469 308.035156 124.347656 308.035156 C 124.347656 308.035156 124.347656 308.042969 124.34375 308.042969 C 124.34375 308.042969 124.339844 308.042969 124.339844 308.042969 C 124.332031 308.046875 124.328125 308.046875 124.324219 308.046875 C 124.324219 308.046875 124.324219 308.046875 124.320312 308.046875 C 124.316406 308.050781 124.3125 308.050781 124.308594 308.050781 L 113.011719 310.972656 L 109.914062 311.773438 L 104.371094 313.207031 C 104.367188 313.207031 104.363281 313.207031 104.359375 313.207031 C 104.117188 313.269531 103.867188 313.300781 103.628906 313.300781 " fill-opacity="1" fill-rule="nonzero"/><path fill="#ffffff" d="M 104.914062 307.789062 L 123.164062 303.070312 C 123.164062 303.070312 124.679688 303.035156 125.3125 304.167969 L 105.683594 309.246094 C 105.683594 309.246094 104.667969 309.03125 104.914062 307.789062 " fill-opacity="1" fill-rule="nonzero"/><path fill="#bdbcbc" d="M 130.558594 320.34375 C 130.96875 321.933594 130.015625 323.5625 128.429688 323.972656 L 108.496094 329.125 C 106.90625 329.535156 105.277344 328.582031 104.867188 326.992188 C 104.453125 325.402344 105.410156 323.78125 107.003906 323.371094 L 126.9375 318.210938 C 128.527344 317.800781 130.148438 318.757812 130.558594 320.34375 " fill-opacity="1" fill-rule="nonzero"/><path fill="#bdbcbd" d="M 107.75 329.21875 C 107.746094 329.21875 107.746094 329.21875 107.746094 329.21875 C 107.746094 329.21875 107.746094 329.21875 107.75 329.21875 M 107.75 329.21875 C 107.980469 329.21875 108.210938 329.195312 108.449219 329.136719 C 108.210938 329.195312 107.980469 329.21875 107.75 329.21875 " fill-opacity="1" fill-rule="nonzero"/><path fill="#21676e" d="M 128.90625 323.804688 C 128.90625 323.804688 128.90625 323.800781 128.910156 323.800781 C 128.90625 323.800781 128.90625 323.804688 128.90625 323.804688 M 128.917969 323.796875 C 128.921875 323.796875 128.921875 323.796875 128.921875 323.796875 C 128.921875 323.796875 128.921875 323.796875 128.917969 323.796875 M 128.933594 323.789062 C 128.933594 323.789062 128.941406 323.789062 128.941406 323.789062 C 128.941406 323.789062 128.933594 323.789062 128.933594 323.789062 M 128.949219 323.785156 C 128.949219 323.785156 128.953125 323.78125 128.957031 323.78125 C 128.953125 323.78125 128.949219 323.785156 128.949219 323.785156 M 128.960938 323.78125 C 128.964844 323.777344 128.96875 323.777344 128.972656 323.773438 C 128.96875 323.777344 128.964844 323.777344 128.960938 323.78125 M 128.976562 323.773438 C 129.398438 323.570312 129.753906 323.273438 130.027344 322.917969 C 129.753906 323.273438 129.398438 323.570312 128.976562 323.773438 M 130.03125 322.917969 C 130.03125 322.914062 130.03125 322.914062 130.035156 322.910156 C 130.03125 322.914062 130.03125 322.914062 130.03125 322.917969 M 130.039062 322.902344 C 130.039062 322.902344 130.039062 322.902344 130.046875 322.902344 C 130.039062 322.902344 130.039062 322.902344 130.039062 322.902344 " fill-opacity="1" fill-rule="nonzero"/><path fill="#908e8e" d="M 107.75 329.21875 C 107.746094 329.21875 107.746094 329.21875 107.746094 329.21875 C 106.425781 329.21875 105.226562 328.335938 104.875 327.007812 C 104.871094 327.003906 104.871094 326.996094 104.867188 326.992188 C 104.804688 326.742188 104.769531 326.496094 104.769531 326.246094 C 104.769531 324.921875 105.664062 323.714844 107.003906 323.371094 L 107.070312 323.351562 C 107.082031 323.558594 107.105469 323.765625 107.160156 323.976562 C 107.507812 325.316406 108.714844 326.203125 110.035156 326.203125 C 110.285156 326.203125 110.535156 326.175781 110.785156 326.109375 L 130.652344 320.976562 C 130.683594 321.675781 130.457031 322.359375 130.046875 322.902344 C 130.039062 322.902344 130.039062 322.902344 130.039062 322.902344 C 130.039062 322.90625 130.035156 322.910156 130.035156 322.910156 C 130.03125 322.914062 130.03125 322.914062 130.03125 322.917969 C 130.027344 322.917969 130.027344 322.917969 130.027344 322.917969 C 129.753906 323.273438 129.398438 323.570312 128.976562 323.773438 C 128.972656 323.773438 128.972656 323.773438 128.972656 323.773438 C 128.96875 323.777344 128.964844 323.777344 128.960938 323.78125 C 128.960938 323.78125 128.957031 323.78125 128.957031 323.78125 C 128.953125 323.78125 128.949219 323.785156 128.949219 323.785156 C 128.945312 323.785156 128.945312 323.789062 128.941406 323.789062 C 128.941406 323.789062 128.933594 323.789062 128.933594 323.789062 C 128.929688 323.792969 128.925781 323.792969 128.921875 323.796875 C 128.921875 323.796875 128.921875 323.796875 128.917969 323.796875 C 128.914062 323.796875 128.910156 323.800781 128.910156 323.800781 C 128.90625 323.800781 128.90625 323.804688 128.90625 323.804688 C 128.902344 323.804688 128.898438 323.804688 128.890625 323.808594 C 128.886719 323.808594 128.882812 323.816406 128.878906 323.816406 C 128.738281 323.878906 128.59375 323.925781 128.441406 323.96875 C 128.4375 323.96875 128.433594 323.96875 128.429688 323.972656 L 117.132812 326.894531 L 114.03125 327.695312 L 108.496094 329.125 C 108.476562 329.128906 108.464844 329.132812 108.449219 329.136719 C 108.210938 329.195312 107.980469 329.21875 107.75 329.21875 " fill-opacity="1" fill-rule="nonzero"/><path fill="#ffffff" d="M 109.03125 323.707031 L 127.285156 318.988281 C 127.285156 318.988281 128.796875 318.953125 129.433594 320.089844 L 109.800781 325.164062 C 109.800781 325.164062 108.789062 324.953125 109.03125 323.707031 " fill-opacity="1" fill-rule="nonzero"/><path fill="#bdbcbc" d="M 134.625 336.046875 C 135.035156 337.636719 134.082031 339.257812 132.492188 339.667969 L 112.554688 344.824219 C 110.964844 345.238281 109.339844 344.277344 108.925781 342.6875 C 108.519531 341.105469 109.476562 339.480469 111.070312 339.070312 L 131 333.917969 C 132.59375 333.507812 134.214844 334.460938 134.625 336.046875 " fill-opacity="1" fill-rule="nonzero"/><path fill="#bdbcbd" d="M 111.8125 344.917969 C 111.804688 344.917969 111.804688 344.917969 111.804688 344.917969 C 111.804688 344.917969 111.804688 344.917969 111.8125 344.917969 M 111.8125 344.917969 C 112.050781 344.917969 112.300781 344.890625 112.542969 344.828125 C 112.300781 344.890625 112.050781 344.917969 111.8125 344.917969 " fill-opacity="1" fill-rule="nonzero"/><path fill="#908e8e" d="M 111.8125 344.917969 C 111.804688 344.917969 111.804688 344.917969 111.804688 344.917969 C 110.507812 344.917969 109.324219 344.0625 108.953125 342.769531 C 108.953125 342.765625 108.949219 342.761719 108.949219 342.757812 C 108.945312 342.753906 108.945312 342.753906 108.945312 342.75 C 108.941406 342.730469 108.9375 342.710938 108.925781 342.6875 C 108.867188 342.445312 108.832031 342.191406 108.832031 341.949219 C 108.832031 340.628906 109.722656 339.417969 111.070312 339.070312 L 111.132812 339.050781 C 111.136719 339.257812 111.167969 339.46875 111.222656 339.671875 C 111.570312 341.015625 112.777344 341.90625 114.097656 341.90625 C 114.347656 341.90625 114.59375 341.875 114.847656 341.8125 L 134.714844 336.671875 C 134.769531 338.042969 133.871094 339.3125 132.492188 339.667969 L 121.195312 342.589844 L 118.097656 343.390625 L 112.554688 344.824219 C 112.550781 344.824219 112.546875 344.824219 112.542969 344.828125 C 112.300781 344.890625 112.050781 344.917969 111.8125 344.917969 " fill-opacity="1" fill-rule="nonzero"/><path fill="#ffffff" d="M 113.097656 339.414062 L 131.347656 334.691406 C 131.347656 334.691406 132.859375 334.652344 133.492188 335.789062 L 113.863281 340.863281 C 113.863281 340.863281 112.851562 340.652344 113.097656 339.414062 " fill-opacity="1" fill-rule="nonzero"/><path fill="#bdbcbc" d="M 138.726562 351.894531 C 139.136719 353.484375 138.179688 355.105469 136.589844 355.515625 L 116.65625 360.671875 C 115.0625 361.082031 113.441406 360.128906 113.03125 358.539062 C 112.621094 356.949219 113.574219 355.328125 115.167969 354.914062 L 135.101562 349.757812 C 136.695312 349.347656 138.3125 350.304688 138.726562 351.894531 " fill-opacity="1" fill-rule="nonzero"/><path fill="#bdbcbd" d="M 115.910156 360.765625 C 115.90625 360.765625 115.90625 360.765625 115.902344 360.765625 C 115.90625 360.765625 115.90625 360.765625 115.910156 360.765625 M 115.910156 360.765625 C 116.144531 360.765625 116.382812 360.738281 116.621094 360.679688 C 116.382812 360.738281 116.144531 360.765625 115.910156 360.765625 M 116.644531 360.675781 C 116.648438 360.675781 116.652344 360.671875 116.65625 360.671875 L 122.195312 359.242188 L 116.65625 360.671875 C 116.652344 360.671875 116.648438 360.675781 116.644531 360.675781 " fill-opacity="1" fill-rule="nonzero"/><path fill="#bdbcbd" d="M 136.605469 355.511719 C 136.609375 355.511719 136.609375 355.511719 136.609375 355.511719 C 136.609375 355.511719 136.609375 355.511719 136.605469 355.511719 M 136.621094 355.507812 C 136.621094 355.507812 136.625 355.507812 136.625 355.507812 C 136.625 355.507812 136.621094 355.507812 136.621094 355.507812 M 136.628906 355.507812 C 136.640625 355.503906 136.644531 355.503906 136.648438 355.503906 C 136.644531 355.503906 136.640625 355.503906 136.628906 355.507812 M 136.648438 355.503906 C 136.75 355.472656 136.847656 355.4375 136.941406 355.398438 C 136.847656 355.4375 136.75 355.472656 136.648438 355.503906 M 136.941406 355.398438 C 136.945312 355.398438 136.953125 355.398438 136.960938 355.394531 C 136.953125 355.398438 136.945312 355.398438 136.941406 355.398438 M 136.960938 355.394531 C 136.964844 355.394531 136.96875 355.390625 136.96875 355.390625 C 136.96875 355.390625 136.964844 355.394531 136.960938 355.394531 M 136.976562 355.386719 C 136.980469 355.386719 136.980469 355.386719 136.984375 355.386719 C 136.980469 355.386719 136.980469 355.386719 136.976562 355.386719 M 136.996094 355.382812 C 136.996094 355.382812 137 355.378906 137 355.378906 C 137 355.378906 136.996094 355.382812 136.996094 355.382812 " fill-opacity="1" fill-rule="nonzero"/><path fill="#908e8e" d="M 115.910156 360.765625 C 115.90625 360.765625 115.90625 360.765625 115.902344 360.765625 C 114.59375 360.765625 113.410156 359.894531 113.042969 358.585938 C 113.039062 358.578125 113.039062 358.570312 113.035156 358.558594 C 113.035156 358.554688 113.03125 358.546875 113.03125 358.539062 C 112.96875 358.289062 112.9375 358.042969 112.9375 357.796875 C 112.933594 356.46875 113.824219 355.261719 115.167969 354.914062 L 115.234375 354.898438 C 115.242188 355.105469 115.273438 355.3125 115.324219 355.523438 C 115.675781 356.863281 116.878906 357.753906 118.203125 357.753906 C 118.445312 357.753906 118.699219 357.722656 118.949219 357.65625 L 138.816406 352.515625 C 138.867188 353.75 138.148438 354.898438 137 355.378906 C 137 355.378906 136.996094 355.382812 136.996094 355.382812 C 136.988281 355.382812 136.988281 355.382812 136.984375 355.386719 C 136.980469 355.386719 136.980469 355.386719 136.976562 355.386719 C 136.976562 355.386719 136.972656 355.390625 136.96875 355.390625 C 136.96875 355.390625 136.964844 355.394531 136.960938 355.394531 C 136.953125 355.398438 136.945312 355.398438 136.941406 355.398438 C 136.847656 355.4375 136.75 355.472656 136.648438 355.503906 C 136.644531 355.503906 136.640625 355.503906 136.628906 355.507812 C 136.628906 355.507812 136.628906 355.507812 136.625 355.507812 C 136.625 355.507812 136.621094 355.507812 136.621094 355.507812 C 136.617188 355.511719 136.613281 355.511719 136.609375 355.511719 C 136.609375 355.511719 136.609375 355.511719 136.605469 355.511719 C 136.601562 355.515625 136.597656 355.515625 136.589844 355.515625 L 125.292969 358.441406 L 122.195312 359.242188 L 116.65625 360.671875 C 116.652344 360.671875 116.648438 360.675781 116.644531 360.675781 C 116.636719 360.675781 116.625 360.679688 116.621094 360.679688 C 116.382812 360.738281 116.144531 360.765625 115.910156 360.765625 " fill-opacity="1" fill-rule="nonzero"/><path fill="#ffffff" d="M 117.195312 355.253906 L 135.449219 350.535156 C 135.449219 350.535156 136.960938 350.5 137.59375 351.636719 L 117.96875 356.710938 C 117.96875 356.710938 116.953125 356.5 117.195312 355.253906 " fill-opacity="1" fill-rule="nonzero"/><path fill="#918f8f" d="M 180.597656 324.757812 L 183.554688 327.375 C 183.554688 327.375 185.066406 327.894531 185.015625 326.175781 L 183.082031 322.847656 L 180.597656 324.757812 " fill-opacity="1" fill-rule="nonzero"/><path fill="#bdbcbc" d="M 162.195312 308.417969 L 180.015625 325.445312 C 180.015625 325.445312 182.824219 324.589844 183.976562 322.195312 L 170.777344 301.386719 L 162.195312 308.417969 " fill-opacity="1" fill-rule="nonzero"/><path fill="#2a2f38" d="M 171.308594 300.953125 C 163.476562 284.59375 157.628906 278.210938 157.628906 278.210938 L 21.875 112.65625 L 15.195312 118.125 L 12.972656 119.949219 L 6.289062 125.421875 L 142.042969 290.980469 C 142.042969 290.980469 147.148438 297.96875 161.664062 308.855469 C 161.664062 308.855469 167.984375 307.742188 171.308594 300.953125 " fill-opacity="1" fill-rule="nonzero"/><path fill="#424652" d="M 165.472656 295.089844 C 162.578125 295.089844 159.378906 294.140625 156.96875 292.636719 L 33.140625 141.613281 C 34.328125 140.601562 35.546875 139.429688 36.769531 138.101562 L 165.488281 295.089844 C 165.484375 295.089844 165.480469 295.089844 165.472656 295.089844 " fill-opacity="1" fill-rule="nonzero"/><path fill="#bdbcbd" d="M 171.308594 300.953125 C 171.28125 300.902344 171.261719 300.851562 171.234375 300.800781 C 171.261719 300.851562 171.28125 300.902344 171.308594 300.953125 " fill-opacity="1" fill-rule="nonzero"/><path fill="#20232a" d="M 161.664062 308.855469 C 158.429688 306.429688 155.660156 304.195312 153.3125 302.191406 C 153.074219 301.984375 152.839844 301.785156 152.605469 301.582031 C 148.386719 297.929688 145.609375 295.085938 143.964844 293.265625 C 143.753906 293.03125 143.566406 292.816406 143.390625 292.621094 C 142.457031 291.554688 142.042969 290.980469 142.042969 290.980469 L 130.449219 276.835938 L 128.175781 274.070312 L 114.046875 256.835938 L 113.285156 255.90625 L 105.105469 245.933594 L 103.46875 243.9375 L 102.65625 242.949219 L 101.535156 241.582031 L 93.828125 232.179688 L 92.1875 230.179688 L 91.378906 229.1875 L 90.253906 227.824219 L 82.445312 218.296875 L 80.386719 215.789062 L 78.609375 213.621094 L 78.292969 213.234375 L 24.242188 147.316406 C 25.433594 146.796875 27.113281 145.953125 29.058594 144.6875 L 143.019531 283.671875 C 143.019531 283.671875 148.128906 290.65625 162.640625 301.542969 C 162.640625 301.542969 166.371094 300.875 169.605469 297.496094 C 170.136719 298.550781 170.679688 299.644531 171.234375 300.800781 C 171.261719 300.851562 171.28125 300.902344 171.308594 300.953125 C 171.1875 301.191406 171.070312 301.425781 170.945312 301.652344 C 168.300781 306.449219 164.152344 308.140625 162.445312 308.65625 C 161.949219 308.804688 161.664062 308.855469 161.664062 308.855469 " fill-opacity="1" fill-rule="nonzero"/><path fill="#2289b4" d="M 18.550781 105.613281 L 40.890625 132.867188 C 32.691406 145.007812 22.382812 148.03125 22.382812 148.03125 L 0.0390625 120.785156 C 0.0390625 120.785156 4.058594 112.070312 18.550781 105.613281 " fill-opacity="1" fill-rule="nonzero"/><path fill="#3e9dc4" d="M 37.003906 137.816406 L 12.96875 108.5 C 13.457031 108.214844 13.976562 107.925781 14.507812 107.644531 L 38.148438 136.476562 C 37.765625 136.9375 37.390625 137.390625 37.003906 137.816406 " fill-opacity="1" fill-rule="nonzero"/><path fill="#3e9dc4" d="M 39.042969 135.339844 L 15.792969 106.980469 C 16.171875 106.785156 16.546875 106.589844 16.945312 106.398438 L 39.832031 134.3125 C 39.574219 134.667969 39.308594 135 39.042969 135.339844 " fill-opacity="1" fill-rule="nonzero"/><path fill="#1a6689" d="M 22.382812 148.03125 L 0.0390625 120.785156 C 0.0390625 120.785156 1.277344 118.121094 4.820312 114.652344 C 10.070312 125.558594 21.195312 134.03125 32.359375 137.3125 C 33.867188 137.753906 35.308594 138.015625 36.714844 138.136719 C 29.570312 145.902344 22.382812 148.03125 22.382812 148.03125 " fill-opacity="1" fill-rule="nonzero"/><path fill="#2a2f38" d="M 29.722656 119.242188 L 11.210938 134.40625 L 7.753906 130.1875 L 26.269531 115.023438 L 29.722656 119.242188 " fill-opacity="1" fill-rule="nonzero"/><path fill="#185d7e" d="M 70.511719 180.175781 C 71.6875 181.609375 70.953125 184.15625 68.875 185.859375 C 66.792969 187.5625 64.152344 187.78125 62.976562 186.351562 L 11.113281 123.101562 C 9.9375 121.667969 10.671875 119.121094 12.753906 117.417969 C 14.835938 115.714844 17.476562 115.492188 18.648438 116.925781 L 70.511719 180.175781 " fill-opacity="1" fill-rule="nonzero"/><path fill="#918f8f" d="M 259.332031 345.289062 L 259.960938 349.183594 C 259.960938 349.183594 260.796875 350.546875 261.847656 349.183594 L 262.464844 345.382812 L 259.332031 345.289062 " fill-opacity="1" fill-rule="nonzero"/><path fill="#bdbcbc" d="M 255.457031 320.992188 L 258.445312 345.449219 C 258.445312 345.449219 261.15625 346.570312 263.574219 345.449219 L 266.554688 320.992188 L 255.457031 320.992188 " fill-opacity="1" fill-rule="nonzero"/><path fill="#2a2f38" d="M 267.242188 320.992188 C 271.5625 303.378906 271.078125 294.734375 271.078125 294.734375 L 271.078125 80.671875 L 250.929688 80.671875 L 250.929688 294.734375 C 250.929688 294.734375 250.453125 303.378906 254.769531 320.992188 C 254.769531 320.992188 260.367188 324.136719 267.242188 320.992188 " fill-opacity="1" fill-rule="nonzero"/><path fill="#424652" d="M 266.460938 312.769531 C 264.214844 310.933594 262.339844 308.167969 261.425781 305.476562 L 261.425781 110.207031 C 262.992188 110.171875 264.675781 110.042969 266.460938 109.789062 L 266.460938 312.769531 " fill-opacity="1" fill-rule="nonzero"/><path fill="#bdbcbd" d="M 266.519531 321.300781 C 266.761719 321.207031 267 321.105469 267.242188 320.992188 C 267.335938 320.621094 267.421875 320.25 267.511719 319.886719 C 267.425781 320.25 267.335938 320.621094 267.242188 320.992188 C 267 321.105469 266.761719 321.207031 266.519531 321.300781 " fill-opacity="1" fill-rule="nonzero"/><path fill="#20232a" d="M 260.957031 322.386719 C 258.238281 322.386719 256.175781 321.632812 255.269531 321.230469 C 254.945312 321.089844 254.769531 320.992188 254.769531 320.992188 C 254.738281 320.859375 254.703125 320.726562 254.675781 320.59375 C 253.761719 316.847656 253.070312 313.515625 252.550781 310.589844 C 252.503906 310.332031 252.457031 310.078125 252.414062 309.832031 C 251.660156 305.480469 251.277344 302.078125 251.089844 299.613281 C 251.066406 299.34375 251.050781 299.082031 251.039062 298.832031 C 250.9375 297.347656 250.917969 296.269531 250.917969 295.589844 C 250.917969 295.019531 250.929688 294.734375 250.929688 294.734375 L 250.929688 108.980469 C 252.179688 109.328125 254.015625 109.742188 256.324219 109.992188 L 256.324219 289.703125 C 256.324219 289.703125 255.84375 298.34375 260.164062 315.960938 C 260.164062 315.960938 262.652344 317.347656 266.339844 317.347656 C 266.90625 317.347656 267.503906 317.3125 268.117188 317.242188 C 267.925781 318.101562 267.726562 318.980469 267.511719 319.886719 C 267.421875 320.25 267.335938 320.621094 267.242188 320.992188 C 267 321.105469 266.761719 321.207031 266.519531 321.300781 C 264.5 322.109375 262.605469 322.386719 260.957031 322.386719 " fill-opacity="1" fill-rule="nonzero"/><path fill="#ed3947" d="M 272.976562 73.121094 L 272.976562 108.351562 C 258.929688 112.546875 249.039062 108.351562 249.039062 108.351562 L 249.039062 73.121094 C 249.039062 73.121094 257.671875 68.929688 272.976562 73.121094 " fill-opacity="1" fill-rule="nonzero"/><path fill="#ef525b" d="M 266.828125 109.71875 L 266.828125 71.816406 C 267.386719 71.902344 267.96875 72.011719 268.558594 72.128906 L 268.558594 109.40625 C 267.972656 109.519531 267.390625 109.632812 266.828125 109.71875 " fill-opacity="1" fill-rule="nonzero"/><path fill="#ef525b" d="M 269.972656 109.097656 L 269.972656 72.429688 C 270.394531 72.519531 270.804688 72.601562 271.234375 72.707031 L 271.234375 108.800781 C 270.804688 108.914062 270.394531 108.996094 269.972656 109.097656 " fill-opacity="1" fill-rule="nonzero"/><path fill="#b02932" d="M 260.519531 110.203125 C 253.4375 110.203125 249.039062 108.351562 249.039062 108.351562 L 249.039062 73.121094 C 249.039062 73.121094 251.683594 71.847656 256.625 71.410156 C 253.765625 83.171875 256.996094 96.769531 263.550781 106.382812 C 264.4375 107.683594 265.390625 108.800781 266.402344 109.785156 C 264.285156 110.082031 262.3125 110.203125 260.519531 110.203125 " fill-opacity="1" fill-rule="nonzero"/><path fill="#2a2f38" d="M 272.976562 90.742188 L 249.039062 90.742188 L 249.039062 85.285156 L 272.976562 85.285156 L 272.976562 90.742188 " fill-opacity="1" fill-rule="nonzero"/><path fill="#a61e23" d="M 265.878906 163.714844 C 265.878906 165.566406 263.699219 167.070312 261.007812 167.070312 C 258.316406 167.070312 256.136719 165.566406 256.136719 163.714844 L 256.136719 81.929688 C 256.136719 80.078125 258.316406 78.574219 261.007812 78.574219 C 263.699219 78.574219 265.878906 80.078125 265.878906 81.929688 L 265.878906 163.714844 " fill-opacity="1" fill-rule="nonzero"/></svg>