<svg xmlns="http://www.w3.org/2000/svg" xmlns:xlink="http://www.w3.org/1999/xlink" width="500" zoomAndPan="magnify" viewBox="0 0 375 374.999991" height="500" preserveAspectRatio="xMidYMid meet" version="1.0"><defs><clipPath id="35f0239634"><path d="M 173 22.175781 L 354.34375 22.175781 L 354.34375 217.925781 L 173 217.925781 Z M 173 22.175781 " clip-rule="nonzero"/></clipPath><clipPath id="0a72b06778"><path d="M 22.367188 71.296875 L 283.132812 71.296875 L 283.132812 346.476562 L 22.367188 346.476562 Z M 22.367188 71.296875 " clip-rule="nonzero"/></clipPath></defs><path fill="#746767" d="M 259.070312 78.898438 C 259.214844 82.792969 258.558594 82.851562 257.117188 82.984375 C 256.140625 83.074219 254.925781 83.183594 253.847656 84.109375 C 251.519531 86.105469 253.714844 95 254.765625 98.730469 C 256.214844 103.878906 258.542969 110.113281 261.40625 110.570312 C 262.007812 110.667969 262.402344 112.191406 262.753906 113.535156 C 263.46875 116.265625 264.652344 120.839844 270.199219 119.734375 C 271.320312 119.511719 272.410156 119.273438 273.460938 119.046875 C 278.410156 117.96875 282.683594 117.042969 283.855469 119.058594 C 286.066406 122.855469 288.59375 126.460938 295.175781 128.855469 C 296.894531 129.476562 298.546875 130.25 300.148438 131.003906 C 302.773438 132.234375 304.855469 133.210938 306.519531 133.210938 C 307.089844 133.210938 307.609375 133.097656 308.085938 132.839844 C 308.679688 132.519531 309.433594 131.820312 309.644531 130.332031 C 310.011719 127.769531 308.652344 125.722656 307.339844 123.746094 C 306.175781 121.996094 305.082031 120.34375 305.082031 118.347656 C 305.082031 114.984375 300.382812 113.613281 294.433594 111.878906 C 289.519531 110.445312 283.398438 108.660156 282.617188 105.9375 C 282.488281 105.488281 282.351562 105.027344 282.214844 104.554688 C 280.902344 100.078125 279.105469 93.953125 280.675781 91.269531 C 281.074219 90.585938 281.683594 90.167969 282.585938 89.964844 C 285.613281 89.273438 288.128906 86.683594 289.671875 82.679688 C 291 79.222656 291.527344 74.550781 289.960938 72.3125 C 289.714844 71.960938 289.46875 71.625 289.226562 71.296875 C 287.589844 69.066406 286.507812 67.597656 287.59375 63.464844 C 288.613281 59.589844 287.230469 57.261719 285.601562 56.375 C 284.074219 55.546875 282.234375 55.808594 280.660156 57.007812 C 278.164062 55.378906 271.65625 51.558594 266.914062 52.617188 C 265.171875 53.003906 263.847656 53.988281 262.972656 55.535156 C 259.03125 62.511719 258.789062 71.261719 259.070312 78.898438 Z M 261.902344 78.792969 C 261.636719 71.550781 261.84375 63.289062 265.4375 56.925781 C 265.914062 56.085938 266.574219 55.597656 267.53125 55.382812 C 271.273438 54.546875 277.78125 58.402344 279.972656 59.960938 L 280.996094 60.691406 L 281.84375 59.761719 C 282.660156 58.867188 283.601562 58.507812 284.25 58.863281 C 284.960938 59.246094 285.425781 60.59375 284.859375 62.742188 C 283.425781 68.183594 285.136719 70.507812 286.945312 72.972656 C 287.171875 73.28125 287.40625 73.601562 287.640625 73.933594 C 288.261719 74.824219 288.40625 78.085938 287.027344 81.660156 C 285.855469 84.707031 284.003906 86.726562 281.957031 87.199219 C 280.285156 87.582031 279.035156 88.464844 278.238281 89.832031 C 276.046875 93.570312 277.964844 100.101562 279.5 105.351562 C 279.636719 105.820312 279.769531 106.28125 279.898438 106.722656 C 281.113281 110.941406 287.484375 112.800781 293.648438 114.597656 C 296.867188 115.539062 302.257812 117.113281 302.257812 118.347656 C 302.257812 121.195312 303.710938 123.382812 304.988281 125.3125 C 306.097656 126.988281 307.0625 128.4375 306.851562 129.933594 C 306.808594 130.230469 306.742188 130.339844 306.746094 130.34375 C 306.082031 130.652344 303.242188 129.316406 301.359375 128.433594 C 299.78125 127.695312 297.988281 126.851562 296.15625 126.1875 C 290.453125 124.117188 288.324219 121.089844 286.316406 117.632812 C 285.1875 115.691406 283.273438 115.039062 280.871094 115.039062 C 278.574219 115.039062 275.820312 115.636719 272.875 116.277344 C 271.839844 116.503906 270.765625 116.738281 269.660156 116.957031 C 266.992188 117.488281 266.398438 116.242188 265.511719 112.820312 C 264.945312 110.636719 264.300781 108.160156 261.917969 107.78125 C 261.585938 107.644531 260.382812 106.34375 258.800781 102.003906 C 256.332031 95.214844 255.21875 87.597656 255.789062 86.199219 C 256.15625 85.9375 256.648438 85.878906 257.386719 85.8125 C 260.394531 85.535156 262.105469 84.296875 261.902344 78.792969 Z M 261.902344 78.792969 " fill-opacity="1" fill-rule="nonzero"/><path fill="#746767" d="M 275.289062 147.117188 C 276.050781 147.117188 276.890625 147.015625 277.828125 146.796875 C 285.53125 144.996094 284.050781 137.367188 283.261719 133.273438 C 283.0625 132.238281 282.8125 130.949219 282.890625 130.558594 C 282.992188 130.050781 282.960938 129.273438 282.210938 128.445312 C 280.167969 126.183594 272.976562 124.195312 268.46875 124.644531 C 266.183594 124.871094 264.679688 125.695312 263.988281 127.085938 C 263.277344 128.507812 263.570312 130.300781 264.855469 132.414062 C 266.007812 134.308594 266.710938 136.46875 267.398438 138.558594 C 268.71875 142.605469 270.191406 147.117188 275.289062 147.117188 Z M 267.277344 130.941406 C 266.570312 129.785156 266.289062 128.816406 266.523438 128.347656 C 266.738281 127.914062 267.574219 127.585938 268.75 127.46875 C 269.125 127.429688 269.511719 127.414062 269.914062 127.414062 C 273.976562 127.414062 279.128906 129.222656 280.070312 130.289062 C 279.976562 131.199219 280.199219 132.371094 280.480469 133.8125 C 281.476562 138.9375 281.859375 142.945312 277.183594 144.035156 C 272.714844 145.082031 271.78125 142.84375 270.089844 137.679688 C 269.390625 135.539062 268.601562 133.117188 267.277344 130.941406 Z M 267.277344 130.941406 " fill-opacity="1" fill-rule="nonzero"/><path fill="#746767" d="M 285.125 171.179688 C 285.695312 171.4375 286.3125 171.796875 286.96875 172.175781 C 288.660156 173.15625 290.71875 174.355469 293.011719 174.355469 C 294.519531 174.355469 296.128906 173.832031 297.792969 172.390625 C 303.035156 167.847656 306.761719 161.742188 308.296875 155.203125 C 309.652344 149.421875 306.5 145.769531 304.195312 143.101562 C 303.351562 142.121094 302.546875 141.195312 302.136719 140.363281 C 300.671875 137.410156 298.363281 135.273438 295.964844 134.640625 C 294.164062 134.167969 292.324219 134.519531 290.640625 135.65625 L 290.410156 135.816406 L 290.257812 136.046875 C 290.042969 136.371094 284.984375 144.066406 287.578125 149.59375 C 289.476562 153.632812 288.3125 155.527344 284.800781 158.503906 C 282.546875 160.410156 281.398438 163.382812 281.796875 166.269531 C 282.105469 168.535156 283.351562 170.371094 285.125 171.179688 Z M 286.625 160.664062 C 289.984375 157.816406 293.023438 154.523438 290.136719 148.386719 C 288.613281 145.136719 291.160156 139.90625 292.453125 137.859375 C 293.386719 137.289062 294.300781 137.136719 295.238281 137.382812 C 297.152344 137.890625 298.742188 139.90625 299.597656 141.628906 C 300.167969 142.785156 301.082031 143.839844 302.046875 144.960938 C 304.265625 147.527344 306.5625 150.1875 305.535156 154.554688 C 303.648438 162.601562 298.707031 167.84375 295.9375 170.25 C 293.453125 172.40625 291.425781 171.492188 288.390625 169.726562 C 287.699219 169.328125 286.992188 168.914062 286.296875 168.597656 C 285.414062 168.199219 284.777344 167.179688 284.597656 165.878906 C 284.386719 164.363281 284.8125 162.199219 286.625 160.664062 Z M 286.625 160.664062 " fill-opacity="1" fill-rule="nonzero"/><path fill="#746767" d="M 311.492188 172.445312 C 308.960938 174.273438 306.089844 176.34375 306.964844 179.433594 C 307.015625 179.625 307.039062 179.75 307.042969 179.828125 C 306.636719 179.996094 305.53125 180.089844 304.703125 180.164062 C 302.3125 180.375 298.699219 180.691406 294.945312 182.835938 C 288.992188 186.242188 282.414062 192.152344 282.179688 195.757812 C 282.113281 196.75 282.488281 197.613281 283.230469 198.175781 C 284.09375 198.835938 285.015625 199.0625 285.9375 199.0625 C 287.027344 199.0625 288.128906 198.746094 289.15625 198.445312 C 290.441406 198.074219 291.65625 197.722656 292.675781 197.988281 C 296.222656 198.917969 300.378906 197.109375 303.175781 195.894531 L 302.609375 194.59375 L 302 193.3125 C 299.613281 194.355469 296 195.929688 293.394531 195.25 C 291.621094 194.785156 289.898438 195.285156 288.375 195.722656 C 286.757812 196.1875 285.71875 196.453125 285 195.957031 C 284.886719 194.558594 289.464844 189.242188 296.351562 185.300781 C 299.566406 183.460938 302.679688 183.1875 304.949219 182.988281 C 306.976562 182.804688 308.574219 182.667969 309.417969 181.441406 C 309.921875 180.710938 310.011719 179.804688 309.683594 178.660156 C 309.351562 177.476562 311.28125 176.089844 313.144531 174.742188 C 315.480469 173.058594 318.128906 171.148438 317.746094 168.378906 C 317.378906 165.722656 316.898438 163.71875 316.601562 162.625 C 317.578125 161.886719 318.445312 161.566406 319.191406 161.667969 C 320.949219 161.910156 322.546875 164.441406 324.09375 166.882812 C 325.648438 169.347656 327.113281 171.671875 329.191406 172.632812 L 330.378906 170.054688 C 329.0625 169.445312 327.753906 167.375 326.484375 165.363281 C 324.59375 162.371094 322.636719 159.277344 319.574219 158.855469 C 317.773438 158.605469 315.957031 159.332031 314.035156 161.070312 L 313.347656 161.6875 L 313.636719 162.566406 C 313.644531 162.589844 314.417969 164.972656 314.9375 168.757812 C 315.089844 169.851562 313.175781 171.230469 311.492188 172.445312 Z M 311.492188 172.445312 " fill-opacity="1" fill-rule="nonzero"/><path fill="#746767" d="M 259.601562 143.910156 C 256.59375 144.007812 253.230469 145.953125 252.496094 150.078125 C 252.25 151.460938 251.976562 152.9375 251.535156 154.394531 C 250.269531 158.59375 243.464844 165.589844 238.5 170.695312 C 233.480469 175.855469 231.746094 177.71875 231.746094 179.171875 C 231.746094 180.617188 232.804688 181.878906 234.441406 182.382812 C 234.953125 182.539062 235.519531 182.628906 236.125 182.628906 C 238.777344 182.628906 242.25 180.96875 245.480469 176.230469 C 248.199219 172.246094 251.867188 170.359375 255.101562 168.699219 C 258.164062 167.125 260.808594 165.769531 261.945312 163.039062 C 262.722656 161.175781 264.171875 159.667969 265.449219 158.335938 C 267.28125 156.433594 269.351562 154.277344 267.835938 151.699219 C 267.65625 151.394531 267.386719 150.789062 267.101562 149.617188 C 266.109375 145.535156 262.644531 143.808594 259.601562 143.910156 Z M 263.417969 156.363281 C 262.035156 157.796875 260.320312 159.585938 259.335938 161.9375 C 258.597656 163.710938 256.488281 164.796875 253.8125 166.171875 C 250.453125 167.898438 246.273438 170.046875 243.148438 174.625 C 239.820312 179.5 236.636719 180.09375 235.28125 179.671875 C 234.871094 179.546875 234.675781 179.355469 234.605469 179.242188 C 235.128906 178.226562 238.109375 175.15625 240.527344 172.671875 C 245.988281 167.054688 252.785156 160.070312 254.25 155.214844 C 254.734375 153.609375 255.027344 152.039062 255.285156 150.570312 C 255.769531 147.835938 257.960938 146.800781 259.691406 146.742188 C 261.417969 146.683594 263.691406 147.578125 264.351562 150.28125 C 264.652344 151.507812 264.992188 152.433594 265.398438 153.121094 C 265.765625 153.75 265.226562 154.480469 263.417969 156.363281 Z M 263.417969 156.363281 " fill-opacity="1" fill-rule="nonzero"/><path fill="#746767" d="M 334.46875 135.679688 C 333.222656 133.734375 330.746094 131.257812 326.042969 130.527344 C 323.792969 130.175781 321.773438 129.992188 320.03125 129.980469 C 320.019531 129.980469 320.007812 129.980469 319.996094 129.980469 C 318.386719 129.980469 316.882812 130.777344 315.96875 132.117188 C 315.0625 133.453125 314.875 135.136719 315.46875 136.621094 C 316.609375 139.480469 318.625 141.660156 321.289062 142.921875 C 323.378906 143.910156 323.863281 146.058594 324.433594 148.550781 C 325.167969 151.789062 326.078125 155.816406 331.515625 156.203125 C 331.824219 156.226562 332.117188 156.234375 332.402344 156.234375 C 334.257812 156.234375 335.558594 155.757812 336.355469 154.785156 C 337.738281 153.097656 337.078125 150.675781 336.4375 148.335938 C 336.023438 146.808594 335.550781 145.082031 335.839844 144.046875 C 336.59375 141.382812 336.070312 138.175781 334.46875 135.679688 Z M 334.167969 152.980469 C 334.066406 153.105469 333.589844 153.5 331.722656 153.371094 C 328.53125 153.140625 327.976562 151.339844 327.199219 147.914062 C 326.5625 145.113281 325.84375 141.929688 322.503906 140.351562 C 320.46875 139.390625 318.988281 137.777344 318.105469 135.5625 C 317.859375 134.945312 317.933594 134.273438 318.316406 133.710938 C 318.703125 133.140625 319.316406 132.816406 320 132.816406 C 320.003906 132.816406 320.011719 132.816406 320.015625 132.816406 C 321.621094 132.828125 323.5 133 325.613281 133.328125 C 329.277344 133.894531 331.15625 135.753906 332.09375 137.210938 C 333.496094 139.40625 333.546875 141.78125 333.125 143.273438 C 332.621094 145.0625 333.175781 147.105469 333.714844 149.078125 C 334.09375 150.492188 334.621094 152.429688 334.167969 152.980469 Z M 334.167969 152.980469 " fill-opacity="1" fill-rule="nonzero"/><g clip-path="url(#35f0239634)"><path fill="#746767" d="M 330.816406 69.292969 C 315.835938 52.996094 295.496094 42.953125 273.546875 41.011719 L 273.296875 43.839844 C 317.796875 47.773438 351.351562 84.511719 351.351562 129.296875 C 351.351562 176.601562 312.910156 215.089844 265.65625 215.089844 C 218.40625 215.089844 179.960938 176.605469 179.960938 129.296875 C 179.960938 128.285156 179.984375 127.277344 180.019531 126.273438 C 180.464844 126.300781 180.984375 126.320312 181.589844 126.320312 C 184.824219 126.320312 190.222656 125.78125 197.007812 123.085938 C 207.078125 119.089844 222.3125 109.335938 237.695312 85.566406 C 267.113281 40.125 262.539062 23.871094 262.328125 23.203125 L 262.007812 22.175781 L 260.929688 22.210938 C 260.414062 22.226562 248.109375 22.6875 232.671875 27.09375 C 218.363281 31.183594 198.667969 39.574219 186.09375 56.371094 C 172.976562 73.890625 169.960938 96.992188 177.132812 125.039062 L 177.21875 125.386719 C 177.164062 126.683594 177.128906 127.988281 177.128906 129.300781 C 177.132812 178.167969 216.84375 217.925781 265.660156 217.925781 C 314.476562 217.925781 354.1875 178.167969 354.1875 129.296875 C 354.1875 107 345.890625 85.691406 330.816406 69.292969 Z M 188.347656 58.082031 C 209.464844 29.863281 251.976562 25.65625 259.78125 25.113281 C 260.171875 29.34375 259.667969 46.40625 235.328125 84.019531 C 220.433594 107.027344 205.824219 116.476562 196.195312 120.355469 C 188.515625 123.445312 182.703125 123.574219 180.167969 123.425781 C 181.59375 101.992188 190.816406 82.210938 206.511719 67.214844 L 204.554688 65.164062 C 190.0625 79.011719 180.910156 96.8125 178.082031 116.25 C 173.609375 92.726562 177.050781 73.183594 188.347656 58.082031 Z M 188.347656 58.082031 " fill-opacity="1" fill-rule="nonzero"/></g><path fill="#746767" d="M 225.277344 143.9375 C 221.734375 140.066406 218.492188 140.40625 215.890625 140.683594 C 213.527344 140.933594 211.816406 141.117188 209.714844 138.488281 C 203.898438 131.203125 189.933594 137.246094 189.34375 137.511719 L 190.484375 140.105469 C 193.960938 138.574219 203.789062 135.613281 207.503906 140.261719 C 210.570312 144.101562 213.6875 143.773438 216.1875 143.507812 C 218.5625 143.257812 220.613281 143.039062 223.1875 145.855469 C 225.527344 148.414062 224.351562 150.382812 221.894531 153.933594 C 219.847656 156.890625 217.304688 160.566406 219.003906 164.996094 C 221.09375 170.429688 211.078125 176.160156 207.046875 177.910156 L 208.167969 180.511719 C 208.863281 180.210938 225.132812 173.054688 221.648438 163.980469 C 220.480469 160.949219 222.296875 158.324219 224.222656 155.550781 C 226.460938 152.308594 229.25 148.28125 225.277344 143.9375 Z M 225.277344 143.9375 " fill-opacity="1" fill-rule="nonzero"/><g clip-path="url(#0a72b06778)"><path fill="#746767" d="M 235.425781 322.28125 C 230.8125 320.488281 225.6875 319.183594 221.085938 318.867188 C 207.160156 317.910156 198.089844 325.628906 192.082031 330.476562 C 196.605469 339.484375 210.359375 345.226562 223.089844 341.402344 C 223.414062 336.886719 221.15625 335.234375 218.753906 333.550781 C 216.402344 331.898438 212.648438 331.453125 212.085938 328.085938 C 214.636719 325.90625 219.425781 329.03125 222.089844 331.160156 C 224.761719 333.296875 226.539062 336.203125 226.757812 340.039062 C 231.34375 339.613281 238.363281 341.269531 239.089844 337.648438 C 240.300781 331.636719 224.355469 330.785156 224.085938 326.039062 C 226.085938 323.710938 229.46875 326.046875 231.757812 327.0625 C 236.363281 329.105469 240.667969 331.421875 242.757812 335.257812 C 249.296875 329.628906 240.292969 324.179688 235.425781 322.28125 Z M 84.058594 318.867188 C 75.542969 319.542969 53.925781 325.789062 63.054688 335.257812 C 64.257812 332.695312 66.347656 330.902344 68.722656 329.453125 C 70.027344 328.65625 80.613281 322.660156 81.394531 326.378906 C 81.859375 328.601562 75.0625 330.679688 73.390625 331.503906 C 69.707031 333.316406 66.789062 333.828125 66.390625 337.988281 C 68.328125 340.898438 74.148438 339.832031 78.726562 340.039062 C 79.359375 334.171875 81.59375 332.640625 86.058594 329.796875 C 87.28125 329.015625 92.664062 325.039062 93.394531 328.429688 C 93.902344 330.769531 88.296875 332.476562 86.726562 333.550781 C 83.785156 335.5625 82.328125 336.960938 82.394531 341.0625 C 94.425781 345.746094 108.445312 339.253906 113.398438 331.160156 C 108.207031 325.414062 97.855469 317.769531 84.058594 318.867188 Z M 153.742188 155.988281 C 157.039062 155.957031 164.808594 155.960938 165.410156 152.917969 C 165.964844 150.097656 161.105469 146.886719 158.742188 146.429688 C 151.496094 145.019531 140.359375 146.472656 140.070312 153.257812 C 142.726562 156.035156 148.214844 156.042969 153.742188 155.988281 Z M 118.402344 118.085938 C 101.625 119.863281 91.246094 134.378906 86.058594 149.160156 C 81.789062 161.332031 82.289062 178.425781 86.394531 189.792969 C 87.761719 193.578125 90.738281 197.484375 90.726562 201.40625 C 90.71875 204.828125 88.273438 209.179688 86.726562 213.695312 C 77.730469 239.964844 72.425781 286.117188 82.058594 315.453125 C 91.460938 314.570312 99.351562 316.601562 105.730469 319.890625 C 108.675781 321.410156 111.023438 324.804688 113.734375 325.355469 C 119.460938 326.519531 126.941406 325.355469 133.402344 325.355469 C 147.460938 325.351562 158.828125 325.359375 172.746094 325.355469 C 178.777344 325.355469 187.328125 326.675781 192.417969 325.355469 C 194.875 324.71875 197.628906 321.101562 200.085938 319.890625 C 206.53125 316.71875 214.636719 314.300781 223.421875 315.453125 C 233.425781 283.394531 227.710938 237.078125 217.421875 209.941406 C 216.234375 206.8125 214.679688 203.6875 214.753906 201.0625 C 214.859375 197.398438 217.726562 193.578125 219.085938 189.792969 C 223.285156 178.128906 224.167969 160.863281 219.421875 148.136719 C 214.097656 133.863281 203.089844 119.125 186.082031 118.085938 C 169.375 117.066406 163.878906 129.449219 160.074219 142.332031 C 163.386719 145.695312 170.28125 146.808594 169.078125 153.941406 C 167.707031 162.050781 136.902344 162.863281 136.402344 152.917969 C 136.132812 147.492188 141.328125 145.667969 145.40625 142.332031 C 141.601562 129.347656 135.761719 116.25 118.402344 118.085938 Z M 241.425781 174.429688 C 242.382812 159.804688 238.21875 146.644531 231.425781 138.914062 C 231.242188 137.257812 229.925781 136.863281 229.089844 135.160156 C 227.371094 115.335938 218 101.078125 204.417969 91.109375 C 191.238281 81.4375 172.984375 74.679688 152.40625 74.722656 C 132.09375 74.765625 113.925781 81.527344 101.0625 91.109375 C 87.5625 101.167969 78.140625 115.292969 76.390625 135.160156 C 75.035156 137.605469 73.265625 139.972656 71.390625 142.671875 C 66.511719 149.703125 63.351562 162.109375 64.054688 173.746094 C 64.6875 184.164062 69.496094 192.628906 73.058594 199.695312 C 71.273438 203.738281 67.230469 206.824219 66.054688 210.964844 C 65.613281 212.53125 66.722656 214.132812 65.054688 215.402344 C 62.792969 215.347656 60.894531 213.296875 58.722656 211.988281 C 52.902344 208.488281 43.660156 204.773438 35.71875 206.183594 C 27.957031 207.5625 23.105469 215.742188 27.714844 224.28125 C 31.070312 230.5 42.085938 236.117188 49.71875 238.625 C 52.976562 239.691406 56.292969 240.113281 58.722656 241.355469 C 52.859375 267.195312 57.191406 302.40625 70.058594 318.527344 C 72.855469 317.75 75.277344 316.589844 78.390625 316.136719 C 68.976562 283.84375 73.628906 237.378906 84.058594 209.597656 C 85.273438 206.363281 87.140625 203.492188 87.0625 201.0625 C 86.9375 197.304688 83.566406 192.828125 82.394531 189.109375 C 78.144531 175.671875 78.125 158.632812 83.394531 145.402344 C 89.5625 129.914062 101.390625 115.433594 119.402344 114.332031 C 138.335938 113.171875 145.398438 127.726562 149.074219 142.671875 C 151.519531 142.671875 153.964844 142.671875 156.410156 142.671875 C 160.296875 127.175781 167.695312 112.632812 186.746094 114.332031 C 205.335938 115.988281 216.203125 131.023438 222.089844 145.746094 C 227.257812 158.679688 227.210938 176.289062 223.089844 189.109375 C 221.886719 192.847656 218.421875 197.65625 218.421875 201.40625 C 218.421875 204.605469 221.328125 209.386719 222.753906 213.695312 C 231.917969 241.351562 236.542969 285.796875 227.089844 316.136719 C 230.359375 316.429688 232.535156 317.84375 235.425781 318.527344 C 248.421875 302.445312 252.609375 266.925781 246.761719 241.015625 C 252.09375 239.710938 258.769531 238.175781 264.429688 235.210938 C 271.652344 231.421875 283.363281 223.777344 278.765625 212.332031 C 274.328125 201.277344 254.902344 207.421875 247.761719 211.304688 C 245.125 212.742188 243.167969 215.332031 240.089844 215.402344 C 239.058594 213.53125 240.042969 212.097656 239.425781 210.28125 C 238.078125 206.324219 233.675781 203.574219 232.425781 199.355469 C 235.972656 192.730469 240.757812 184.660156 241.425781 174.429688 Z M 236.425781 199.011719 C 238.339844 202.746094 241.359375 205.34375 242.757812 209.597656 C 251.566406 204.089844 272.351562 197.332031 280.433594 207.890625 C 283.222656 211.535156 284.320312 219.183594 281.433594 225.304688 C 276.667969 235.421875 262.261719 240.179688 250.761719 244.085938 C 256.621094 271.167969 250.867188 303.316406 239.089844 319.890625 C 246.746094 321.285156 254.101562 335.546875 242.757812 338.671875 C 241.074219 344.230469 233.675781 343.9375 226.421875 343.792969 C 214.554688 350.824219 190.972656 343.011719 188.082031 329.796875 C 163.28125 329.703125 142.519531 329.695312 117.734375 329.796875 C 114.167969 342.019531 92.578125 351.59375 79.390625 343.453125 C 74.292969 344.300781 67.359375 344.167969 64.390625 341.0625 C 63.179688 339.796875 62.566406 339.046875 60.722656 337.988281 C 52.863281 333.492188 58.234375 321.84375 66.390625 320.234375 C 54.953125 303.304688 48.769531 271.621094 54.722656 244.429688 C 44.097656 240.273438 30.847656 236.132812 25.046875 227.011719 C 23.351562 224.347656 22.226562 220.371094 22.378906 216.429688 C 23.140625 197.164062 51.265625 201.054688 62.390625 209.597656 C 64.4375 206.003906 66.691406 202.621094 69.058594 199.355469 C 56.828125 184.585938 57.527344 146.34375 73.058594 135.84375 C 74.015625 115.867188 83.160156 100.632812 96.0625 90.085938 C 108.691406 79.765625 127.886719 72.285156 147.40625 71.304688 C 149.269531 71.214844 150.96875 72.007812 152.742188 71.988281 C 153.972656 71.976562 155.273438 71.320312 156.410156 71.304688 C 176.265625 71.058594 196.503906 80.027344 208.417969 89.402344 C 222.109375 100.175781 231.621094 115.917969 232.425781 135.5 C 247.585938 146.042969 249.0625 184.402344 236.425781 199.011719 " fill-opacity="1" fill-rule="evenodd"/></g><path fill="#7daa7b" d="M 232.425781 199.355469 C 233.675781 203.574219 238.078125 206.324219 239.425781 210.28125 C 240.042969 212.09375 239.0625 213.53125 240.089844 215.402344 C 243.167969 215.332031 245.125 212.742188 247.761719 211.304688 C 254.90625 207.421875 274.328125 201.277344 278.765625 212.332031 C 283.363281 223.777344 271.652344 231.421875 264.429688 235.207031 C 258.769531 238.175781 252.09375 239.710938 246.761719 241.011719 C 252.613281 266.925781 248.425781 302.445312 235.425781 318.527344 C 232.539062 317.84375 230.359375 316.429688 227.089844 316.136719 C 236.542969 285.796875 231.917969 241.351562 222.753906 213.695312 C 221.328125 209.386719 218.421875 204.605469 218.421875 201.402344 C 218.421875 197.65625 221.890625 192.847656 223.089844 189.109375 C 227.210938 176.289062 227.257812 158.679688 222.089844 145.746094 C 216.207031 131.023438 205.335938 115.988281 186.746094 114.328125 C 167.695312 112.628906 160.296875 127.175781 156.410156 142.671875 C 153.964844 142.671875 151.519531 142.671875 149.074219 142.671875 C 145.398438 127.726562 138.335938 113.171875 119.402344 114.328125 C 101.390625 115.433594 89.5625 129.914062 83.394531 145.402344 C 78.125 158.632812 78.144531 175.671875 82.394531 189.109375 C 83.566406 192.824219 86.9375 197.304688 87.0625 201.0625 C 87.140625 203.492188 85.273438 206.363281 84.058594 209.597656 C 73.628906 237.378906 68.976562 283.84375 78.390625 316.136719 C 75.28125 316.589844 72.855469 317.75 70.058594 318.527344 C 57.191406 302.40625 52.859375 267.191406 58.722656 241.355469 C 56.292969 240.113281 52.976562 239.691406 49.71875 238.621094 C 42.082031 236.117188 31.070312 230.5 27.714844 224.28125 C 23.105469 215.742188 27.957031 207.5625 35.71875 206.183594 C 43.660156 204.773438 52.902344 208.488281 58.722656 211.988281 C 60.894531 213.296875 62.792969 215.347656 65.054688 215.402344 C 66.722656 214.132812 65.613281 212.527344 66.058594 210.964844 C 67.230469 206.824219 71.273438 203.738281 73.058594 199.695312 C 69.496094 192.625 64.6875 184.164062 64.054688 173.746094 C 63.351562 162.109375 66.511719 149.703125 71.390625 142.671875 C 73.265625 139.96875 75.035156 137.605469 76.390625 135.160156 C 78.140625 115.292969 87.5625 101.167969 101.0625 91.109375 C 113.929688 81.527344 132.09375 74.761719 152.40625 74.71875 C 172.984375 74.675781 191.238281 81.4375 204.417969 91.109375 C 218 101.078125 227.371094 115.335938 229.089844 135.160156 C 229.925781 136.863281 231.242188 137.257812 231.425781 138.914062 C 238.21875 146.644531 242.382812 159.804688 241.425781 174.429688 C 240.757812 184.660156 235.972656 192.730469 232.425781 199.355469 " fill-opacity="1" fill-rule="evenodd"/><path fill="#ffffff" d="M 186.414062 136.867188 C 182.542969 137.148438 174.140625 139.933594 174.746094 144.71875 C 175.570312 151.234375 182.148438 144.921875 185.082031 144.378906 C 195.691406 142.417969 197.019531 152.269531 204.417969 149.160156 C 206.949219 141.929688 193.457031 136.351562 186.414062 136.867188 Z M 106.066406 140.621094 C 104.339844 141.78125 99.695312 144.519531 100.730469 148.136719 C 101.171875 149.683594 102.265625 150.011719 103.0625 150.183594 C 107.164062 151.074219 108.257812 146.941406 111.734375 145.402344 C 113.816406 144.480469 117.347656 143.707031 120.734375 144.378906 C 123.945312 145.015625 129.03125 150.878906 130.738281 145.746094 C 132.921875 139.160156 120.730469 136.710938 115.734375 137.207031 C 111.382812 137.644531 109.25 138.484375 106.066406 140.621094 Z M 145.40625 142.332031 C 141.328125 145.667969 136.132812 147.488281 136.40625 152.914062 C 136.902344 162.863281 167.707031 162.050781 169.078125 153.941406 C 170.28125 146.808594 163.386719 145.695312 160.074219 142.332031 C 163.875 129.449219 169.375 117.066406 186.082031 118.085938 C 203.089844 119.125 214.101562 133.863281 219.421875 148.136719 C 224.167969 160.863281 223.285156 178.128906 219.089844 189.792969 C 217.726562 193.578125 214.859375 197.398438 214.753906 201.0625 C 214.679688 203.6875 216.234375 206.8125 217.421875 209.941406 C 227.710938 237.078125 233.425781 283.394531 223.421875 315.453125 C 214.636719 314.300781 206.53125 316.71875 200.085938 319.890625 C 197.628906 321.101562 194.875 324.71875 192.417969 325.355469 C 187.328125 326.675781 178.777344 325.351562 172.746094 325.355469 C 158.828125 325.359375 147.460938 325.351562 133.402344 325.355469 C 126.941406 325.355469 119.460938 326.519531 113.734375 325.355469 C 111.023438 324.804688 108.675781 321.410156 105.730469 319.890625 C 99.351562 316.601562 91.460938 314.570312 82.058594 315.453125 C 72.425781 286.117188 77.730469 239.960938 86.726562 213.695312 C 88.273438 209.179688 90.71875 204.828125 90.726562 201.40625 C 90.738281 197.484375 87.761719 193.578125 86.394531 189.792969 C 82.289062 178.425781 81.789062 161.332031 86.0625 149.160156 C 91.246094 134.378906 101.625 119.863281 118.402344 118.085938 C 135.761719 116.25 141.601562 129.347656 145.40625 142.332031 " fill-opacity="1" fill-rule="evenodd"/><path fill="#746767" d="M 115.734375 137.207031 C 120.730469 136.710938 132.925781 139.160156 130.738281 145.742188 C 129.03125 150.878906 123.945312 145.015625 120.734375 144.378906 C 117.347656 143.707031 113.816406 144.480469 111.734375 145.402344 C 108.257812 146.941406 107.164062 151.074219 103.066406 150.183594 C 102.265625 150.011719 101.175781 149.683594 100.730469 148.132812 C 99.695312 144.519531 104.339844 141.777344 106.066406 140.621094 C 109.25 138.484375 111.382812 137.640625 115.734375 137.207031 " fill-opacity="1" fill-rule="evenodd"/><path fill="#746767" d="M 204.421875 149.160156 C 197.019531 152.269531 195.691406 142.417969 185.082031 144.378906 C 182.148438 144.921875 175.574219 151.234375 174.746094 144.71875 C 174.140625 139.933594 182.542969 137.148438 186.414062 136.867188 C 193.457031 136.351562 206.949219 141.929688 204.421875 149.160156 " fill-opacity="1" fill-rule="evenodd"/><path fill="#ffe000" d="M 140.070312 153.257812 C 140.359375 146.472656 151.496094 145.019531 158.742188 146.429688 C 161.101562 146.886719 165.964844 150.097656 165.410156 152.917969 C 164.808594 155.964844 157.039062 155.957031 153.742188 155.988281 C 148.214844 156.046875 142.726562 156.035156 140.070312 153.257812 " fill-opacity="1" fill-rule="evenodd"/><path fill="#ffe000" d="M 113.398438 331.160156 C 108.445312 339.253906 94.425781 345.746094 82.394531 341.0625 C 82.328125 336.960938 83.785156 335.5625 86.726562 333.550781 C 88.296875 332.476562 93.902344 330.769531 93.394531 328.429688 C 92.664062 325.039062 87.28125 329.015625 86.0625 329.792969 C 81.59375 332.640625 79.359375 334.171875 78.726562 340.039062 C 74.148438 339.832031 68.328125 340.898438 66.390625 337.988281 C 66.789062 333.828125 69.707031 333.316406 73.390625 331.5 C 75.0625 330.679688 81.859375 328.601562 81.394531 326.378906 C 80.613281 322.660156 70.027344 328.65625 68.722656 329.453125 C 66.347656 330.902344 64.257812 332.695312 63.054688 335.257812 C 53.925781 325.789062 75.542969 319.542969 84.058594 318.867188 C 97.855469 317.769531 108.207031 325.414062 113.398438 331.160156 " fill-opacity="1" fill-rule="evenodd"/><path fill="#ffe000" d="M 242.757812 335.257812 C 240.667969 331.421875 236.363281 329.105469 231.757812 327.0625 C 229.46875 326.046875 226.085938 323.710938 224.089844 326.039062 C 224.355469 330.785156 240.300781 331.636719 239.09375 337.648438 C 238.363281 341.269531 231.34375 339.613281 226.757812 340.039062 C 226.539062 336.203125 224.761719 333.296875 222.089844 331.160156 C 219.425781 329.03125 214.636719 325.90625 212.085938 328.085938 C 212.648438 331.453125 216.398438 331.898438 218.753906 333.550781 C 221.15625 335.234375 223.414062 336.886719 223.089844 341.402344 C 210.363281 345.226562 196.605469 339.484375 192.082031 330.476562 C 198.089844 325.628906 207.15625 317.910156 221.089844 318.867188 C 225.6875 319.183594 230.8125 320.488281 235.425781 322.28125 C 240.292969 324.179688 249.292969 329.628906 242.757812 335.257812 " fill-opacity="1" fill-rule="evenodd"/></svg>