<svg xmlns="http://www.w3.org/2000/svg" xmlns:xlink="http://www.w3.org/1999/xlink" width="500" zoomAndPan="magnify" viewBox="0 0 375 374.999991" height="500" preserveAspectRatio="xMidYMid meet" version="1.0"><defs><clipPath id="9d03219ba1"><path d="M 70.550781 71.394531 L 365.007812 71.394531 L 365.007812 369.144531 L 70.550781 369.144531 Z M 70.550781 71.394531 " clip-rule="nonzero"/></clipPath><clipPath id="8daf258ce8"><path d="M 25 25 L 120 25 L 120 136 L 25 136 Z M 25 25 " clip-rule="nonzero"/></clipPath><clipPath id="31d47bc5aa"><path d="M 16.445312 49.808594 L 50.386719 15.867188 L 136.828125 102.3125 L 102.886719 136.253906 Z M 16.445312 49.808594 " clip-rule="nonzero"/></clipPath><clipPath id="f570d3ac16"><path d="M 16.445312 49.808594 L 50.386719 15.867188 L 136.828125 102.3125 L 102.886719 136.253906 Z M 16.445312 49.808594 " clip-rule="nonzero"/></clipPath></defs><g clip-path="url(#9d03219ba1)"><path fill="#746767" d="M 205.414062 346.800781 C 189.792969 341.511719 170.007812 343.429688 167.957031 357.101562 C 183.9375 358.796875 201.183594 364.085938 217.585938 362.25 C 222.914062 353.941406 212.371094 349.15625 205.414062 346.800781 Z M 344.929688 322.453125 C 340.753906 330.140625 335.515625 336.761719 328.074219 341.183594 C 339.03125 340.746094 349.289062 339.613281 358.507812 337.4375 C 359.265625 335.699219 358.894531 332.832031 358.972656 330.414062 C 356.179688 325.824219 351.109375 322.246094 344.929688 322.453125 Z M 303.261719 345.863281 C 311.039062 343.074219 319.679688 340.84375 326.203125 337.4375 C 334.933594 332.871094 342.71875 320.8125 344.929688 310.75 C 347.152344 300.636719 343.59375 291.484375 341.652344 282.65625 C 338.113281 266.550781 329.253906 252.15625 317.773438 245.199219 C 295.683594 231.8125 254.515625 242.957031 241.460938 257.839844 C 236.738281 263.226562 234.433594 271.660156 232.097656 278.441406 C 227.546875 291.671875 223.015625 305.894531 219.925781 321.984375 C 219.058594 326.503906 214.582031 341.511719 215.710938 345.863281 C 216.890625 350.410156 225.117188 350.660156 223.671875 358.972656 C 252.730469 357.804688 280.636719 353.984375 303.261719 345.863281 Z M 308.410156 121.59375 C 301.242188 112.410156 290.859375 104.175781 281.726562 96.777344 C 278.441406 94.117188 275.441406 90.570312 272.363281 88.816406 C 261.410156 82.585938 243.644531 78.035156 226.949219 77.113281 C 209.746094 76.160156 192.097656 79.019531 178.726562 82.261719 C 167.65625 84.945312 156.929688 87.558594 147.828125 93.03125 C 128.328125 104.746094 113.175781 122.414062 102.414062 143.128906 C 89.757812 167.488281 85.390625 196.484375 83.21875 230.214844 C 81.933594 250.167969 86.148438 279.425781 80.410156 296.703125 C 79.058594 300.773438 76.34375 304.910156 76.195312 309.8125 C 75.792969 323.25 82.902344 331.613281 91.644531 337.90625 C 114.4375 344.921875 138.28125 350.882812 163.277344 355.695312 C 166.457031 349.492188 169.433594 344.75 175.917969 341.648438 C 182.160156 338.667969 187.929688 339.734375 194.644531 340.714844 C 202.628906 341.878906 207.921875 342.410156 212.902344 345.394531 C 213.289062 329.863281 217.476562 314.507812 221.332031 299.980469 C 225.039062 285.984375 228.484375 270.632812 234.90625 259.714844 C 243.394531 245.28125 270.273438 234.878906 292.023438 234.429688 C 307.542969 234.109375 321.816406 241.40625 329.476562 249.414062 C 338.40625 258.746094 344.894531 271.9375 347.738281 287.335938 C 344.175781 222 338.574219 160.21875 308.410156 121.59375 Z M 349.609375 315.898438 C 354.828125 319.429688 362.214844 322.039062 364.125 328.539062 C 368.773438 344.378906 354.21875 344.886719 340.714844 346.332031 C 332.105469 347.253906 322.730469 345.800781 316.371094 346.800781 C 313.132812 347.308594 309.9375 349.722656 306.539062 351.015625 C 290.617188 357.066406 270.054688 360.972656 250.824219 363.1875 C 242.5 364.148438 233.375 363.121094 225.074219 364.59375 C 220.824219 365.347656 220.027344 368.199219 216.179688 368.808594 C 208.5625 370.011719 200.917969 367.652344 192.304688 366.933594 C 184.207031 366.261719 176.472656 365.429688 169.363281 364.125 C 166.421875 363.585938 163.121094 361.796875 159.53125 360.847656 C 141.933594 356.179688 123.445312 353.632812 107.09375 347.738281 C 95.488281 343.550781 82.828125 339.9375 76.664062 330.882812 C 73.195312 325.785156 70.242188 315.683594 70.578125 308.875 C 71.058594 299.101562 76.75 292.738281 77.601562 281.71875 C 78.722656 267.144531 77.132812 252.460938 77.132812 238.644531 C 77.132812 224.742188 78.5625 211.023438 79.941406 198.378906 C 82.449219 175.371094 90.019531 150.289062 101.476562 133.296875 C 110.992188 119.183594 118.226562 108.460938 131.441406 98.179688 C 135.285156 95.191406 139.472656 91.492188 143.613281 88.816406 C 162.074219 76.878906 184.785156 75.265625 213.371094 71.960938 C 235.164062 69.445312 261.144531 75.6875 275.171875 83.667969 C 278.820312 85.742188 281.730469 89.847656 285.472656 93.03125 C 296.035156 102.027344 307.652344 110.265625 315.902344 121.59375 C 326.941406 136.742188 334.503906 156.398438 339.777344 176.371094 C 342.476562 186.582031 345.238281 196.894531 347.269531 208.210938 C 349.277344 219.417969 349.4375 231.894531 350.546875 244.261719 C 352.660156 267.84375 356.066406 293.078125 349.609375 315.898438 " fill-opacity="1" fill-rule="evenodd"/></g><path fill="#7daa7b" d="M 89.304688 312.621094 C 87.949219 308.511719 87.875 303.128906 86.027344 299.511719 C 84.996094 304.191406 86.726562 310.007812 89.304688 312.621094 Z M 92.582031 305.128906 C 94.527344 303.199219 92.28125 298.152344 89.773438 297.640625 C 90.207031 300.640625 90.164062 304.113281 92.582031 305.128906 Z M 117.394531 283.59375 C 114.746094 280.992188 111.992188 279.050781 110.371094 275.164062 C 106.527344 265.949219 110.382812 252.625 109.4375 243.792969 C 105.828125 246.410156 105.132812 253.621094 104.753906 259.246094 C 103.867188 272.507812 108.210938 283.929688 115.523438 287.339844 C 139.859375 298.679688 153.609375 263.488281 143.144531 241.921875 C 142.546875 241.898438 142.496094 241.324219 141.742188 241.453125 C 144.09375 262.226562 141.625 289.46875 117.394531 283.59375 Z M 102.414062 255.96875 C 103.332031 251.082031 106.722656 243.777344 104.285156 238.644531 C 104.0625 244.511719 101.890625 250.917969 102.414062 255.96875 Z M 260.1875 164.667969 C 258.582031 166.09375 255.890625 170.363281 256.910156 172.625 C 258.636719 176.453125 271.484375 176.851562 276.105469 176.84375 C 285.695312 176.816406 299.25 175.800781 299.046875 168.414062 C 298.832031 160.570312 283 159.566406 274.699219 160.453125 C 268.503906 161.117188 262.648438 162.484375 260.1875 164.667969 Z M 214.308594 162.792969 C 214.996094 169.269531 229.304688 167.257812 227.882812 160.921875 C 227.320312 158.40625 224.214844 157.875 220.863281 158.113281 C 216.945312 158.390625 213.894531 158.929688 214.308594 162.792969 Z M 303.726562 158.113281 C 305.066406 162.050781 316.925781 161.285156 316.835938 155.773438 C 316.785156 152.660156 313.757812 151.816406 310.28125 152.027344 C 306.609375 152.246094 302.113281 153.347656 303.726562 158.113281 Z M 347.738281 287.339844 C 344.894531 271.9375 338.40625 258.746094 329.476562 249.414062 C 321.816406 241.40625 307.542969 234.109375 292.023438 234.429688 C 270.273438 234.878906 243.394531 245.28125 234.90625 259.714844 C 228.484375 270.632812 225.039062 285.984375 221.328125 299.980469 C 217.476562 314.507812 213.289062 329.867188 212.902344 345.394531 C 207.921875 342.410156 202.628906 341.878906 194.644531 340.714844 C 187.929688 339.734375 182.160156 338.667969 175.917969 341.648438 C 169.429688 344.75 166.457031 349.492188 163.277344 355.695312 C 138.28125 350.882812 114.4375 344.921875 91.644531 337.90625 C 82.902344 331.613281 75.792969 323.25 76.195312 309.8125 C 76.34375 304.910156 79.058594 300.773438 80.410156 296.703125 C 86.148438 279.425781 81.933594 250.171875 83.21875 230.21875 C 85.390625 196.484375 89.757812 167.488281 102.414062 143.128906 C 113.175781 122.414062 128.328125 104.75 147.828125 93.03125 C 156.929688 87.5625 167.65625 84.945312 178.726562 82.261719 C 192.097656 79.019531 209.746094 76.160156 226.949219 77.113281 C 243.644531 78.035156 261.410156 82.585938 272.363281 88.816406 C 275.441406 90.570312 278.441406 94.117188 281.722656 96.777344 C 290.859375 104.175781 301.242188 112.414062 308.410156 121.59375 C 338.574219 160.21875 344.175781 222 347.738281 287.339844 " fill-opacity="1" fill-rule="evenodd"/><path fill="#746767" d="M 310.285156 152.023438 C 313.757812 151.816406 316.785156 152.660156 316.839844 155.769531 C 316.925781 161.285156 305.066406 162.050781 303.730469 158.113281 C 302.113281 153.347656 306.609375 152.246094 310.285156 152.023438 " fill-opacity="1" fill-rule="evenodd"/><path fill="#746767" d="M 220.863281 158.113281 C 224.214844 157.871094 227.320312 158.402344 227.886719 160.921875 C 229.308594 167.257812 214.996094 169.265625 214.308594 162.792969 C 213.894531 158.929688 216.945312 158.390625 220.863281 158.113281 " fill-opacity="1" fill-rule="evenodd"/><path fill="#746767" d="M 260.65625 171.691406 C 271.5 172.5625 288.65625 175.339844 295.300781 168.414062 C 288.4375 161.609375 262.328125 162.34375 260.65625 171.691406 Z M 274.703125 160.453125 C 283 159.566406 298.832031 160.570312 299.046875 168.414062 C 299.25 175.800781 285.695312 176.816406 276.105469 176.839844 C 271.484375 176.851562 258.636719 176.453125 256.914062 172.625 C 255.890625 170.363281 258.582031 166.09375 260.1875 164.667969 C 262.652344 162.484375 268.503906 161.117188 274.703125 160.453125 " fill-opacity="1" fill-rule="evenodd"/><path fill="#ffe000" d="M 295.300781 168.414062 C 288.65625 175.339844 271.5 172.5625 260.65625 171.691406 C 262.328125 162.34375 288.4375 161.609375 295.300781 168.414062 " fill-opacity="1" fill-rule="evenodd"/><path fill="#34384c" d="M 104.285156 238.644531 C 106.722656 243.777344 103.332031 251.082031 102.414062 255.96875 C 101.890625 250.917969 104.0625 244.511719 104.285156 238.644531 " fill-opacity="1" fill-rule="evenodd"/><path fill="#ffffff" d="M 223.671875 358.972656 C 225.117188 350.660156 216.890625 350.410156 215.710938 345.863281 C 214.582031 341.511719 219.058594 326.503906 219.925781 321.984375 C 223.015625 305.894531 227.546875 291.671875 232.097656 278.441406 C 234.433594 271.660156 236.738281 263.226562 241.460938 257.839844 C 254.515625 242.957031 295.683594 231.8125 317.773438 245.199219 C 329.253906 252.15625 338.113281 266.550781 341.652344 282.65625 C 343.59375 291.484375 347.148438 300.636719 344.929688 310.75 C 342.71875 320.8125 334.933594 332.875 326.203125 337.4375 C 319.679688 340.84375 311.039062 343.074219 303.261719 345.863281 C 280.636719 353.984375 252.726562 357.804688 223.671875 358.972656 " fill-opacity="1" fill-rule="evenodd"/><path fill="#746767" d="M 141.742188 241.453125 C 142.496094 241.320312 142.546875 241.898438 143.144531 241.921875 C 153.609375 263.488281 139.859375 298.679688 115.523438 287.339844 C 108.210938 283.929688 103.867188 272.507812 104.753906 259.246094 C 105.132812 253.621094 105.828125 246.410156 109.4375 243.792969 C 110.382812 252.625 106.527344 265.949219 110.371094 275.164062 C 111.992188 279.050781 114.746094 280.992188 117.394531 283.59375 C 141.625 289.46875 144.09375 262.226562 141.742188 241.453125 " fill-opacity="1" fill-rule="evenodd"/><path fill="#34384c" d="M 89.773438 297.640625 C 92.28125 298.152344 94.527344 303.199219 92.582031 305.128906 C 90.164062 304.113281 90.207031 300.640625 89.773438 297.640625 " fill-opacity="1" fill-rule="evenodd"/><path fill="#34384c" d="M 86.027344 299.511719 C 87.875 303.128906 87.949219 308.511719 89.304688 312.621094 C 86.726562 310.007812 84.996094 304.191406 86.027344 299.511719 " fill-opacity="1" fill-rule="evenodd"/><path fill="#ffe000" d="M 358.972656 330.414062 C 358.894531 332.832031 359.261719 335.699219 358.503906 337.4375 C 349.289062 339.613281 339.03125 340.746094 328.074219 341.183594 C 335.515625 336.761719 340.753906 330.140625 344.925781 322.453125 C 351.105469 322.246094 356.179688 325.824219 358.972656 330.414062 " fill-opacity="1" fill-rule="evenodd"/><path fill="#ffe000" d="M 217.585938 362.25 C 201.183594 364.085938 183.9375 358.796875 167.957031 357.101562 C 170.007812 343.429688 189.792969 341.511719 205.410156 346.800781 C 212.371094 349.15625 222.914062 353.941406 217.585938 362.25 " fill-opacity="1" fill-rule="evenodd"/><g clip-path="url(#8daf258ce8)"><g clip-path="url(#31d47bc5aa)"><g clip-path="url(#f570d3ac16)"><path fill="#746767" d="M 103.078125 82.207031 L 97.773438 87.511719 C 97.5625 87.722656 97.332031 87.910156 97.085938 88.074219 C 96.835938 88.238281 96.574219 88.378906 96.300781 88.492188 C 96.023438 88.605469 95.742188 88.691406 95.449219 88.75 C 95.15625 88.808594 94.863281 88.835938 94.566406 88.835938 C 94.269531 88.835938 93.972656 88.808594 93.679688 88.75 C 93.390625 88.691406 93.105469 88.605469 92.832031 88.492188 C 92.554688 88.378906 92.292969 88.238281 92.046875 88.074219 C 91.796875 87.910156 91.570312 87.722656 91.359375 87.511719 L 83.945312 80.097656 L 87.042969 77 C 87.320312 76.722656 87.566406 76.421875 87.78125 76.097656 C 87.996094 75.773438 88.179688 75.429688 88.328125 75.070312 C 88.476562 74.707031 88.589844 74.335938 88.664062 73.953125 C 88.742188 73.570312 88.777344 73.183594 88.777344 72.792969 C 88.777344 72.402344 88.738281 72.015625 88.664062 71.632812 C 88.585938 71.25 88.472656 70.878906 88.324219 70.519531 C 88.175781 70.160156 87.992188 69.816406 87.777344 69.492188 C 87.558594 69.167969 87.3125 68.867188 87.039062 68.589844 L 85.324219 66.878906 C 85.683594 66.335938 85.996094 65.761719 86.257812 65.167969 C 86.519531 64.570312 86.726562 63.953125 86.882812 63.320312 C 87.039062 62.6875 87.140625 62.046875 87.1875 61.394531 C 87.234375 60.742188 87.222656 60.09375 87.160156 59.445312 C 87.09375 58.796875 86.972656 58.15625 86.796875 57.527344 C 86.625 56.902344 86.398438 56.292969 86.117188 55.703125 C 85.839844 55.113281 85.511719 54.550781 85.136719 54.015625 C 84.761719 53.484375 84.34375 52.988281 83.882812 52.523438 L 69.0625 37.703125 C 68.574219 37.21875 68.046875 36.78125 67.480469 36.390625 C 66.914062 36 66.316406 35.664062 65.691406 35.378906 C 65.0625 35.097656 64.414062 34.871094 63.746094 34.707031 C 63.078125 34.542969 62.402344 34.4375 61.714844 34.394531 C 61.027344 34.351562 60.34375 34.371094 59.660156 34.453125 C 58.976562 34.53125 58.304688 34.675781 57.648438 34.875 C 56.992188 35.078125 56.355469 35.339844 55.746094 35.65625 C 55.132812 35.972656 54.558594 36.339844 54.011719 36.761719 L 43.554688 26.304688 C 43.316406 26.066406 43.042969 25.882812 42.730469 25.753906 C 42.417969 25.625 42.089844 25.558594 41.753906 25.558594 C 41.414062 25.558594 41.089844 25.625 40.777344 25.753906 C 40.464844 25.882812 40.1875 26.066406 39.949219 26.304688 C 39.710938 26.542969 39.527344 26.820312 39.394531 27.132812 C 39.265625 27.445312 39.203125 27.769531 39.203125 28.109375 C 39.203125 28.449219 39.265625 28.773438 39.394531 29.085938 C 39.527344 29.398438 39.710938 29.671875 39.949219 29.914062 L 50.34375 40.308594 L 40.332031 50.316406 L 29.9375 39.921875 C 29.699219 39.683594 29.425781 39.5 29.113281 39.371094 C 28.800781 39.242188 28.472656 39.175781 28.136719 39.175781 C 27.796875 39.175781 27.472656 39.242188 27.160156 39.371094 C 26.847656 39.5 26.570312 39.683594 26.332031 39.921875 C 26.09375 40.160156 25.90625 40.4375 25.777344 40.75 C 25.648438 41.0625 25.585938 41.386719 25.585938 41.726562 C 25.585938 42.066406 25.648438 42.390625 25.777344 42.703125 C 25.910156 43.015625 26.09375 43.289062 26.332031 43.53125 L 36.847656 54.046875 C 36.46875 54.589844 36.136719 55.164062 35.859375 55.765625 C 35.578125 56.367188 35.351562 56.992188 35.183594 57.632812 C 35.011719 58.273438 34.898438 58.925781 34.839844 59.589844 C 34.78125 60.25 34.78125 60.914062 34.839844 61.574219 C 34.898438 62.234375 35.015625 62.886719 35.1875 63.53125 C 35.359375 64.171875 35.585938 64.792969 35.867188 65.394531 C 36.148438 65.996094 36.476562 66.570312 36.859375 67.117188 C 37.238281 67.660156 37.664062 68.167969 38.132812 68.636719 L 52.957031 83.460938 C 53.417969 83.917969 53.914062 84.335938 54.449219 84.714844 C 54.980469 85.089844 55.542969 85.414062 56.132812 85.695312 C 56.722656 85.972656 57.332031 86.199219 57.960938 86.375 C 58.589844 86.550781 59.226562 86.671875 59.875 86.734375 C 60.523438 86.800781 61.175781 86.808594 61.824219 86.765625 C 62.476562 86.71875 63.117188 86.617188 63.75 86.460938 C 64.382812 86.304688 65 86.097656 65.597656 85.835938 C 66.195312 85.574219 66.765625 85.261719 67.308594 84.902344 L 69.019531 86.613281 C 69.296875 86.890625 69.597656 87.136719 69.921875 87.351562 C 70.246094 87.570312 70.589844 87.753906 70.953125 87.902344 C 71.3125 88.050781 71.683594 88.164062 72.066406 88.238281 C 72.449219 88.316406 72.835938 88.351562 73.226562 88.351562 C 73.617188 88.351562 74.003906 88.316406 74.386719 88.238281 C 74.769531 88.164062 75.140625 88.050781 75.503906 87.902344 C 75.863281 87.753906 76.207031 87.570312 76.53125 87.351562 C 76.855469 87.136719 77.15625 86.890625 77.433594 86.613281 L 80.335938 83.710938 L 87.75 91.125 C 88.199219 91.574219 88.6875 91.972656 89.214844 92.324219 C 89.738281 92.675781 90.296875 92.972656 90.878906 93.214844 C 91.464844 93.457031 92.066406 93.636719 92.6875 93.761719 C 93.308594 93.886719 93.9375 93.945312 94.570312 93.945312 C 95.203125 93.945312 95.828125 93.886719 96.449219 93.761719 C 97.070312 93.636719 97.671875 93.457031 98.257812 93.214844 C 98.84375 92.972656 99.398438 92.675781 99.925781 92.324219 C 100.449219 91.972656 100.9375 91.570312 101.386719 91.125 L 106.6875 85.820312 C 106.898438 85.601562 107.125 85.40625 107.375 85.234375 C 107.621094 85.058594 107.882812 84.914062 108.160156 84.792969 C 108.4375 84.671875 108.722656 84.578125 109.019531 84.515625 C 109.316406 84.449219 109.613281 84.417969 109.917969 84.414062 C 110.21875 84.410156 110.519531 84.4375 110.816406 84.492188 C 111.113281 84.550781 111.402344 84.632812 111.683594 84.75 C 111.960938 84.863281 112.230469 85.003906 112.480469 85.171875 C 112.734375 85.335938 112.964844 85.527344 113.179688 85.742188 C 113.394531 85.957031 113.585938 86.1875 113.75 86.441406 C 113.917969 86.691406 114.058594 86.957031 114.171875 87.238281 C 114.289062 87.519531 114.371094 87.808594 114.429688 88.105469 C 114.484375 88.402344 114.511719 88.703125 114.507812 89.003906 C 114.503906 89.308594 114.46875 89.605469 114.40625 89.902344 C 114.34375 90.195312 114.25 90.484375 114.128906 90.761719 C 114.007812 91.039062 113.863281 91.300781 113.6875 91.546875 C 113.515625 91.796875 113.320312 92.023438 113.101562 92.234375 L 92.863281 112.46875 C 92.417969 112.914062 92.019531 113.402344 91.667969 113.929688 C 91.316406 114.453125 91.023438 115.011719 90.78125 115.59375 C 90.539062 116.179688 90.355469 116.78125 90.234375 117.402344 C 90.109375 118.019531 90.046875 118.648438 90.046875 119.28125 C 90.046875 119.914062 90.109375 120.539062 90.234375 121.160156 C 90.355469 121.777344 90.539062 122.382812 90.78125 122.964844 C 91.023438 123.550781 91.320312 124.105469 91.667969 124.632812 C 92.019531 125.15625 92.417969 125.644531 92.867188 126.09375 L 101.078125 134.304688 C 101.316406 134.542969 101.59375 134.726562 101.90625 134.859375 C 102.21875 134.988281 102.542969 135.050781 102.882812 135.050781 C 103.21875 135.050781 103.546875 134.988281 103.859375 134.859375 C 104.171875 134.726562 104.445312 134.542969 104.6875 134.304688 C 104.925781 134.066406 105.109375 133.789062 105.238281 133.476562 C 105.367188 133.164062 105.433594 132.839844 105.433594 132.5 C 105.433594 132.164062 105.367188 131.835938 105.238281 131.523438 C 105.109375 131.210938 104.925781 130.9375 104.6875 130.699219 L 96.46875 122.480469 C 96.257812 122.269531 96.070312 122.039062 95.90625 121.792969 C 95.738281 121.542969 95.601562 121.28125 95.484375 121.007812 C 95.371094 120.730469 95.285156 120.449219 95.226562 120.15625 C 95.171875 119.863281 95.140625 119.570312 95.140625 119.273438 C 95.140625 118.976562 95.171875 118.679688 95.226562 118.386719 C 95.285156 118.097656 95.371094 117.8125 95.484375 117.539062 C 95.597656 117.261719 95.738281 117 95.902344 116.753906 C 96.070312 116.507812 96.257812 116.277344 96.46875 116.066406 L 116.703125 95.832031 C 117.148438 95.382812 117.546875 94.898438 117.898438 94.371094 C 118.25 93.84375 118.546875 93.289062 118.789062 92.707031 C 119.03125 92.121094 119.214844 91.519531 119.339844 90.898438 C 119.460938 90.277344 119.523438 89.652344 119.523438 89.019531 C 119.523438 88.386719 119.460938 87.761719 119.339844 87.140625 C 119.214844 86.519531 119.03125 85.917969 118.789062 85.332031 C 118.546875 84.746094 118.25 84.191406 117.898438 83.667969 C 117.546875 83.140625 117.148438 82.652344 116.699219 82.207031 C 116.253906 81.757812 115.765625 81.359375 115.242188 81.007812 C 114.714844 80.65625 114.160156 80.359375 113.574219 80.117188 C 112.992188 79.875 112.390625 79.695312 111.769531 79.570312 C 111.148438 79.445312 110.523438 79.386719 109.890625 79.386719 C 109.257812 79.382812 108.628906 79.445312 108.007812 79.570312 C 107.390625 79.691406 106.785156 79.875 106.203125 80.117188 C 105.617188 80.359375 105.0625 80.65625 104.535156 81.007812 C 104.011719 81.359375 103.523438 81.757812 103.078125 82.207031 Z M 41.742188 56.113281 L 56.5625 41.292969 C 56.855469 41 57.171875 40.742188 57.515625 40.511719 C 57.859375 40.28125 58.222656 40.085938 58.605469 39.929688 C 58.988281 39.769531 59.378906 39.652344 59.785156 39.570312 C 60.191406 39.488281 60.601562 39.449219 61.015625 39.449219 C 61.429688 39.449219 61.839844 39.488281 62.242188 39.570312 C 62.648438 39.652344 63.042969 39.769531 63.425781 39.929688 C 63.808594 40.085938 64.171875 40.28125 64.515625 40.511719 C 64.859375 40.742188 65.175781 41.003906 65.46875 41.292969 L 78.09375 53.921875 L 54.359375 77.652344 L 41.738281 65.03125 C 41.445312 64.738281 41.183594 64.417969 40.953125 64.074219 C 40.722656 63.730469 40.527344 63.367188 40.371094 62.984375 C 40.210938 62.605469 40.09375 62.210938 40.011719 61.804688 C 39.929688 61.398438 39.890625 60.988281 39.890625 60.574219 C 39.890625 60.160156 39.929688 59.75 40.011719 59.34375 C 40.089844 58.9375 40.210938 58.546875 40.371094 58.164062 C 40.527344 57.78125 40.722656 57.417969 40.953125 57.074219 C 41.183594 56.730469 41.445312 56.410156 41.734375 56.121094 Z M 58.195312 81.03125 L 81.460938 57.765625 C 81.757812 58.355469 81.953125 58.976562 82.054688 59.628906 C 82.152344 60.285156 82.152344 60.9375 82.046875 61.589844 C 81.9375 62.242188 81.734375 62.863281 81.433594 63.449219 C 81.132812 64.039062 80.75 64.566406 80.28125 65.03125 L 65.464844 79.847656 C 65 80.316406 64.472656 80.699219 63.882812 81 C 63.292969 81.300781 62.675781 81.507812 62.023438 81.613281 C 61.371094 81.71875 60.71875 81.722656 60.0625 81.621094 C 59.410156 81.523438 58.789062 81.324219 58.195312 81.03125 Z M 72.621094 83.003906 L 71.074219 81.457031 L 81.890625 70.640625 L 83.4375 72.191406 C 83.605469 72.355469 83.6875 72.554688 83.6875 72.789062 C 83.6875 73.023438 83.605469 73.226562 83.4375 73.390625 L 73.824219 83.003906 C 73.65625 83.171875 73.457031 83.253906 73.222656 83.253906 C 72.988281 83.253906 72.789062 83.171875 72.621094 83.003906 Z M 72.621094 83.003906 " fill-opacity="1" fill-rule="nonzero"/></g></g></g></svg>