<svg xmlns="http://www.w3.org/2000/svg" xmlns:xlink="http://www.w3.org/1999/xlink" width="500" zoomAndPan="magnify" viewBox="0 0 375 374.999991" height="500" preserveAspectRatio="xMidYMid meet" version="1.0"><path fill="#746767" d="M 83.082031 327.386719 C 78.765625 325.722656 74.28125 322.589844 70.769531 322.351562 C 64.605469 321.933594 56.695312 325.898438 55.101562 332.980469 C 59.976562 336.429688 64.472656 331.140625 70.210938 331.859375 C 72.890625 333.097656 71.230469 338.675781 72.449219 341.371094 C 80.914062 346.839844 88.140625 337.222656 95.953125 338.574219 C 98.007812 356.480469 122.332031 344.5625 125.617188 335.777344 C 110.707031 334.816406 94.933594 331.949219 83.082031 327.386719 Z M 314.210938 322.351562 C 313.550781 318.765625 309.632812 318.265625 306.9375 315.640625 C 294.941406 328.636719 271.285156 329.976562 249.292969 332.980469 C 250.269531 341.976562 257.207031 350.042969 267.761719 345.847656 C 268.621094 331.71875 284.773438 345.613281 292.386719 338.574219 C 293.136719 336.339844 292.792969 333.011719 294.625 331.859375 C 302.253906 331.011719 316.183594 333.058594 314.210938 322.351562 Z M 217.394531 148.941406 C 223.617188 149.082031 228.015625 140.183594 231.386719 134.957031 C 223.28125 137.554688 212.585938 136.347656 204.523438 134.398438 C 208.21875 139.40625 210.855469 148.792969 217.394531 148.941406 Z M 203.964844 127.6875 C 211.464844 130.050781 224.785156 132.277344 231.386719 127.6875 C 225.609375 123.1875 209.675781 122.875 203.964844 127.6875 Z M 218.515625 106.429688 C 212.964844 106.558594 206.46875 117.984375 205.082031 120.414062 C 211.089844 116.320312 225.457031 118.667969 230.828125 119.851562 C 226.875 115.652344 224.78125 106.28125 218.515625 106.429688 Z M 293.503906 139.433594 C 290.632812 128.769531 282.085938 119.699219 280.632812 111.460938 C 279.609375 105.652344 280.675781 99.308594 279.515625 93.5625 C 277.351562 82.890625 272.855469 71.734375 264.40625 69.511719 C 244.589844 64.285156 235.035156 92.082031 230.828125 107.546875 C 233.460938 114.535156 241.109375 122.121094 239.222656 132.71875 C 237.664062 141.453125 225.835938 155.902344 216.277344 155.09375 C 204.382812 154.085938 197.996094 134.621094 194.449219 125.445312 C 195.980469 117.59375 203.5 115.238281 205.082031 108.667969 C 206.832031 101.402344 201.238281 91.382812 198.367188 86.289062 C 190.441406 72.222656 177.425781 59.851562 153.597656 62.796875 C 132.089844 65.453125 114.125 85.699219 113.304688 109.222656 C 113.171875 112.996094 114.824219 118.210938 113.863281 122.652344 C 112.4375 129.226562 102.011719 137.113281 97.632812 143.347656 C 92.015625 151.34375 88.09375 159.457031 85.882812 169.082031 C 125.914062 156.382812 191.0625 160.8125 188.855469 205.441406 C 188.5 212.582031 185.074219 221.011719 181.578125 226.136719 C 164.574219 251.0625 109.65625 264.90625 69.09375 255.785156 C 69.972656 282.316406 75.085938 304.613281 85.320312 321.792969 C 114.9375 331.191406 154.824219 333.070312 192.769531 330.742188 C 230.417969 328.433594 268.902344 327.636719 296.304688 316.757812 C 301 300.914062 297.074219 280.199219 291.265625 268.089844 C 268.449219 257.367188 236.441406 263.269531 216.835938 249.074219 C 212.164062 245.691406 207.171875 240.46875 203.964844 235.085938 C 191.949219 214.925781 196.507812 178.246094 216.277344 169.640625 C 237.367188 160.453125 266.625 174.570312 286.230469 176.910156 C 291.304688 166.339844 297.492188 154.226562 293.503906 139.433594 Z M 308.617188 186.421875 C 306.761719 180.855469 303.617188 175.089844 303.019531 170.199219 C 302.167969 163.226562 307.148438 158.085938 308.617188 152.859375 C 310.808594 145.035156 310.324219 135.339844 306.9375 127.6875 C 304.105469 121.289062 298.710938 118.347656 296.304688 110.902344 C 293.992188 103.753906 294.214844 96.5625 292.386719 90.207031 C 286.761719 70.652344 277.074219 56.953125 263.285156 44.894531 C 246.253906 30.003906 220.238281 16.320312 188.855469 18.605469 C 133.425781 22.636719 99.722656 43.9375 83.640625 85.730469 C 81.609375 91.019531 81.171875 98.390625 77.488281 104.191406 C 74.714844 108.554688 70.464844 109.210938 67.972656 113.140625 C 62.648438 121.542969 60.550781 136.761719 64.054688 147.265625 C 64.582031 148.839844 67.382812 151.699219 67.414062 153.976562 C 67.472656 158.105469 59.917969 166.953125 57.339844 171.875 C 47.0625 191.492188 41.097656 212.582031 39.992188 240.121094 C 38.515625 276.957031 55.492188 302.558594 76.367188 317.875 C 69.953125 304.890625 64.601562 285.914062 63.496094 266.972656 C 63.132812 260.722656 61.625 253.007812 66.292969 249.074219 C 105.265625 259.019531 157.144531 246.210938 174.863281 225.019531 C 178.65625 220.476562 182.472656 211.871094 182.699219 204.878906 C 183.433594 181.863281 160.996094 170.640625 140.726562 169.082031 C 117.480469 167.289062 99.472656 173.792969 81.402344 175.234375 C 77.4375 170.113281 80.796875 164.277344 82.523438 159.570312 C 86.414062 148.96875 91.550781 140.828125 98.195312 132.71875 C 101.761719 128.363281 106.964844 124.410156 107.707031 120.414062 C 108.242188 117.546875 107.03125 113.113281 107.148438 109.222656 C 108.335938 68.929688 153.183594 42.078125 187.734375 63.914062 C 200.195312 71.789062 206.332031 85.566406 211.238281 103.070312 C 213.269531 102.804688 215.289062 100.1875 219.074219 100.277344 C 222.324219 100.351562 224.453125 103.433594 225.789062 101.953125 C 231.824219 86.050781 236.519531 71.039062 250.414062 65.03125 C 269.558594 56.761719 279.816406 73.207031 283.992188 86.847656 C 286.265625 94.269531 284.988281 102.148438 286.789062 110.902344 C 288.121094 117.375 293.714844 123.316406 296.304688 129.363281 C 299.292969 136.347656 301.648438 143.339844 301.339844 152.296875 C 300.984375 162.699219 295.382812 167.113281 292.945312 175.792969 C 292.191406 178.484375 293.304688 182.679688 290.707031 185.300781 C 272.386719 181.105469 240.90625 168.078125 220.191406 174.675781 C 202.511719 180.300781 199.886719 215.785156 208.441406 231.171875 C 220.035156 252.027344 245.210938 251.035156 271.679688 256.34375 C 279.128906 257.839844 289.640625 259.226562 294.625 263.058594 C 303.394531 269.804688 304.566406 295.339844 304.136719 308.367188 C 329.425781 278.527344 320.34375 221.574219 308.617188 186.421875 Z M 308.054688 167.960938 C 325.488281 203.847656 337.203125 276.789062 310.292969 311.164062 C 327.550781 315.277344 319.601562 343.535156 300.222656 337.457031 C 297.429688 345.273438 285.433594 349.707031 275.597656 345.285156 C 267.203125 360.71875 242.203125 350.402344 243.136719 333.539062 C 208.355469 336.078125 169.785156 339.480469 132.890625 336.335938 C 127.75 348.972656 100.386719 363.527344 90.917969 345.285156 C 83.964844 350.894531 65.757812 351.171875 65.734375 339.132812 C 58.714844 341.496094 50.320312 340.078125 48.945312 334.65625 C 46.515625 325.085938 57.238281 320.152344 64.054688 317.316406 C 47.25 298.980469 32.269531 272.492188 33.835938 237.882812 C 35.363281 204.195312 46.65625 176.089844 60.136719 155.09375 C 54.863281 138.902344 55.308594 121.578125 62.9375 109.785156 C 65.617188 105.636719 71.132812 103.179688 73.011719 99.714844 C 75.96875 94.261719 76.824219 85.609375 79.164062 80.136719 C 96.851562 38.785156 132.261719 16.308594 188.855469 12.449219 C 220.78125 10.273438 249.824219 24.171875 267.203125 39.859375 C 283.898438 54.933594 294.953125 71.929688 300.222656 98.035156 C 300.894531 101.375 300.671875 105.578125 301.902344 109.222656 C 303.757812 114.75 309.710938 118.765625 312.53125 124.886719 C 319.027344 138.96875 315.546875 157.097656 308.054688 167.960938 " fill-opacity="1" fill-rule="evenodd"/><path fill="#7daa7b" d="M 304.136719 308.367188 C 304.566406 295.339844 303.394531 269.804688 294.625 263.058594 C 289.640625 259.226562 279.128906 257.839844 271.679688 256.34375 C 245.210938 251.035156 220.035156 252.027344 208.441406 231.171875 C 199.886719 215.785156 202.511719 180.300781 220.191406 174.675781 C 240.90625 168.078125 272.382812 181.105469 290.707031 185.300781 C 293.304688 182.679688 292.191406 178.484375 292.945312 175.792969 C 295.382812 167.113281 300.984375 162.699219 301.339844 152.300781 C 301.648438 143.34375 299.296875 136.347656 296.304688 129.363281 C 293.714844 123.320312 288.121094 117.371094 286.789062 110.902344 C 284.984375 102.148438 286.265625 94.273438 283.992188 86.847656 C 279.816406 73.207031 269.558594 56.761719 250.414062 65.035156 C 236.519531 71.039062 231.824219 86.050781 225.789062 101.953125 C 224.453125 103.433594 222.324219 100.351562 219.074219 100.273438 C 215.289062 100.1875 213.269531 102.804688 211.238281 103.070312 C 206.332031 85.566406 200.195312 71.792969 187.734375 63.914062 C 153.183594 42.078125 108.335938 68.933594 107.148438 109.226562 C 107.03125 113.113281 108.242188 117.546875 107.707031 120.414062 C 106.960938 124.410156 101.761719 128.363281 98.191406 132.71875 C 91.550781 140.828125 86.414062 148.96875 82.523438 159.570312 C 80.796875 164.277344 77.4375 170.113281 81.402344 175.234375 C 99.472656 173.792969 117.480469 167.289062 140.726562 169.082031 C 160.996094 170.640625 183.433594 181.863281 182.699219 204.878906 C 182.472656 211.871094 178.65625 220.476562 174.863281 225.019531 C 157.144531 246.210938 105.265625 259.019531 66.292969 249.074219 C 61.625 253.007812 63.132812 260.722656 63.496094 266.972656 C 64.601562 285.914062 69.953125 304.890625 76.367188 317.875 C 55.492188 302.558594 38.515625 276.957031 39.992188 240.121094 C 41.097656 212.582031 47.0625 191.492188 57.339844 171.875 C 59.917969 166.953125 67.472656 158.105469 67.414062 153.976562 C 67.382812 151.699219 64.582031 148.839844 64.054688 147.265625 C 60.550781 136.761719 62.648438 121.546875 67.972656 113.140625 C 70.464844 109.210938 74.714844 108.550781 77.488281 104.191406 C 81.171875 98.390625 81.609375 91.019531 83.640625 85.730469 C 99.722656 43.933594 133.425781 22.636719 188.855469 18.605469 C 220.238281 16.320312 246.253906 30.003906 263.285156 44.894531 C 277.074219 56.949219 286.761719 70.652344 292.386719 90.207031 C 294.214844 96.5625 293.988281 103.757812 296.304688 110.902344 C 298.710938 118.347656 304.105469 121.289062 306.933594 127.6875 C 310.324219 135.339844 310.808594 145.035156 308.613281 152.859375 C 307.152344 158.085938 302.167969 163.226562 303.019531 170.199219 C 303.617188 175.089844 306.757812 180.855469 308.613281 186.421875 C 320.34375 221.574219 329.421875 278.527344 304.136719 308.367188 " fill-opacity="1" fill-rule="evenodd"/><path fill="#f2f2f2" d="M 275.039062 149.5 C 275.6875 149.59375 275.644531 150.386719 275.597656 151.179688 C 281.0625 152.703125 284.96875 148.394531 286.789062 144.464844 C 283.359375 139.339844 276.207031 145.402344 275.039062 149.5 Z M 275.597656 141.109375 C 275.570312 134.792969 260.910156 140.738281 261.046875 147.261719 C 265.613281 149.882812 275.613281 144.589844 275.597656 141.109375 Z M 132.332031 142.230469 C 133.085938 142.777344 133.449219 143.71875 134.007812 144.464844 C 140.179688 142.613281 145.945312 140.363281 148 134.398438 C 147.566406 134.273438 147.351562 133.929688 147.441406 133.277344 C 140.875 132.539062 134.871094 137.085938 132.332031 142.230469 Z M 118.339844 140.550781 C 124.4375 142.671875 132.371094 137.601562 133.449219 131.042969 C 127.511719 129.082031 119.925781 134.496094 118.339844 140.550781 Z M 246.496094 117.054688 C 246.929688 117.179688 247.148438 117.523438 247.058594 118.175781 C 250.292969 121.011719 252.640625 117.429688 256.011719 117.054688 C 263.523438 116.21875 267.351562 122.3125 273.359375 122.089844 C 276.007812 110.5 249.910156 106.253906 246.496094 117.054688 Z M 146.320312 114.820312 C 152.667969 116.214844 159.992188 110.28125 168.707031 111.460938 C 173.632812 112.132812 177.3125 117.609375 181.019531 113.699219 C 178.40625 100.765625 146.710938 103.550781 146.320312 114.820312 Z M 286.230469 176.910156 C 266.625 174.570312 237.367188 160.453125 216.277344 169.636719 C 196.507812 178.246094 191.949219 214.925781 203.964844 235.085938 C 207.171875 240.46875 212.164062 245.691406 216.835938 249.074219 C 236.445312 263.269531 268.449219 257.363281 291.265625 268.089844 C 297.074219 280.199219 301 300.914062 296.304688 316.757812 C 268.902344 327.636719 230.417969 328.433594 192.769531 330.742188 C 154.824219 333.070312 114.9375 331.1875 85.320312 321.792969 C 75.085938 304.613281 69.972656 282.316406 69.09375 255.785156 C 109.65625 264.90625 164.574219 251.0625 181.578125 226.136719 C 185.074219 221.011719 188.5 212.582031 188.855469 205.441406 C 191.0625 160.808594 125.914062 156.382812 85.882812 169.078125 C 88.09375 159.457031 92.015625 151.34375 97.632812 143.347656 C 102.011719 137.113281 112.4375 129.226562 113.863281 122.648438 C 114.824219 118.210938 113.171875 112.992188 113.304688 109.226562 C 114.125 85.699219 132.089844 65.453125 153.597656 62.796875 C 177.425781 59.851562 190.441406 72.222656 198.367188 86.289062 C 201.238281 91.382812 206.832031 101.402344 205.082031 108.664062 C 203.5 115.238281 195.980469 117.59375 194.449219 125.445312 C 197.996094 134.621094 204.382812 154.085938 216.277344 155.09375 C 225.835938 155.902344 237.664062 141.453125 239.222656 132.71875 C 241.109375 122.121094 233.460938 114.535156 230.824219 107.546875 C 235.035156 92.082031 244.589844 64.285156 264.40625 69.507812 C 272.855469 71.734375 277.351562 82.886719 279.515625 93.5625 C 280.679688 99.308594 279.613281 105.652344 280.632812 111.460938 C 282.085938 119.699219 290.632812 128.769531 293.503906 139.433594 C 297.488281 154.226562 291.304688 166.335938 286.230469 176.910156 " fill-opacity="1" fill-rule="evenodd"/><path fill="#746767" d="M 181.019531 113.699219 C 177.3125 117.609375 173.632812 112.132812 168.707031 111.464844 C 159.992188 110.28125 152.667969 116.214844 146.320312 114.820312 C 146.710938 103.550781 178.40625 100.765625 181.019531 113.699219 " fill-opacity="1" fill-rule="evenodd"/><path fill="#746767" d="M 273.359375 122.09375 C 267.351562 122.316406 263.523438 116.222656 256.007812 117.058594 C 252.636719 117.433594 250.292969 121.011719 247.054688 118.175781 C 247.148438 117.527344 246.929688 117.179688 246.496094 117.058594 C 249.910156 106.253906 276.007812 110.5 273.359375 122.09375 " fill-opacity="1" fill-rule="evenodd"/><path fill="#ebc0c0" d="M 231.386719 127.683594 C 224.785156 132.277344 211.464844 130.050781 203.964844 127.683594 C 209.675781 122.875 225.609375 123.1875 231.386719 127.683594 " fill-opacity="1" fill-rule="evenodd"/><path fill="#ebc0c0" d="M 133.449219 131.039062 C 132.371094 137.601562 124.4375 142.671875 118.339844 140.550781 C 119.925781 134.496094 127.511719 129.078125 133.449219 131.039062 " fill-opacity="1" fill-rule="evenodd"/><path fill="#ebc0c0" d="M 147.441406 133.277344 C 147.351562 133.929688 147.566406 134.273438 148 134.398438 C 145.945312 140.363281 140.179688 142.613281 134.007812 144.464844 C 133.449219 143.722656 133.085938 142.777344 132.332031 142.230469 C 134.871094 137.085938 140.875 132.539062 147.441406 133.277344 " fill-opacity="1" fill-rule="evenodd"/><path fill="#ffe000" d="M 204.523438 134.398438 C 212.585938 136.347656 223.28125 137.554688 231.386719 134.957031 C 228.015625 140.183594 223.617188 149.082031 217.394531 148.941406 C 210.855469 148.792969 208.21875 139.40625 204.523438 134.398438 " fill-opacity="1" fill-rule="evenodd"/><path fill="#ebc0c0" d="M 261.046875 147.265625 C 260.910156 140.738281 275.570312 134.792969 275.597656 141.109375 C 275.613281 144.589844 265.613281 149.882812 261.046875 147.265625 " fill-opacity="1" fill-rule="evenodd"/><path fill="#ebc0c0" d="M 286.789062 144.46875 C 284.96875 148.394531 281.0625 152.703125 275.597656 151.179688 C 275.644531 150.386719 275.6875 149.59375 275.035156 149.5 C 276.207031 145.402344 283.355469 139.339844 286.789062 144.46875 " fill-opacity="1" fill-rule="evenodd"/><path fill="#ffe000" d="M 294.625 331.859375 C 292.792969 333.011719 293.136719 336.339844 292.386719 338.574219 C 284.773438 345.613281 268.621094 331.71875 267.761719 345.847656 C 257.207031 350.042969 250.273438 341.976562 249.292969 332.980469 C 271.285156 329.976562 294.941406 328.636719 306.9375 315.640625 C 309.636719 318.265625 313.550781 318.765625 314.210938 322.351562 C 316.183594 333.058594 302.253906 331.011719 294.625 331.859375 " fill-opacity="1" fill-rule="evenodd"/><path fill="#ffe000" d="M 125.617188 335.777344 C 122.332031 344.5625 98.007812 356.480469 95.953125 338.574219 C 88.140625 337.222656 80.914062 346.839844 72.449219 341.371094 C 71.230469 338.675781 72.890625 333.097656 70.210938 331.859375 C 64.472656 331.140625 59.976562 336.429688 55.101562 332.980469 C 56.695312 325.898438 64.605469 321.933594 70.769531 322.351562 C 74.28125 322.589844 78.765625 325.722656 83.082031 327.386719 C 94.933594 331.949219 110.707031 334.816406 125.617188 335.777344 " fill-opacity="1" fill-rule="evenodd"/><path fill="#ffe000" d="M 230.828125 119.855469 C 225.453125 118.667969 211.089844 116.324219 205.082031 120.414062 C 206.464844 117.984375 212.964844 106.558594 218.515625 106.429688 C 224.78125 106.28125 226.875 115.648438 230.828125 119.855469 " fill-opacity="1" fill-rule="evenodd"/></svg>