<svg xmlns="http://www.w3.org/2000/svg" xmlns:xlink="http://www.w3.org/1999/xlink" width="500" zoomAndPan="magnify" viewBox="0 0 375 374.999991" height="500" preserveAspectRatio="xMidYMid meet" version="1.0"><path fill="#b3b3b3" d="M 375.015625 187.507812 C 375.015625 235.480469 357.015625 279.226562 327.375 312.386719 C 293.042969 350.824219 243.105469 375.011719 187.511719 375.011719 C 131.914062 375.011719 81.960938 350.824219 47.648438 312.386719 C 18.007812 279.226562 0.0078125 235.480469 0.0078125 187.507812 C 0.0078125 83.957031 83.945312 0.00390625 187.511719 0.00390625 C 291.0625 0.00390625 375.015625 83.957031 375.015625 187.507812 " fill-opacity="1" fill-rule="nonzero"/><path fill="#f2f2f2" d="M 187.511719 222.046875 C 221.496094 222.046875 252.449219 183.597656 252.449219 141.378906 C 252.449219 101.492188 244.734375 62.046875 187.511719 62.046875 C 130.28125 62.046875 122.566406 101.492188 122.566406 141.378906 C 122.566406 183.597656 153.523438 222.046875 187.511719 222.046875 " fill-opacity="1" fill-rule="nonzero"/><path fill="#f2f2f2" d="M 327.375 312.386719 C 293.042969 350.824219 243.105469 375.011719 187.511719 375.011719 C 131.914062 375.011719 81.960938 350.824219 47.648438 312.386719 C 47.054688 289.230469 62.476562 235.570312 141.132812 219.054688 C 154.589844 232.789062 171.152344 240.554688 187.511719 240.554688 C 203.871094 240.554688 220.417969 232.789062 233.871094 219.054688 C 312.546875 235.570312 327.953125 289.230469 327.375 312.386719 " fill-opacity="1" fill-rule="nonzero"/></svg>