<svg xmlns="http://www.w3.org/2000/svg" xmlns:xlink="http://www.w3.org/1999/xlink" width="500" zoomAndPan="magnify" viewBox="0 0 375 374.999991" height="500" preserveAspectRatio="xMidYMid meet" version="1.0"><defs><clipPath id="8ab5eab99d"><path d="M 87.027344 74 L 115 74 L 115 106 L 87.027344 106 Z M 87.027344 74 " clip-rule="nonzero"/></clipPath></defs><rect x="-37.5" width="450" fill="#ffffff" y="-37.499999" height="449.999989" fill-opacity="1"/><rect x="-37.5" width="450" fill="#ffffff" y="-37.499999" height="449.999989" fill-opacity="1"/><rect x="-37.5" width="450" fill="#ffffff" y="-37.499999" height="449.999989" fill-opacity="1"/><path fill="#f9b347" d="M 107.660156 162.253906 C 108.097656 143.773438 113.015625 118.929688 136.761719 102.238281 C 142.339844 98.320312 148.484375 95.269531 154.808594 92.746094 C 176.527344 84.09375 202.484375 81.347656 222.40625 93.597656 C 228.941406 97.617188 234.507812 103.0625 239.449219 108.949219 C 249.957031 121.476562 257.929688 136.449219 260.453125 152.605469 C 262.972656 168.761719 259.648438 186.125 249.734375 199.121094 C 238.957031 213.246094 221.101562 221.820312 213.871094 238.054688 C 206.96875 253.5625 211.707031 271.929688 207.046875 288.253906 C 206.632812 289.683594 206.109375 291.15625 204.992188 292.140625 C 203.621094 293.335938 201.679688 293.535156 199.863281 293.679688 C 193.648438 294.171875 187.449219 294.664062 181.234375 295.15625 C 142.285156 298.226562 151.308594 265.691406 143.644531 239.128906 C 134.898438 208.777344 106.878906 195.125 107.660156 162.253906 Z M 107.660156 162.253906 " fill-opacity="1" fill-rule="nonzero"/><path fill="#cadfdf" d="M 212.476562 246.441406 C 213.539062 246.363281 214.785156 246.351562 215.46875 247.175781 C 215.925781 247.734375 215.980469 248.515625 216.003906 249.242188 C 216.4375 260.019531 216.859375 270.78125 217.296875 281.554688 C 217.441406 285.074219 217.5625 288.703125 216.335938 292.007812 C 212.992188 301.050781 200.957031 304.546875 197.6875 313.613281 C 196.527344 316.851562 197.398438 315.589844 195.667969 318.558594 C 193.125 322.945312 187.558594 324.386719 182.550781 325.179688 C 177.152344 326.027344 171.472656 326.585938 166.355469 324.675781 C 164.347656 323.929688 162.328125 322.644531 161.648438 320.601562 C 161 318.636719 161.769531 316.492188 161.691406 314.425781 C 161.570312 310.84375 158.191406 312.761719 155.34375 310.585938 C 152.5 308.410156 149.265625 306.6875 146.878906 304.019531 C 141.324219 297.800781 141.894531 288.476562 141.046875 280.183594 C 139.976562 269.796875 135.960938 251.664062 149.679688 247.246094 C 153.71875 245.9375 158.355469 247.390625 162.441406 247.757812 C 169.777344 248.417969 177.285156 247.992188 184.636719 247.800781 C 193.929688 247.558594 203.207031 247.097656 212.476562 246.441406 Z M 212.476562 246.441406 " fill-opacity="1" fill-rule="nonzero"/><path stroke-linecap="round" transform="matrix(1.115427, 0, 0, 1.116548, -49.725842, -53.84416)" fill="none" stroke-linejoin="round" d="M 197.13165 267.531045 C 197.618431 251.819259 190.85953 236.919126 184.489352 222.550766 C 183.141074 219.50007 182.18152 215.140933 185.0917 213.500134 C 186.741152 212.569531 188.908904 213.188767 190.320218 214.458724 C 191.721027 215.728681 192.529994 217.50942 193.310945 219.230685 C 194.039365 220.850493 195.230053 222.750181 196.998573 222.578754 C 197.821548 222.498289 198.518451 221.970014 199.159321 221.431245 C 201.768327 219.230685 204.121685 216.729254 206.13885 213.979429 C 207.788302 216.061039 209.50079 218.198626 211.840141 219.461586 C 214.179491 220.721048 217.320805 220.888976 219.309953 219.129228 C 220.360559 218.209121 221.050458 216.809719 222.360214 216.319929 C 224.38088 215.560753 226.569644 217.621373 226.790271 219.77995 C 227.010898 221.938528 225.911264 223.981655 224.850151 225.860352 C 217.660501 238.6194 210.099636 252.630912 212.459999 267.079738 " stroke="#144778" stroke-width="5" stroke-opacity="1" stroke-miterlimit="10"/><g clip-path="url(#8ab5eab99d)"><path stroke-linecap="round" transform="matrix(1.115427, 0, 0, 1.116548, -49.725842, -53.84416)" fill="none" stroke-linejoin="round" d="M 144.909505 139.870597 C 143.80987 137.288701 141.908272 135.140618 140.020682 133.059008 C 135.208905 127.769268 130.28156 122.580985 125.238649 117.511652 C 125.879519 117.420691 126.558912 117.581622 127.091219 117.948965 " stroke="#144778" stroke-width="5" stroke-opacity="1" stroke-miterlimit="10"/></g><path stroke-linecap="round" transform="matrix(1.115427, 0, 0, 1.116548, -49.725842, -53.84416)" fill="none" stroke-linejoin="round" d="M 178.329296 116.420118 C 178.749539 116.171724 178.668992 115.54899 178.528912 115.080191 C 175.790331 106.078537 170.509282 97.731104 169.75985 88.351612 " stroke="#144778" stroke-width="5" stroke-opacity="1" stroke-miterlimit="10"/><path stroke-linecap="round" transform="matrix(1.115427, 0, 0, 1.116548, -49.725842, -53.84416)" fill="none" stroke-linejoin="round" d="M 214.431637 109.930391 C 213.979876 101.43952 215.510259 92.85069 218.861694 85.038528 " stroke="#144778" stroke-width="5" stroke-opacity="1" stroke-miterlimit="10"/><path stroke-linecap="round" transform="matrix(1.115427, 0, 0, 1.116548, -49.725842, -53.84416)" fill="none" stroke-linejoin="round" d="M 253.948448 122.769905 C 258.028303 114.940251 262.381316 107.261032 266.989977 99.728751 C 267.571312 100.438947 267.749915 101.460511 267.448741 102.321143 " stroke="#144778" stroke-width="5" stroke-opacity="1" stroke-miterlimit="10"/><path stroke-linecap="round" transform="matrix(1.115427, 0, 0, 1.116548, -49.725842, -53.84416)" fill="none" stroke-linejoin="round" d="M 279.099967 144.730021 C 278.959886 145.079871 279.611262 145.111358 279.91944 144.901447 C 286.849941 140.290418 293.538802 135.319042 299.96151 130.029303 " stroke="#144778" stroke-width="5" stroke-opacity="1" stroke-miterlimit="10"/><path stroke-linecap="round" transform="matrix(1.115427, 0, 0, 1.116548, -49.725842, -53.84416)" fill="none" stroke-linejoin="round" d="M 174.701202 310.779564 C 181.330529 312.168471 188.219005 313.55038 194.80981 311.990047 " stroke="#144778" stroke-width="5" stroke-opacity="1" stroke-miterlimit="10"/><path stroke-linecap="round" transform="matrix(1.115427, 0, 0, 1.116548, -49.725842, -53.84416)" fill="none" stroke-linejoin="round" d="M 175.110939 298.258415 C 178.570936 298.688731 182.041439 299.108551 185.501437 299.538867 " stroke="#144778" stroke-width="5" stroke-opacity="1" stroke-miterlimit="10"/><path stroke-linecap="round" transform="matrix(1.115427, 0, 0, 1.116548, -49.725842, -53.84416)" fill="none" stroke-linejoin="round" d="M 215.919996 299.65082 C 218.448456 299.489888 220.990923 299.318462 223.519383 299.161029 C 227.490675 298.898641 231.609053 298.601268 235.06905 296.638607 " stroke="#144778" stroke-width="5" stroke-opacity="1" stroke-miterlimit="10"/><path stroke-linecap="round" transform="matrix(1.115427, 0, 0, 1.116548, -49.725842, -53.84416)" fill="none" stroke-linejoin="round" d="M 218.210318 314.568445 C 221.600275 312.819192 225.319422 311.699671 229.108609 311.27985 " stroke="#144778" stroke-width="5" stroke-opacity="1" stroke-miterlimit="10"/></svg>