<svg xmlns="http://www.w3.org/2000/svg" xmlns:xlink="http://www.w3.org/1999/xlink" width="500" zoomAndPan="magnify" viewBox="0 0 375 374.999991" height="500" preserveAspectRatio="xMidYMid meet" version="1.0"><defs><clipPath id="84a1e442e8"><path d="M 245 235 L 360.796875 235 L 360.796875 350.820312 L 245 350.820312 Z M 245 235 " clip-rule="nonzero"/></clipPath><clipPath id="dec57d1cb1"><path d="M 14.296875 235 L 130 235 L 130 350.820312 L 14.296875 350.820312 Z M 14.296875 235 " clip-rule="nonzero"/></clipPath><clipPath id="102bd3ff08"><path d="M 91 23.820312 L 188 23.820312 L 188 217 L 91 217 Z M 91 23.820312 " clip-rule="nonzero"/></clipPath></defs><rect x="-37.5" width="450" fill="#ffffff" y="-37.499999" height="449.999989" fill-opacity="1"/><rect x="-37.5" width="450" fill="#ffffff" y="-37.499999" height="449.999989" fill-opacity="1"/><rect x="-37.5" width="450" fill="#ffffff" y="-37.499999" height="449.999989" fill-opacity="1"/><g clip-path="url(#84a1e442e8)"><path fill="#7ed957" d="M 303.046875 350.726562 C 301.152344 350.726562 299.265625 350.632812 297.386719 350.449219 C 295.503906 350.265625 293.632812 349.988281 291.777344 349.617188 C 289.925781 349.25 288.089844 348.792969 286.28125 348.242188 C 284.472656 347.695312 282.691406 347.058594 280.945312 346.335938 C 279.199219 345.613281 277.492188 344.808594 275.824219 343.917969 C 274.15625 343.027344 272.535156 342.058594 270.960938 341.007812 C 269.390625 339.957031 267.871094 338.835938 266.410156 337.636719 C 264.949219 336.4375 263.546875 335.171875 262.210938 333.835938 C 260.871094 332.5 259.605469 331.101562 258.40625 329.640625 C 257.203125 328.179688 256.078125 326.667969 255.027344 325.09375 C 253.976562 323.523438 253.007812 321.90625 252.113281 320.242188 C 251.222656 318.574219 250.414062 316.871094 249.691406 315.125 C 248.96875 313.378906 248.332031 311.601562 247.78125 309.796875 C 247.234375 307.988281 246.773438 306.160156 246.40625 304.304688 C 246.035156 302.453125 245.757812 300.585938 245.574219 298.707031 C 245.386719 296.828125 245.296875 294.945312 245.296875 293.054688 C 245.296875 291.164062 245.386719 289.28125 245.574219 287.402344 C 245.757812 285.523438 246.035156 283.65625 246.40625 281.804688 C 246.773438 279.949219 247.234375 278.121094 247.78125 276.3125 C 248.332031 274.503906 248.96875 272.730469 249.691406 270.984375 C 250.414062 269.238281 251.222656 267.535156 252.113281 265.867188 C 253.007812 264.203125 253.976562 262.585938 255.027344 261.011719 C 256.078125 259.441406 257.203125 257.925781 258.40625 256.46875 C 259.605469 255.007812 260.871094 253.609375 262.210938 252.273438 C 263.546875 250.9375 264.949219 249.671875 266.410156 248.472656 C 267.871094 247.273438 269.390625 246.152344 270.960938 245.101562 C 272.535156 244.050781 274.15625 243.082031 275.824219 242.191406 C 277.492188 241.300781 279.199219 240.496094 280.945312 239.773438 C 282.691406 239.050781 284.472656 238.414062 286.28125 237.867188 C 288.089844 237.316406 289.925781 236.859375 291.777344 236.492188 C 293.632812 236.121094 295.503906 235.84375 297.386719 235.660156 C 299.265625 235.476562 301.152344 235.382812 303.046875 235.382812 C 304.9375 235.382812 306.824219 235.476562 308.707031 235.660156 C 310.589844 235.84375 312.457031 236.121094 314.3125 236.492188 C 316.167969 236.859375 318 237.316406 319.808594 237.867188 C 321.621094 238.414062 323.398438 239.050781 325.144531 239.773438 C 326.894531 240.496094 328.601562 241.300781 330.269531 242.191406 C 331.9375 243.082031 333.558594 244.050781 335.128906 245.101562 C 336.703125 246.152344 338.21875 247.273438 339.683594 248.472656 C 341.144531 249.671875 342.542969 250.9375 343.882812 252.273438 C 345.21875 253.609375 346.488281 255.007812 347.6875 256.46875 C 348.886719 257.925781 350.011719 259.441406 351.0625 261.011719 C 352.113281 262.585938 353.085938 264.203125 353.976562 265.867188 C 354.867188 267.535156 355.675781 269.238281 356.398438 270.984375 C 357.125 272.730469 357.761719 274.503906 358.308594 276.3125 C 358.859375 278.121094 359.316406 279.949219 359.6875 281.804688 C 360.054688 283.65625 360.332031 285.523438 360.519531 287.402344 C 360.703125 289.28125 360.796875 291.164062 360.796875 293.054688 C 360.792969 294.941406 360.699219 296.828125 360.511719 298.707031 C 360.324219 300.585938 360.046875 302.449219 359.675781 304.300781 C 359.304688 306.152344 358.847656 307.984375 358.296875 309.789062 C 357.746094 311.597656 357.109375 313.371094 356.382812 315.117188 C 355.660156 316.859375 354.851562 318.566406 353.960938 320.230469 C 353.066406 321.894531 352.097656 323.511719 351.046875 325.082031 C 349.996094 326.652344 348.867188 328.167969 347.667969 329.625 C 346.46875 331.085938 345.203125 332.484375 343.863281 333.816406 C 342.527344 335.152344 341.128906 336.421875 339.667969 337.617188 C 338.203125 338.816406 336.6875 339.941406 335.117188 340.988281 C 333.542969 342.039062 331.925781 343.007812 330.257812 343.898438 C 328.589844 344.789062 326.882812 345.597656 325.136719 346.320312 C 323.390625 347.046875 321.613281 347.679688 319.804688 348.230469 C 317.992188 348.78125 316.164062 349.238281 314.308594 349.609375 C 312.453125 349.980469 310.585938 350.257812 308.703125 350.445312 C 306.824219 350.628906 304.9375 350.726562 303.046875 350.726562 Z M 303.046875 273.832031 C 302.414062 273.832031 301.785156 273.863281 301.160156 273.921875 C 300.53125 273.984375 299.910156 274.078125 299.289062 274.199219 C 298.671875 274.324219 298.0625 274.476562 297.457031 274.660156 C 296.855469 274.839844 296.261719 275.054688 295.679688 275.292969 C 295.097656 275.535156 294.527344 275.804688 293.972656 276.101562 C 293.414062 276.398438 292.875 276.71875 292.351562 277.070312 C 291.828125 277.421875 291.320312 277.792969 290.832031 278.195312 C 290.347656 278.59375 289.878906 279.015625 289.433594 279.460938 C 288.988281 279.90625 288.566406 280.371094 288.164062 280.859375 C 287.765625 281.34375 287.390625 281.851562 287.039062 282.375 C 286.691406 282.898438 286.367188 283.4375 286.070312 283.992188 C 285.769531 284.546875 285.503906 285.117188 285.261719 285.699219 C 285.019531 286.28125 284.808594 286.871094 284.625 287.472656 C 284.441406 288.078125 284.289062 288.6875 284.164062 289.304688 C 284.042969 289.921875 283.949219 290.542969 283.886719 291.171875 C 283.828125 291.796875 283.796875 292.425781 283.796875 293.054688 C 283.796875 293.683594 283.828125 294.3125 283.886719 294.9375 C 283.949219 295.566406 284.042969 296.1875 284.164062 296.804688 C 284.289062 297.421875 284.441406 298.03125 284.625 298.636719 C 284.808594 299.238281 285.019531 299.828125 285.261719 300.410156 C 285.503906 300.992188 285.769531 301.5625 286.070312 302.117188 C 286.367188 302.671875 286.691406 303.210938 287.039062 303.734375 C 287.390625 304.257812 287.765625 304.761719 288.164062 305.25 C 288.566406 305.738281 288.988281 306.203125 289.433594 306.648438 C 289.878906 307.09375 290.347656 307.515625 290.832031 307.914062 C 291.320312 308.3125 291.828125 308.6875 292.351562 309.039062 C 292.875 309.390625 293.414062 309.710938 293.972656 310.007812 C 294.527344 310.304688 295.097656 310.574219 295.679688 310.816406 C 296.261719 311.054688 296.855469 311.269531 297.457031 311.449219 C 298.0625 311.632812 298.671875 311.785156 299.289062 311.910156 C 299.910156 312.03125 300.53125 312.125 301.160156 312.1875 C 301.785156 312.246094 302.414062 312.277344 303.046875 312.277344 C 303.675781 312.277344 304.304688 312.246094 304.933594 312.1875 C 305.558594 312.125 306.183594 312.03125 306.800781 311.910156 C 307.417969 311.785156 308.03125 311.632812 308.632812 311.449219 C 309.238281 311.269531 309.828125 311.054688 310.414062 310.816406 C 310.996094 310.574219 311.5625 310.304688 312.121094 310.007812 C 312.675781 309.710938 313.214844 309.386719 313.742188 309.039062 C 314.265625 308.6875 314.769531 308.3125 315.257812 307.914062 C 315.746094 307.515625 316.210938 307.09375 316.65625 306.648438 C 317.101562 306.203125 317.527344 305.738281 317.925781 305.25 C 318.324219 304.761719 318.699219 304.257812 319.050781 303.734375 C 319.402344 303.210938 319.726562 302.671875 320.023438 302.117188 C 320.320312 301.5625 320.589844 300.992188 320.832031 300.410156 C 321.070312 299.828125 321.285156 299.238281 321.464844 298.636719 C 321.648438 298.03125 321.804688 297.421875 321.925781 296.804688 C 322.046875 296.1875 322.140625 295.566406 322.203125 294.9375 C 322.265625 294.3125 322.296875 293.683594 322.296875 293.054688 C 322.296875 292.425781 322.265625 291.796875 322.203125 291.171875 C 322.140625 290.542969 322.046875 289.921875 321.925781 289.304688 C 321.804688 288.6875 321.648438 288.078125 321.464844 287.472656 C 321.285156 286.871094 321.070312 286.28125 320.832031 285.699219 C 320.589844 285.117188 320.320312 284.546875 320.023438 283.992188 C 319.726562 283.4375 319.402344 282.898438 319.050781 282.375 C 318.699219 281.851562 318.324219 281.34375 317.925781 280.859375 C 317.527344 280.371094 317.101562 279.90625 316.65625 279.460938 C 316.210938 279.015625 315.746094 278.59375 315.257812 278.195312 C 314.769531 277.792969 314.265625 277.421875 313.742188 277.070312 C 313.214844 276.71875 312.675781 276.398438 312.121094 276.101562 C 311.5625 275.804688 310.996094 275.535156 310.414062 275.292969 C 309.828125 275.054688 309.238281 274.839844 308.632812 274.660156 C 308.03125 274.476562 307.417969 274.324219 306.800781 274.199219 C 306.183594 274.078125 305.558594 273.984375 304.933594 273.921875 C 304.304688 273.863281 303.675781 273.832031 303.046875 273.832031 Z M 303.046875 273.832031 " fill-opacity="1" fill-rule="nonzero"/></g><g clip-path="url(#dec57d1cb1)"><path fill="#7ed957" d="M 72.046875 350.726562 C 70.15625 350.726562 68.265625 350.632812 66.386719 350.449219 C 64.503906 350.265625 62.632812 349.988281 60.777344 349.617188 C 58.925781 349.25 57.089844 348.792969 55.28125 348.242188 C 53.472656 347.695312 51.691406 347.058594 49.945312 346.335938 C 48.199219 345.613281 46.492188 344.808594 44.824219 343.917969 C 43.15625 343.027344 41.535156 342.058594 39.960938 341.007812 C 38.390625 339.957031 36.871094 338.835938 35.410156 337.636719 C 33.949219 336.4375 32.546875 335.171875 31.210938 333.835938 C 29.871094 332.5 28.605469 331.101562 27.40625 329.640625 C 26.203125 328.179688 25.078125 326.667969 24.027344 325.09375 C 22.976562 323.523438 22.007812 321.90625 21.113281 320.242188 C 20.222656 318.574219 19.414062 316.871094 18.691406 315.125 C 17.96875 313.378906 17.332031 311.601562 16.78125 309.796875 C 16.234375 307.988281 15.773438 306.160156 15.40625 304.304688 C 15.035156 302.453125 14.757812 300.585938 14.574219 298.707031 C 14.386719 296.828125 14.296875 294.945312 14.296875 293.054688 C 14.296875 291.164062 14.386719 289.28125 14.574219 287.402344 C 14.757812 285.523438 15.035156 283.65625 15.40625 281.804688 C 15.773438 279.949219 16.234375 278.121094 16.78125 276.3125 C 17.332031 274.503906 17.96875 272.730469 18.691406 270.984375 C 19.414062 269.238281 20.222656 267.535156 21.113281 265.867188 C 22.007812 264.203125 22.976562 262.585938 24.027344 261.011719 C 25.078125 259.441406 26.203125 257.925781 27.40625 256.46875 C 28.605469 255.007812 29.871094 253.609375 31.210938 252.273438 C 32.546875 250.9375 33.949219 249.671875 35.410156 248.472656 C 36.871094 247.273438 38.390625 246.152344 39.960938 245.101562 C 41.535156 244.050781 43.15625 243.082031 44.824219 242.191406 C 46.492188 241.300781 48.199219 240.496094 49.945312 239.773438 C 51.691406 239.050781 53.472656 238.414062 55.28125 237.867188 C 57.089844 237.316406 58.925781 236.859375 60.777344 236.492188 C 62.632812 236.121094 64.503906 235.84375 66.386719 235.660156 C 68.265625 235.476562 70.15625 235.382812 72.046875 235.382812 C 73.9375 235.382812 75.824219 235.476562 77.707031 235.660156 C 79.589844 235.84375 81.457031 236.121094 83.3125 236.492188 C 85.167969 236.859375 87 237.316406 88.808594 237.867188 C 90.621094 238.414062 92.398438 239.050781 94.144531 239.773438 C 95.894531 240.496094 97.601562 241.300781 99.269531 242.191406 C 100.9375 243.082031 102.558594 244.050781 104.128906 245.101562 C 105.703125 246.152344 107.21875 247.273438 108.683594 248.472656 C 110.144531 249.671875 111.542969 250.9375 112.882812 252.273438 C 114.21875 253.609375 115.488281 255.007812 116.6875 256.46875 C 117.886719 257.925781 119.011719 259.441406 120.0625 261.011719 C 121.113281 262.585938 122.085938 264.203125 122.976562 265.867188 C 123.867188 267.535156 124.675781 269.238281 125.398438 270.984375 C 126.125 272.730469 126.761719 274.503906 127.308594 276.3125 C 127.859375 278.121094 128.316406 279.949219 128.6875 281.804688 C 129.054688 283.65625 129.332031 285.523438 129.519531 287.402344 C 129.703125 289.28125 129.796875 291.164062 129.796875 293.054688 C 129.792969 294.941406 129.699219 296.828125 129.511719 298.707031 C 129.324219 300.585938 129.046875 302.449219 128.675781 304.300781 C 128.304688 306.152344 127.847656 307.984375 127.296875 309.789062 C 126.746094 311.597656 126.109375 313.371094 125.382812 315.117188 C 124.660156 316.859375 123.851562 318.566406 122.960938 320.230469 C 122.066406 321.894531 121.097656 323.511719 120.046875 325.082031 C 118.996094 326.652344 117.867188 328.167969 116.667969 329.625 C 115.46875 331.085938 114.203125 332.484375 112.863281 333.816406 C 111.527344 335.152344 110.128906 336.421875 108.667969 337.617188 C 107.203125 338.816406 105.6875 339.941406 104.117188 340.988281 C 102.542969 342.039062 100.925781 343.007812 99.257812 343.898438 C 97.589844 344.789062 95.882812 345.597656 94.136719 346.320312 C 92.390625 347.046875 90.613281 347.679688 88.804688 348.230469 C 86.992188 348.78125 85.164062 349.238281 83.308594 349.609375 C 81.453125 349.980469 79.585938 350.257812 77.703125 350.445312 C 75.824219 350.628906 73.9375 350.726562 72.046875 350.726562 Z M 72.046875 273.832031 C 71.414062 273.832031 70.785156 273.863281 70.160156 273.921875 C 69.53125 273.984375 68.910156 274.078125 68.289062 274.199219 C 67.671875 274.324219 67.0625 274.476562 66.457031 274.660156 C 65.855469 274.839844 65.261719 275.054688 64.679688 275.292969 C 64.097656 275.535156 63.527344 275.804688 62.972656 276.101562 C 62.414062 276.398438 61.875 276.71875 61.351562 277.070312 C 60.828125 277.421875 60.320312 277.792969 59.832031 278.195312 C 59.347656 278.59375 58.878906 279.015625 58.433594 279.460938 C 57.988281 279.90625 57.566406 280.371094 57.164062 280.859375 C 56.765625 281.34375 56.390625 281.851562 56.039062 282.375 C 55.691406 282.898438 55.367188 283.4375 55.070312 283.992188 C 54.773438 284.546875 54.503906 285.117188 54.261719 285.699219 C 54.019531 286.28125 53.808594 286.871094 53.625 287.472656 C 53.441406 288.078125 53.289062 288.6875 53.164062 289.304688 C 53.042969 289.921875 52.949219 290.542969 52.886719 291.171875 C 52.828125 291.796875 52.796875 292.425781 52.796875 293.054688 C 52.796875 293.683594 52.828125 294.3125 52.886719 294.9375 C 52.949219 295.566406 53.042969 296.1875 53.164062 296.804688 C 53.289062 297.421875 53.441406 298.03125 53.625 298.636719 C 53.808594 299.238281 54.019531 299.828125 54.261719 300.410156 C 54.503906 300.992188 54.773438 301.5625 55.070312 302.117188 C 55.367188 302.671875 55.691406 303.210938 56.039062 303.734375 C 56.390625 304.257812 56.765625 304.761719 57.164062 305.25 C 57.566406 305.738281 57.988281 306.203125 58.433594 306.648438 C 58.878906 307.09375 59.347656 307.515625 59.832031 307.914062 C 60.320312 308.3125 60.828125 308.6875 61.351562 309.039062 C 61.875 309.390625 62.414062 309.710938 62.972656 310.007812 C 63.527344 310.304688 64.097656 310.574219 64.679688 310.816406 C 65.261719 311.054688 65.855469 311.269531 66.457031 311.449219 C 67.0625 311.632812 67.671875 311.785156 68.289062 311.910156 C 68.910156 312.03125 69.53125 312.125 70.160156 312.1875 C 70.785156 312.246094 71.414062 312.277344 72.046875 312.277344 C 72.675781 312.277344 73.304688 312.246094 73.933594 312.1875 C 74.558594 312.125 75.183594 312.03125 75.800781 311.910156 C 76.417969 311.785156 77.03125 311.632812 77.632812 311.449219 C 78.238281 311.269531 78.828125 311.054688 79.414062 310.816406 C 79.996094 310.574219 80.5625 310.304688 81.121094 310.007812 C 81.675781 309.710938 82.214844 309.386719 82.742188 309.039062 C 83.265625 308.6875 83.769531 308.3125 84.257812 307.914062 C 84.746094 307.515625 85.210938 307.09375 85.65625 306.648438 C 86.101562 306.203125 86.527344 305.738281 86.925781 305.25 C 87.324219 304.761719 87.703125 304.257812 88.050781 303.734375 C 88.402344 303.210938 88.726562 302.671875 89.023438 302.117188 C 89.320312 301.5625 89.589844 300.992188 89.832031 300.410156 C 90.070312 299.828125 90.285156 299.238281 90.464844 298.636719 C 90.648438 298.03125 90.804688 297.421875 90.925781 296.804688 C 91.046875 296.1875 91.140625 295.566406 91.203125 294.9375 C 91.265625 294.3125 91.296875 293.683594 91.296875 293.054688 C 91.296875 292.425781 91.265625 291.796875 91.203125 291.171875 C 91.140625 290.542969 91.046875 289.921875 90.925781 289.304688 C 90.804688 288.6875 90.648438 288.078125 90.464844 287.472656 C 90.285156 286.871094 90.070312 286.28125 89.832031 285.699219 C 89.589844 285.117188 89.320312 284.546875 89.023438 283.992188 C 88.726562 283.4375 88.402344 282.898438 88.050781 282.375 C 87.703125 281.851562 87.324219 281.34375 86.925781 280.859375 C 86.527344 280.371094 86.101562 279.90625 85.65625 279.460938 C 85.210938 279.015625 84.746094 278.59375 84.257812 278.195312 C 83.769531 277.792969 83.265625 277.421875 82.742188 277.070312 C 82.214844 276.71875 81.675781 276.398438 81.121094 276.101562 C 80.5625 275.804688 79.996094 275.535156 79.414062 275.292969 C 78.828125 275.054688 78.238281 274.839844 77.632812 274.660156 C 77.03125 274.476562 76.417969 274.324219 75.800781 274.199219 C 75.183594 274.078125 74.558594 273.984375 73.933594 273.921875 C 73.304688 273.863281 72.675781 273.832031 72.046875 273.832031 Z M 72.046875 273.832031 " fill-opacity="1" fill-rule="nonzero"/></g><path fill="#7ed957" d="M 206.796875 312.277344 L 110.546875 312.277344 C 109.914062 312.277344 109.285156 312.246094 108.660156 312.1875 C 108.03125 312.125 107.410156 312.03125 106.789062 311.910156 C 106.171875 311.785156 105.5625 311.632812 104.957031 311.449219 C 104.355469 311.269531 103.761719 311.054688 103.179688 310.816406 C 102.597656 310.574219 102.027344 310.304688 101.472656 310.007812 C 100.914062 309.710938 100.375 309.386719 99.851562 309.039062 C 99.328125 308.6875 98.820312 308.3125 98.332031 307.914062 C 97.847656 307.515625 97.378906 307.09375 96.933594 306.648438 C 96.488281 306.203125 96.066406 305.738281 95.664062 305.25 C 95.265625 304.761719 94.890625 304.257812 94.539062 303.734375 C 94.191406 303.210938 93.867188 302.671875 93.570312 302.117188 C 93.273438 301.5625 93.003906 300.992188 92.761719 300.410156 C 92.519531 299.828125 92.308594 299.238281 92.125 298.636719 C 91.941406 298.03125 91.789062 297.421875 91.664062 296.804688 C 91.542969 296.1875 91.449219 295.566406 91.386719 294.9375 C 91.328125 294.3125 91.296875 293.683594 91.296875 293.054688 C 91.296875 292.425781 91.328125 291.796875 91.386719 291.171875 C 91.449219 290.542969 91.542969 289.921875 91.664062 289.304688 C 91.789062 288.6875 91.941406 288.078125 92.125 287.472656 C 92.308594 286.871094 92.519531 286.28125 92.761719 285.699219 C 93.003906 285.117188 93.273438 284.546875 93.570312 283.992188 C 93.867188 283.4375 94.191406 282.898438 94.539062 282.375 C 94.890625 281.851562 95.265625 281.34375 95.664062 280.859375 C 96.066406 280.371094 96.488281 279.90625 96.933594 279.460938 C 97.378906 279.015625 97.847656 278.59375 98.332031 278.195312 C 98.820312 277.792969 99.328125 277.421875 99.851562 277.070312 C 100.375 276.71875 100.914062 276.398438 101.472656 276.101562 C 102.027344 275.804688 102.597656 275.535156 103.179688 275.292969 C 103.761719 275.054688 104.355469 274.839844 104.957031 274.660156 C 105.5625 274.476562 106.171875 274.324219 106.789062 274.199219 C 107.410156 274.078125 108.03125 273.984375 108.660156 273.921875 C 109.285156 273.863281 109.914062 273.832031 110.546875 273.832031 L 191.394531 273.832031 C 192.171875 271.097656 193.039062 268.394531 193.988281 265.714844 C 194.9375 263.039062 195.972656 260.394531 197.089844 257.78125 C 198.207031 255.171875 199.40625 252.597656 200.691406 250.0625 C 201.972656 247.527344 203.332031 245.035156 204.773438 242.585938 C 206.214844 240.136719 207.730469 237.734375 209.324219 235.382812 C 210.917969 233.03125 212.585938 230.730469 214.324219 228.484375 C 216.066406 226.234375 217.875 224.046875 219.753906 221.914062 C 221.632812 219.78125 223.578125 217.710938 225.589844 215.703125 C 227.601562 213.695312 229.675781 211.753906 231.808594 209.875 C 233.945312 208 236.136719 206.191406 238.386719 204.453125 C 240.636719 202.714844 242.941406 201.050781 245.296875 199.460938 C 247.652344 197.867188 250.054688 196.355469 252.507812 194.914062 C 254.960938 193.476562 257.457031 192.117188 259.996094 190.835938 C 262.535156 189.554688 265.109375 188.355469 267.726562 187.242188 C 270.339844 186.125 272.988281 185.089844 275.671875 184.140625 C 278.351562 183.195312 281.058594 182.332031 283.796875 181.554688 L 283.796875 100.8125 C 283.796875 100.183594 283.765625 99.554688 283.703125 98.929688 C 283.640625 98.300781 283.546875 97.679688 283.425781 97.0625 C 283.304688 96.445312 283.148438 95.835938 282.964844 95.234375 C 282.785156 94.628906 282.570312 94.039062 282.332031 93.457031 C 282.089844 92.875 281.820312 92.304688 281.523438 91.75 C 281.226562 91.195312 280.902344 90.65625 280.550781 90.132812 C 280.199219 89.609375 279.824219 89.105469 279.425781 88.617188 C 279.027344 88.132812 278.601562 87.664062 278.15625 87.21875 C 277.710938 86.773438 277.246094 86.351562 276.757812 85.953125 C 276.269531 85.554688 275.765625 85.179688 275.242188 84.828125 C 274.714844 84.480469 274.175781 84.15625 273.621094 83.859375 C 273.0625 83.5625 272.496094 83.292969 271.914062 83.050781 C 271.328125 82.8125 270.738281 82.601562 270.132812 82.417969 C 269.53125 82.234375 268.917969 82.082031 268.300781 81.957031 C 267.683594 81.835938 267.058594 81.742188 266.433594 81.683594 C 265.804688 81.621094 265.175781 81.589844 264.546875 81.589844 L 245.296875 81.589844 C 244.664062 81.589844 244.035156 81.558594 243.410156 81.496094 C 242.78125 81.433594 242.160156 81.34375 241.539062 81.21875 C 240.921875 81.097656 240.3125 80.945312 239.707031 80.761719 C 239.105469 80.578125 238.511719 80.367188 237.929688 80.125 C 237.347656 79.886719 236.777344 79.617188 236.222656 79.320312 C 235.664062 79.023438 235.125 78.699219 234.601562 78.347656 C 234.078125 78 233.570312 77.625 233.082031 77.226562 C 232.597656 76.824219 232.128906 76.402344 231.683594 75.957031 C 231.238281 75.511719 230.816406 75.046875 230.414062 74.5625 C 230.015625 74.074219 229.640625 73.570312 229.289062 73.046875 C 228.941406 72.523438 228.617188 71.984375 228.320312 71.425781 C 228.019531 70.871094 227.753906 70.304688 227.511719 69.722656 C 227.269531 69.140625 227.058594 68.546875 226.875 67.945312 C 226.691406 67.34375 226.539062 66.734375 226.414062 66.117188 C 226.292969 65.5 226.199219 64.875 226.136719 64.25 C 226.078125 63.621094 226.046875 62.996094 226.046875 62.363281 C 226.046875 61.734375 226.078125 61.109375 226.136719 60.480469 C 226.199219 59.855469 226.292969 59.230469 226.414062 58.613281 C 226.539062 57.996094 226.691406 57.386719 226.875 56.785156 C 227.058594 56.183594 227.269531 55.589844 227.511719 55.007812 C 227.753906 54.425781 228.019531 53.859375 228.320312 53.304688 C 228.617188 52.746094 228.941406 52.207031 229.289062 51.683594 C 229.640625 51.160156 230.015625 50.65625 230.414062 50.167969 C 230.816406 49.683594 231.238281 49.21875 231.683594 48.773438 C 232.128906 48.328125 232.597656 47.902344 233.082031 47.503906 C 233.570312 47.105469 234.078125 46.730469 234.601562 46.378906 C 235.125 46.03125 235.664062 45.707031 236.222656 45.410156 C 236.777344 45.113281 237.347656 44.84375 237.929688 44.605469 C 238.511719 44.363281 239.105469 44.152344 239.707031 43.96875 C 240.3125 43.785156 240.921875 43.632812 241.539062 43.511719 C 242.160156 43.386719 242.78125 43.296875 243.410156 43.234375 C 244.035156 43.171875 244.664062 43.140625 245.296875 43.140625 L 264.546875 43.140625 C 266.4375 43.144531 268.324219 43.238281 270.203125 43.425781 C 272.085938 43.609375 273.953125 43.890625 275.808594 44.257812 C 277.664062 44.628906 279.492188 45.089844 281.304688 45.636719 C 283.113281 46.1875 284.890625 46.824219 286.636719 47.546875 C 288.382812 48.269531 290.089844 49.078125 291.757812 49.96875 C 293.425781 50.859375 295.042969 51.828125 296.617188 52.878906 C 298.1875 53.929688 299.703125 55.050781 301.167969 56.25 C 302.628906 57.449219 304.027344 58.714844 305.363281 60.050781 C 306.703125 61.386719 307.96875 62.78125 309.167969 64.242188 C 310.367188 65.703125 311.496094 67.214844 312.546875 68.785156 C 313.597656 70.355469 314.566406 71.972656 315.460938 73.636719 C 316.351562 75.304688 317.160156 77.007812 317.882812 78.753906 C 318.609375 80.496094 319.246094 82.273438 319.796875 84.078125 C 320.347656 85.886719 320.804688 87.714844 321.175781 89.566406 C 321.546875 91.417969 321.824219 93.285156 322.011719 95.164062 C 322.199219 97.042969 322.292969 98.925781 322.296875 100.8125 L 322.296875 196.933594 C 322.296875 198.070312 322.195312 199.199219 321.996094 200.316406 C 321.796875 201.4375 321.5 202.527344 321.105469 203.59375 C 320.710938 204.660156 320.222656 205.683594 319.648438 206.664062 C 319.074219 207.644531 318.414062 208.566406 317.675781 209.429688 C 316.933594 210.292969 316.125 211.085938 315.246094 211.808594 C 314.363281 212.527344 313.425781 213.164062 312.433594 213.71875 C 311.441406 214.273438 310.40625 214.734375 309.328125 215.105469 C 308.253906 215.476562 307.152344 215.75 306.03125 215.925781 C 303.527344 216.3125 301.046875 216.796875 298.585938 217.375 C 296.125 217.957031 293.6875 218.632812 291.28125 219.40625 C 288.871094 220.179688 286.496094 221.046875 284.15625 222.007812 C 281.816406 222.96875 279.519531 224.023438 277.261719 225.164062 C 275.007812 226.308594 272.800781 227.535156 270.640625 228.851562 C 268.480469 230.171875 266.378906 231.570312 264.328125 233.054688 C 262.28125 234.535156 260.292969 236.097656 258.371094 237.738281 C 256.445312 239.375 254.589844 241.089844 252.800781 242.875 C 251.011719 244.664062 249.296875 246.515625 247.652344 248.4375 C 246.011719 250.359375 244.449219 252.34375 242.964844 254.390625 C 241.476562 256.4375 240.078125 258.535156 238.757812 260.691406 C 237.4375 262.847656 236.207031 265.054688 235.0625 267.308594 C 233.921875 269.558594 232.867188 271.855469 231.90625 274.191406 C 230.941406 276.527344 230.074219 278.898438 229.300781 281.304688 C 228.527344 283.710938 227.847656 286.140625 227.265625 288.601562 C 226.683594 291.058594 226.199219 293.539062 225.816406 296.035156 C 225.636719 297.15625 225.363281 298.253906 224.992188 299.328125 C 224.621094 300.402344 224.160156 301.4375 223.601562 302.429688 C 223.046875 303.421875 222.410156 304.359375 221.6875 305.238281 C 220.96875 306.117188 220.175781 306.925781 219.308594 307.664062 C 218.445312 308.402344 217.523438 309.058594 216.539062 309.632812 C 215.558594 310.210938 214.535156 310.695312 213.464844 311.089844 C 212.398438 311.480469 211.304688 311.777344 210.183594 311.980469 C 209.0625 312.179688 207.933594 312.277344 206.796875 312.277344 Z M 206.796875 312.277344 " fill-opacity="1" fill-rule="nonzero"/><g clip-path="url(#102bd3ff08)"><path fill="#7ed957" d="M 129.796875 216.15625 C 129.386719 216.15625 128.980469 216.144531 128.574219 216.117188 C 128.164062 216.09375 127.757812 216.054688 127.355469 216.003906 C 126.949219 215.949219 126.546875 215.886719 126.144531 215.808594 C 125.746094 215.730469 125.347656 215.640625 124.953125 215.539062 C 124.558594 215.4375 124.167969 215.320312 123.777344 215.191406 C 123.390625 215.066406 123.007812 214.925781 122.628906 214.773438 C 122.25 214.621094 121.878906 214.457031 121.507812 214.28125 C 121.140625 214.109375 120.777344 213.921875 120.421875 213.722656 C 120.066406 213.523438 119.714844 213.3125 119.375 213.09375 C 119.03125 212.871094 118.695312 212.640625 118.367188 212.398438 C 118.039062 212.15625 117.71875 211.90625 117.40625 211.640625 C 117.09375 211.378906 116.789062 211.105469 116.496094 210.824219 C 116.199219 210.542969 115.914062 210.253906 115.636719 209.953125 C 115.363281 209.652344 115.09375 209.34375 114.839844 209.027344 C 114.582031 208.710938 114.335938 208.386719 114.097656 208.054688 C 113.863281 207.722656 113.636719 207.382812 113.421875 207.035156 C 113.207031 206.6875 113.003906 206.335938 112.8125 205.976562 C 112.621094 205.617188 112.441406 205.25 112.273438 204.878906 C 112.105469 204.507812 111.945312 204.132812 111.800781 203.75 C 111.65625 203.371094 111.523438 202.984375 111.40625 202.597656 C 111.285156 202.207031 111.175781 201.8125 111.082031 201.417969 C 110.988281 201.019531 110.90625 200.621094 110.835938 200.21875 C 110.765625 199.820312 110.707031 199.414062 110.664062 199.011719 C 110.621094 198.605469 110.589844 198.199219 110.570312 197.792969 C 110.550781 197.386719 110.546875 196.976562 110.554688 196.570312 C 110.5625 196.164062 110.582031 195.757812 110.617188 195.351562 C 110.648438 194.945312 110.695312 194.539062 110.757812 194.136719 C 110.816406 193.734375 110.886719 193.332031 110.972656 192.933594 C 111.058594 192.535156 111.15625 192.140625 111.265625 191.746094 C 111.375 191.355469 111.496094 190.964844 111.632812 190.582031 C 111.769531 190.195312 111.914062 189.816406 112.074219 189.441406 C 112.234375 189.066406 112.402344 188.695312 112.585938 188.332031 L 137.148438 139.261719 L 110.546875 139.261719 C 110.136719 139.261719 109.730469 139.25 109.324219 139.222656 C 108.914062 139.195312 108.507812 139.160156 108.105469 139.105469 C 107.699219 139.054688 107.296875 138.992188 106.894531 138.914062 C 106.496094 138.835938 106.097656 138.746094 105.703125 138.644531 C 105.304688 138.542969 104.914062 138.425781 104.527344 138.300781 C 104.140625 138.171875 103.757812 138.03125 103.378906 137.878906 C 103 137.730469 102.625 137.566406 102.257812 137.390625 C 101.886719 137.214844 101.523438 137.027344 101.167969 136.828125 C 100.8125 136.628906 100.460938 136.421875 100.121094 136.199219 C 99.777344 135.980469 99.441406 135.75 99.113281 135.507812 C 98.785156 135.265625 98.464844 135.011719 98.152344 134.75 C 97.839844 134.488281 97.535156 134.214844 97.238281 133.933594 C 96.945312 133.652344 96.660156 133.359375 96.382812 133.0625 C 96.105469 132.761719 95.839844 132.453125 95.582031 132.136719 C 95.324219 131.820312 95.078125 131.496094 94.84375 131.164062 C 94.605469 130.828125 94.378906 130.488281 94.164062 130.144531 C 93.953125 129.796875 93.75 129.441406 93.554688 129.082031 C 93.363281 128.722656 93.183594 128.359375 93.015625 127.988281 C 92.847656 127.617188 92.6875 127.238281 92.542969 126.859375 C 92.398438 126.476562 92.265625 126.09375 92.144531 125.703125 C 92.027344 125.3125 91.917969 124.921875 91.824219 124.523438 C 91.726562 124.128906 91.644531 123.730469 91.574219 123.328125 C 91.503906 122.925781 91.449219 122.523438 91.40625 122.117188 C 91.359375 121.710938 91.328125 121.304688 91.3125 120.898438 C 91.292969 120.492188 91.289062 120.082031 91.296875 119.675781 C 91.300781 119.269531 91.324219 118.859375 91.355469 118.453125 C 91.390625 118.046875 91.4375 117.644531 91.496094 117.242188 C 91.554688 116.835938 91.628906 116.4375 91.710938 116.039062 C 91.796875 115.640625 91.894531 115.242188 92.003906 114.851562 C 92.117188 114.457031 92.238281 114.070312 92.371094 113.683594 C 92.507812 113.300781 92.65625 112.921875 92.8125 112.542969 C 92.972656 112.167969 93.144531 111.800781 93.328125 111.433594 L 131.828125 34.539062 C 132.109375 33.976562 132.417969 33.425781 132.757812 32.894531 C 133.09375 32.363281 133.457031 31.847656 133.84375 31.347656 C 134.230469 30.851562 134.640625 30.375 135.074219 29.917969 C 135.511719 29.460938 135.964844 29.027344 136.441406 28.613281 C 136.921875 28.203125 137.417969 27.8125 137.933594 27.449219 C 138.445312 27.085938 138.980469 26.75 139.527344 26.4375 C 140.078125 26.128906 140.640625 25.84375 141.214844 25.585938 C 141.792969 25.332031 142.378906 25.105469 142.976562 24.90625 C 143.578125 24.707031 144.183594 24.539062 144.800781 24.398438 C 145.414062 24.261719 146.035156 24.152344 146.660156 24.074219 C 147.289062 23.996094 147.917969 23.949219 148.546875 23.933594 C 149.179688 23.917969 149.808594 23.929688 150.4375 23.976562 C 151.066406 24.023438 151.691406 24.097656 152.3125 24.207031 C 152.933594 24.3125 153.550781 24.449219 154.160156 24.617188 C 154.765625 24.785156 155.367188 24.980469 155.953125 25.207031 C 156.542969 25.433594 157.121094 25.6875 157.683594 25.96875 C 158.25 26.25 158.796875 26.5625 159.332031 26.898438 C 159.863281 27.234375 160.378906 27.59375 160.878906 27.984375 C 161.375 28.371094 161.851562 28.78125 162.3125 29.214844 C 162.769531 29.648438 163.203125 30.101562 163.617188 30.578125 C 164.027344 31.054688 164.417969 31.550781 164.78125 32.066406 C 165.144531 32.582031 165.484375 33.113281 165.792969 33.660156 C 166.105469 34.207031 166.390625 34.769531 166.648438 35.34375 C 166.902344 35.921875 167.132812 36.507812 167.328125 37.105469 C 167.527344 37.703125 167.699219 38.308594 167.835938 38.925781 C 167.976562 39.539062 168.085938 40.160156 168.160156 40.785156 C 168.238281 41.410156 168.289062 42.039062 168.304688 42.667969 C 168.320312 43.296875 168.304688 43.925781 168.261719 44.554688 C 168.214844 45.183594 168.136719 45.808594 168.03125 46.429688 C 167.925781 47.050781 167.785156 47.664062 167.621094 48.269531 C 167.453125 48.878906 167.253906 49.476562 167.027344 50.066406 C 166.800781 50.652344 166.546875 51.230469 166.265625 51.792969 L 141.691406 100.8125 L 168.296875 100.8125 C 168.703125 100.8125 169.113281 100.824219 169.523438 100.851562 C 169.929688 100.875 170.335938 100.914062 170.742188 100.964844 C 171.148438 101.015625 171.550781 101.082031 171.953125 101.15625 C 172.355469 101.234375 172.753906 101.324219 173.148438 101.425781 C 173.546875 101.53125 173.9375 101.644531 174.328125 101.773438 C 174.714844 101.898438 175.101562 102.039062 175.480469 102.191406 C 175.859375 102.34375 176.234375 102.507812 176.601562 102.683594 C 176.972656 102.859375 177.335938 103.042969 177.691406 103.242188 C 178.050781 103.441406 178.402344 103.652344 178.746094 103.875 C 179.089844 104.09375 179.425781 104.328125 179.753906 104.570312 C 180.082031 104.8125 180.402344 105.0625 180.71875 105.328125 C 181.03125 105.589844 181.335938 105.863281 181.628906 106.144531 C 181.925781 106.425781 182.210938 106.71875 182.488281 107.019531 C 182.765625 107.320312 183.03125 107.628906 183.289062 107.945312 C 183.546875 108.265625 183.792969 108.589844 184.03125 108.921875 C 184.265625 109.257812 184.492188 109.597656 184.707031 109.945312 C 184.921875 110.292969 185.125 110.644531 185.316406 111.007812 C 185.511719 111.367188 185.691406 111.734375 185.859375 112.105469 C 186.027344 112.476562 186.183594 112.855469 186.328125 113.238281 C 186.472656 113.617188 186.605469 114.003906 186.726562 114.394531 C 186.847656 114.785156 186.953125 115.179688 187.046875 115.578125 C 187.144531 115.972656 187.226562 116.375 187.296875 116.777344 C 187.363281 117.179688 187.421875 117.582031 187.464844 117.988281 C 187.507812 118.394531 187.539062 118.804688 187.554688 119.210938 C 187.574219 119.621094 187.578125 120.027344 187.570312 120.4375 C 187.5625 120.84375 187.539062 121.253906 187.503906 121.660156 C 187.472656 122.066406 187.421875 122.472656 187.363281 122.875 C 187.304688 123.28125 187.230469 123.679688 187.144531 124.082031 C 187.058594 124.480469 186.957031 124.875 186.847656 125.269531 C 186.734375 125.660156 186.613281 126.050781 186.476562 126.4375 C 186.339844 126.820312 186.191406 127.203125 186.03125 127.578125 C 185.871094 127.953125 185.699219 128.324219 185.515625 128.6875 L 147.015625 205.585938 C 146.613281 206.375 146.164062 207.136719 145.65625 207.867188 C 145.152344 208.597656 144.597656 209.289062 144 209.941406 C 143.398438 210.59375 142.753906 211.203125 142.070312 211.765625 C 141.382812 212.332031 140.664062 212.84375 139.90625 213.308594 C 139.148438 213.773438 138.363281 214.183594 137.550781 214.542969 C 136.738281 214.898438 135.90625 215.195312 135.050781 215.4375 C 134.195312 215.675781 133.328125 215.859375 132.449219 215.980469 C 131.566406 216.097656 130.683594 216.160156 129.796875 216.15625 Z M 129.796875 216.15625 " fill-opacity="1" fill-rule="nonzero"/></g></svg>