<svg xmlns="http://www.w3.org/2000/svg" xmlns:xlink="http://www.w3.org/1999/xlink" width="500" zoomAndPan="magnify" viewBox="0 0 375 374.999991" height="500" preserveAspectRatio="xMidYMid meet" version="1.0"><defs><clipPath id="c811068d23"><path d="M 60 226 L 132 226 L 132 297.53125 L 60 297.53125 Z M 60 226 " clip-rule="nonzero"/></clipPath><clipPath id="4be82bb4d3"><path d="M 249 226 L 321 226 L 321 297.53125 L 249 297.53125 Z M 249 226 " clip-rule="nonzero"/></clipPath></defs><rect x="-37.5" width="450" fill="#ffffff" y="-37.499999" height="449.999989" fill-opacity="1"/><rect x="-37.5" width="450" fill="#ffffff" y="-37.499999" height="449.999989" fill-opacity="1"/><rect x="-37.5" width="450" fill="#ffffff" y="-37.499999" height="449.999989" fill-opacity="1"/><path fill="#566564" d="M 329.125 208.035156 L 52.6875 208.035156 L 52.6875 261.773438 L 329.125 261.773438 L 329.125 208.035156 " fill-opacity="1" fill-rule="nonzero"/><path fill="#40bfbc" d="M 150.074219 90.917969 C 144.074219 92.078125 136.6875 92 131.011719 94.960938 C 125.351562 97.921875 77.503906 137.34375 62.246094 163.199219 C 68.203125 163.199219 65.105469 166.359375 85.714844 165.65625 C 88.640625 165.554688 94.96875 162.800781 98.46875 158.960938 C 102.527344 150.195312 136.515625 105.179688 150.074219 90.917969 " fill-opacity="1" fill-rule="nonzero"/><path fill="#40bfbc" d="M 161.207031 79.785156 C 169.703125 78.085938 234.589844 77.773438 263.171875 82.882812 C 291.753906 87.984375 309.980469 96.496094 309.980469 96.496094 L 302.101562 101.914062 L 161.207031 84.117188 L 161.207031 79.785156 " fill-opacity="1" fill-rule="nonzero"/><path fill="#40bfbc" d="M 225.808594 83.503906 C 214.410156 85.320312 185.824219 86.671875 155.613281 89.308594 C 152.714844 92.082031 149.859375 94.898438 147.101562 97.808594 C 133.914062 111.667969 120.953125 126.808594 112.285156 143.992188 C 109.375 149.746094 106.582031 155.621094 103.972656 161.574219 C 136.621094 169.214844 177.113281 163.128906 198.828125 161.574219 C 245.035156 158.273438 274.953125 133.984375 288.589844 109.949219 C 295.339844 98.050781 252.765625 79.207031 225.808594 83.503906 " fill-opacity="1" fill-rule="nonzero"/><path fill="#72d0d5" d="M 141.960938 165.34375 C 135.726562 165.34375 129.425781 165.117188 123.21875 164.566406 C 130.792969 159.242188 204.082031 91.617188 211.105469 86.023438 C 211.355469 86.027344 211.628906 86.027344 211.921875 86.027344 C 214.429688 86.027344 218.527344 85.925781 223.328125 85.824219 C 228.128906 85.71875 233.625 85.617188 238.925781 85.617188 C 247.839844 85.617188 256.195312 85.910156 259.734375 86.984375 C 251.582031 93.660156 182.382812 161.175781 180.164062 163.238281 C 168.777344 164.28125 155.523438 165.34375 141.960938 165.34375 " fill-opacity="1" fill-rule="nonzero"/><path fill="#e5f7fd" d="M 194.671875 161.90625 C 196.0625 161.785156 197.390625 161.679688 198.660156 161.585938 C 197.394531 161.679688 196.0625 161.789062 194.671875 161.90625 " fill-opacity="1" fill-rule="nonzero"/><path fill="#72d0d5" d="M 274.09375 92.628906 C 272.71875 91.9375 271.277344 91.269531 269.777344 90.628906 C 269.777344 90.628906 269.78125 90.628906 269.78125 90.625 C 271.277344 91.269531 272.71875 91.9375 274.09375 92.628906 " fill-opacity="1" fill-rule="nonzero"/><path fill="#72d0d5" d="M 194.671875 161.90625 C 199.460938 157.839844 268.761719 91.425781 269.777344 90.628906 C 271.277344 91.269531 272.71875 91.9375 274.09375 92.628906 C 276.425781 93.792969 278.566406 95.023438 280.457031 96.28125 C 278.175781 98.050781 216.140625 156.671875 212.644531 159.886719 C 208.210938 160.65625 203.617188 161.234375 198.828125 161.574219 C 198.769531 161.578125 198.71875 161.582031 198.660156 161.585938 C 197.390625 161.679688 196.0625 161.785156 194.671875 161.90625 " fill-opacity="1" fill-rule="nonzero"/><path fill="#27476a" d="M 285.3125 111.75 C 272.351562 134.605469 243.296875 153.445312 199.363281 156.589844 C 178.71875 158.066406 115.699219 162.976562 109.785156 160.835938 C 103.875 158.695312 111.257812 149.269531 114.789062 144.25 C 130.78125 121.496094 138.257812 113.386719 150.785156 100.199219 C 153.410156 97.441406 156.128906 94.765625 158.878906 92.125 C 187.613281 89.617188 234.875 90.601562 250.785156 93.171875 C 278.347656 97.636719 291.730469 100.441406 285.3125 111.75 Z M 345.191406 212.039062 C 341.292969 204.320312 330.019531 189.507812 325.910156 183.003906 C 318.578125 171.460938 321.390625 169.753906 321.238281 156.246094 C 321.136719 147.25 330.371094 108.835938 327.660156 102.511719 C 326.589844 100 318.574219 97.285156 308.332031 94.675781 L 301.722656 95.589844 C 301.722656 95.589844 269.617188 86.804688 261.777344 85.613281 C 226.128906 80.191406 170.320312 81.695312 170.320312 81.695312 L 162.5 78.3125 C 162.207031 78.335938 161.929688 78.363281 161.671875 78.390625 C 156.957031 78.917969 143.363281 86.097656 138.414062 87.183594 C 135.9375 89.722656 133.484375 92.320312 131.011719 94.960938 C 135.171875 93.542969 139.230469 93.347656 143.722656 92.476562 C 130.832031 106.035156 98.714844 147.953125 94.859375 156.292969 C 91.523438 159.941406 85.519531 162.5625 82.730469 162.648438 C 64.789062 163.269531 66.21875 163.214844 62.246094 163.199219 C 62.253906 163.328125 62.269531 163.441406 62.28125 163.566406 C 47.992188 174.925781 33.738281 185.566406 32.699219 205.832031 C 32.359375 212.613281 33.007812 219.21875 34.394531 225.695312 C 25.84375 234.941406 39.105469 261.773438 48.265625 261.773438 L 52.6875 261.773438 C 52.6875 237.730469 72.214844 218.191406 96.191406 218.191406 C 120.1875 218.191406 139.71875 237.730469 139.71875 261.773438 L 241.789062 261.773438 C 241.789062 237.730469 261.316406 218.191406 285.3125 218.191406 C 309.261719 218.191406 328.765625 237.683594 328.820312 261.667969 C 335.800781 260.621094 341.476562 248.21875 342.796875 244.046875 C 344.15625 239.675781 349.050781 219.726562 345.191406 212.039062 " fill-opacity="1" fill-rule="nonzero"/><path fill="#4da3bf" d="M 244.9375 220.160156 C 244.9375 220.160156 327.304688 196.441406 334.542969 195.507812 C 331.097656 190.589844 327.773438 185.945312 325.910156 183.003906 C 322.414062 177.496094 321.230469 174.230469 320.929688 170.851562 C 303.921875 181.3125 269.097656 197.636719 269.097656 197.636719 L 280.457031 168.671875 C 280.457031 168.671875 234.398438 185.785156 209.445312 198.113281 C 207.652344 202.886719 205.410156 207.476562 203.648438 212.246094 C 222.816406 201.246094 259.734375 191.058594 259.734375 191.058594 L 244.9375 220.160156 " fill-opacity="1" fill-rule="nonzero"/><g clip-path="url(#c811068d23)"><path fill="#1f2633" d="M 96.191406 226.054688 C 76.527344 226.054688 60.53125 242.074219 60.53125 261.773438 C 60.53125 281.46875 76.527344 297.488281 96.191406 297.488281 C 115.859375 297.488281 131.878906 281.46875 131.878906 261.773438 C 131.878906 242.074219 115.859375 226.054688 96.191406 226.054688 " fill-opacity="1" fill-rule="nonzero"/></g><g clip-path="url(#4be82bb4d3)"><path fill="#1f2633" d="M 285.3125 226.054688 C 265.648438 226.054688 249.636719 242.074219 249.636719 261.773438 C 249.636719 281.46875 265.648438 297.488281 285.3125 297.488281 C 304.976562 297.488281 320.976562 281.46875 320.976562 261.773438 C 320.976562 242.074219 304.976562 226.054688 285.3125 226.054688 " fill-opacity="1" fill-rule="nonzero"/></g><path fill="#40bfbc" d="M 272.15625 148.480469 C 281.035156 138.328125 305.835938 107.628906 312.941406 109.796875 C 320.046875 111.964844 311.085938 151.886719 304.910156 156.527344 C 298.734375 161.167969 263.511719 158.382812 272.15625 148.480469 " fill-opacity="1" fill-rule="nonzero"/><path fill="#40bfbc" d="M 179.125 192.753906 L 179.167969 192.863281 L 161.015625 198.988281 C 158.613281 199.804688 157.324219 202.410156 158.132812 204.820312 C 158.945312 207.226562 161.546875 208.519531 163.949219 207.707031 L 182.097656 201.585938 L 188.332031 220.113281 L 170.1875 226.238281 C 167.777344 227.046875 166.488281 229.660156 167.296875 232.066406 C 168.105469 234.476562 170.710938 235.769531 173.117188 234.960938 L 191.265625 228.832031 L 191.148438 228.480469 C 192.472656 232.417969 196.738281 234.539062 200.671875 233.214844 L 213.523438 228.875 C 227.3125 224.21875 234.722656 209.257812 230.074219 195.449219 C 225.429688 181.644531 210.488281 174.222656 196.703125 178.875 L 183.847656 183.210938 C 179.914062 184.539062 177.800781 188.8125 179.125 192.753906 " fill-opacity="1" fill-rule="nonzero"/><path fill="#b1aaad" d="M 96.191406 274.894531 C 88.964844 274.894531 83.113281 269.019531 83.113281 261.773438 C 83.113281 254.527344 88.964844 248.648438 96.191406 248.648438 C 103.417969 248.648438 109.292969 254.527344 109.292969 261.773438 C 109.292969 269.019531 103.417969 274.894531 96.191406 274.894531 " fill-opacity="1" fill-rule="nonzero"/><path fill="#b1aaad" d="M 285.996094 274.894531 C 278.761719 274.894531 272.890625 269.019531 272.890625 261.773438 C 272.890625 254.527344 278.761719 248.648438 285.996094 248.648438 C 293.222656 248.648438 299.074219 254.527344 299.074219 261.773438 C 299.074219 269.019531 293.222656 274.894531 285.996094 274.894531 " fill-opacity="1" fill-rule="nonzero"/></svg>