<svg xmlns="http://www.w3.org/2000/svg" xmlns:xlink="http://www.w3.org/1999/xlink" width="500" zoomAndPan="magnify" viewBox="0 0 375 374.999991" height="500" preserveAspectRatio="xMidYMid meet" version="1.0"><defs><clipPath id="1533026a2c"><path d="M 37.5 37.5 L 310.5 37.5 L 310.5 310.5 L 37.5 310.5 Z M 37.5 37.5 " clip-rule="nonzero"/></clipPath></defs><rect x="-37.5" width="450" fill="#ffffff" y="-37.499999" height="449.999989" fill-opacity="1"/><rect x="-37.5" width="450" fill="#ffffff" y="-37.499999" height="449.999989" fill-opacity="1"/><rect x="-37.5" width="450" fill="#ffffff" y="-37.499999" height="449.999989" fill-opacity="1"/><path fill="#ddeeff" d="M 300.75 113.214844 C 300.75 106.054688 297.90625 99.199219 292.828125 94.121094 C 287.800781 89.09375 280.945312 86.25 273.785156 86.25 C 267.082031 86.25 261.75 86.25 261.75 86.25 L 261.75 68.070312 C 261.75 56.59375 252.40625 47.25 240.929688 47.25 C 229.65625 47.25 215.84375 47.25 204.570312 47.25 C 193.042969 47.25 183.75 56.59375 183.75 68.070312 C 183.75 77.363281 183.75 86.25 183.75 86.25 L 173.136719 86.25 C 157.445312 86.25 144.75 98.945312 144.75 114.636719 C 144.75 156.632812 144.75 234.632812 144.75 275.003906 C 144.75 281.859375 147.441406 288.410156 152.265625 293.234375 C 157.089844 298.058594 163.640625 300.75 170.445312 300.75 C 198.019531 300.75 241.792969 300.75 270.890625 300.75 C 287.394531 300.75 300.75 287.394531 300.75 270.890625 C 300.75 228.996094 300.75 153.433594 300.75 113.214844 Z M 300.75 113.214844 " fill-opacity="1" fill-rule="evenodd"/><path fill="#a8cef5" d="M 232.5 174 L 222.75 125.25 L 183.75 213 L 213 213 L 213 252 L 261.75 174 Z M 232.5 174 " fill-opacity="1" fill-rule="evenodd"/><g clip-path="url(#1533026a2c)"><path fill="#375ad0" d="M 261.699219 96 C 256.316406 95.949219 252 91.632812 252 86.25 L 252 66.394531 C 252 61.214844 247.785156 57 242.605469 57 L 202.894531 57 C 197.714844 57 193.5 61.214844 193.5 66.394531 L 193.5 76.5 L 222.75 76.5 C 228.132812 76.5 232.5 80.867188 232.5 86.25 C 232.5 91.632812 228.132812 96 222.75 96 L 173.746094 96 C 168.617188 96 163.742188 98.03125 160.136719 101.636719 C 156.53125 105.242188 154.5 110.167969 154.5 115.246094 L 154.5 193.5 C 154.5 198.882812 150.132812 203.25 144.75 203.25 C 139.367188 203.25 135 198.882812 135 193.5 L 135 183.75 L 105.75 183.75 C 100.367188 183.75 96 179.382812 96 174 C 96 168.617188 100.367188 164.25 105.75 164.25 L 135 164.25 L 135 144.75 L 66.75 144.75 C 61.367188 144.75 57 140.382812 57 135 C 57 129.617188 61.367188 125.25 66.75 125.25 L 135 125.25 L 135 115.246094 C 135 112.046875 135.40625 108.847656 136.167969 105.75 L 125.25 105.75 C 119.867188 105.75 115.5 101.382812 115.5 96 C 115.5 90.617188 119.867188 86.25 125.25 86.25 L 148.050781 86.25 C 155.109375 80.003906 164.25 76.5 173.746094 76.5 L 174 76.5 L 174 66.394531 C 174 50.449219 186.898438 37.5 202.894531 37.5 L 242.605469 37.5 C 258.550781 37.5 271.5 50.449219 271.5 66.394531 L 271.5 76.5 L 271.753906 76.5 C 282.011719 76.5 291.863281 80.5625 299.125 87.824219 C 306.386719 95.136719 310.5 104.988281 310.5 115.246094 L 310.5 271.753906 C 310.5 282.011719 306.386719 291.863281 299.125 299.125 C 291.863281 306.386719 282.011719 310.5 271.753906 310.5 C 243.773438 310.5 201.726562 310.5 173.746094 310.5 C 164.25 310.5 155.109375 306.996094 148.050781 300.75 L 86.25 300.75 C 80.867188 300.75 76.5 296.382812 76.5 291 C 76.5 285.617188 80.867188 281.25 86.25 281.25 L 136.167969 281.25 C 135.40625 278.152344 135 274.953125 135 271.753906 L 135 261.75 L 105.75 261.75 C 100.367188 261.75 96 257.382812 96 252 C 96 246.617188 100.367188 242.25 105.75 242.25 L 135 242.25 L 135 232.5 C 135 227.117188 139.367188 222.75 144.75 222.75 C 150.132812 222.75 154.5 227.117188 154.5 232.5 L 154.5 271.753906 C 154.5 276.832031 156.53125 281.757812 160.136719 285.363281 C 163.742188 288.96875 168.617188 291 173.746094 291 L 271.753906 291 C 276.832031 291 281.757812 288.96875 285.363281 285.363281 C 288.96875 281.757812 291 276.832031 291 271.753906 L 291 115.246094 C 291 110.167969 288.96875 105.242188 285.363281 101.636719 C 281.757812 98.03125 276.832031 96 271.753906 96 Z M 232.296875 123.320312 C 231.484375 119.15625 228.03125 116.007812 223.816406 115.550781 C 219.601562 115.09375 215.539062 117.429688 213.8125 121.289062 L 174.8125 209.039062 C 173.492188 212.035156 173.746094 215.539062 175.574219 218.332031 C 177.351562 221.074219 180.449219 222.75 183.75 222.75 L 203.25 222.75 L 203.25 261.75 C 203.25 266.167969 206.246094 270.078125 210.5625 271.195312 C 214.828125 272.3125 219.347656 270.382812 221.53125 266.472656 L 270.28125 178.722656 C 271.957031 175.726562 271.90625 172.019531 270.128906 169.074219 C 268.402344 166.078125 265.203125 164.25 261.75 164.25 L 240.472656 164.25 Z M 76.5 242.25 L 66.75 242.25 C 61.367188 242.25 57 246.617188 57 252 C 57 257.382812 61.367188 261.75 66.75 261.75 L 76.5 261.75 C 81.882812 261.75 86.25 257.382812 86.25 252 C 86.25 246.617188 81.882812 242.25 76.5 242.25 Z M 219.195312 157.242188 L 222.953125 175.929688 C 223.867188 180.449219 227.828125 183.75 232.5 183.75 L 245.144531 183.75 L 222.75 224.121094 L 222.75 213 C 222.75 207.617188 218.382812 203.25 213 203.25 L 198.730469 203.25 Z M 105.75 203.25 L 47.25 203.25 C 41.867188 203.25 37.5 207.617188 37.5 213 C 37.5 218.382812 41.867188 222.75 47.25 222.75 L 105.75 222.75 C 111.132812 222.75 115.5 218.382812 115.5 213 C 115.5 207.617188 111.132812 203.25 105.75 203.25 Z M 76.5 164.25 L 47.25 164.25 C 41.867188 164.25 37.5 168.617188 37.5 174 C 37.5 179.382812 41.867188 183.75 47.25 183.75 L 76.5 183.75 C 81.882812 183.75 86.25 179.382812 86.25 174 C 86.25 168.617188 81.882812 164.25 76.5 164.25 Z M 96 86.25 L 86.25 86.25 C 80.867188 86.25 76.5 90.617188 76.5 96 C 76.5 101.382812 80.867188 105.75 86.25 105.75 L 96 105.75 C 101.382812 105.75 105.75 101.382812 105.75 96 C 105.75 90.617188 101.382812 86.25 96 86.25 Z M 96 86.25 " fill-opacity="1" fill-rule="evenodd"/></g></svg>