<svg xmlns="http://www.w3.org/2000/svg" xmlns:xlink="http://www.w3.org/1999/xlink" width="500" zoomAndPan="magnify" viewBox="0 0 375 374.999991" height="500" preserveAspectRatio="xMidYMid meet" version="1.0"><defs><clipPath id="1a358b2435"><path d="M 0.300781 308.582031 L 374.660156 308.582031 L 374.660156 318.234375 L 0.300781 318.234375 Z M 0.300781 308.582031 " clip-rule="nonzero"/></clipPath><clipPath id="c071fb5650"><path d="M 9.085938 280.660156 L 366 280.660156 L 366 318.234375 L 9.085938 318.234375 Z M 9.085938 280.660156 " clip-rule="nonzero"/></clipPath><clipPath id="e63b9ba237"><path d="M 22 56.484375 L 350 56.484375 L 350 288 L 22 288 Z M 22 56.484375 " clip-rule="nonzero"/></clipPath><clipPath id="5bb2b4eaaf"><path d="M 193.570312 112.328125 L 322 112.328125 L 322 318.234375 L 193.570312 318.234375 Z M 193.570312 112.328125 " clip-rule="nonzero"/></clipPath></defs><rect x="-37.5" width="450" fill="#ffffff" y="-37.499999" height="449.999989" fill-opacity="1"/><rect x="-37.5" width="450" fill="#ffffff" y="-37.499999" height="449.999989" fill-opacity="1"/><rect x="-37.5" width="450" fill="#ffffff" y="-37.499999" height="449.999989" fill-opacity="1"/><path fill="#edf2f8" d="M 343.464844 293.328125 L 25.257812 293.328125 L 25.257812 62.71875 L 343.464844 62.71875 L 343.464844 293.328125 " fill-opacity="1" fill-rule="nonzero"/><path fill="#4f88ff" d="M 343.464844 268.394531 L 28.378906 268.394531 L 28.378906 78.300781 L 343.464844 78.300781 L 343.464844 268.394531 " fill-opacity="1" fill-rule="nonzero"/><path fill="#74aaff" d="M 343.464844 268.394531 L 37.738281 268.394531 L 37.738281 87.652344 L 343.464844 87.652344 L 343.464844 268.394531 " fill-opacity="1" fill-rule="nonzero"/><path fill="#dce6f6" d="M 209.316406 287.09375 L 209.316406 296.441406 L 165.640625 296.441406 L 165.640625 287.09375 L 12.777344 287.09375 C 12.777344 302.585938 25.347656 315.140625 40.855469 315.140625 L 334.105469 315.140625 C 349.613281 315.140625 362.179688 302.585938 362.179688 287.09375 L 209.316406 287.09375 " fill-opacity="1" fill-rule="nonzero"/><path fill="#4f88ff" d="M 336.601562 78.300781 L 280.445312 78.300781 L 105.746094 268.394531 L 165.019531 268.394531 L 336.601562 78.300781 " fill-opacity="1" fill-rule="nonzero"/><path fill="#4f88ff" d="M 46.472656 268.394531 L 63.804688 268.394531 L 238.507812 78.300781 L 221.171875 78.300781 L 46.472656 268.394531 " fill-opacity="1" fill-rule="nonzero"/><path fill="#e23b3b" d="M 305.484375 118.8125 L 209.859375 118.8125 C 204.390625 118.8125 199.957031 123.242188 199.957031 128.703125 L 199.957031 140.628906 L 315.386719 140.628906 L 315.386719 128.703125 C 315.386719 123.242188 310.953125 118.8125 305.484375 118.8125 " fill-opacity="1" fill-rule="nonzero"/><path fill="#ff5f5f" d="M 295.601562 118.8125 L 209.859375 118.8125 C 204.390625 118.8125 199.957031 123.242188 199.957031 128.703125 L 199.957031 140.628906 L 302.90625 140.628906 L 302.90625 126.113281 C 302.90625 122.082031 299.636719 118.8125 295.601562 118.8125 " fill-opacity="1" fill-rule="nonzero"/><path fill="#e23b3b" d="M 305.484375 312.023438 L 209.859375 312.023438 C 204.390625 312.023438 199.957031 307.597656 199.957031 302.132812 L 199.957031 290.210938 L 315.386719 290.210938 L 315.386719 302.132812 C 315.386719 307.597656 310.953125 312.023438 305.484375 312.023438 " fill-opacity="1" fill-rule="nonzero"/><path fill="#ff5f5f" d="M 295.601562 312.023438 L 209.859375 312.023438 C 204.390625 312.023438 199.957031 307.597656 199.957031 302.132812 L 199.957031 290.210938 L 302.90625 290.210938 L 302.90625 304.726562 C 302.90625 308.757812 299.636719 312.023438 295.601562 312.023438 " fill-opacity="1" fill-rule="nonzero"/><path fill="#edf2f8" d="M 315.386719 293.328125 L 199.957031 293.328125 L 199.957031 137.511719 L 315.386719 137.511719 L 315.386719 293.328125 " fill-opacity="1" fill-rule="nonzero"/><path fill="#dce6f6" d="M 315.386719 293.328125 L 302.90625 293.328125 L 302.90625 137.511719 L 315.386719 137.511719 L 315.386719 293.328125 " fill-opacity="1" fill-rule="nonzero"/><g clip-path="url(#1a358b2435)"><path fill="#252d32" d="M 369.980469 318.257812 L 4.980469 318.257812 C 2.398438 318.257812 0.300781 316.164062 0.300781 313.582031 C 0.300781 311.003906 2.398438 308.910156 4.980469 308.910156 L 369.980469 308.910156 C 372.5625 308.910156 374.660156 311.003906 374.660156 313.582031 C 374.660156 316.164062 372.5625 318.257812 369.980469 318.257812 " fill-opacity="1" fill-rule="nonzero"/></g><g clip-path="url(#c071fb5650)"><path fill="#252d32" d="M 332.542969 318.257812 L 42.414062 318.257812 C 24.351562 318.257812 9.660156 303.578125 9.660156 285.535156 C 9.660156 282.957031 11.757812 280.863281 14.339844 280.863281 L 164.082031 280.863281 C 166.664062 280.863281 168.761719 282.957031 168.761719 285.535156 L 168.761719 290.210938 L 195.277344 290.210938 C 197.863281 290.210938 199.957031 292.304688 199.957031 294.886719 C 199.957031 297.464844 197.863281 299.558594 195.277344 299.558594 L 164.082031 299.558594 C 161.5 299.558594 159.402344 297.464844 159.402344 294.886719 L 159.402344 290.210938 L 19.488281 290.210938 C 21.664062 300.867188 31.117188 308.910156 42.414062 308.910156 L 332.542969 308.910156 C 343.84375 308.910156 353.296875 300.867188 355.472656 290.210938 L 320.066406 290.210938 C 317.480469 290.210938 315.386719 288.117188 315.386719 285.535156 C 315.386719 282.957031 317.480469 280.863281 320.066406 280.863281 L 360.621094 280.863281 C 363.203125 280.863281 365.300781 282.957031 365.300781 285.535156 C 365.300781 303.578125 350.605469 318.257812 332.542969 318.257812 " fill-opacity="1" fill-rule="nonzero"/></g><g clip-path="url(#e63b9ba237)"><path fill="#252d32" d="M 345.023438 287.09375 C 342.441406 287.09375 340.34375 285 340.34375 282.417969 L 340.34375 68.789062 C 340.34375 67.160156 339.015625 65.835938 337.390625 65.835938 L 34.453125 65.835938 C 32.824219 65.835938 31.496094 67.160156 31.496094 68.789062 L 31.496094 282.417969 C 31.496094 285 29.402344 287.09375 26.816406 287.09375 C 24.234375 287.09375 22.136719 285 22.136719 282.417969 L 22.136719 68.789062 C 22.136719 62.007812 27.664062 56.488281 34.453125 56.488281 L 337.390625 56.488281 C 344.179688 56.488281 349.703125 62.007812 349.703125 68.789062 L 349.703125 282.417969 C 349.703125 285 347.605469 287.09375 345.023438 287.09375 " fill-opacity="1" fill-rule="nonzero"/></g><g clip-path="url(#5bb2b4eaaf)"><path fill="#252d32" d="M 209.46875 121.929688 C 205.945312 121.929688 203.078125 124.792969 203.078125 128.3125 L 203.078125 302.527344 C 203.078125 306.042969 205.945312 308.910156 209.46875 308.910156 L 305.878906 308.910156 C 309.398438 308.910156 312.265625 306.042969 312.265625 302.527344 L 312.265625 128.3125 C 312.265625 124.792969 309.398438 121.929688 305.878906 121.929688 Z M 305.878906 318.257812 L 209.46875 318.257812 C 200.78125 318.257812 193.71875 311.203125 193.71875 302.527344 L 193.71875 128.3125 C 193.71875 119.640625 200.78125 112.582031 209.46875 112.582031 L 305.878906 112.582031 C 314.558594 112.582031 321.625 119.640625 321.625 128.3125 L 321.625 302.527344 C 321.625 311.203125 314.558594 318.257812 305.878906 318.257812 " fill-opacity="1" fill-rule="nonzero"/></g><path fill="#252d32" d="M 312.265625 140.628906 L 203.078125 140.628906 C 201.351562 140.628906 199.957031 139.234375 199.957031 137.511719 C 199.957031 135.789062 201.351562 134.394531 203.078125 134.394531 L 312.265625 134.394531 C 313.992188 134.394531 315.386719 135.789062 315.386719 137.511719 C 315.386719 139.234375 313.992188 140.628906 312.265625 140.628906 " fill-opacity="1" fill-rule="nonzero"/><path fill="#252d32" d="M 312.265625 296.441406 L 203.078125 296.441406 C 201.351562 296.441406 199.957031 295.050781 199.957031 293.328125 C 199.957031 291.605469 201.351562 290.210938 203.078125 290.210938 L 312.265625 290.210938 C 313.992188 290.210938 315.386719 291.605469 315.386719 293.328125 C 315.386719 295.050781 313.992188 296.441406 312.265625 296.441406 " fill-opacity="1" fill-rule="nonzero"/></svg>