<svg xmlns="http://www.w3.org/2000/svg" xmlns:xlink="http://www.w3.org/1999/xlink" width="500" zoomAndPan="magnify" viewBox="0 0 375 374.999991" height="500" preserveAspectRatio="xMidYMid meet" version="1.0"><defs><clipPath id="79aaf2d3dc"><path d="M 0 43 L 147 43 L 147 359.757812 L 0 359.757812 Z M 0 43 " clip-rule="nonzero"/></clipPath><clipPath id="dd23dc29be"><path d="M 164 14.007812 L 375 14.007812 L 375 359.757812 L 164 359.757812 Z M 164 14.007812 " clip-rule="nonzero"/></clipPath></defs><rect x="-37.5" width="450" fill="#ffffff" y="-37.499999" height="449.999989" fill-opacity="1"/><rect x="-37.5" width="450" fill="#ffffff" y="-37.499999" height="449.999989" fill-opacity="1"/><rect x="-37.5" width="450" fill="#ffffff" y="-37.499999" height="449.999989" fill-opacity="1"/><g clip-path="url(#79aaf2d3dc)"><path fill="#2c3d53" d="M 140.625 236.660156 C 143.847656 236.660156 146.484375 234.023438 146.484375 230.804688 L 146.484375 60.972656 C 146.484375 51.28125 138.601562 43.40625 128.90625 43.40625 L 17.578125 43.40625 C 7.882812 43.40625 0 51.28125 0 60.972656 L 0 230.804688 C 0 234.023438 2.636719 236.660156 5.859375 236.660156 L 8.789062 236.660156 L 8.789062 248.371094 L 5.859375 248.371094 C 2.636719 248.371094 0 251.007812 0 254.226562 L 0 342.070312 C 0 351.761719 7.882812 359.640625 17.578125 359.640625 L 128.90625 359.640625 C 138.601562 359.640625 146.484375 351.761719 146.484375 342.070312 L 146.484375 254.226562 C 146.484375 251.007812 143.847656 248.371094 140.625 248.371094 L 137.695312 248.371094 L 137.695312 236.660156 L 140.625 236.660156 M 134.765625 342.070312 C 134.765625 345.292969 132.128906 347.925781 128.90625 347.925781 L 17.578125 347.925781 C 14.355469 347.925781 11.71875 345.292969 11.71875 342.070312 L 11.71875 260.085938 L 134.765625 260.085938 L 134.765625 342.070312 M 20.507812 248.371094 L 20.507812 236.660156 L 125.976562 236.660156 L 125.976562 248.371094 L 20.507812 248.371094 M 134.765625 224.945312 L 11.71875 224.945312 L 11.71875 60.972656 C 11.71875 57.75 14.355469 55.117188 17.578125 55.117188 L 128.90625 55.117188 C 132.128906 55.117188 134.765625 57.75 134.765625 60.972656 L 134.765625 224.945312 " fill-opacity="1" fill-rule="nonzero"/></g><path fill="#f35e52" d="M 134.765625 260.082031 L 134.765625 342.070312 C 134.765625 345.289062 132.128906 347.925781 128.90625 347.925781 L 17.578125 347.925781 C 14.355469 347.925781 11.71875 345.289062 11.71875 342.070312 L 11.71875 260.082031 L 134.765625 260.082031 " fill-opacity="1" fill-rule="nonzero"/><path fill="#e4eef6" d="M 125.976562 236.660156 L 125.976562 248.371094 L 20.507812 248.371094 L 20.507812 236.660156 L 125.976562 236.660156 " fill-opacity="1" fill-rule="nonzero"/><path fill="#f35e52" d="M 134.765625 60.972656 L 134.765625 224.945312 L 11.71875 224.945312 L 11.71875 60.972656 C 11.71875 57.753906 14.355469 55.117188 17.578125 55.117188 L 128.90625 55.117188 C 132.128906 55.117188 134.765625 57.753906 134.765625 60.972656 " fill-opacity="1" fill-rule="nonzero"/><path fill="#2c3d53" d="M 29.296875 119.535156 C 26.0625 119.535156 23.4375 122.160156 23.4375 125.390625 L 23.4375 195.664062 C 23.4375 198.902344 26.0625 201.523438 29.296875 201.523438 C 32.53125 201.523438 35.15625 198.902344 35.15625 195.664062 L 35.15625 125.390625 C 35.15625 122.160156 32.53125 119.535156 29.296875 119.535156 " fill-opacity="1" fill-rule="nonzero"/><path fill="#2c3d53" d="M 29.296875 323.039062 C 32.53125 323.039062 35.15625 320.417969 35.15625 317.183594 L 35.15625 290.828125 C 35.15625 287.59375 32.53125 284.972656 29.296875 284.972656 C 26.0625 284.972656 23.4375 287.59375 23.4375 290.828125 L 23.4375 317.183594 C 23.4375 320.417969 26.0625 323.039062 29.296875 323.039062 " fill-opacity="1" fill-rule="nonzero"/><g clip-path="url(#dd23dc29be)"><path fill="#2c3d53" d="M 357.421875 96.109375 L 348.339844 96.109375 C 348.515625 95.175781 348.632812 94.179688 348.632812 93.183594 L 348.632812 28.765625 C 348.632812 20.683594 342.070312 14.125 333.984375 14.125 L 216.796875 14.125 C 208.710938 14.125 202.148438 20.683594 202.148438 28.765625 L 202.148438 93.183594 C 202.148438 94.179688 202.265625 95.175781 202.441406 96.109375 L 181.640625 96.109375 C 171.945312 96.109375 164.0625 103.984375 164.0625 113.679688 L 164.0625 342.070312 C 164.0625 351.761719 171.945312 359.640625 181.640625 359.640625 L 357.421875 359.640625 C 367.117188 359.640625 375 351.761719 375 342.070312 L 375 113.679688 C 375 103.984375 367.117188 96.109375 357.421875 96.109375 M 307.617188 25.835938 L 333.984375 25.835938 C 335.59375 25.835938 336.914062 27.152344 336.914062 28.765625 L 336.914062 93.183594 C 336.914062 94.792969 335.59375 96.109375 333.984375 96.109375 L 307.617188 96.109375 L 307.617188 25.835938 M 213.867188 28.765625 C 213.867188 27.152344 215.1875 25.835938 216.796875 25.835938 L 295.898438 25.835938 L 295.898438 96.109375 L 216.796875 96.109375 C 215.1875 96.109375 213.867188 94.792969 213.867188 93.183594 L 213.867188 28.765625 M 363.28125 342.070312 C 363.28125 345.292969 360.644531 347.925781 357.421875 347.925781 L 181.640625 347.925781 C 178.417969 347.925781 175.78125 345.292969 175.78125 342.070312 L 175.78125 178.097656 L 363.28125 178.097656 L 363.28125 342.070312 M 363.28125 166.386719 L 175.78125 166.386719 L 175.78125 113.679688 C 175.78125 110.457031 178.417969 107.824219 181.640625 107.824219 L 357.421875 107.824219 C 360.644531 107.824219 363.28125 110.457031 363.28125 113.679688 L 363.28125 166.386719 " fill-opacity="1" fill-rule="nonzero"/></g><path fill="#fcd965" d="M 216.796875 25.835938 C 215.183594 25.835938 213.867188 27.152344 213.867188 28.765625 L 213.867188 93.183594 C 213.867188 94.792969 215.183594 96.113281 216.796875 96.113281 L 295.898438 96.113281 L 295.898438 25.835938 L 216.796875 25.835938 M 284.179688 74.152344 C 284.179688 77.371094 281.542969 80.007812 278.320312 80.007812 C 275.097656 80.007812 272.460938 77.371094 272.460938 74.152344 L 272.460938 47.796875 C 272.460938 44.574219 275.097656 41.941406 278.320312 41.941406 C 281.542969 41.941406 284.179688 44.574219 284.179688 47.796875 L 284.179688 74.152344 " fill-opacity="1" fill-rule="nonzero"/><path fill="#d57a41" d="M 333.984375 25.835938 L 307.617188 25.835938 L 307.617188 96.113281 L 333.984375 96.113281 C 335.59375 96.113281 336.914062 94.792969 336.914062 93.183594 L 336.914062 28.765625 C 336.914062 27.152344 335.59375 25.835938 333.984375 25.835938 M 325.195312 78.542969 L 319.335938 78.542969 C 316.113281 78.542969 313.476562 75.90625 313.476562 72.6875 C 313.476562 69.464844 316.113281 66.832031 319.335938 66.832031 L 325.195312 66.832031 C 328.417969 66.832031 331.054688 69.464844 331.054688 72.6875 C 331.054688 75.90625 328.417969 78.542969 325.195312 78.542969 M 325.195312 55.117188 L 319.335938 55.117188 C 316.113281 55.117188 313.476562 52.484375 313.476562 49.261719 C 313.476562 46.039062 316.113281 43.40625 319.335938 43.40625 L 325.195312 43.40625 C 328.417969 43.40625 331.054688 46.039062 331.054688 49.261719 C 331.054688 52.484375 328.417969 55.117188 325.195312 55.117188 " fill-opacity="1" fill-rule="nonzero"/><path fill="#e4eef6" d="M 357.421875 107.824219 L 181.640625 107.824219 C 178.417969 107.824219 175.78125 110.460938 175.78125 113.679688 L 175.78125 166.386719 L 363.28125 166.386719 L 363.28125 113.679688 C 363.28125 110.460938 360.644531 107.824219 357.421875 107.824219 M 210.9375 142.960938 L 193.359375 142.960938 C 190.136719 142.960938 187.5 140.324219 187.5 137.101562 C 187.5 133.882812 190.136719 131.25 193.359375 131.25 L 210.9375 131.25 C 214.160156 131.25 216.796875 133.882812 216.796875 137.101562 C 216.796875 140.324219 214.160156 142.960938 210.9375 142.960938 M 287.109375 154.671875 C 277.410156 154.671875 269.53125 146.796875 269.53125 137.101562 C 269.53125 127.410156 277.410156 119.535156 287.109375 119.535156 C 296.804688 119.535156 304.6875 127.410156 304.6875 137.101562 C 304.6875 146.796875 296.804688 154.671875 287.109375 154.671875 M 333.984375 154.671875 C 324.285156 154.671875 316.40625 146.796875 316.40625 137.101562 C 316.40625 127.410156 324.285156 119.535156 333.984375 119.535156 C 343.683594 119.535156 351.5625 127.410156 351.5625 137.101562 C 351.5625 146.796875 343.683594 154.671875 333.984375 154.671875 " fill-opacity="1" fill-rule="nonzero"/><path fill="#8f7fa3" d="M 175.78125 178.097656 L 175.78125 342.070312 C 175.78125 345.292969 178.417969 347.925781 181.640625 347.925781 L 357.421875 347.925781 C 360.644531 347.925781 363.28125 345.292969 363.28125 342.070312 L 363.28125 178.097656 L 175.78125 178.097656 M 269.53125 324.503906 C 238.828125 324.503906 213.867188 299.554688 213.867188 268.867188 C 213.867188 238.179688 238.828125 213.234375 269.53125 213.234375 C 300.234375 213.234375 325.195312 238.179688 325.195312 268.867188 C 325.195312 299.554688 300.234375 324.503906 269.53125 324.503906 " fill-opacity="1" fill-rule="nonzero"/><path fill="#2c3d53" d="M 269.53125 213.234375 C 238.828125 213.234375 213.867188 238.183594 213.867188 268.867188 C 213.867188 299.554688 238.828125 324.503906 269.53125 324.503906 C 300.234375 324.503906 325.195312 299.554688 325.195312 268.867188 C 325.195312 238.183594 300.234375 213.234375 269.53125 213.234375 M 269.53125 312.789062 C 245.304688 312.789062 225.585938 293.085938 225.585938 268.867188 C 225.585938 244.652344 245.304688 224.949219 269.53125 224.949219 C 293.757812 224.949219 313.476562 244.652344 313.476562 268.867188 C 313.476562 293.085938 293.757812 312.789062 269.53125 312.789062 " fill-opacity="1" fill-rule="nonzero"/><path fill="#e4eef6" d="M 269.53125 224.949219 C 245.300781 224.949219 225.585938 244.652344 225.585938 268.867188 C 225.585938 293.085938 245.300781 312.789062 269.53125 312.789062 C 293.761719 312.789062 313.476562 293.085938 313.476562 268.867188 C 313.476562 244.652344 293.761719 224.949219 269.53125 224.949219 M 249.023438 268.867188 C 249.023438 272.089844 246.386719 274.726562 243.164062 274.726562 C 239.941406 274.726562 237.304688 272.089844 237.304688 268.867188 C 237.304688 251.09375 251.746094 236.660156 269.53125 236.660156 C 272.753906 236.660156 275.390625 239.292969 275.390625 242.515625 C 275.390625 245.738281 272.753906 248.371094 269.53125 248.371094 C 258.222656 248.371094 249.023438 257.566406 249.023438 268.867188 M 269.53125 301.078125 C 266.308594 301.078125 263.671875 298.441406 263.671875 295.222656 C 263.671875 292 266.308594 289.367188 269.53125 289.367188 C 280.839844 289.367188 290.039062 280.171875 290.039062 268.867188 C 290.039062 265.648438 292.675781 263.011719 295.898438 263.011719 C 299.121094 263.011719 301.757812 265.648438 301.757812 268.867188 C 301.757812 286.640625 287.3125 301.078125 269.53125 301.078125 " fill-opacity="1" fill-rule="nonzero"/><path fill="#2c3d53" d="M 301.757812 268.867188 C 301.757812 286.640625 287.316406 301.078125 269.53125 301.078125 C 266.308594 301.078125 263.671875 298.441406 263.671875 295.222656 C 263.671875 292 266.308594 289.363281 269.53125 289.363281 C 280.839844 289.363281 290.039062 280.171875 290.039062 268.867188 C 290.039062 265.648438 292.675781 263.011719 295.898438 263.011719 C 299.121094 263.011719 301.757812 265.648438 301.757812 268.867188 " fill-opacity="1" fill-rule="nonzero"/><path fill="#2c3d53" d="M 275.390625 242.515625 C 275.390625 245.738281 272.753906 248.371094 269.53125 248.371094 C 258.222656 248.371094 249.023438 257.566406 249.023438 268.867188 C 249.023438 272.089844 246.386719 274.726562 243.164062 274.726562 C 239.941406 274.726562 237.304688 272.089844 237.304688 268.867188 C 237.304688 251.09375 251.746094 236.660156 269.53125 236.660156 C 272.753906 236.660156 275.390625 239.292969 275.390625 242.515625 " fill-opacity="1" fill-rule="nonzero"/><path fill="#2c3d53" d="M 216.796875 137.101562 C 216.796875 140.324219 214.160156 142.960938 210.9375 142.960938 L 193.359375 142.960938 C 190.136719 142.960938 187.5 140.324219 187.5 137.101562 C 187.5 133.882812 190.136719 131.25 193.359375 131.25 L 210.9375 131.25 C 214.160156 131.25 216.796875 133.882812 216.796875 137.101562 " fill-opacity="1" fill-rule="nonzero"/><path fill="#2c3d53" d="M 287.109375 119.535156 C 277.410156 119.535156 269.53125 127.414062 269.53125 137.105469 C 269.53125 146.796875 277.410156 154.671875 287.109375 154.671875 C 296.804688 154.671875 304.6875 146.796875 304.6875 137.105469 C 304.6875 127.414062 296.804688 119.535156 287.109375 119.535156 Z M 287.109375 142.960938 C 283.886719 142.960938 281.25 140.324219 281.25 137.105469 C 281.25 133.882812 283.886719 131.25 287.109375 131.25 C 290.332031 131.25 292.96875 133.882812 292.96875 137.105469 C 292.96875 140.324219 290.332031 142.960938 287.109375 142.960938 " fill-opacity="1" fill-rule="nonzero"/><path fill="#d57a41" d="M 292.96875 137.105469 C 292.96875 140.324219 290.332031 142.960938 287.109375 142.960938 C 283.886719 142.960938 281.25 140.324219 281.25 137.105469 C 281.25 133.882812 283.886719 131.25 287.109375 131.25 C 290.332031 131.25 292.96875 133.882812 292.96875 137.105469 " fill-opacity="1" fill-rule="nonzero"/><path fill="#2c3d53" d="M 333.984375 119.535156 C 324.285156 119.535156 316.40625 127.410156 316.40625 137.105469 C 316.40625 146.796875 324.285156 154.671875 333.984375 154.671875 C 343.679688 154.671875 351.5625 146.796875 351.5625 137.105469 C 351.5625 127.410156 343.679688 119.535156 333.984375 119.535156 Z M 333.984375 142.960938 C 330.761719 142.960938 328.125 140.324219 328.125 137.105469 C 328.125 133.882812 330.761719 131.246094 333.984375 131.246094 C 337.207031 131.246094 339.84375 133.882812 339.84375 137.105469 C 339.84375 140.324219 337.207031 142.960938 333.984375 142.960938 " fill-opacity="1" fill-rule="nonzero"/><path fill="#d57a41" d="M 339.84375 137.105469 C 339.84375 140.324219 337.207031 142.960938 333.984375 142.960938 C 330.761719 142.960938 328.125 140.324219 328.125 137.105469 C 328.125 133.882812 330.761719 131.246094 333.984375 131.246094 C 337.207031 131.246094 339.84375 133.882812 339.84375 137.105469 " fill-opacity="1" fill-rule="nonzero"/><path fill="#2c3d53" d="M 284.179688 47.796875 L 284.179688 74.148438 C 284.179688 77.371094 281.542969 80.003906 278.320312 80.003906 C 275.097656 80.003906 272.460938 77.371094 272.460938 74.148438 L 272.460938 47.796875 C 272.460938 44.574219 275.097656 41.941406 278.320312 41.941406 C 281.542969 41.941406 284.179688 44.574219 284.179688 47.796875 " fill-opacity="1" fill-rule="nonzero"/><path fill="#2c3d53" d="M 331.054688 49.261719 C 331.054688 52.480469 328.417969 55.117188 325.195312 55.117188 L 319.335938 55.117188 C 316.113281 55.117188 313.476562 52.480469 313.476562 49.261719 C 313.476562 46.039062 316.113281 43.40625 319.335938 43.40625 L 325.195312 43.40625 C 328.417969 43.40625 331.054688 46.039062 331.054688 49.261719 " fill-opacity="1" fill-rule="nonzero"/><path fill="#2c3d53" d="M 331.054688 72.6875 C 331.054688 75.90625 328.417969 78.542969 325.195312 78.542969 L 319.335938 78.542969 C 316.113281 78.542969 313.476562 75.90625 313.476562 72.6875 C 313.476562 69.464844 316.113281 66.832031 319.335938 66.832031 L 325.195312 66.832031 C 328.417969 66.832031 331.054688 69.464844 331.054688 72.6875 " fill-opacity="1" fill-rule="nonzero"/><path fill="#f68179" d="M 134.765625 260.082031 L 11.71875 260.082031 L 11.71875 265.9375 L 134.765625 265.9375 L 134.765625 260.082031 " fill-opacity="1" fill-rule="nonzero"/><path fill="#f68179" d="M 128.90625 55.117188 L 17.578125 55.117188 C 14.355469 55.117188 11.71875 57.753906 11.71875 60.972656 L 11.71875 66.832031 C 11.71875 63.609375 14.355469 60.972656 17.578125 60.972656 L 128.90625 60.972656 C 132.128906 60.972656 134.765625 63.609375 134.765625 66.832031 L 134.765625 60.972656 C 134.765625 57.753906 132.128906 55.117188 128.90625 55.117188 " fill-opacity="1" fill-rule="nonzero"/><path fill="#d24d44" d="M 134.765625 219.089844 L 11.71875 219.089844 L 11.71875 224.949219 L 134.765625 224.949219 L 134.765625 219.089844 " fill-opacity="1" fill-rule="nonzero"/><path fill="#d24d44" d="M 134.765625 336.214844 C 134.765625 339.433594 132.128906 342.070312 128.90625 342.070312 L 17.578125 342.070312 C 14.355469 342.070312 11.71875 339.433594 11.71875 336.214844 L 11.71875 342.070312 C 11.71875 345.289062 14.355469 347.925781 17.578125 347.925781 L 128.90625 347.925781 C 132.128906 347.925781 134.765625 345.289062 134.765625 342.070312 L 134.765625 336.214844 " fill-opacity="1" fill-rule="nonzero"/><path fill="#d6b856" d="M 213.867188 87.324219 L 213.867188 93.183594 C 213.867188 94.792969 215.1875 96.109375 216.796875 96.109375 L 295.898438 96.109375 L 295.898438 90.253906 L 216.796875 90.253906 C 215.1875 90.253906 213.867188 88.9375 213.867188 87.324219 " fill-opacity="1" fill-rule="nonzero"/><path fill="#ab6238" d="M 336.914062 87.324219 C 336.914062 88.9375 335.59375 90.253906 333.984375 90.253906 L 307.617188 90.253906 L 307.617188 96.109375 L 333.984375 96.109375 C 335.59375 96.109375 336.914062 94.792969 336.914062 93.183594 L 336.914062 87.324219 " fill-opacity="1" fill-rule="nonzero"/><path fill="#da9363" d="M 333.984375 25.835938 L 307.617188 25.835938 L 307.617188 31.691406 L 333.984375 31.691406 C 335.59375 31.691406 336.914062 33.011719 336.914062 34.621094 L 336.914062 28.765625 C 336.914062 27.152344 335.59375 25.835938 333.984375 25.835938 " fill-opacity="1" fill-rule="nonzero"/><path fill="#fae497" d="M 295.898438 25.835938 L 216.796875 25.835938 C 215.183594 25.835938 213.867188 27.152344 213.867188 28.765625 L 213.867188 34.621094 C 213.867188 33.011719 215.183594 31.691406 216.796875 31.691406 L 295.898438 31.691406 L 295.898438 25.835938 " fill-opacity="1" fill-rule="nonzero"/><path fill="#f4f8fc" d="M 357.421875 107.824219 L 181.640625 107.824219 C 178.417969 107.824219 175.78125 110.460938 175.78125 113.679688 L 175.78125 119.535156 C 175.78125 116.3125 178.417969 113.679688 181.640625 113.679688 L 357.421875 113.679688 C 360.644531 113.679688 363.28125 116.3125 363.28125 119.535156 L 363.28125 113.679688 C 363.28125 110.460938 360.644531 107.824219 357.421875 107.824219 " fill-opacity="1" fill-rule="nonzero"/><path fill="#c1c7ce" d="M 363.28125 160.527344 L 175.78125 160.527344 L 175.78125 166.386719 L 363.28125 166.386719 L 363.28125 160.527344 " fill-opacity="1" fill-rule="nonzero"/><path fill="#a08db4" d="M 363.28125 178.097656 L 175.78125 178.097656 L 175.78125 183.953125 L 363.28125 183.953125 L 363.28125 178.097656 " fill-opacity="1" fill-rule="nonzero"/><path fill="#726784" d="M 363.28125 336.214844 C 363.28125 339.433594 360.644531 342.070312 357.421875 342.070312 L 181.640625 342.070312 C 178.417969 342.070312 175.78125 339.433594 175.78125 336.214844 L 175.78125 342.070312 C 175.78125 345.292969 178.417969 347.925781 181.640625 347.925781 L 357.421875 347.925781 C 360.644531 347.925781 363.28125 345.292969 363.28125 342.070312 L 363.28125 336.214844 " fill-opacity="1" fill-rule="nonzero"/><path fill="#f4f8fc" d="M 269.53125 224.945312 C 245.667969 224.945312 226.175781 244.066406 225.597656 267.785156 C 225.617188 267.164062 225.648438 266.550781 225.703125 265.941406 C 225.769531 266.925781 225.863281 267.902344 225.996094 268.867188 C 228.851562 247.398438 247.300781 230.804688 269.53125 230.804688 C 291.761719 230.804688 310.214844 247.398438 313.070312 268.867188 C 313.199219 267.902344 313.292969 266.925781 313.359375 265.941406 C 313.414062 266.558594 313.449219 267.175781 313.464844 267.800781 C 312.894531 244.074219 293.402344 224.945312 269.53125 224.945312 " fill-opacity="1" fill-rule="nonzero"/><path fill="#929ea9" d="M 313.476562 268.867188 C 313.476562 269.226562 313.472656 269.582031 313.464844 269.933594 C 313.472656 269.582031 313.476562 269.226562 313.476562 268.867188 " fill-opacity="1" fill-rule="nonzero"/><path fill="#929ea9" d="M 225.585938 268.867188 C 225.585938 269.230469 225.589844 269.59375 225.601562 269.949219 C 225.589844 269.589844 225.585938 269.230469 225.585938 268.867188 " fill-opacity="1" fill-rule="nonzero"/><path fill="#5f6f7f" d="M 313.464844 267.800781 C 313.472656 268.15625 313.476562 268.511719 313.476562 268.867188 C 313.476562 268.507812 313.472656 268.152344 313.464844 267.800781 M 225.597656 267.785156 C 225.589844 268.144531 225.585938 268.503906 225.585938 268.867188 C 225.585938 268.507812 225.589844 268.144531 225.597656 267.785156 " fill-opacity="1" fill-rule="nonzero"/><path fill="#c1c7ce" d="M 313.070312 268.867188 C 310.214844 290.335938 291.761719 306.933594 269.53125 306.933594 C 247.300781 306.933594 228.851562 290.335938 225.996094 268.867188 C 225.863281 269.835938 225.769531 270.8125 225.703125 271.796875 C 225.648438 271.183594 225.617188 270.570312 225.597656 269.949219 C 226.175781 293.667969 245.667969 312.789062 269.53125 312.789062 C 293.402344 312.789062 312.894531 293.660156 313.464844 269.933594 C 313.449219 270.558594 313.414062 271.179688 313.359375 271.796875 C 313.292969 270.8125 313.199219 269.835938 313.070312 268.867188 " fill-opacity="1" fill-rule="nonzero"/><path fill="#c7cdd1" d="M 313.359375 265.941406 C 313.292969 266.925781 313.195312 267.902344 313.066406 268.867188 C 313.195312 269.835938 313.292969 270.8125 313.359375 271.796875 C 313.414062 271.179688 313.449219 270.5625 313.464844 269.933594 C 313.472656 269.582031 313.476562 269.226562 313.476562 268.867188 C 313.476562 268.511719 313.472656 268.15625 313.464844 267.800781 C 313.449219 267.175781 313.414062 266.558594 313.359375 265.941406 " fill-opacity="1" fill-rule="nonzero"/><path fill="#c7cdd1" d="M 225.703125 265.9375 C 225.648438 266.550781 225.613281 267.164062 225.597656 267.785156 C 225.589844 268.144531 225.585938 268.503906 225.585938 268.867188 C 225.585938 269.230469 225.589844 269.589844 225.597656 269.949219 C 225.613281 270.570312 225.648438 271.183594 225.703125 271.796875 C 225.769531 270.808594 225.863281 269.835938 225.992188 268.867188 C 225.863281 267.902344 225.769531 266.925781 225.703125 265.9375 " fill-opacity="1" fill-rule="nonzero"/></svg>