<svg xmlns="http://www.w3.org/2000/svg" xmlns:xlink="http://www.w3.org/1999/xlink" width="500" zoomAndPan="magnify" viewBox="0 0 375 374.999991" height="500" preserveAspectRatio="xMidYMid meet" version="1.0"><defs><clipPath id="f3525d1a66"><path d="M 55 60.003906 L 320.726562 60.003906 L 320.726562 337.503906 L 55 337.503906 Z M 55 60.003906 " clip-rule="nonzero"/></clipPath></defs><rect x="-37.5" width="450" fill="#ffffff" y="-37.499999" height="449.999989" fill-opacity="1"/><rect x="-37.5" width="450" fill="#ffffff" y="-37.499999" height="449.999989" fill-opacity="1"/><rect x="-37.5" width="450" fill="#ffffff" y="-37.499999" height="449.999989" fill-opacity="1"/><g clip-path="url(#f3525d1a66)"><path fill="#008037" d="M 88.097656 138.925781 C 88.144531 133.730469 88.875 128.347656 90.308594 123.1875 C 83.804688 115.191406 77.523438 106.882812 71.566406 98.398438 L 71.421875 107.21875 C 71.402344 108.355469 70.746094 109.363281 69.796875 109.886719 C 74.617188 120.285156 80.769531 130.085938 88.097656 138.925781 Z M 97.910156 259.355469 L 98.398438 202.601562 C 85.761719 187.117188 73.839844 170.832031 62.8125 154.101562 C 62.722656 166.035156 62.640625 177.921875 62.550781 189.617188 C 62.421875 206.136719 62.304688 222.675781 62.214844 239.199219 L 62.152344 252.769531 C 62.152344 254.257812 62.042969 255.898438 61.945312 257.476562 C 61.726562 260.597656 61.519531 263.816406 62.042969 266.234375 C 62.511719 268.316406 64.175781 270.925781 65.628906 273.222656 C 66.320312 274.296875 66.972656 275.34375 67.539062 276.335938 C 69.714844 280.203125 72.007812 284.144531 74.300781 288.015625 C 81.84375 300.675781 89.976562 313.164062 98.523438 325.257812 C 97.546875 303.164062 97.738281 280.945312 97.910156 259.355469 Z M 98.433594 197.570312 L 98.605469 177.777344 C 85.808594 162.832031 73.839844 146.96875 62.929688 130.554688 C 62.910156 136.507812 62.867188 142.488281 62.828125 148.441406 C 73.820312 165.375 85.78125 181.851562 98.433594 197.570312 Z M 98.648438 172.933594 L 98.710938 166.007812 C 98.695312 165.988281 98.667969 165.988281 98.667969 165.972656 C 85.714844 151.296875 73.730469 135.625 62.957031 119.273438 C 62.957031 121.125 62.957031 122.980469 62.957031 124.828125 C 73.804688 141.539062 85.808594 157.675781 98.648438 172.933594 Z M 100.96875 124.027344 C 98.433594 124.054688 95.933594 124.027344 93.40625 123.945312 C 91.90625 129.25 91.175781 134.804688 91.230469 140.125 C 94.226562 139.898438 97.242188 139.773438 100.246094 139.855469 C 100.308594 139.855469 100.375 139.871094 100.4375 139.898438 C 100.527344 137.15625 100.5625 134.378906 100.5625 131.648438 C 100.5625 130.132812 100.542969 128.617188 100.527344 127.121094 C 100.5 126.03125 100.6875 125 100.96875 124.027344 Z M 108.316406 150.144531 C 108.488281 145.960938 108.566406 141.792969 108.523438 137.976562 C 106.671875 135.355469 105.066406 132.550781 103.703125 129.644531 C 103.75 133.855469 103.703125 138.085938 103.558594 142.269531 C 103.449219 145.03125 105.535156 147.222656 107.746094 149.558594 C 107.9375 149.765625 108.125 149.953125 108.316406 150.144531 Z M 129.894531 134.445312 C 129.894531 134.34375 129.859375 134.191406 129.859375 134.128906 C 129.839844 133.875 129.859375 133.621094 129.839844 133.371094 C 128.214844 131.285156 126.734375 129.042969 125.453125 126.597656 C 125.136719 125.984375 124.613281 125.128906 124.125 124.34375 C 124.019531 124.179688 123.917969 124.007812 123.828125 123.839844 C 117.242188 123.566406 110.859375 123.648438 104.757812 124.089844 C 106.265625 128.128906 108.269531 131.964844 110.714844 135.515625 C 113.894531 134.976562 117.113281 134.992188 120.226562 135.039062 C 123.621094 135.101562 126.84375 135.101562 129.894531 134.445312 Z M 130.191406 121.882812 L 130.210938 121.566406 C 128.972656 121.78125 127.726562 121.972656 126.480469 122.132812 C 126.589844 122.324219 126.71875 122.511719 126.84375 122.703125 C 127.347656 123.550781 127.898438 124.46875 128.234375 125.101562 C 128.757812 126.09375 129.308594 127.019531 129.875 127.921875 C 129.964844 125.886719 130.082031 123.863281 130.191406 121.882812 Z M 131.011719 150.144531 C 131.347656 145.726562 131.582031 141.433594 131.734375 137.265625 C 127.945312 138.292969 124 138.257812 120.191406 138.195312 C 117.242188 138.167969 114.425781 138.148438 111.679688 138.574219 C 111.699219 142.378906 111.617188 146.5 111.445312 150.648438 C 114.695312 150.289062 117.9375 150.351562 121.113281 150.414062 C 124.550781 150.476562 127.816406 150.566406 131.011719 150.144531 Z M 131.292969 155.023438 C 133.269531 155.175781 135.355469 155.066406 137.484375 154.878906 C 136.191406 153.914062 135.054688 152.777344 134.074219 151.53125 C 134.074219 151.578125 134.074219 151.613281 134.074219 151.640625 C 134.007812 152.351562 133.457031 152.941406 132.746094 153.066406 C 128.863281 153.742188 124.886719 153.660156 121.058594 153.570312 C 116.796875 153.472656 112.753906 153.382812 108.839844 154.246094 C 108.710938 154.265625 108.613281 154.292969 108.503906 154.292969 C 108.042969 154.292969 107.601562 154.074219 107.304688 153.722656 C 106.71875 153.046875 106.078125 152.398438 105.472656 151.722656 C 103.171875 149.324219 100.652344 146.625 100.4375 142.949219 C 100.355469 142.964844 100.273438 143.011719 100.164062 143.011719 C 97.421875 142.949219 94.652344 143.027344 91.890625 143.246094 C 95.679688 147.449219 99.722656 151.425781 104.019531 155.113281 C 104.523438 155.554688 104.886719 155.953125 105.03125 156.476562 C 105.046875 156.5 105.066406 156.519531 105.09375 156.539062 C 105.554688 156.945312 106.039062 157.359375 106.464844 157.464844 C 107.765625 157.800781 109.625 157.105469 111.09375 156.566406 L 111.472656 156.4375 C 113.242188 155.78125 115.074219 155.679688 116.84375 155.574219 C 117.386719 155.554688 117.9375 155.511719 118.46875 155.464844 C 120.003906 155.339844 121.519531 155.148438 123.054688 154.988281 C 124.0625 154.878906 125.074219 154.753906 126.113281 154.644531 C 127.457031 154.5 128.59375 154.671875 129.714844 154.832031 C 130.210938 154.898438 130.742188 154.988281 131.292969 155.023438 Z M 140.535156 153.175781 C 140.742188 146.25 141.796875 139.140625 143.648438 132.847656 C 141.375 130.910156 139.289062 129.042969 137.25 127.230469 C 135.957031 126.074219 134.640625 124.894531 133.242188 123.695312 C 133.078125 126.578125 132.953125 129.394531 133 132.234375 C 133.496094 132.847656 134.007812 133.460938 134.550781 134.027344 C 134.820312 134.34375 134.992188 134.742188 134.976562 135.164062 C 134.894531 138.828125 134.675781 142.648438 134.40625 146.546875 C 134.613281 146.671875 134.804688 146.863281 134.929688 147.097656 C 136.21875 149.574219 138.195312 151.675781 140.535156 153.175781 Z M 243.101562 108.796875 C 243.257812 108.191406 243.363281 107.578125 243.492188 106.984375 C 242.28125 107.199219 241.152344 107.425781 240.070312 107.804688 C 237.695312 108.6875 235.207031 109.28125 232.453125 109.632812 C 228.769531 110.140625 225.015625 110.183594 221.414062 110.230469 C 220.042969 110.246094 218.679688 110.265625 217.308594 110.292969 C 210.46875 110.5 203.160156 111.339844 194.296875 112.917969 C 191.894531 113.339844 189.402344 113.953125 186.984375 114.523438 C 182.292969 115.632812 177.429688 116.792969 172.625 116.9375 C 163.71875 117.191406 155.867188 117.824219 148.179688 118.941406 C 150.625 122.050781 152.851562 125.335938 154.855469 128.726562 C 183.601562 122.980469 212.96875 118.832031 242.183594 116.351562 C 242.039062 115.296875 242.117188 114.207031 242.246094 113.089844 C 242.433594 111.617188 242.769531 110.183594 243.101562 108.796875 Z M 258.246094 130.746094 C 254.121094 127.058594 249.699219 123.675781 245.042969 120.679688 C 244.429688 120.285156 243.949219 119.84375 243.542969 119.402344 C 214.449219 121.816406 185.179688 125.949219 156.492188 131.628906 C 158.285156 135.074219 157.78125 139.050781 157.257812 142.882812 C 157.132812 143.8125 157.023438 144.734375 156.914062 145.617188 C 159.082031 145.113281 162.644531 144.460938 168.566406 143.40625 C 169.59375 143.21875 170.324219 143.089844 170.585938 143.027344 C 175.929688 141.984375 181.28125 140.945312 186.652344 139.960938 C 193.871094 138.65625 201.328125 137.898438 208.527344 137.183594 C 211.859375 136.84375 215.207031 136.507812 218.535156 136.113281 C 233.988281 134.300781 246.6875 132.578125 258.246094 130.746094 Z M 259.113281 127.292969 C 259.347656 124.75 259.789062 122.117188 260.441406 119.480469 C 255.746094 115.820312 251.171875 111.824219 246.558594 107.703125 C 246.433594 108.308594 246.304688 108.921875 246.179688 109.535156 C 245.847656 110.878906 245.546875 112.160156 245.386719 113.46875 C 245.042969 116.246094 245.3125 117.082031 246.765625 118.03125 C 251.089844 120.808594 255.214844 123.929688 259.113281 127.292969 Z M 280.3125 126.867188 L 280.375 115.253906 C 278.96875 113.042969 277.496094 110.878906 275.933594 108.796875 C 275.476562 113.78125 275.539062 118.515625 276.125 123.109375 C 277.074219 124.089844 278.003906 125.019531 279.074219 125.757812 C 279.390625 125.964844 279.753906 126.328125 280.121094 126.679688 C 280.1875 126.742188 280.257812 126.804688 280.3125 126.867188 Z M 292.820312 95.726562 C 292.46875 95.347656 292.089844 94.953125 291.855469 94.71875 C 291.441406 94.277344 291.0625 93.898438 290.863281 93.664062 C 289.832031 92.410156 288.777344 91.136719 287.703125 89.875 C 285.601562 87.378906 283.453125 84.886719 281.261719 82.425781 C 279.140625 80.007812 276.457031 76.996094 273.832031 74.203125 C 273.308594 73.632812 272.777344 73.046875 272.226562 72.433594 C 270.421875 70.414062 268.542969 68.332031 266.585938 67.148438 C 265.808594 66.671875 265.558594 66.707031 264.148438 66.988281 C 263.425781 67.113281 262.652344 67.257812 261.765625 67.320312 C 258.609375 67.574219 255.890625 67.90625 252.921875 68.457031 C 249.085938 69.152344 245.234375 69.78125 241.378906 70.433594 L 239.167969 70.792969 C 210.785156 75.546875 181.851562 79.253906 153.1875 81.777344 L 145.191406 82.453125 C 132.511719 83.527344 119.390625 84.636719 106.691406 86.828125 C 105.09375 87.125 103.515625 87.441406 101.933594 87.730469 C 97.703125 88.578125 93.324219 89.460938 88.714844 89.558594 C 84.542969 89.667969 79.867188 90.992188 75.339844 92.300781 C 74.175781 92.617188 73 92.949219 71.835938 93.265625 C 78.324219 102.691406 85.238281 111.933594 92.457031 120.789062 C 92.496094 120.789062 92.539062 120.773438 92.585938 120.773438 C 92.601562 120.773438 92.628906 120.773438 92.648438 120.773438 C 105.425781 121.230469 118.296875 120.394531 130.90625 118.265625 C 131.375 118.203125 131.835938 118.328125 132.175781 118.625 C 134.785156 120.773438 137.105469 122.875 139.351562 124.875 C 141.609375 126.894531 143.917969 128.953125 146.492188 131.097656 C 146.976562 131.503906 147.167969 132.171875 146.976562 132.785156 C 144.929688 139.285156 143.792969 146.84375 143.664062 154.101562 C 144.722656 153.949219 145.777344 153.804688 146.789062 153.695312 C 157.5 152.460938 168.332031 150.710938 178.773438 149.027344 L 271.722656 133.984375 C 271.117188 128.976562 270.65625 123.839844 270.4375 118.894531 C 268.191406 119.355469 265.910156 119.636719 263.632812 119.78125 C 262.542969 123.992188 262 128.195312 262.035156 131.964844 C 262.054688 132.765625 261.488281 133.433594 260.710938 133.542969 C 248.582031 135.5 235.296875 137.3125 218.890625 139.242188 C 215.558594 139.648438 212.191406 139.980469 208.84375 140.3125 C 201.707031 141.035156 194.3125 141.792969 187.21875 143.074219 C 181.867188 144.039062 176.542969 145.074219 171.210938 146.121094 C 170.9375 146.183594 170.179688 146.3125 169.105469 146.5 C 166.246094 147.003906 157.734375 148.546875 156.15625 149.070312 C 155.902344 149.261719 155.570312 149.386719 155.234375 149.386719 C 154.34375 149.386719 153.65625 148.675781 153.65625 147.808594 C 153.65625 147.746094 153.65625 147.683594 153.65625 147.617188 C 153.675781 145.914062 153.898438 144.164062 154.136719 142.460938 C 154.59375 138.90625 155.0625 135.542969 153.628906 132.957031 C 150.914062 127.941406 147.671875 123.1875 144.007812 118.816406 C 143.648438 118.371094 143.546875 117.777344 143.757812 117.238281 C 143.945312 116.703125 144.40625 116.324219 144.972656 116.246094 C 153.675781 114.855469 162.429688 114.082031 172.535156 113.78125 C 177.023438 113.636719 181.722656 112.519531 186.246094 111.445312 C 188.710938 110.859375 191.261719 110.246094 193.746094 109.804688 C 202.761719 108.210938 210.214844 107.34375 217.210938 107.15625 C 218.589844 107.109375 219.988281 107.089844 221.378906 107.074219 C 224.890625 107.027344 228.535156 106.984375 232.054688 106.523438 C 234.554688 106.1875 236.832031 105.640625 239.003906 104.835938 C 240.386719 104.339844 241.804688 104.078125 243.175781 103.828125 C 243.933594 103.683594 244.683594 103.554688 245.421875 103.367188 C 245.953125 103.242188 246.476562 103.367188 246.855469 103.726562 C 252.164062 108.5 257.027344 112.773438 262.144531 116.792969 C 262.289062 116.75 262.417969 116.703125 262.570312 116.6875 C 264.5 116.605469 266.441406 116.351562 268.371094 116.039062 L 258.832031 105.261719 C 258.480469 104.835938 258.355469 104.269531 258.527344 103.746094 C 258.6875 103.195312 259.132812 102.796875 259.679688 102.691406 C 270.339844 100.253906 281.621094 97.75 292.820312 95.726562 Z M 293.667969 100.542969 C 293.667969 100.003906 293.605469 99.40625 293.542969 98.804688 C 283.246094 100.652344 272.886719 102.925781 262.984375 105.179688 L 272.019531 115.40625 C 272.191406 115.40625 272.335938 115.441406 272.480469 115.488281 C 272.460938 112.125 272.648438 108.667969 273.136719 105.054688 C 273.21875 104.375 273.722656 103.855469 274.355469 103.699219 C 280.691406 102.277344 287.179688 101.21875 293.667969 100.542969 Z M 302.234375 111.574219 C 302.234375 111.429688 302.234375 111.257812 302.234375 111.113281 C 302.234375 108.941406 299.335938 106.695312 296.765625 104.691406 C 296.257812 104.3125 295.789062 103.917969 295.3125 103.539062 C 289.480469 104.105469 283.660156 104.988281 277.9375 106.1875 C 279.597656 108.355469 281.117188 110.609375 282.585938 112.855469 C 286.042969 112.078125 289.5625 111.953125 292.972656 111.84375 Z M 283.605469 126.894531 L 302.660156 123.566406 C 302.613281 122.035156 302.550781 120.457031 302.496094 118.894531 C 302.421875 117.523438 302.359375 116.117188 302.304688 114.730469 L 293.082031 115 C 289.898438 115.109375 286.628906 115.234375 283.542969 115.882812 L 283.472656 126.929688 C 283.515625 126.914062 283.5625 126.914062 283.605469 126.894531 Z M 304.300781 129.25 C 304.046875 128.996094 303.796875 128.789062 303.542969 128.535156 C 303.101562 128.03125 302.875 127.398438 302.785156 126.742188 L 284.148438 130.007812 C 283.921875 130.050781 283.644531 130.132812 283.355469 130.214844 C 282.585938 130.402344 281.773438 130.636719 281.015625 130.636719 C 280.738281 130.636719 280.503906 130.621094 280.257812 130.554688 C 279.347656 130.320312 278.589844 129.582031 277.910156 128.953125 C 277.6875 128.726562 277.480469 128.492188 277.261719 128.347656 C 276.042969 127.5 275.003906 126.472656 274.023438 125.441406 C 274.230469 127.859375 274.4375 130.304688 274.734375 132.703125 C 274.78125 132.722656 274.816406 132.722656 274.84375 132.738281 C 275.113281 132.910156 275.304688 133.117188 275.457031 133.371094 L 281.980469 132.324219 C 289.671875 131.078125 296.863281 129.941406 304.300781 129.25 Z M 313.632812 146.816406 C 313.632812 144.542969 313.632812 142.253906 313.632812 139.933594 C 300.132812 142.378906 286.484375 144.734375 272.949219 146.941406 C 244.519531 151.597656 215.628906 155.84375 187.046875 159.566406 C 172.753906 161.425781 158.269531 163.191406 143.964844 164.835938 C 136.789062 165.628906 129.585938 166.429688 122.375 167.1875 C 120.742188 167.359375 119.035156 167.648438 117.386719 167.929688 C 114.605469 168.40625 111.789062 168.894531 108.882812 168.894531 C 107.449219 168.894531 106.023438 168.765625 104.570312 168.496094 C 103.929688 168.371094 103.40625 168.152344 102.898438 167.929688 L 102.835938 176.449219 C 113.578125 174.59375 124.613281 172.761719 135.605469 171.5 C 143.140625 170.660156 150.832031 170.074219 158.269531 169.507812 C 171.527344 168.46875 185.234375 167.421875 198.5 164.835938 C 203.058594 163.921875 207.597656 162.976562 212.15625 162.03125 C 225.917969 159.171875 240.160156 156.222656 254.484375 154.878906 C 258.101562 154.542969 261.703125 154.292969 265.320312 154.058594 C 271.957031 153.597656 278.804688 153.128906 285.457031 152.101562 C 290.230469 151.34375 295.058594 150.351562 299.734375 149.40625 C 304.28125 148.503906 308.957031 147.574219 313.632812 146.816406 Z M 312.984375 171.671875 C 313.632812 164.664062 313.675781 157.257812 313.652344 150.019531 C 309.183594 150.757812 304.707031 151.640625 300.367188 152.496094 C 295.671875 153.472656 290.800781 154.453125 285.945312 155.210938 C 279.15625 156.285156 272.226562 156.753906 265.558594 157.195312 C 261.957031 157.449219 258.355469 157.703125 254.773438 158.015625 C 240.621094 159.34375 226.46875 162.28125 212.804688 165.125 C 208.238281 166.070312 203.664062 167.015625 199.097656 167.929688 C 185.675781 170.550781 171.851562 171.605469 158.492188 172.636719 C 151.101562 173.203125 143.441406 173.796875 135.957031 174.636719 C 124.867188 175.898438 113.683594 177.792969 102.792969 179.640625 L 102.125 259.398438 C 101.933594 282.792969 101.726562 306.953125 103.007812 330.769531 C 167.734375 318.125 233.878906 305.769531 299.644531 294.09375 C 300.617188 293.929688 301.585938 293.648438 302.59375 293.363281 C 303.164062 293.207031 303.730469 293.046875 304.328125 292.894531 C 305.085938 289.167969 305.671875 285.316406 306.179688 280.945312 C 307.234375 271.410156 307.460938 261.457031 307.695312 251.84375 C 307.800781 247.296875 307.902344 242.796875 308.089844 238.316406 C 308.089844 220.703125 309.886719 202.855469 311.609375 185.601562 C 312.070312 180.96875 312.558594 176.324219 312.984375 171.671875 Z M 313.675781 135.667969 C 313.675781 135.515625 313.675781 135.390625 313.675781 135.246094 C 313 134.886719 312.324219 134.535156 311.628906 134.15625 C 310.394531 133.496094 309.148438 132.828125 307.917969 132.070312 C 307.902344 132.070312 307.902344 132.070312 307.902344 132.070312 C 299.375 132.722656 291.269531 134.027344 282.675781 135.417969 L 179.296875 152.144531 C 168.792969 153.824219 157.941406 155.589844 147.148438 156.835938 C 145.984375 156.960938 144.765625 157.132812 143.566406 157.296875 C 143.296875 157.484375 142.996094 157.574219 142.65625 157.574219 C 142.492188 157.574219 142.320312 157.546875 142.160156 157.484375 C 138.46875 157.988281 134.675781 158.433594 131.058594 158.160156 C 130.425781 158.117188 129.839844 158.035156 129.242188 157.953125 C 128.261719 157.800781 127.394531 157.675781 126.417969 157.78125 C 125.410156 157.890625 124.398438 158.015625 123.414062 158.117188 C 121.851562 158.304688 120.300781 158.476562 118.757812 158.621094 C 118.171875 158.667969 117.601562 158.710938 117.015625 158.730469 C 115.410156 158.808594 113.894531 158.902344 112.546875 159.40625 L 112.1875 159.53125 C 110.714844 160.074219 108.984375 160.703125 107.242188 160.703125 C 106.71875 160.703125 106.183594 160.667969 105.679688 160.515625 C 104.542969 160.226562 103.703125 159.503906 103.027344 158.917969 C 102.519531 158.496094 102.160156 158.097656 102.015625 157.546875 C 101.996094 157.546875 101.996094 157.53125 101.980469 157.511719 C 87.042969 144.761719 74.960938 128.679688 66.746094 110.859375 C 66.175781 111.023438 65.609375 111.195312 64.996094 111.402344 C 64.425781 111.574219 63.839844 111.761719 63.253906 111.953125 C 74.707031 129.878906 87.613281 147.050781 101.683594 163.023438 C 101.746094 163.039062 101.828125 163.039062 101.890625 163.066406 C 102.160156 163.128906 102.441406 163.191406 102.710938 163.292969 C 103.171875 163.445312 103.613281 163.652344 104.039062 163.84375 C 104.542969 164.078125 104.984375 164.285156 105.382812 164.347656 C 109.054688 165.085938 112.753906 164.457031 116.671875 163.78125 C 118.394531 163.480469 120.175781 163.191406 121.960938 163.003906 C 129.144531 162.246094 136.320312 161.460938 143.476562 160.640625 C 157.753906 159.027344 172.222656 157.257812 186.5 155.402344 C 215.035156 151.675781 243.886719 147.449219 272.269531 142.804688 C 286.042969 140.546875 299.941406 138.148438 313.675781 135.667969 Z M 318.558594 130.808594 C 319.507812 131.394531 320.050781 132.449219 320.03125 133.558594 C 319.90625 138.042969 319.949219 142.695312 319.96875 147.222656 C 319.996094 155.492188 320.03125 164.03125 319.273438 172.257812 C 318.832031 176.910156 318.371094 181.582031 317.910156 186.234375 C 316.175781 203.34375 314.410156 221.019531 314.410156 238.441406 C 314.21875 243.003906 314.121094 247.484375 314.011719 251.984375 C 313.777344 261.734375 313.550781 271.835938 312.449219 281.636719 C 311.84375 287.050781 311.078125 291.675781 310.078125 296.238281 C 309.777344 297.527344 308.769531 298.476562 307.488281 298.683594 C 306.429688 298.855469 305.402344 299.140625 304.300781 299.441406 C 303.191406 299.753906 302.027344 300.089844 300.761719 300.304688 C 234.175781 312.128906 167.238281 324.628906 101.726562 337.460938 C 101.539062 337.488281 101.320312 337.503906 101.132812 337.503906 C 100.121094 337.503906 99.171875 337.046875 98.558594 336.226562 C 88.007812 321.742188 78.007812 306.617188 68.867188 291.234375 C 66.53125 287.320312 64.238281 283.359375 62.027344 279.429688 C 61.519531 278.527344 60.933594 277.578125 60.300781 276.605469 C 58.550781 273.875 56.574219 270.761719 55.878906 267.605469 C 55.160156 264.277344 55.394531 260.617188 55.644531 257.0625 C 55.753906 255.503906 55.835938 254.050781 55.835938 252.742188 L 55.898438 239.152344 C 55.980469 222.632812 56.113281 206.09375 56.242188 189.582031 C 56.429688 163.355469 56.636719 136.257812 56.65625 109.617188 C 56.65625 108.144531 57.683594 106.855469 59.101562 106.550781 C 60.339844 106.253906 61.675781 105.828125 63.082031 105.386719 C 63.75 105.152344 64.453125 104.945312 65.148438 104.738281 L 65.355469 90.804688 C 65.390625 89.351562 66.386719 88.109375 67.792969 87.792969 C 69.652344 87.351562 71.566406 86.808594 73.605469 86.214844 C 78.515625 84.824219 83.585938 83.375 88.558594 83.246094 C 92.628906 83.148438 96.539062 82.363281 100.6875 81.542969 C 102.332031 81.226562 103.957031 80.894531 105.617188 80.621094 C 118.566406 78.367188 131.835938 77.25 144.660156 76.175781 L 152.644531 75.484375 C 181.136719 72.984375 209.898438 69.296875 238.121094 64.5625 L 240.332031 64.210938 C 244.160156 63.578125 247.996094 62.921875 251.800781 62.226562 C 254.980469 61.65625 257.914062 61.277344 261.296875 61.027344 C 261.910156 60.992188 262.441406 60.882812 262.941406 60.773438 C 264.734375 60.441406 266.984375 60 269.851562 61.746094 C 272.605469 63.425781 274.90625 65.976562 276.929688 68.203125 C 277.433594 68.792969 277.9375 69.359375 278.445312 69.890625 C 281.144531 72.75 283.832031 75.796875 286 78.242188 C 288.210938 80.75 290.402344 83.273438 292.550781 85.816406 C 293.625 87.097656 294.699219 88.371094 295.753906 89.667969 C 295.878906 89.792969 296.089844 90.027344 296.359375 90.300781 C 298.378906 92.335938 299.609375 93.707031 299.609375 95.492188 C 299.609375 96.214844 299.6875 96.945312 299.78125 97.75 C 299.832031 98.207031 299.878906 98.675781 299.921875 99.15625 C 300.148438 99.34375 300.402344 99.535156 300.664062 99.722656 C 304.175781 102.464844 308.5625 105.875 308.5625 111.113281 C 308.5625 113.484375 308.679688 116.101562 308.785156 118.597656 C 308.894531 120.746094 308.992188 122.953125 309.039062 125.082031 C 310.582031 126.472656 312.449219 127.464844 314.554688 128.554688 C 315.863281 129.25 317.214844 129.941406 318.558594 130.808594 " fill-opacity="1" fill-rule="nonzero"/></g><path fill="#008037" d="M 304.597656 172.726562 C 304.660156 168.28125 304.726562 164.09375 304.472656 159.785156 L 204.78125 173.609375 C 200.804688 174.175781 196.867188 174.78125 192.925781 175.375 C 186.859375 176.324219 180.605469 177.289062 174.367188 178 C 151.464844 180.679688 131.535156 183.933594 113.511719 188.003906 L 113.226562 252.457031 C 113.199219 253.464844 113.226562 254.492188 113.242188 255.546875 C 113.277344 259.335938 113.34375 263.25 112.566406 266.785156 C 111.851562 270.066406 111.933594 273.640625 112.015625 277.109375 C 112.042969 278.210938 112.058594 279.300781 112.058594 280.394531 L 112.058594 311.371094 C 113.304688 311.199219 115.011719 311.054688 117.347656 310.847656 L 117.808594 310.800781 C 118.566406 310.738281 119.308594 310.53125 120.082031 310.316406 C 120.933594 310.089844 121.789062 309.855469 122.738281 309.746094 C 125.722656 309.414062 128.800781 309.289062 131.769531 309.179688 C 134.089844 309.082031 136.492188 308.988281 138.828125 308.78125 C 148.511719 307.960938 158.664062 306.65625 170.769531 304.679688 C 180.984375 303.019531 191.328125 301.082031 201.328125 299.207031 L 234.539062 292.984375 C 245.863281 290.855469 257.046875 288.628906 266.460938 286.734375 L 290.382812 281.890625 C 290.890625 281.78125 291.628906 281.699219 292.441406 281.621094 C 293.734375 281.464844 296.703125 281.113281 297.289062 280.582031 C 297.503906 280.25 297.476562 278.777344 297.476562 278.148438 C 297.476562 277.769531 297.476562 277.453125 297.476562 277.199219 C 297.566406 275.34375 297.648438 273.496094 297.710938 271.664062 C 297.792969 269.625 297.792969 267.578125 297.8125 265.523438 C 297.839844 261.355469 297.855469 257.035156 298.425781 252.832031 C 298.550781 251.761719 298.679688 250.707031 298.785156 249.675781 C 298.996094 247.71875 299.210938 245.71875 299.609375 243.679688 C 300.210938 240.558594 300.257812 237.277344 300.304688 234.121094 L 300.304688 233.425781 C 300.320312 232.039062 300.445312 230.648438 300.574219 229.289062 C 300.78125 227.03125 300.96875 224.90625 300.699219 222.847656 C 300.132812 218.683594 300.851562 214.613281 301.546875 210.664062 C 301.835938 209.058594 302.117188 207.445312 302.324219 205.839844 C 303.417969 196.8125 304.15625 187.625 304.554688 178.53125 C 304.535156 176.640625 304.570312 174.683594 304.597656 172.726562 Z M 307.613281 159.421875 C 307.902344 163.921875 307.820312 168.433594 307.757812 172.761719 C 307.730469 174.699219 307.695312 176.65625 307.695312 178.613281 C 307.316406 187.832031 306.558594 197.109375 305.464844 206.21875 C 305.25 207.886719 304.949219 209.546875 304.660156 211.234375 C 303.96875 215.101562 303.308594 218.746094 303.824219 222.40625 C 304.15625 224.824219 303.949219 227.242188 303.714844 229.574219 C 303.605469 230.929688 303.480469 232.210938 303.460938 233.472656 L 303.460938 234.167969 C 303.417969 237.46875 303.378906 240.902344 302.703125 244.265625 C 302.324219 246.179688 302.136719 248.035156 301.925781 250.011719 C 301.820312 251.085938 301.691406 252.15625 301.546875 253.25 C 301.015625 257.253906 300.996094 261.457031 300.96875 265.539062 C 300.953125 267.625 300.953125 269.707031 300.871094 271.773438 C 300.808594 273.621094 300.71875 275.46875 300.636719 277.34375 C 300.636719 277.550781 300.636719 277.804688 300.636719 278.101562 C 300.664062 279.636719 300.683594 281.53125 299.644531 282.691406 C 298.488281 283.992188 296.089844 284.371094 292.804688 284.75 C 292.089844 284.839844 291.441406 284.902344 290.988281 284.984375 L 267.089844 289.828125 C 257.660156 291.71875 246.476562 293.949219 235.105469 296.074219 L 201.921875 302.296875 C 191.894531 304.175781 181.535156 306.132812 171.28125 307.789062 C 159.082031 309.773438 148.847656 311.101562 139.097656 311.9375 C 136.699219 312.144531 134.253906 312.238281 131.878906 312.316406 C 128.972656 312.445312 125.984375 312.550781 123.097656 312.886719 C 122.375 312.96875 121.679688 313.164062 120.933594 313.363281 C 120.046875 313.597656 119.136719 313.851562 118.125 313.960938 L 117.601562 314.003906 C 113.226562 314.355469 111.808594 314.589844 111.347656 314.699219 C 111.09375 314.859375 110.796875 314.949219 110.480469 314.949219 C 109.597656 314.949219 108.902344 314.257812 108.902344 313.390625 L 108.902344 280.394531 C 108.902344 279.320312 108.882812 278.246094 108.855469 277.175781 C 108.777344 273.539062 108.695312 269.769531 109.496094 266.109375 C 110.191406 262.90625 110.121094 259.183594 110.085938 255.585938 C 110.066406 254.511719 110.039062 253.464844 110.066406 252.457031 L 110.355469 186.710938 C 110.355469 185.980469 110.859375 185.351562 111.574219 185.199219 C 130.046875 180.996094 150.46875 177.621094 174.015625 174.871094 C 180.179688 174.148438 186.417969 173.183594 192.4375 172.257812 C 196.398438 171.652344 200.359375 171.039062 204.339844 170.488281 L 305.707031 156.410156 C 306.132812 156.347656 306.574219 156.476562 306.917969 156.753906 C 307.253906 157.023438 307.460938 157.421875 307.503906 157.84375 C 307.539062 158.367188 307.585938 158.902344 307.613281 159.421875 " fill-opacity="1" fill-rule="nonzero"/><path fill="#008037" d="M 253.996094 185.132812 C 252.921875 185.242188 251.722656 185.289062 250.441406 185.324219 C 249.65625 185.351562 249.003906 185.351562 248.582031 185.414062 C 246.242188 185.667969 243.886719 185.875 241.523438 186.0625 C 237.796875 186.398438 233.925781 186.738281 230.222656 187.28125 C 228.09375 187.597656 226.136719 188.316406 224.03125 189.046875 C 221.777344 189.832031 219.457031 190.652344 216.914062 190.988281 C 214.359375 191.320312 211.605469 191.347656 208.925781 191.347656 C 205.132812 191.367188 201.21875 191.382812 197.933594 192.332031 C 195.179688 193.132812 194.332031 195.046875 193.050781 198.355469 L 192.753906 199.113281 C 189.261719 208.078125 185.558594 217.121094 181.957031 225.878906 C 180.621094 229.132812 179.296875 232.378906 177.96875 235.636719 L 189.476562 234.734375 L 189.496094 234.734375 C 190.359375 234.652344 191.109375 235.320312 191.171875 236.1875 C 191.246094 236.960938 190.714844 237.65625 190 237.847656 C 189.089844 238.457031 186.6875 241.992188 185.765625 243.335938 C 185.179688 244.203125 184.691406 244.898438 184.441406 245.230469 L 177.589844 253.734375 C 176.101562 255.566406 174.558594 257.398438 173.007812 259.226562 C 170.398438 262.320312 167.71875 265.496094 165.316406 268.742188 C 166.671875 268.632812 167.96875 268.363281 169.421875 268.066406 L 169.847656 267.957031 C 172.121094 267.480469 174.414062 267.371094 176.652344 267.371094 C 177.535156 267.371094 178.394531 267.390625 179.242188 267.417969 L 181.171875 267.433594 C 181.851562 267.433594 182.457031 267.875 182.671875 268.527344 C 182.878906 269.183594 182.644531 269.878906 182.101562 270.273438 C 178.3125 273.097656 175.742188 277.03125 173.023438 281.214844 C 172.265625 282.378906 171.507812 283.53125 170.714844 284.667969 L 163.195312 295.527344 C 163.230469 295.507812 163.277344 295.480469 163.320312 295.460938 C 164.433594 294.914062 165.488281 294.40625 166.183594 294.011719 C 169.703125 291.847656 173.230469 289.609375 176.6875 287.382812 C 180.164062 285.128906 183.65625 282.902344 187.15625 280.644531 C 198.890625 273.160156 210.945312 265.433594 222.21875 256.972656 C 220.957031 256.890625 219.476562 256.746094 217.75 256.558594 C 216.550781 256.433594 215.558594 256.304688 214.988281 256.304688 C 213.863281 256.277344 212.699219 256.304688 211.542969 256.304688 C 209.648438 256.34375 207.707031 256.367188 205.792969 256.214844 C 205.496094 256.199219 205.226562 256.199219 204.953125 256.199219 C 203.789062 256.152344 202.507812 256.117188 201.730469 255.105469 C 201.246094 254.492188 201.117188 253.71875 201.351562 252.769531 C 201.769531 250.976562 204.339844 249.316406 209.898438 246.242188 C 210.929688 245.699219 211.769531 245.230469 212.238281 244.914062 C 226.199219 235.601562 237.96875 227.554688 248.789062 218.148438 L 234.539062 219.503906 C 233.925781 219.566406 233.3125 219.25 233.023438 218.71875 C 232.707031 218.175781 232.742188 217.5 233.101562 216.996094 C 240.558594 206.769531 247.570312 196.054688 253.996094 185.132812 Z M 258.292969 181.410156 C 258.878906 181.914062 259.066406 182.699219 258.6875 183.367188 C 252.246094 194.539062 245.195312 205.507812 237.695312 216.03125 L 253.300781 214.550781 C 253.949219 214.488281 254.609375 214.867188 254.898438 215.480469 C 255.179688 216.113281 255.007812 216.824219 254.519531 217.292969 C 242.515625 228.25 229.609375 237.117188 213.980469 247.550781 C 213.5 247.882812 212.554688 248.386719 211.433594 249.019531 C 209.792969 249.902344 206.300781 251.84375 204.910156 253.042969 C 204.953125 253.042969 204.992188 253.042969 205.035156 253.042969 C 205.351562 253.042969 205.683594 253.058594 206.019531 253.085938 C 207.796875 253.210938 209.664062 253.1875 211.480469 253.148438 C 212.679688 253.148438 213.878906 253.121094 215.0625 253.148438 C 215.667969 253.167969 216.785156 253.277344 218.09375 253.421875 C 220.277344 253.65625 225.378906 254.195312 226.453125 253.71875 C 227.148438 253.210938 228.113281 253.339844 228.644531 253.988281 C 229.167969 254.683594 229.058594 255.675781 228.382812 256.214844 C 228.363281 256.214844 228.363281 256.214844 228.363281 256.242188 C 215.8125 266.0625 202.101562 274.839844 188.863281 283.324219 C 185.359375 285.550781 181.867188 287.78125 178.410156 290.015625 C 174.9375 292.289062 171.363281 294.515625 167.824219 296.679688 C 167.003906 297.183594 165.867188 297.734375 164.683594 298.304688 C 162.519531 299.332031 159.566406 300.746094 158.765625 301.902344 L 158.765625 301.917969 C 158.457031 302.363281 157.96875 302.597656 157.464844 302.597656 C 157.148438 302.597656 156.832031 302.515625 156.5625 302.324219 C 156.121094 302.011719 155.886719 301.523438 155.886719 301.019531 C 155.886719 300.703125 155.96875 300.386719 156.15625 300.117188 L 168.125 282.863281 C 168.871094 281.765625 169.628906 280.628906 170.371094 279.492188 C 172.390625 276.398438 174.457031 273.242188 177.066406 270.527344 C 174.8125 270.546875 172.644531 270.589844 170.496094 271.050781 L 170.074219 271.140625 C 167.484375 271.683594 165.019531 272.214844 162.113281 271.773438 C 161.570312 271.683594 161.101562 271.347656 160.894531 270.84375 C 160.6875 270.339844 160.730469 269.769531 161.046875 269.328125 C 163.910156 265.097656 167.320312 261.078125 170.585938 257.207031 C 172.121094 255.378906 173.65625 253.5625 175.125 251.734375 L 181.976562 243.257812 C 182.203125 242.960938 182.625 242.328125 183.160156 241.570312 C 184.0625 240.226562 184.835938 239.109375 185.515625 238.207031 L 175.675781 238.980469 C 175.125 239.027344 174.601562 238.792969 174.269531 238.351562 C 173.953125 237.910156 173.890625 237.324219 174.078125 236.816406 C 175.722656 232.777344 177.382812 228.738281 179.042969 224.695312 C 182.625 215.941406 186.316406 206.894531 189.808594 197.949219 L 190.097656 197.21875 C 191.371094 193.953125 192.671875 190.5625 197.046875 189.300781 C 200.757812 188.226562 204.910156 188.210938 208.925781 188.191406 C 211.605469 188.191406 214.152344 188.164062 216.515625 187.847656 C 218.71875 187.578125 220.785156 186.839844 222.976562 186.0625 C 225.125 185.304688 227.335938 184.53125 229.738281 184.167969 C 233.5625 183.601562 237.480469 183.269531 241.253906 182.925781 C 243.589844 182.71875 245.910156 182.527344 248.230469 182.257812 C 248.707031 182.210938 249.464844 182.195312 250.332031 182.167969 C 251.757812 182.132812 255.511719 182.023438 256.226562 181.4375 C 256.8125 180.949219 257.722656 180.933594 258.292969 181.410156 " fill-opacity="1" fill-rule="nonzero"/></svg>