<svg xmlns="http://www.w3.org/2000/svg" xmlns:xlink="http://www.w3.org/1999/xlink" width="500" zoomAndPan="magnify" viewBox="0 0 375 374.999991" height="500" preserveAspectRatio="xMidYMid meet" version="1.0"><rect x="-37.5" width="450" fill="#ffffff" y="-37.499999" height="449.999989" fill-opacity="1"/><rect x="-37.5" width="450" fill="#ffffff" y="-37.499999" height="449.999989" fill-opacity="1"/><rect x="-37.5" width="450" fill="#ffffff" y="-37.499999" height="449.999989" fill-opacity="1"/><path fill="#3e721d" d="M 301.070312 293.15625 C 297.832031 293.15625 294.699219 291.472656 292.988281 288.46875 L 253.597656 223.585938 C 251.050781 219.128906 252.046875 213.546875 256.5 210.992188 L 302.613281 183.089844 C 304.066406 182.261719 307.226562 181.542969 308.789062 181.542969 C 312.027344 181.542969 315.039062 183.386719 316.75 186.390625 L 345.648438 234.027344 L 347.175781 254.789062 C 349.722656 259.242188 338.265625 265.800781 333.800781 268.347656 L 305.664062 291.925781 C 304.222656 292.765625 302.632812 293.15625 301.070312 293.15625 Z M 301.070312 293.15625 " fill-opacity="1" fill-rule="nonzero"/><path fill="#77b255" d="M 235.953125 321.058594 C 230.8125 321.058594 226.652344 316.898438 226.652344 311.757812 L 226.652344 255.953125 C 226.652344 250.808594 230.8125 246.652344 235.953125 246.652344 L 328.964844 246.652344 C 346.167969 246.652344 343.378906 230.085938 343.378906 230.085938 C 343.378906 230.085938 346.421875 235.3125 346.867188 236.140625 C 349.910156 241.851562 351.925781 250.574219 347.183594 259.4375 L 318.453125 316.378906 C 317.105469 319.066406 313.886719 321.058594 310.359375 321.058594 Z M 235.953125 321.058594 " fill-opacity="1" fill-rule="nonzero"/><path fill="#77b255" d="M 226.652344 348.960938 C 224.234375 348.960938 221.855469 348.011719 220.078125 346.234375 L 164.273438 290.429688 C 160.636719 286.792969 160.636719 280.914062 164.273438 277.277344 L 220.078125 221.472656 C 221.855469 219.695312 224.234375 218.746094 226.652344 218.746094 C 227.851562 218.746094 229.0625 218.972656 230.214844 219.453125 C 233.695312 220.886719 235.953125 224.292969 235.953125 228.046875 L 235.953125 339.660156 C 235.953125 343.417969 233.695312 346.820312 230.214844 348.253906 C 229.0625 348.738281 227.851562 348.960938 226.652344 348.960938 Z M 226.652344 348.960938 " fill-opacity="1" fill-rule="nonzero"/><path fill="#3e721d" d="M 213.566406 54.113281 C 215.035156 56.996094 214.960938 60.550781 213.066406 63.453125 L 173.136719 128 C 170.320312 132.304688 164.894531 133.941406 160.597656 131.125 L 114.800781 102.71875 C 113.40625 101.800781 111.324219 99.304688 110.617188 97.921875 C 109.148438 95.039062 109.417969 91.523438 111.3125 88.621094 L 140.628906 41.242188 L 158.433594 30.460938 C 161.25 26.15625 172.289062 33.390625 176.597656 36.21875 L 210.367188 50.578125 C 211.78125 51.5 212.859375 52.738281 213.566406 54.113281 Z M 213.566406 54.113281 " fill-opacity="1" fill-rule="nonzero"/><path fill="#77b255" d="M 267.988281 99.464844 C 270.320312 104.050781 268.515625 109.640625 263.921875 111.984375 L 214.191406 137.320312 C 209.613281 139.644531 204.015625 137.832031 201.691406 133.253906 L 159.445312 50.382812 C 151.640625 35.046875 138.148438 45.054688 138.148438 45.054688 C 138.148438 45.054688 141.421875 39.976562 141.960938 39.195312 C 145.671875 33.894531 152.515625 28.144531 162.570312 28.339844 L 226.367188 28.082031 C 229.378906 28.082031 232.605469 30.023438 234.214844 33.167969 Z M 267.988281 99.464844 " fill-opacity="1" fill-rule="nonzero"/><path fill="#77b255" d="M 297.070312 95.09375 C 298.167969 97.242188 298.398438 99.789062 297.628906 102.179688 L 273.25 177.246094 C 271.667969 182.128906 266.425781 184.800781 261.53125 183.21875 L 186.472656 158.824219 C 184.074219 158.050781 182.160156 156.359375 181.050781 154.210938 C 180.503906 153.148438 180.160156 151.957031 180.054688 150.710938 C 179.757812 146.953125 181.769531 143.402344 185.117188 141.699219 L 284.5625 91.027344 C 287.910156 89.316406 291.953125 89.78125 294.820312 92.238281 C 295.777344 93.039062 296.53125 94.023438 297.070312 95.09375 Z M 297.070312 95.09375 " fill-opacity="1" fill-rule="nonzero"/><path fill="#3e721d" d="M 53.425781 251.691406 C 55.109375 248.929688 58.167969 247.132812 61.628906 247.238281 L 137.53125 247.28125 C 142.675781 247.441406 146.917969 251.1875 146.789062 256.324219 L 146.65625 310.222656 C 146.609375 311.894531 145.578125 314.984375 144.769531 316.304688 C 143.085938 319.066406 139.941406 320.695312 136.480469 320.59375 L 80.769531 320.519531 L 62.234375 311.039062 C 57.109375 310.882812 57.460938 297.695312 57.59375 292.570312 L 52.078125 256.257812 C 52.113281 254.59375 52.617188 253.023438 53.425781 251.691406 Z M 53.425781 251.691406 " fill-opacity="1" fill-rule="nonzero"/><path fill="#77b255" d="M 63.433594 181.5625 C 66.101562 177.171875 71.824219 175.777344 76.210938 178.449219 L 123.886719 207.457031 C 128.289062 210.125 129.671875 215.835938 127.003906 220.234375 L 78.667969 299.691406 C 69.738281 314.386719 85.335938 320.621094 85.335938 320.621094 C 85.335938 320.621094 79.292969 320.488281 78.351562 320.433594 C 71.878906 320.082031 63.386719 317.261719 58.269531 308.613281 L 24.546875 254.480469 C 22.957031 251.925781 22.929688 248.136719 24.761719 245.125 Z M 63.433594 181.5625 " fill-opacity="1" fill-rule="nonzero"/><path fill="#77b255" d="M 44.421875 159.121094 C 45.6875 157.035156 47.722656 155.511719 50.171875 154.898438 L 126.855469 136.238281 C 131.851562 135.011719 136.871094 138.074219 138.089844 143.066406 L 156.757812 219.742188 C 157.351562 222.199219 156.914062 224.710938 155.660156 226.785156 C 155.046875 227.796875 154.21875 228.71875 153.203125 229.460938 C 150.171875 231.675781 146.097656 231.84375 142.882812 229.890625 L 47.546875 171.898438 C 44.328125 169.9375 42.609375 166.234375 43.183594 162.523438 C 43.371094 161.277344 43.800781 160.144531 44.421875 159.121094 Z M 44.421875 159.121094 " fill-opacity="1" fill-rule="nonzero"/></svg>